<svg xmlns="http://www.w3.org/2000/svg" viewBox="0 0 181.88 155.37"><defs><style>.cls-1{fill:#562d8a;}.cls-2{fill:#f4916e;}.cls-3{fill:#6d52a4;}.cls-4{fill:#c74c76;}.cls-5{fill:#8856a4;}.cls-6{fill:#9b68b8;}.cls-7{fill:#482574;}.cls-8{fill:#8956a8;}.cls-9{fill:#d8663c;}.cls-10{fill:#6f42a9;}.cls-11{fill:#6f41a9;}.cls-12{fill:#f3916d;}.cls-13{fill:#463592;}.cls-14{fill:#8651a4;}.cls-15{fill:#e0856d;}.cls-16{fill:#feb79e;}.cls-17{fill:#9c68b8;}.cls-18{fill:#8467be;}.cls-19{fill:#9b5a84;}.cls-20{fill:#985987;}.cls-21{fill:#9c5a7e;}.cls-22{fill:#955141;}.cls-23{fill:#9a5a85;}.cls-24{fill:#8b598a;}.cls-25{fill:#d85b85;}.cls-26{fill:#d56188;}.cls-27{fill:#794894;}.cls-28{fill:#6e41a8;}.cls-29{fill:#413a46;}.cls-30{fill:#7a4894;}.cls-31{fill:#ef8f6e;}.cls-32{fill:#ec9e98;}.cls-33{fill:#875499;}.cls-34{fill:#8752a4;}.cls-35{fill:#562d8b;}.cls-36{fill:#473592;}.cls-37{fill:#453c4b;}.cls-38{fill:#9e6296;}.cls-39{fill:#e2724a;}.cls-40{fill:#fdb69e;}.cls-41{fill:#8b57a2;}.cls-42{fill:#d56288;}.cls-43{fill:#956abd;}.cls-44{fill:#8752a5;}.cls-45{fill:#492574;}.cls-46{fill:#9e6196;}.cls-47{fill:#9a619c;}.cls-48{fill:#875fa1;}.cls-49{fill:#a06395;}.cls-50{fill:#524868;}.cls-51{fill:#54496b;}.cls-52{fill:#413b47;}.cls-53{fill:#8459ad;}.cls-54{fill:#e17b8c;}.cls-55{fill:#794893;}.cls-56{fill:#784893;}.cls-57{fill:#403a46;}.cls-58{fill:#473d4f;}.cls-59{fill:#492675;}</style></defs><g id="Layer_2" data-name="Layer 2"><g id="Layer_12" data-name="Layer 12"><path class="cls-1" d="M57,4A7.25,7.25,0,0,0,61.9,6.86a6.21,6.21,0,0,1,3,1.61c1.89,2.61,1.14,5.67-1.76,7.28a7.52,7.52,0,0,1-6.09.38,7.94,7.94,0,0,1-1.88-.78c-1.32-.82-2.38-1.13-3.81.18-1.74,1.58-5.36,1.57-7.33,0s-2.2-1.42-3,.86c-.12.35-.24.7-.37,1-1.32,3.49-3.36,4.33-6.72,2.75-1.42-1-3.06-.32-3.92,1.54-.4.87-.18,1.88-.68,2.72A2,2,0,0,0,28.78,26c0,.74-.06,1.47,0,2.2a7.52,7.52,0,0,1-4,7.54c4.13.92,6.88,2.63,6.09,7.06-.79,1-2.08,1.13-3,1.94a29.88,29.88,0,0,0-5.23,6.83,18.37,18.37,0,0,1-1.92,2.68,2.45,2.45,0,0,1-2.2,1c-3.2.15-5.38-1.55-6.88-4.1-3.9-6.64-3.3-13.64,1.65-19.54a10,10,0,0,1,5.69-3.67c.84-.3.61-1,.56-1.6-.21-3.09.06-6.09,2-8.64s3.91-4.57,7.38-4.24c.61.05,1.12-.06,1.26-.84.72-4.19,3.25-7.07,6.79-9.14A18.25,18.25,0,0,1,52.47,1.66a8.27,8.27,0,0,1,3.58,2.46C56.53,4.66,56.75,4.47,57,4Z"/><path class="cls-2" d="M68.14,142a31.49,31.49,0,0,1-4.52-49.62,1.34,1.34,0,0,0,.26-2.07q-5.73-9.22-11.34-18.52c-.64-1.07-1.08-1.14-2.15-.55A33.94,33.94,0,1,1,28.08,8.16c1-.19,2.08-.24,3.12-.35.36,1.82-.54,3.14-1.72,4.34-3.94.07-7.31,1.87-10.54,3.77A28.7,28.7,0,0,0,4.69,36.62c-1.63,9.51,1.12,17.84,7.49,25a7.37,7.37,0,0,0,1.46,1.64c5.75,6.19,13.2,8.17,21.26,8.32,2.77,0,5.66,0,8.35-1.1a25.33,25.33,0,0,0,2.67-1.3c2.17-1.12,4-2.77,6.07-4A5.36,5.36,0,0,0,53.64,64a6.75,6.75,0,0,0,2.9-2.49,8.14,8.14,0,0,1,2.19-2.15,3,3,0,0,1,3.13,1.67c0,1.8-1.4,2.74-2.34,3.93a21.61,21.61,0,0,1-4.14,3.85c-.88.65-.87,1.23-.32,2.12q5.32,8.55,10.63,17.11c.47.75,1,.9,1.67.4a13.65,13.65,0,0,1,3.38-1.67c.55-.2,1.1-.39,1.61.09a1.34,1.34,0,0,1,.07,1.34,17.83,17.83,0,0,1-3,4.8c-1.6.57-2.59,1.94-3.65,3.1-7,7.59-9.26,16.44-6.75,26.47,1.49,6,5,10.61,9.76,14.37a8,8,0,0,1,2,1.75A3.3,3.3,0,0,1,68.14,142Z"/><path class="cls-3" d="M174,59.88a36.46,36.46,0,0,1,7.77,16.59,9.8,9.8,0,0,1-.84,6.14,5.25,5.25,0,0,1-3.38,2.81,164.07,164.07,0,0,1-17.78,4c-1,.17-1.93.47-2.91.63-.73.12-1.52.19-1.74-.83-.13-.3-.27-.59-.42-.89-.17-1.06.26-2.16-.17-3.22a1.8,1.8,0,0,1,0-.46,9.65,9.65,0,0,0-.24-1.78,2.57,2.57,0,0,1,0-.68,5.57,5.57,0,0,0,0-2.19,1.68,1.68,0,0,1,0-.5c.24-1,0-2,.25-2.92a1.86,1.86,0,0,1,1.78-1.06c1-.06,2,0,3-.11.66-.1,1.31.36,2,0a10.86,10.86,0,0,0,1.11-.33,13.18,13.18,0,0,0,1.93-.54c1.55-.41,1.71-.75,1.12-2.28a21.33,21.33,0,0,0-.14-3.57,19.61,19.61,0,0,1-.34-4,9.11,9.11,0,0,0,0-1.81,5.29,5.29,0,0,1,2.08-4.5,4.52,4.52,0,0,1,3.49-.76C172,57.84,173.37,58.24,174,59.88Z"/><path class="cls-4" d="M61.53,61.29c-.74-.93-1.87-1.1-2.88-1.51-1.39.24-2.52-.58-3.73-1a23.07,23.07,0,0,1-6.12-2.75c-.65-1.4-.21-2.9-.43-4.33A20.58,20.58,0,0,0,47,45.94a2.1,2.1,0,0,1-.24-1.52c.39-.66,1-.63,1.65-.56a38.74,38.74,0,0,1,6.94,1.28c1.82.54,3.69.77,5.54,1.15a2.54,2.54,0,0,0,2.39-.88,28.08,28.08,0,0,0,4.38-5.73,2.32,2.32,0,0,1,1.6-1.36c.72-1.1,1.42-2.2,2.16-3.29,1.21-1.78,1.37-1.81,3.24-.8A50.46,50.46,0,0,1,80,37.45a.91.91,0,0,1,.36,1.23c1,.5,1.27,1.58,1.82,2.44a2.86,2.86,0,0,1-.47,1.68,52.35,52.35,0,0,1-4.52,7.55c-2.19,3.2-4.36,6.42-6.67,9.54S65.17,63.27,61.53,61.29Z"/><path class="cls-1" d="M166.75,19.1a1.74,1.74,0,0,0,1.05,1c5.48,1.78,7.83,6.23,6.39,11.94-.32,1.26-.6,2.53-.89,3.8a.91.91,0,0,1-.9.73,12.93,12.93,0,0,1-4.21,0c-1-.8-.72-2-.86-3s-.09-2-.19-3a4.73,4.73,0,0,0-4.12-4.5c-2-.44-4-1-6.05.18-1.81,1-3.91.52-5.78-.29a1.71,1.71,0,0,0-2.5.74,25,25,0,0,0-2.29,3.94c-.32.78-.74,1.4-1.68,1.43a1.42,1.42,0,0,1-.91-.41,10.92,10.92,0,0,0-2.21-2.84,6.39,6.39,0,0,1-1.45-6.4,1.72,1.72,0,0,1,.48-1c1.46-1,1.18-2.42,1.26-3.87.16-2.9,3.5-6.1,6.49-6.4,2.83-.29,5.44.16,7.49,2.35.5.53,1,.41,1.55.13a6.09,6.09,0,0,1,8.41,3.45A4.5,4.5,0,0,0,166.75,19.1Z"/><path class="cls-5" d="M112.28,95.06c-.57.93-.45,2-.71,3,0,2.05-1.73,2.1-3,2.63a6.35,6.35,0,0,0-3.69,1.39,10.41,10.41,0,0,1-6.33,2.29c-2.39.3-4.77.53-6.94-.9a6.84,6.84,0,0,1-2-1c-.34-.61-1.31-.82-1.08-1.78.6-.82,1.57-.74,2.41-.91a9.89,9.89,0,0,0,3.34-1.32c.32-.2.6-.5.43-.91a.71.71,0,0,0-.94-.35,17.68,17.68,0,0,1-5.41.79c-.66,0-1,.77-1.67.79-1,0-1.26-.79-1.69-1.45-1.14-1.7-1-3.84-2-5.6a3.88,3.88,0,0,0-1.28-2.55,1.88,1.88,0,0,1-.23-1.63,3.91,3.91,0,0,1,2.21-2.64c.67-.42,1.52-.43,2.09-1,.45-.35,1.24-.13,1.46-.86,2.06-4.63,5.41-6.38,9.9-5.54a2,2,0,0,1,1.66,1.26A10.63,10.63,0,0,1,98.82,80c.11,2.23.83,4.13,3.11,5,1.89.7,2.4,2.13,2.48,4,.06,1.48-.22,3,.24,4.47.68-.07.82-.6,1.14-.91a3,3,0,0,1,4.87.29A26.1,26.1,0,0,1,112.28,95.06Z"/><path class="cls-2" d="M81.32,42.44a1.46,1.46,0,0,1,.9-1.32c5.81.79,11.64,1.55,17.45,2.38q12.54,1.78,25.06,3.65c1,.15,1.56,0,1.91-1.14a24.34,24.34,0,0,1,10.5-13.7c1.51-.05,2.62.9,3.85,1.55a.73.73,0,0,1-.17.68c-4.65,2.85-8.27,6.61-10,11.86a19.78,19.78,0,0,0,2.37,18c.54.84,1.1,1.66,1.71,2.45,2,1.76,3.75,3.93,6.45,4.79,2.31.61,4.52,1.57,6.93,1.77a2,2,0,0,1,1.19,2.41,2,2,0,0,1-1.91,1.75c-1.41.15-3,.91-4.12-.66A20.09,20.09,0,0,1,136,73.34c-1.12-.89-1.66-.59-2.52.29C127.9,79.35,122.32,85,116.74,90.68c-.39.4-.69.95-1.35,1-1.33-.92-.67-2-.32-3.13,3.24-3.94,7.07-7.32,10.63-11,1.76-1.81,3.29-3.82,5.16-5.52.85-.76.73-1.47,0-2.3a24.59,24.59,0,0,1-5.55-11.32,22.18,22.18,0,0,1-.44-7.66c.15-1.08-.21-1.54-1.26-1.71-4.4-.71-8.83-1.2-13.24-1.82-6.49-.91-13-1.79-19.48-2.69-2.65-.37-5.3-.71-8-1.12A1.79,1.79,0,0,1,81.32,42.44Z"/><path class="cls-6" d="M174.27,36.73c3,2.75,2.66,6.62-.64,8.55-.58,1.35-1.9,1.28-3,1.59-.24.1-.52.19-.63.44-1.24,3-3.58,5.2-5.94,7.34a19.52,19.52,0,0,1-8.39,1.7c-6.23-1.82-9.9-6.11-11.75-12.16l-.06-.31c-.69-2.7-.32-3.23,2.51-3.55,1,.37,2.05,0,3,.42.68.41.72,1.1.78,1.78a2.31,2.31,0,0,0,.76,1.66c.52.44,1.09.9,1.83.65s.64-1,.7-1.6a37.88,37.88,0,0,0,.35-4.52c0-.7.14-1.37,1-1.59,1.2.07,1.56.82,1.63,1.89.11,1.77.43,2.14,2.19,2.45a56,56,0,0,0,6.07.61c1.52.11,2.06-.4,2.27-1.93.07-.52.07-1,.12-1.56s.17-1.16.88-1.31c.83.3.76,1,.8,1.7.06,1.1,0,2.2,0,3.3,0,.3,0,.69.39.75s.52-.29.66-.56a17.31,17.31,0,0,0,1-3.14c.27-.94.37-2,1.24-2.63C172.78,36.63,173.53,36.26,174.27,36.73Z"/><path class="cls-7" d="M34,19.73a5.52,5.52,0,0,1,1.08.16c2.12.73,3.38.31,4.37-1.68.54-1.08.83-2.27,1.29-3.39.64-1.58,1.38-1.81,2.64-.7,2.15,1.89,4.46,2.46,7.09,1.14.37-.18.85-.4,1-.72C52.2,13,53,13.14,54.26,14c1.93,1.28,4.11,2.23,6.52,1.77C64.4,15.09,65.72,13,65,9.4c-.06-.31-.08-.62-.12-.93a6.64,6.64,0,0,1,3.34,4.32c1.17,4,.74,6.84-3.28,9.1-.64,1.41-2,.95-3.09,1.2a3.94,3.94,0,0,1-2.53-.32,3.32,3.32,0,0,1-1.85-.63,19.34,19.34,0,0,1-4.24-4c-.31-.47-.74-.32-1,0a6.6,6.6,0,0,1-4.57,2.36,2.45,2.45,0,0,1-1.64-.2c-3.38-1.17-3.37-1.17-4.1,2.19a16.57,16.57,0,0,1-1.65,4.72c-1.49,2.62-4.67,2.75-6.14.13a10,10,0,0,1-1.37-5.73C32.81,20.76,33,19.94,34,19.73Z"/><path class="cls-6" d="M80.4,38.68a7.26,7.26,0,0,0-2.7-1.84,5.71,5.71,0,0,1-3-2.61c-.7-3.28.28-6.54.12-9.82a1.06,1.06,0,0,1,1-1.18,1.61,1.61,0,0,1,1.66,1.39c.24,1,.32,2.06.47,3.15.68,0,.73-.62.91-1.06.88-2,1.72-4,2.63-6,.34-.73.65-1.69,1.74-1.49s1.2,1.16,1.23,2.08c-.12.32-.29.68.32.64a10.82,10.82,0,0,1,.74-1.39c.51-.69,1.17-1.39,2.1-1a1.82,1.82,0,0,1,.87,2.18c-.29,1.2-.75,2.36-1.25,3.87.91-.69,1.53-1.2,2.2-1.64.47-.3,1-.65,1.6-.24s.54,1.11.39,1.72a10,10,0,0,1-.61,1.44c-.12.31-.46.61.11.88,1.31.64.68,1.52.11,2.17q-1.94,2.17-4,4.2c-1.33,1.27-2.74,2.45-4.13,3.66A3.23,3.23,0,0,1,80.4,38.68Z"/><path class="cls-8" d="M143.39,76.93a10.36,10.36,0,0,0,4.15,0c1-.15,1.13-.77,1.31-1.6.21-1-.47-1.08-1-1.32a7.22,7.22,0,0,1,2.6-2.37c.6,0,1.19,0,1.78,0a3.1,3.1,0,0,1,2.34,1.92c.07.92.53,1.82.09,2.75a16.35,16.35,0,0,0,.17,3.7v0a3.44,3.44,0,0,1,0,2.22v.6c.41.6-.09,1.34.33,1.93v0a8.45,8.45,0,0,1,0,3.54c0,.33,0,.65,0,1a.69.69,0,0,0-.85-.13c-2.18,1-4.5.78-6.79.74-4-.07-5-1-4.76-4.81.08-1.69-.48-2-1.9-2.07a8.15,8.15,0,0,1-3.24-.5,1.88,1.88,0,0,1-.92-3.06c1.07-1.71,2.81-2,4.62-2.2A5.63,5.63,0,0,0,143.39,76.93Z"/><path class="cls-2" d="M108.47,100.06a5.68,5.68,0,0,0,3.1-2,31.38,31.38,0,0,1-5.42,41.08A30.85,30.85,0,0,1,88,146.91c-1.28,0-.86-.77-.5-1.36a7.1,7.1,0,0,1,4.74-3.33c1.47-.77,3.2-.93,4.53-2a21.06,21.06,0,0,0,6.52-3.28,4.65,4.65,0,0,0,1.91-2.56,60.31,60.31,0,0,1,3.86-5.27,7.86,7.86,0,0,0,2.55-4.46,6,6,0,0,0,.76-5,1.9,1.9,0,0,1,0-1.37c.76-2.87,0-5.68-.41-8.48a24.87,24.87,0,0,0-2.89-7.75A2.67,2.67,0,0,1,108.47,100.06Z"/><path class="cls-7" d="M69.25,38.32a31.29,31.29,0,0,1-5.6,7.73,3.26,3.26,0,0,1-3.28.92c-2.91-.65-5.83-1.28-8.75-1.86-1.54-.31-3.1-.49-4.65-.73a1.75,1.75,0,0,1-2.86-.3,1.61,1.61,0,0,1-.29-1.59c.56-.87,1.42-.78,2.25-.65,4.36.67,7.66-1.14,10.43-4.34a19.39,19.39,0,0,0,3.89-7.42,3.08,3.08,0,0,1,3.44-1.17,4,4,0,0,1,2.1,1.53A12,12,0,0,1,69.25,38.32Z"/><path class="cls-5" d="M92.44,142.68c-1.72.86-3.48,1.67-4.62,3.36-.29.43-.48.68.15.87a3.75,3.75,0,0,0-2.5,1.37,41.6,41.6,0,0,1-8.19,6,7.9,7.9,0,0,1-4.83,1.05c-2-.15-2.79-1.45-2.64-3.42a15.82,15.82,0,0,1,1.38-4.76c.25-.86.91-.82,1.51-.55a3.07,3.07,0,0,0,2.71-.16c1.94-.88,4-1.56,5.41-3.31a14.29,14.29,0,0,1,6.37-2.86,7.83,7.83,0,0,1,4.29.5C92.35,141.08,93,141.62,92.44,142.68Z"/><path class="cls-9" d="M81,143.64a2.54,2.54,0,0,1-1.5,1.69c-1.11.58-2.25,1.1-3.38,1.63-1.36.65-2.71,1.14-4.09,0-.29-.24-.58,0-.85.17-.29-.1-.59-.17-.88-.29-3.41-1.44-3.44-1.51-2.17-4.83l2.43-3.16a1.6,1.6,0,0,1,.5-1.83,7.13,7.13,0,0,1,8.14-1.78,1.77,1.77,0,0,1,1,.5A7.26,7.26,0,0,1,81,143.64Z"/><path class="cls-7" d="M115.58,88.81a10.62,10.62,0,0,0-.19,2.87,6.66,6.66,0,0,1-3.11,3.38,1.41,1.41,0,0,1-1.72-1c-1.3-2.69-3.18-2.81-4.81-.4-.37.54-.58,1.56-1.3,1.4s-.58-1.23-.65-1.9c-.21-1.88,0-3.77-.28-5.65a1.93,1.93,0,0,0-1.26-1.6C98.69,84.34,98,83.07,98.41,79c1-.48,1.25.34,1.55,1a3,3,0,0,0,3.32,2c2.14-.1,2.56.28,2.71,2.43s.53,2.54,2.67,1.83a1.68,1.68,0,0,1,2.14.8c.23.36.22,1.07.91.84.51-.16.59-.71.67-1.17.17-.86.08-1.83,1.11-2.27C115.42,84.88,116.13,86.36,115.58,88.81Z"/><path class="cls-10" d="M29.37,11.87,31.2,7.81A19.2,19.2,0,0,1,45.38.07C49.84-.31,53.8.78,57,4c0,.82,1.56,1.61.49,2.25s-1.14-.92-1.65-1.48A10.3,10.3,0,0,0,48.5,1.43,18.31,18.31,0,0,0,34.8,5.78a10.58,10.58,0,0,0-3.94,7.08,3.83,3.83,0,0,1-.49,1.78c-2.92-1.35-5.75-.29-8.2,3a11.76,11.76,0,0,0-1.9,9.41c.17,1,0,1.55-1.16,1.41A2.68,2.68,0,0,1,18,25.87c.13-4.17.94-8.1,4.31-11a9,9,0,0,1,5.43-2.51A8.48,8.48,0,0,0,29.37,11.87Z"/><path class="cls-11" d="M166.75,19.1c-.93.21-.84-.6-1-1.07a7.5,7.5,0,0,0-6.23-4.56,2.31,2.31,0,0,0-1.74.6c-1,.88-1.6.56-2.5-.22a7.65,7.65,0,0,0-11.21.69,5.32,5.32,0,0,0-1.44,4.78,1.17,1.17,0,0,1-.37,1.38c-2.54,2.06-2.62,5.32-.28,7.82.82.87,1.89,1.55,2.09,2.87a1,1,0,0,1-1.29.25c-1.51-.55-3.37-3.75-3.09-5.3-.47-2.29-.44-4.48,1.41-6.25.29-.28.15-.57.14-.87a8.32,8.32,0,0,1,10.87-8.66A8.08,8.08,0,0,1,156.25,13c.34.42.58.38,1.05.17,4-1.87,7.62-.29,9,4C166.51,17.75,166.6,18.43,166.75,19.1Z"/><path class="cls-12" d="M170.19,46.23a17.91,17.91,0,0,0,3.44-.95,24.57,24.57,0,0,1,.32,14.6,11.63,11.63,0,0,0-3.43-1.72,2.73,2.73,0,0,1-.27-2,22.7,22.7,0,0,0-.21-7.58A2.72,2.72,0,0,1,170.19,46.23Z"/><path class="cls-13" d="M168,37.39c-.63.73-.28,1.6-.34,2.41-.15,2.16-.89,2.94-3,2.92a37.8,37.8,0,0,1-6.54-.61c-1.61-.29-2.54-1.15-2.4-2.89a1.86,1.86,0,0,0-1-1.84,6.72,6.72,0,0,0-2.58.49,1.22,1.22,0,0,1-1.58-.27,3.59,3.59,0,0,1,0-2.54,1.17,1.17,0,0,1,1.78-.66,14,14,0,0,0,2,.5,2.23,2.23,0,0,0,2-.15c.78-.47,1.53-.33,1.73.77a11.36,11.36,0,0,1-.06,3c0,.93.32,1.52,1.31,1.6a37.69,37.69,0,0,0,4.38.38c1.42,0,1.78-.3,1.75-1.76a17.28,17.28,0,0,1,.21-3.13c1.1-1.2,1.52-1.1,2.32.52,1.77-.08,3.56.29,5.31-.26a1.34,1.34,0,0,1,1,.89,4.45,4.45,0,0,1-2.1.37C170.53,38.34,169.43,38.42,168,37.39Z"/><path class="cls-7" d="M139.68,26.34a10.56,10.56,0,0,0,2.9,4.33,1.81,1.81,0,0,0,1.48.72l.67.39c.6.74.36,1.32-.33,1.82a16.77,16.77,0,0,0-3.54.31c-1.6.31-2.66-.64-3.72-1.6C136.1,29.32,136.63,28.08,139.68,26.34Z"/><path class="cls-14" d="M63.92,29.53c-1.13,0-2.37-.42-3.06,1A1.27,1.27,0,0,1,60.2,29c.3-1.91.69-3.8,1-5.71,0-.32.35-.51.56-.74L65,21.89a5,5,0,0,1,.21,6.29A1.24,1.24,0,0,1,63.92,29.53Z"/><path class="cls-15" d="M63.92,29.53l1.25-1.35a6.43,6.43,0,0,1,.76,2.26A6.52,6.52,0,0,1,63.92,29.53Z"/><path class="cls-4" d="M46.34,69.61A11,11,0,0,1,40.21,72a35.57,35.57,0,0,1-20.38-3.15c-2.68-1.25-5.08-2.72-6.62-5.33a2.37,2.37,0,0,1,.32-2.21c1.06-1.91,2.4-3.62,3.6-5.43.37-.56,1-.75,1.44-1.15,1.66-.52,2.32-2,3.18-3.3,1.73-2.59,3.17-5.42,5.72-7.39a4.78,4.78,0,0,1,3.07-1.37c.61-.88,1.55-.65,2.4-.66a9.52,9.52,0,0,1,3.16.56c1.57,2.36,2.29,4.81,1.13,7.65A54,54,0,0,0,35,57.47c-.31,1.23-.07,1.88,1.25,2.1C39.18,60,42,60.8,45,61c1.75.11,2.39.66,2.8,2.18C47.61,65.39,47.53,67.62,46.34,69.61Z"/><path class="cls-6" d="M61.77,22.57a22.43,22.43,0,0,1-.82,6.2,8.89,8.89,0,0,0-.09,1.72A15.78,15.78,0,0,1,50.1,42.54c-2,.55-4-.1-6-.09-2.3.71-3.55-1-4.89-2.26a9.86,9.86,0,0,0-1.59-1.44c-1.24-2.16-2.88-4.1-3.42-6.61a2.68,2.68,0,0,0-1.68-2.05A7.08,7.08,0,0,1,29,24.16c.15-3.29,1-4.56,3.52-5.47,1.1-.39,1.59-.14,1.56,1-1.31,2.61-.48,5.08.78,7.34s3.53,2,4.81-.19,1.65-4.85,2.06-7.37c.23-1.39.64-1.93,1.91-.9.81.67,2,.51,2.76,1.39.18.65-.28,1.07-.56,1.56a6.13,6.13,0,0,0-.9,3.61,1.13,1.13,0,0,0,.88,1.16c.63.12,1-.31,1.19-.81a7,7,0,0,0,.64-4.12A2.53,2.53,0,0,1,47.55,20c1.92-.59,3.77-1.27,4.8-3.2.29-.53.58-.24.82.08a32.54,32.54,0,0,0,4.44,4.65c0,1-.71,1.82-.94,2.78a9.41,9.41,0,0,0-.15,2.48c0,.42.07.88.59,1s.78-.27,1-.65a7.75,7.75,0,0,0,.76-3.31c0-.57-.15-1.16.41-1.57Z"/><path class="cls-16" d="M18.57,54.77c-.92,2.19-2.64,3.87-3.78,5.91-.54,1-1.06,1.92-1.58,2.88-4.82-4.05-7.5-9.39-8.93-15.37C.38,31.84,11.34,14.87,27.72,11.77c.57-.11,1.13-.35,1.65.1-.08.47-.15.84-.8.94a10.62,10.62,0,0,0-9.44,9,15.52,15.52,0,0,0,0,6.68c-5.27,1.91-7.88,6-9,11.22-.94,4.26.28,8.12,2.55,11.69A7.69,7.69,0,0,0,18.57,54.77Z"/><path class="cls-7" d="M29,24.16c.61,1.08,1.22,2.17,1.84,3.25a4.41,4.41,0,0,0,2.81,2.32c.53.12,1,.34,1.06,1,.27,2.95,2.24,5.12,3.45,7.63,1.38,2,.84,4-1.39,5a.76.76,0,0,1-.51-.14c-1.9-.07-3.77-.53-5.68-.43-.1-.46-.23-.91-.3-1.37-.41-2.88-2-4.36-4.95-4.59-.6,0-1.38.12-1.53-.72-.12-.68.49-1,1-1.25A6.06,6.06,0,0,0,28,29c0-1,0-2,0-3A1.84,1.84,0,0,1,29,24.16Z"/><path class="cls-16" d="M79.07,135.72a7.19,7.19,0,0,0-8.49,3.16,16.38,16.38,0,0,1-6.23-4.9c-7.57-9.14-9.21-19.3-4.61-30.25A23.56,23.56,0,0,1,69,92.54c.64.6.29,1.25.09,1.88a22.84,22.84,0,0,0-1.06,4.39,4.24,4.24,0,0,0,1.59,3.84c1.37,1.24,3.3,1.84,4.21,3.61.27,1.07,1,1.94,1.28,3-.36,1.88-1.55,3.4-2.34,5.08a1.15,1.15,0,0,1-1.68.3,4.58,4.58,0,0,0-3.94-.21,1.86,1.86,0,0,1-.92.15c-2.88-.65-4.35,1.09-5.6,3.25a1.46,1.46,0,0,0-.13,1.63,4.32,4.32,0,0,1,.27,3.48,3.2,3.2,0,0,0,2.87,4.17,8.43,8.43,0,0,1,5,2.9c1.8,1.88,3.52,1.94,5.08-.09,1.2-1.23,1.3-1.24,2.39,0a12.44,12.44,0,0,0,2.32,2.09c.51.36,1.05.71,1.11,1.43S80.1,135.17,79.07,135.72Z"/><path class="cls-5" d="M73.45,106.41c-1.45-1.1-2.88-2.24-4.36-3.3a4.39,4.39,0,0,1-1.78-4.39A28.07,28.07,0,0,1,69,92.54a22.79,22.79,0,0,0,3.16-5.66c.41-.52.21-1.08.16-1.65a28.49,28.49,0,0,1,.06-7.38c.14-.78.26-1.62,1.16-1.89s1.16.67,1.68,1.09c.49-.34.32-.9.53-1.3.33-.61.59-1.32,1.38-1.38s1,.61,1.25,1.21c.1.27.06.65.56.54,1.37-.3,1.51.68,1.49,1.59,0,1.66-.23,3.31-.38,5.15,1.22-.66,2.21-.89,2.66.7.14.49.76.16,1.13.3.63.46,0,.63-.23.78a20.29,20.29,0,0,0-3.17,3.63c-3.28,1.56-3.52,4.93-4.57,7.8-.42,1.13,1,1.31,1.27,2.16s-.31,1.64-.69,2.34a24.76,24.76,0,0,0-1.76,4.35C74.52,105.56,74.5,106.46,73.45,106.41Z"/><path class="cls-7" d="M49.19,56a6.1,6.1,0,0,1,2.93,1c2.12,1.08,4.65,1.21,6.53,2.82-1.32,1.83-2.22,4.08-4.71,4.74a5.76,5.76,0,0,1-5.55-1.07c-1.18-2.24-.32-4.5,0-6.74A1,1,0,0,1,49.19,56Z"/><path class="cls-17" d="M48.83,63.22c1.61.83,3.44.74,5.11,1.3a48.45,48.45,0,0,1-7.6,5.09,26.94,26.94,0,0,1,.93-6.38A1.15,1.15,0,0,1,48.83,63.22Z"/><path class="cls-18" d="M150.36,72.07c-.73.81-1,2.18-2.56,1.91-1.93.21-3.63-.68-5.37-1.25-.54-.17-1.09,0-1.55-.29a.77.77,0,0,1,0-.75c2-3.44,3.58-7.16,6.37-10.11a3.8,3.8,0,0,0,1.08-1.31,9,9,0,0,1,2.77-2.56,6.39,6.39,0,0,1,2.78.28,1.63,1.63,0,0,1,.93,1.44c0,.54-.26,1-.29,1.6a2.32,2.32,0,0,1-.06.46,7.2,7.2,0,0,0-.42,4c.16,1.14.8.73,1.32.36,2.53-1.75,5.3-3.15,7.7-5.08a3.16,3.16,0,0,0,1.16-1.62,3,3,0,0,1,.91-.76c.76-.43,1.47-.6,1.9.43A7.9,7.9,0,0,0,165.51,63a1.9,1.9,0,0,1,0,1.53l.27,4.1c-1.39,2.58-3.88,3.69-6.4,4.72a21.66,21.66,0,0,1-3.33.85c-.71.15-1.35.2-1.83-.47l-1.94-1.62A2.51,2.51,0,0,0,150.36,72.07Z"/><path class="cls-16" d="M167,58.82a1.73,1.73,0,0,0-1.84.11,3.41,3.41,0,0,1-1.32-4.54,1.46,1.46,0,0,1,.57-1.22,15.91,15.91,0,0,0,5-6.26c.16-.33.32-.67.76-.68a22.58,22.58,0,0,1,.66,10.89,8.33,8.33,0,0,1-.33,1A8.39,8.39,0,0,0,167,58.82Z"/><path class="cls-12" d="M154.22,73.68a17.65,17.65,0,0,0,10-4,15.22,15.22,0,0,1,1.55-1.07c.16,1.21.66,2.4.13,3.64,0,1.41-1.17,1.88-2.17,2.43-.65.35-1.39.49-2,.84-.36.06-.64.34-1,.35a4.15,4.15,0,0,0-1.2.3c-1.54.39-3.26-.48-4.7.65-.64.19-.37-.46-.59-.65C154.35,75.32,153.41,74.49,154.22,73.68Z"/><path class="cls-19" d="M154.19,76.14l.59.65V80C154.23,78.74,154.51,77.39,154.19,76.14Z"/><path class="cls-20" d="M155.09,88.2V84.66A4.45,4.45,0,0,1,155.09,88.2Z"/><path class="cls-21" d="M154.78,82.15V79.93A2,2,0,0,1,154.78,82.15Z"/><path class="cls-22" d="M159.48,76.14l1-.56c.24.24.7-.11.87.32A3.41,3.41,0,0,1,159.48,76.14Z"/><path class="cls-23" d="M155.1,84.68c-.48-.58-.28-1.27-.33-1.93C155.22,83.34,155.06,84,155.1,84.68Z"/><path class="cls-24" d="M165.51,64.48V63A1.15,1.15,0,0,1,165.51,64.48Z"/><path class="cls-25" d="M48.83,63.22H47.27c-.3-1.32-1.41-1.5-2.45-1.54-3.47-.14-6.79-1.23-10.22-1.63-.94-.11-.87-.7-.68-1.38.8-2.82,1.46-5.69,2.5-8.44.79-2.09,1.14-4.16-.15-6.19a.92.92,0,0,1-.05-.91l.37-.14a1.44,1.44,0,0,1,1.43.77,10.43,10.43,0,0,0,.85,1.13c1.47,1.84,2.84,1.73,4-.29.32-.54.5-1.38,1.47-.93.72.8,1.74.5,2.62.7,1.64,2.54,2,5.42,2.18,8.35.07,1.09,0,2.18,0,3.28C48.87,58.4,48.15,60.78,48.83,63.22Z"/><path class="cls-6" d="M144.05,33.28c.63-.32.63-.93.68-1.5.69-.26.81-.91,1-1.49a24,24,0,0,1,3.09-5.08,1.15,1.15,0,0,1,1.74-.35c2.68,1.48,5.36,1.66,8-.17.2-.15.54-.37.69-.3,2,.94,4.3.69,6.27,1.87s2.21,3.07,2.4,5c.16,1.61,0,3.24.05,4.86-.63-.18-1.05-1.87-1.93-.27a1.26,1.26,0,0,1-1.4.92,5.17,5.17,0,0,0-1.92.37c-.28,0-.55,0-.82,0-1,0-2-.55-3.07-.45-.65.06-.84-.7-1.2-1.13-.57-1-1-.67-1.3.16s-.56.89-1.28.39c-1.18-.82-2.71-.59-4-1.15a1.09,1.09,0,0,1-.95.26c-.34-.09-.52-.38-.74-.61-1-1.24-1.31-1.21-2.25.18a1,1,0,0,1-.42.25,3,3,0,0,1-2.71-.5.89.89,0,0,1-.22-.47A1,1,0,0,1,144.05,33.28Z"/><path class="cls-1" d="M99,73.29c2.2-.18,4.34-.25,6.34,1a6.54,6.54,0,0,1,3.09,4.32c.06.3.07.8.24.87,2.38,1,2.71,3.92,4.8,5.19-.17,1-.31,2-.52,2.93a1.59,1.59,0,0,1-1.62,1.42c-1,0-.92-.76-1.06-1.41-.2-.92-.59-1.23-1.54-.63-1.9,1.21-3.31.4-3.43-1.89,0-.41,0-.83,0-1.25,0-1-.31-1.41-1.43-1.25-2.73.41-3.67-.2-4.63-2.73-.16-.41-.34-.77-.8-.89a6.57,6.57,0,0,0-7.07,0c-1.6,1.28-3.16,2.64-3.73,4.75-1.34.17-2.21-.35-3-1.84s-.9-2.94.1-3.77a13.05,13.05,0,0,0,2.91-3.85c2.07-3.59,7.58-4.2,10.58-1.36A.94.94,0,0,0,99,73.29Z"/><path class="cls-16" d="M108.47,100.06c1.33,1.13,1.84,2.77,2.52,4.27a25.7,25.7,0,0,1,2.19,13,1.74,1.74,0,0,1-.37,1.16.82.82,0,0,1-1-.52,17,17,0,0,0-2.38-6.42c-2-3.45-4.88-5.52-9-5.39-.77-.34-1.61-.59-2-1.5a.74.74,0,0,1,.23-.69,13.65,13.65,0,0,0,6.8-3.27C106.39,99.83,107.48,100.29,108.47,100.06Z"/><path class="cls-16" d="M76.85,98.33c-2.17-.84-2.26-1-1.53-3.19.59-1.73,1.16-3.47,1.84-5.17.5-1.25,2-1.3,2.85-2.21.62-.21,1.17-1,1.92-.25.17.53-.06,1.14.28,1.64a15,15,0,0,1,1.29,2.23,4,4,0,0,1,.91,2.29,11.08,11.08,0,0,0,2.2,5,1.94,1.94,0,0,1,1.79,2.26,1,1,0,0,1-.92,1,2.14,2.14,0,0,1-1.94-.76c-1.44-1.28-3-2.41-4.5-3.58a1.53,1.53,0,0,0-2.33.08C78.21,98.07,77.72,98.72,76.85,98.33Z"/><path class="cls-26" d="M98.62,104.53c.79,0,1.15.93,1.92,1a14.84,14.84,0,0,1-1.08,5,1.13,1.13,0,0,1-1,.7,2.08,2.08,0,0,1-1.54-.63,7.93,7.93,0,0,0-2.12-1.32,8,8,0,0,1-4.32-3.13,3.66,3.66,0,0,0-2.94-1.23c-.66-.06-1.38,0-1.88-.56-.35-1.63.88-2,2-2.43a7,7,0,0,0,1.57-.19,1.16,1.16,0,0,1,.62.24,2.48,2.48,0,0,1,1.6,1c1.46,1.82,3.18,2.64,5.51,1.61A1.73,1.73,0,0,1,98.62,104.53Z"/><path class="cls-27" d="M88.24,100.78c-.49-.75-1.3-1.26-1.63-2.15.34-1.24,1-1.79,2.4-1.41,1.17.3,2.37-.21,3.54-.48.41-.1.8-.27,1.21-.34.76-.13,1.51-.08,1.88.73s-.18,1.43-.8,1.83a11,11,0,0,1-6.24,1.78A.22.22,0,0,1,88.24,100.78Z"/><path class="cls-28" d="M99,73.29c0,.3.52.93-.4.68a.86.86,0,0,1-.36-.3c-3-3.52-6.48-2.18-9.21-.22a2.27,2.27,0,0,0-.78.76,11.55,11.55,0,0,1-3.43,4.46c-.64.54-.4,1.48-.13,2.23a4.45,4.45,0,0,0,2.93,2.83c-.39.76-1,.55-1.63.37-.43.23-.68.07-.79-.37-.31-.49-.62-1-.92-1.46a3.78,3.78,0,0,1,1.27-5.57,2,2,0,0,0,.88-1.18c1.41-4.45,7.65-6.44,11.42-3.69A3,3,0,0,1,99,73.29Z"/><path class="cls-29" d="M92.72,89.12a6.64,6.64,0,0,1,2-4.41,1.42,1.42,0,0,1,1.43-.4,1.15,1.15,0,0,1,.8,1.23,7.69,7.69,0,0,1-1.45,4.53,1.59,1.59,0,0,1-1.83.55C92.93,90.38,92.84,89.68,92.72,89.12Z"/><path class="cls-30" d="M98.62,104.53c-1.71.89-3.42,1.84-5.42.86-1-.49-2-1-1.76-2.42a18.42,18.42,0,0,0,7.25,1Z"/><path class="cls-31" d="M85.19,83.73l.79.37c.09.84-.64.81-1.12,1.06-1.14.58-2.53.84-2.93,2.35L80,87.76a9.21,9.21,0,0,0,2.43-3.17c.25-.7,1-.45,1.44-.73Z"/><path class="cls-32" d="M88.24,100.78l.36,0L89.84,102l-.63,0a3.48,3.48,0,0,1-1.32.14c-.44,0-.69-.27-.64-.74A1.39,1.39,0,0,0,88.24,100.78Z"/><path class="cls-33" d="M83.5,91.38a3.75,3.75,0,0,1-1.29-2.23C83.25,89.55,83.23,90.54,83.5,91.38Z"/><path class="cls-16" d="M153.84,58.6,151,58.24c-1.76-.11-3.54-.43-5.19.54-3.25,1.92-6.51,3.83-8.75,7-.53.77-1.07,1.78-2.34,1.48a12,12,0,0,1-4.09-5.8c-3.43-8.56-1.9-16.32,4.18-23.17a16.19,16.19,0,0,1,5.7-4.09c.56.58.24,1.18,0,1.74a8.86,8.86,0,0,0-.61,3.37,4.41,4.41,0,0,0,3.38,4.33,1.71,1.71,0,0,1,1.08.55c.53.35.59,1,.81,1.49,1.8,4.41,4.55,7.89,9.29,9.39a1.83,1.83,0,0,1,1.16,1,1.55,1.55,0,0,1,1,1.46,1.28,1.28,0,0,1-1.94,1.41A4.76,4.76,0,0,0,153.84,58.6Z"/><path class="cls-3" d="M134.75,67.29A17.62,17.62,0,0,0,137,64.86a23.85,23.85,0,0,1,10.15-7.35,3.45,3.45,0,0,1,3.92.73l-2.25,2.48c-.29.43-.64.82-.95,1.24a33.41,33.41,0,0,0-5.16,8.16,5.6,5.6,0,0,1-1.79,2.32,19.86,19.86,0,0,1-5.19-3.76C135.31,68.28,134.8,67.93,134.75,67.29Z"/><path class="cls-34" d="M144.39,44.22c-2.84.56-5.44-2.07-5.24-5.22a13.2,13.2,0,0,1,1.39-4.77c.11-.1.21-.21.32-.32.88-1.15,2-1,3.19-.63v.63a1.84,1.84,0,0,1-.55.41c-.57,0-1,.23-1,.91a20.14,20.14,0,0,0-.3,2.8c0,1.94.23,2.14,2.16,2.2.75,0,1.75-.35,2,.9-2.21.09-2.2.09-1.88,2.18A5.58,5.58,0,0,1,144.39,44.22Z"/><path class="cls-8" d="M153.84,58.6c2.2.11,2.2.11,1.81-2.54.15-.36.35-.65.81-.58a10.32,10.32,0,0,0,6.16-1.22c.46-.22.87-.34,1.24.13.42,1.52.42,3.16,1.32,4.54l-.62.52a4,4,0,0,1-.95,1.87c-2.78,1.83-5.55,3.66-8.35,5.47-1.39.9-1.83.67-2.07-1,.23-1.58.32-3.18.64-4.75h0c.39-.46,0-1.09.32-1.56S154.07,58.84,153.84,58.6Z"/><path class="cls-5" d="M151,37.66c1.22-.5,2.39-1.61,3.74-.28-.59,2.12-.31,4.33-.59,6.49-.24,1.93-1,2.42-2.8,1.61-2-.89-2.12-2.51-2-4.32a1,1,0,0,1-.06-1.12C149.91,39.24,149.91,38.05,151,37.66Z"/><path class="cls-35" d="M168,37.39a15.68,15.68,0,0,0,4.15-.3c-.36,1.36-.7,2.73-1.09,4.08a14.86,14.86,0,0,1-.77,2c-.3.66-.62,1.48-1.55,1.22s-.75-1-.75-1.72C168,40.94,168,39.16,168,37.39Z"/><path class="cls-36" d="M149.78,40.19l-.36,1-3.13,0a6.1,6.1,0,0,0-2.61-.28c-1.61-.08-2.11-.58-2.16-2.21a16.84,16.84,0,0,1,.35-4.19c.22-1,.74-1.21,1.54-.53.79,1,.12,2.06,0,3.08s-.35,1.82,1.06,1.81c1.59-.17,3.06.53,4.61.66A.87.87,0,0,1,149.78,40.19Z"/><path class="cls-37" d="M156.29,51.2a4.85,4.85,0,0,1-2.67-.89c-.21-.17-.41-.39-.29-.67s.43-.24.66-.13c2.34,1.14,4.34.35,6.23-1.09.2-.15.44-.38.68-.17s.11.6-.09.83A7.05,7.05,0,0,1,156.29,51.2Z"/><path class="cls-29" d="M47.55,20c1.2,1.39.91,5.63-.47,6.81a1.74,1.74,0,0,1-2.89-1.1A6.29,6.29,0,0,1,46.36,20,1.45,1.45,0,0,1,47.55,20Z"/><path class="cls-29" d="M59.24,22.24a7,7,0,0,1-.52,5.3c-.36.78-.89,1.51-1.9,1.32s-1-1.14-1-2c.06-2-.2-4,1.81-5.33Z"/><path class="cls-38" d="M150.36,72.07a1.53,1.53,0,0,1,1.92,0Z"/><path class="cls-9" d="M105.62,134.45a2.73,2.73,0,0,1-1.34,2.63,20,20,0,0,1-7.18,3.73,2.92,2.92,0,0,1-2.92-.44,16.2,16.2,0,0,1-2.32-2.06c-1.51-1.54-1.54-1.8-.5-3.77,3.15-2.35,6.75-2.22,10.38-1.9a7.74,7.74,0,0,1,2.7.46C105.07,133.32,105.7,133.59,105.62,134.45Z"/><path class="cls-39" d="M91.72,135.13c-.74.82-.61,1.5.19,2.25,1.54,1.44,2.91,3.1,5.19,3.43a12.7,12.7,0,0,1-4.66,1.87c-.57-1.28-2.63-2.06-4.69-1.76A18.11,18.11,0,0,0,81,143.64c0-1.29,0-2.58,0-3.87a4.65,4.65,0,0,0-1.28-3.67c1-1.19,1.56-1.3,3.14-.56a2,2,0,0,1,.88,1.41c.37,1.46,1.45,1.82,2.73,1.82a2.28,2.28,0,0,0,2.31-1.93,2.18,2.18,0,0,1,.59-1.25,2.82,2.82,0,0,1,.36-.33C90.37,134.73,91,134.32,91.72,135.13Z"/><path class="cls-7" d="M112.24,117.8a.92.92,0,0,0,.57.64c.63,2.26.93,4.49-.63,6.55-1.43,1.58-2.1,3.82-4.2,4.82a60.8,60.8,0,0,0-6.29,2.06c-3,.38-4.41-.76-4.38-3.55a1,1,0,0,1,.47-.59,1.55,1.55,0,0,1,1.5.6,2.11,2.11,0,0,0,3.39-.09,4.49,4.49,0,0,1,2.39-1.37c1.81-.44,2.47-1.2,2.27-3-.16-1.47.18-2.42,1.73-2.82,1-.26,1.21-1,1-2s-.13-1.78,1-2.07A1.12,1.12,0,0,1,112.24,117.8Z"/><path class="cls-40" d="M101.85,131.35c1.73-1.44,3.89-1.75,6-2.25.62-.17,1.24-.33,1.54.49a22.69,22.69,0,0,1-3.75,4.86c-1.06-.94-2.51-.76-3.72-1.27A1.1,1.1,0,0,1,101.85,131.35Z"/><path class="cls-41" d="M109.37,129.59c-.49-.24-.93-.64-1.54-.49a4.62,4.62,0,0,0,2.48-2.58c.33-.83,1.28-1,1.87-1.53C111.46,126.65,111,128.45,109.37,129.59Z"/><path class="cls-34" d="M44.35,43.68c-.73.19-.63.89-.85,1.39-1,2.26-3.34,2.63-4.9.72-.72-.89-1.35-1.86-2-2.79,1.28-1.3,2.29-2.69,1.53-4.67,1.83,1.64,3.55,3.43,6,4.12C44.21,42.86,44.28,43.27,44.35,43.68Z"/><path class="cls-42" d="M82.88,136c-1.06-.56-2.1-.12-3.15.06l-.66-.38c0-.82.05-1.64.08-2.46a3.84,3.84,0,0,1,4.13,1.24A1.19,1.19,0,0,1,82.88,136Z"/><path class="cls-43" d="M162.62,36.45l3.44-.62c0,1.36.07,2.72.12,4.09,0,1.08-.46,1.52-1.54,1.41-1.93-.19-3.86-.32-5.79-.51-1.23-.12-1.95-.64-1.64-2.06.22-1.07.3-2.18.44-3.27,1.31,1,3,.31,4.38.91-.2.81-1.05.53-1.6,1a2.81,2.81,0,0,1,2.72.14C162.79,37.24,162.43,37,162.62,36.45Z"/><path class="cls-43" d="M149.78,40.19a24.48,24.48,0,0,0-5.72-.65c-.34-.16-.72-.35-.72-.74,0-1.56-.32-3.17.72-4.57l2.67.3c.9.44.69,1.35.88,2.09.11.44.1,1,.7,1s.63-.6.7-1c.1-.73.18-1.46,1-1.75l1,0c0,.92,0,1.85,0,2.77A3.76,3.76,0,0,1,149.78,40.19Z"/><path class="cls-44" d="M53.56,26.8a19.21,19.21,0,0,0,.53,4.45,1.79,1.79,0,0,1-1.63,2.34,1.93,1.93,0,0,1-2.34-2.05,12.52,12.52,0,0,1,1.08-3.91c.39-1.18.76-2.38,1.17-3.56.11-.33.3-.74.77-.6s.41.46.42.78C53.57,25,53.56,25.71,53.56,26.8Z"/><path class="cls-44" d="M46.25,38.33c-2.71,0-5.64-3.43-5.27-6.09.1-.72.43-.82.92-.36a67.13,67.13,0,0,0,5.49,5.18.62.62,0,0,1,.27.82C47.34,38.43,46.76,38.29,46.25,38.33Z"/><path class="cls-5" d="M82.91,134.48a15.9,15.9,0,0,1-3.76-1.22,10.22,10.22,0,0,1-4.23-3.87l-.53,1c-1.11-.59-.46-1.77-.88-2.6-.53-1.52-1.54-3-.6-4.7a6.74,6.74,0,0,1,.42-.62c.61-1.74.43-3.62,1-5.37a16.47,16.47,0,0,1,1.05-2.62c1-1.77,2.14-2.23,4-1.55a5.14,5.14,0,0,0,4.25-.43,2.2,2.2,0,0,1,2.5.15,4,4,0,0,0,4.86,0,2.28,2.28,0,0,1,3,.14c2.49,1.83,3.39,4.43,3.73,7.34.11.85-.13,1.85.89,2.36,1.09,1.16.74,2.46.33,3.74-.16.53-.55,1-.76,1.5l-.19.18-.34.29c-.42,3.78-3.5,4.89-6.33,6.17a2.86,2.86,0,0,0-1.56,1.35l-.1,0c-1.57-1.51-3.54-.68-5.33-.89C83.88,134.72,83.35,134.87,82.91,134.48Z"/><path class="cls-1" d="M73.72,122.79l-.28.37c-.85.44-1.25-.1-1.57-.75a7.22,7.22,0,0,1-.45-2.44c0-.47-.15-1-.7-1.1a1.11,1.11,0,0,0-1.16.64,5.51,5.51,0,0,0-.82,4.75c.31,1.15,1.24,2.07,1.14,3.35-1.27,1.55-2.91,1.6-4,0a3.55,3.55,0,0,0-2-1.51c-2.14-.72-2.73-1.85-2.21-4.11.1-.42.28-.82-.14-1.14-1-.78-1.12-1.94-1.34-3.07a5,5,0,0,1,5.67-3.94,2.39,2.39,0,0,0,1.35-.15,4.2,4.2,0,0,1,4.18.33c.46.29.87.69,1.09-.23a14.36,14.36,0,0,1,2.4-4.54c-.12-1.41,1-1.89,1.94-2.39a7.7,7.7,0,0,1,2.7-.81,6.08,6.08,0,0,0,3.56-1.46c.71-.65,1.66-1.19,2.68-.38,2.73-.21,5.15.27,6.5,3a1.18,1.18,0,0,0,.86.63,12.13,12.13,0,0,1,5.29,3,3.82,3.82,0,0,1,1.79,5,.5.5,0,0,0-.05.17,1.07,1.07,0,0,1,.09-.27,2.08,2.08,0,0,1,1-1.38c2.08-1,4.12-2,6.56-1.66a4.19,4.19,0,0,1,3.59,3,1.54,1.54,0,0,1-.34,1.72c-.69.38-.49.88-.3,1.48.55,1.72.14,2.56-1.55,2.9-1.1.22-1.31.63-1.13,1.71.41,2.43-.44,3.51-2.94,4.09a2.92,2.92,0,0,0-1.65.82c-1.93,2.11-2.84,2.09-4.79,0a5.92,5.92,0,0,0-.59-.52l0-.06c.54-.82,1.41-.58,2.15-.62a3.32,3.32,0,0,0,3.28-2.22,4.73,4.73,0,0,0-1.05-4.8c-.9-.81-2-.92-2.25.64-.13.8-.21,1.88-1.53,1.77-.6-.33-.59-.94-.64-1.51a23.55,23.55,0,0,0-.88-4.31,8.82,8.82,0,0,0-4.41-5.1c-.52-.31-.83-.13-1.24.21-2,1.63-3.41,1.68-5.33.13a1.33,1.33,0,0,0-2,0,4.52,4.52,0,0,1-4.59.81c-2-.61-3.18-.3-4.11,1.57A15.1,15.1,0,0,0,73.72,122.79Z"/><path class="cls-4" d="M85.74,104.2a6.24,6.24,0,0,0-3.35,1.87c-.53.63-1.35.49-2,.55a8.09,8.09,0,0,0-5.48,2.62c-.81-.77-1.8-1.46-1.41-2.83a31.36,31.36,0,0,1,3.4-8.08c3.21-3.07,2.44-3,6.13-.27,1.45,1.09,2.85,2.24,4.27,3.37l.68.59c.1.07.13.14.1.2s-.06.11-.09.11A6.5,6.5,0,0,0,85.74,104.2Z"/><path class="cls-45" d="M60.17,117.77c.37-.09.6,0,.65.43a2.69,2.69,0,0,0,2.06,2.48c.66.18.86.56.2,1.09-1.49,1.16-1.24,2.8.53,3.49a10.42,10.42,0,0,0,1.67.4,1,1,0,0,1,.85.58c1.16,2.26,1.17,2.25,3.51,1.32,1.46.16,2.93-.53,4.39,0,.59.86.27,1.84.36,2.76-1.75,2.46-4.37,2.41-6.29.14a6.51,6.51,0,0,0-4.6-2.68A3.71,3.71,0,0,1,60,123.65c.14-1.52.79-3,0-4.53A1.35,1.35,0,0,1,60.17,117.77Z"/><path class="cls-46" d="M153.83,61a16.25,16.25,0,0,1-.64,4.75A12.18,12.18,0,0,1,153.83,61Z"/><path class="cls-47" d="M163.61,61.32l.95-1.87A1.79,1.79,0,0,1,163.61,61.32Z"/><path class="cls-48" d="M147.83,62a1.75,1.75,0,0,1,.95-1.24A1.62,1.62,0,0,1,147.83,62Z"/><path class="cls-49" d="M154.14,59.47a2.15,2.15,0,0,1-.32,1.56A2.26,2.26,0,0,1,154.14,59.47Z"/><path class="cls-50" d="M150,34.86c-.18,1-.3,2-.55,2.93-.15.56-.48,1.12-1.17,1.12s-1-.56-1.17-1.12a8.54,8.54,0,0,1-.41-3.26.42.42,0,0,1,.16,0c.84-1.08,1.91-.38,2.89-.37Z"/><path class="cls-51" d="M162.62,36.45c.73.49,1.6.81,2,1.72.12.3.27.62,0,.86s-.59,0-.79-.23c-1.24-1.45-2.5-1.57-3.82-.11a.58.58,0,0,1-.84.12c-.34-.29-.24-.67,0-1a3.21,3.21,0,0,1,3-1.42Z"/><path class="cls-52" d="M149.78,34.17c-.8,1.38-2,0-2.89.37.06-1,.49-1.83,1.59-1.91S149.71,33.35,149.78,34.17Z"/><path class="cls-53" d="M144.06,34.23a9.87,9.87,0,0,0,0,5.31c-1.11.08-1.33-.64-1.23-1.49.15-1.38.38-2.76.58-4.13h.64Z"/><path class="cls-4" d="M111,117.43c-.62-3.87-3.7-5.33-7.12-3.42-1.25.7-2.86.76-3.7,2.14-.1.14-.17.12-.22,0a9,9,0,0,0-1.57-5.28c1-.92.81-2.28,1.15-3.43a3.11,3.11,0,0,1,1-1.86,7.8,7.8,0,0,1,6,1.61,14.23,14.23,0,0,1,5.66,10.64A2.1,2.1,0,0,0,111,117.43Z"/><path class="cls-54" d="M87.94,102.33c0-.1,0-.2,0-.31a1.13,1.13,0,0,1,1.28,0A.83.83,0,0,1,87.94,102.33Z"/><path class="cls-42" d="M89.82,135.7c-.1-.84,0-1.51,1-1.82a11.55,11.55,0,0,0,6.89-5.7c.2,2.5.93,3.06,4.14,3.17,0,.61,0,1.22.05,1.83-2.28.13-4.58-.24-6.83.38a6.88,6.88,0,0,0-3.35,1.57A2.87,2.87,0,0,0,89.82,135.7Z"/><path class="cls-55" d="M82.91,134.48c1.86-.84,3.85-.38,5.78-.52,1-.07.67,1.13,1,1.7-.19,1.06-.12,2.21-1.06,3a3.49,3.49,0,0,1-3.53.7A3.08,3.08,0,0,1,82.88,136Z"/><path class="cls-7" d="M73.72,122.79c-1.36-.94-.8-2.25-.59-3.44.43-2.42.74-4.9,2.74-6.68,1-.92,2.07-1.41,3.53-.63a3.66,3.66,0,0,0,4.67-1c.68-.78,1.13-.84,1.9-.12,2.35,2.19,3.17,2.13,5.31-.24.43-.47.81-.44,1.36-.11,4.53,2.72,6.16,6.87,6,11.93a.36.36,0,0,1-.32.3c-1.36-.22-1.11-1.33-1.21-2.22-.35-2.94-1.06-5.67-3.78-7.43-.65-.42-1-.57-1.71,0a4.53,4.53,0,0,1-5.93,0,1.19,1.19,0,0,0-1.63-.06,5.44,5.44,0,0,1-4.84.51c-1.65-.61-2.45-.31-3.25,1.29a16.77,16.77,0,0,0-1.57,6.06A2.74,2.74,0,0,1,73.72,122.79Z"/><path class="cls-56" d="M74,127.6c-1.47.61-2.94,1.45-4.39,0-1.81-2.42-2.58-5-1.11-7.86a4,4,0,0,1,1.06-1.34c1.31-1,2.2-.67,2.49,1,.15.87.23,1.75.36,2.63.08.61.31,1.11,1,1.22C72.71,124.77,73.92,126.11,74,127.6Z"/><path class="cls-56" d="M98.32,122.78l.32-.3c.94-.62.77-1.69.9-2.57.15-1.09.71-1.27,1.61-1.17a2.88,2.88,0,0,1,1.55.71,5.59,5.59,0,0,1,1.43,5.91c-.72,1.87-2.52,2.84-4.88,2.63-.42,0-.84-.11-1.25-.16a1.46,1.46,0,0,1,.16-1.61A3.44,3.44,0,0,0,98.32,122.78Z"/><path class="cls-27" d="M85.25,125.38c-.69.07-1.22-.65-1-1.76.25-1.6.66-3.18,1-4.76a1.17,1.17,0,0,1,1-1,1.2,1.2,0,0,1,1.16.67c.79,1.29,1.57,2.6,2.32,3.92a1.29,1.29,0,0,1-.66,2A9.09,9.09,0,0,1,85.25,125.38Z"/><path class="cls-57" d="M81.34,117.9v.16c-.06,1.81-.9,3.16-2,3.14s-1.93-1.61-1.74-3.39l0-.16c.23-1.26.48-2.56,2.08-2.7C80.76,114.86,81.36,116.05,81.34,117.9Z"/><path class="cls-57" d="M95,117.57A8.44,8.44,0,0,1,94.8,119c-.22.84-.33,1.9-1.49,1.91S91.72,120,91.48,119a4.59,4.59,0,0,1,.34-3.21c.31-.62.73-1.2,1.53-1.15s1.13.67,1.31,1.36S94.87,117.14,95,117.57Z"/><path class="cls-58" d="M78.76,125.76a11,11,0,0,0,6,3,12.82,12.82,0,0,0,6.81-.84C89.24,130.85,80.24,129.3,78.76,125.76Z"/><path class="cls-59" d="M100,116.12l.22,0a1.49,1.49,0,0,1,.11,1.85.29.29,0,0,1-.51,0A2,2,0,0,1,100,116.12Z"/></g></g></svg>