<svg id="Layer_1" data-name="Layer 1" xmlns="http://www.w3.org/2000/svg" viewBox="0 0 16 16"><defs><linearGradient id="linear-gradient" x1="-4.26" y1="-4.26" x2="8.91" y2="8.91" gradientTransform="rotate(-180 8 8)" gradientUnits="userSpaceOnUse"><stop offset="0" stop-color="#3249d0"/><stop offset="1" stop-color="#892aff"/></linearGradient><style>.cls-2{fill:#fff}</style></defs><rect width="16" height="16" rx="8" transform="rotate(180 8 8)" fill="url(#linear-gradient)"/><circle class="cls-2" cx="5.55" cy="4.49" r="1.09"/><circle class="cls-2" cx="4.46" cy="8.73" r="1.09"/><circle class="cls-2" cx="8" cy="11.73" r="1.09"/><circle class="cls-2" cx="11.69" cy="8.73" r="1.09"/><circle class="cls-2" cx="10.6" cy="4.49" r="1.09"/><path class="cls-2" d="M12.19 8.64l-.3-.09L10.72 4 8.05 7.13a.06.06 0 01-.09 0L5.44 4 4.11 8.64l-.29.1 2 1.58 2 1.53v.39zm-3.95 2.59V8a.06.06 0 01.07-.06l2.88.92zm3.11-2.86l-2.85-.9s-.05-.06 0-.1l2-2.37zM5.65 5l1.89 2.38a.06.06 0 010 .1l-2.85 1zm.43 4.93l-1.28-1 2.89-1h.07v3.27z"/><path fill="none" stroke="#fff" stroke-miterlimit="10" stroke-width=".45" d="M5.55 4.49h5.05"/></svg>