<svg id="Layer_1" data-name="Layer 1" xmlns="http://www.w3.org/2000/svg" xmlns:xlink="http://www.w3.org/1999/xlink" viewBox="0 0 16 16"><defs><style>.cls-1{fill:url(#linear-gradient);}.cls-2{fill:#fff;}.cls-3{fill:none;stroke:#fff;stroke-miterlimit:10;stroke-width:0.45px;}</style><linearGradient id="linear-gradient" x1="-4.26" y1="-4.26" x2="8.91" y2="8.91" gradientTransform="translate(16 16) rotate(-180)" gradientUnits="userSpaceOnUse"><stop offset="0" stop-color="#3249d0"/><stop offset="1" stop-color="#892aff"/></linearGradient></defs><rect class="cls-1" width="16" height="16" rx="8" transform="translate(16 16) rotate(180)"/><circle class="cls-2" cx="5.55" cy="4.49" r="1.09"/><circle class="cls-2" cx="4.46" cy="8.73" r="1.09"/><circle class="cls-2" cx="8" cy="11.73" r="1.09"/><circle class="cls-2" cx="11.69" cy="8.73" r="1.09"/><circle class="cls-2" cx="10.6" cy="4.49" r="1.09"/><path class="cls-2" d="M12.19,8.64l-.3-.09L10.72,4,8.05,7.13a.06.06,0,0,1-.09,0L5.44,4,4.11,8.64l-.29.1,2,1.58,2,1.53v.39ZM8.24,11.23V8a.06.06,0,0,1,.07-.06l2.88.92Zm3.11-2.86L8.5,7.47s-.05-.06,0-.1l2-2.37ZM5.65,5,7.54,7.38a.06.06,0,0,1,0,.1l-2.85,1Zm.43,4.93-1.28-1,2.89-1s.07,0,.07,0v3.27Z"/><line class="cls-3" x1="5.55" y1="4.49" x2="10.6" y2="4.49"/></svg>