<svg xmlns="http://www.w3.org/2000/svg" viewBox="0 0 193.75 188.66"><defs><style>.cls-1,.cls-104,.cls-105,.cls-106,.cls-18,.cls-19,.cls-2,.cls-60,.cls-92,.cls-94,.cls-95,.cls-96{fill:none;}.cls-1,.cls-10{stroke:#f39a7a;}.cls-1,.cls-10,.cls-104,.cls-105,.cls-106,.cls-18,.cls-19,.cls-2,.cls-60,.cls-92,.cls-95,.cls-96{stroke-miterlimit:10;}.cls-1,.cls-10,.cls-2{stroke-width:2px;}.cls-2{stroke:#f2906d;}.cls-3{fill:#feb79e;}.cls-4{fill:#f39a7a;}.cls-5{fill:#8651a3;}.cls-6{fill:#804a9d;}.cls-7{fill:#9b68b8;}.cls-8{fill:#d16189;}.cls-9{fill:#d46186;}.cls-10{fill:#fdb79e;}.cls-11{fill:#9b67b8;}.cls-12{fill:#d15534;}.cls-13{fill:#875785;}.cls-14{fill:#d8663c;}.cls-15{fill:#8f5aac;}.cls-16{fill:#754091;}.cls-17{fill:#3f2e4e;}.cls-18{stroke:#8d5aa9;}.cls-104,.cls-105,.cls-106,.cls-18,.cls-19,.cls-60,.cls-92,.cls-95,.cls-96{stroke-linecap:round;}.cls-18,.cls-19{stroke-width:0.5px;}.cls-19{stroke:#3f2e4e;}.cls-20{fill:#d1aae6;}.cls-21{fill:#6d52a4;}.cls-22{fill:#c74c76;}.cls-23{fill:#8856a4;}.cls-24{fill:#be93d5;}.cls-25{fill:#482574;}.cls-26{fill:#814d9e;}.cls-27{fill:#6f42a8;}.cls-28{fill:#8956a4;}.cls-29{fill:#8e58ab;}.cls-30{fill:#492574;}.cls-31{fill:#9c68b7;}.cls-32{fill:#8c55a8;}.cls-33{fill:#8f59ad;}.cls-34{fill:#8467be;}.cls-35{fill:#d85b85;}.cls-36{fill:#df8267;}.cls-37{fill:#6d3ea9;}.cls-38{fill:#d1775b;}.cls-39{fill:#d2775b;}.cls-40{fill:#f39b7b;}.cls-41{fill:#f2a083;}.cls-42{fill:#562d8a;}.cls-43{fill:#d46289;}.cls-44{fill:#794894;}.cls-45{fill:#6b3fa3;}.cls-46{fill:#7c4993;}.cls-47{fill:#8a56a8;}.cls-48{fill:#98619e;}.cls-49{fill:#e2724a;}.cls-50{fill:#492674;}.cls-51{fill:#8752a4;}.cls-52{fill:#8d58ab;}.cls-53{fill:#443c4a;}.cls-54{fill:#4a2675;}.cls-55{fill:#8b54a8;}.cls-56{fill:#8b54a9;}.cls-57{fill:#d2aae4;}.cls-58{fill:#8a56a7;}.cls-59{fill:#8c56aa;}.cls-60{stroke:#8752a5;}.cls-104,.cls-60,.cls-95,.cls-96{stroke-width:0.75px;}.cls-61{fill:#7a4893;}.cls-62{fill:#784893;}.cls-63{fill:#b07dcc;}.cls-64{fill:#b690c9;}.cls-65{fill:#433b49;}.cls-66{fill:#784793;}.cls-67{fill:#4d287b;}.cls-68{fill:#b07dcd;}.cls-69{fill:#473e4e;}.cls-70{fill:#493e50;}.cls-71{fill:#443c4b;}.cls-72{fill:#8c5aa8;}.cls-73{fill:#562d8b;}.cls-74{fill:#d14b75;}.cls-75{fill:#cd6b4d;}.cls-76{fill:#bf6043;}.cls-77{fill:#c43d67;}.cls-78{fill:#d85b86;}.cls-79{fill:#a470c1;}.cls-80{fill:#bc3b64;}.cls-81{fill:#c34873;}.cls-82{fill:#bd3e67;}.cls-83{fill:#8e5baa;}.cls-84{fill:#8d5aa8;}.cls-85{fill:#d04c77;}.cls-86{fill:#c44873;}.cls-87{fill:#bd3b64;}.cls-88{fill:#352e3a;}.cls-89{fill:#322c36;}.cls-90{fill:#ab72cb;}.cls-91{fill:#332d38;}.cls-92{stroke:#8c5aa8;stroke-width:0.25px;}.cls-93{fill:#342d38;}.cls-95{stroke:#8752a4;}.cls-96{stroke:#784893;}.cls-97{fill:#413a47;}.cls-98{fill:#f4916e;}.cls-99{fill:#8753a4;}.cls-100{fill:#582f8c;}.cls-101{fill:#9469bc;}.cls-102{fill:#534869;}.cls-103{fill:#6e41a7;}.cls-104,.cls-106{stroke:#483692;}.cls-105{stroke:#8956a5;}</style></defs><g id="Layer_2" data-name="Layer 2"><g id="Layer_12" data-name="Layer 12"><polygon class="cls-1" points="88.46 130.68 137.34 174.22 174.73 143.71 88.46 130.68"/><polygon class="cls-1" points="132.41 94.34 135.94 171.8 176.7 146 132.41 94.34"/><polygon class="cls-1" points="129.01 94.03 53.29 87.21 88.46 136.63 129.01 94.03"/><line class="cls-2" x1="38.18" y1="144.87" x2="89.24" y2="134.76"/><line class="cls-2" x1="37.13" y1="144.87" x2="58.25" y2="170.27"/><line class="cls-2" x1="16.24" y1="53.77" x2="39.57" y2="73.74"/><path class="cls-3" d="M16.49,65.94A14.15,14.15,0,1,1,30.63,51.79,14.17,14.17,0,0,1,16.49,65.94Z"/><path class="cls-4" d="M16.49,39A12.77,12.77,0,1,1,3.72,51.79,12.79,12.79,0,0,1,16.49,39m0-2.75A15.52,15.52,0,1,0,32,51.79,15.52,15.52,0,0,0,16.49,36.27Z"/><circle class="cls-3" cx="37.77" cy="144.04" r="14.15"/><path class="cls-4" d="M37.77,131.27A12.77,12.77,0,1,1,25,144a12.79,12.79,0,0,1,12.78-12.77m0-2.75A15.52,15.52,0,1,0,53.29,144a15.52,15.52,0,0,0-15.52-15.52Z"/><circle class="cls-3" cx="88.55" cy="134.76" r="21.27"/><path class="cls-4" d="M88.55,115.56a19.2,19.2,0,1,1-19.2,19.2,19.23,19.23,0,0,1,19.2-19.2m0-4.14a23.34,23.34,0,1,0,23.34,23.34,23.34,23.34,0,0,0-23.34-23.34Z"/><path class="cls-3" d="M139.49,187.07a16.31,16.31,0,1,1,16.31-16.31A16.33,16.33,0,0,1,139.49,187.07Z"/><path class="cls-4" d="M139.49,156a14.73,14.73,0,1,1-14.73,14.73A14.74,14.74,0,0,1,139.49,156m0-3.17a17.9,17.9,0,1,0,17.89,17.9,17.9,17.9,0,0,0-17.89-17.9Z"/><circle class="cls-3" cx="174.54" cy="144.75" r="16.31"/><path class="cls-4" d="M174.54,130a14.73,14.73,0,1,1-14.73,14.73A14.75,14.75,0,0,1,174.54,130m0-3.17a17.9,17.9,0,1,0,17.9,17.9,17.9,17.9,0,0,0-17.9-17.9Z"/><rect class="cls-5" x="145.22" y="163.52" width="6.11" height="7.9" rx="3.06" transform="translate(-26.52 27.9) rotate(-9.87)"/><rect class="cls-5" x="123.53" y="166.55" width="6.11" height="7.9" rx="3.06" transform="translate(-27.36 24.23) rotate(-9.87)"/><rect class="cls-6" x="133.99" y="175.76" width="6.4" height="7.31" rx="2.88"/><circle class="cls-7" cx="137.34" cy="168.33" r="10.95"/><circle class="cls-3" cx="133.02" cy="93.3" r="16.04"/><path class="cls-4" d="M133,78.81A14.49,14.49,0,1,1,118.53,93.3,14.5,14.5,0,0,1,133,78.81m0-3.11a17.6,17.6,0,1,0,17.6,17.6A17.6,17.6,0,0,0,133,75.7Z"/><path class="cls-8" d="M84,148.06a8.48,8.48,0,0,1,2.62,1,.78.78,0,0,1,0,1.3c-.65-1.09-1.76-.46-2.64-.71C83.9,149.14,83.92,148.6,84,148.06Z"/><path class="cls-3" d="M58.25,179.82a9.55,9.55,0,1,1,9.55-9.55A9.56,9.56,0,0,1,58.25,179.82Z"/><path class="cls-4" d="M58.25,161.65a8.62,8.62,0,1,1-8.62,8.62,8.63,8.63,0,0,1,8.62-8.62m0-1.85a10.48,10.48,0,1,0,10.47,10.47A10.47,10.47,0,0,0,58.25,159.8Z"/><path class="cls-9" d="M91,148.77a10.89,10.89,0,0,0,5.57-4c.13,1.76,1.43,1.89,2.76,2,.09.43.18.86.26,1.29-2.58-.31-5.09-.25-7.31,1.36a1.69,1.69,0,0,0-1.2.37C90.63,149.46,90.69,149.12,91,148.77Z"/><rect class="cls-5" x="69.66" y="70.99" width="6.03" height="8" rx="3.02" transform="matrix(1, -0.04, 0.04, 1, -2.59, 2.6)"/><line class="cls-10" x1="120.47" y1="35.12" x2="55.19" y2="83.21"/><line class="cls-10" x1="127.44" y1="33.48" x2="132.67" y2="93.3"/><line class="cls-2" x1="67.92" y1="41.79" x2="52.05" y2="85.2"/><path class="cls-3" d="M72.92,42.45A15.45,15.45,0,1,1,88.36,27,15.46,15.46,0,0,1,72.92,42.45Z"/><path class="cls-4" d="M72.92,13.06A13.95,13.95,0,1,1,59,27,14,14,0,0,1,72.92,13.06m0-3A16.95,16.95,0,1,0,89.86,27,16.93,16.93,0,0,0,72.92,10.06Z"/><path class="cls-11" d="M58.22,34.68A28.09,28.09,0,0,1,53,36.91c-2.64.63-3.72.06-3.94-2.6-.23-2.82-.15-5.66-.17-8.5a2.9,2.9,0,0,0-.89-2.2,9.53,9.53,0,0,1-2.43-6.23c-.05-.77.08-1.79,1.37-1.45.35.1.42,0,.6-.27,1.28-1.79,1.76-1.71,2.77.48.43-.67.6-1.69,1.67-1.53s1.2,1.21,1.43,2,0,1.78.39,2.6c.13,0,.26.09.32.05C55,18.72,56,17.87,56.91,19s0,2.21-.95,2.78c-1.75,1.06-2,2.54-1.74,4.35.16,1.26.16,2.53.23,3.81l1.92-.25C57.65,31.11,58.56,32.67,58.22,34.68Z"/><path class="cls-12" d="M61.19,34.12c-2.73,3.89-6.59-4.7-3.6-6.38C60,25,68.46,24.44,68.3,29.36a1.39,1.39,0,0,1-1.27.91C64.19,30.22,63.68,33.62,61.19,34.12Z"/><rect class="cls-13" x="68.02" y="23.92" width="5.78" height="7.16" rx="2.35"/><path class="cls-14" d="M72.36,29.07c4.92-1.56,4.81,7.47,5.88,11-5.75,3.15-14.35.3-17.25-5.69,1.91-2.33,3.84-4.8,6.92-5C69.47,30.6,70.91,29.75,72.36,29.07Z"/><path class="cls-12" d="M77.92,40.12c-.86-2.8-1.79-5.58-2.43-8.44,0-.77-2.46-2.73-1.45-2.79,6.28-.4,10.47,6.92,10.47,6.92S81.87,39.55,77.92,40.12Z"/><rect class="cls-15" x="59.93" y="15.65" width="6.71" height="7.35" rx="3.3"/><rect class="cls-15" x="75.52" y="15.65" width="6.71" height="7.35" rx="3.3"/><rect class="cls-11" x="63.29" y="8.77" width="15.58" height="18.3" rx="7.79"/><path class="cls-16" d="M60.78,16.74c-1-.6-1.66-1.32-.91-2.56.35-.59.06-1-.35-1.46-2-2.19-1.53-4.79,1-6.39.5-.31,1-.48,1.24-1.21a4.49,4.49,0,0,1,5.49-3.06,2.33,2.33,0,0,0,2-.25A8,8,0,0,1,73.91.66a3.8,3.8,0,0,1,3.66,2.39c.3.71.43,1.68,1.55,1.71,4.06.1,6.32,4.51,4.42,8.6.07,1.2,1.12,2.08,1.1,3.32-.12,2.11-.56,2.72-2.23,3.07-.63-.16-.82-.65-1-1.22-.44-1.83-.93-2.08-2.62-1.39a1.47,1.47,0,0,1-.8.14,5.54,5.54,0,0,0-4.29-2.8c-.41,0-.76-.44-1.09-.74a1,1,0,0,0-1.33-.17,7.39,7.39,0,0,1-5.19,1.37c-1.47-.22-1.82.83-2.15,1.91C62.88,17.75,61.82,17.45,60.78,16.74Z"/><path class="cls-17" d="M74.48,15.8a1.74,1.74,0,0,0,.53.47l.59.41.56.46a1.61,1.61,0,0,0,.59.38c.2.05.4-.09.39-.44a1.92,1.92,0,0,0-.84-1.35,1.86,1.86,0,0,0-1.51-.43C74.45,15.39,74.38,15.63,74.48,15.8Z"/><path class="cls-17" d="M67.55,15.79a1.76,1.76,0,0,1-.62.35c-.23.09-.46.19-.66.29l-.64.33A1.65,1.65,0,0,1,65,17c-.21,0-.37-.16-.29-.51a2.2,2.2,0,0,1,2.66-1.27C67.66,15.39,67.68,15.64,67.55,15.79Z"/><rect class="cls-17" x="74.09" y="18.23" width="1.74" height="1.74" rx="0.87"/><rect class="cls-17" x="65.63" y="18.42" width="1.74" height="1.74" rx="0.87"/><path class="cls-18" d="M69.91,20.49s-1.06,2.46,1.3,2.58"/><path class="cls-19" d="M70.58,25.07s2.46,1.06,2.58-1.3"/><path class="cls-20" d="M164.05,129.22c7.87-7.69,23.89-5.8,24.65,6.76.31,1.89,1.65,5.16-1.09,5.84-.68-.34-.65-1.13-1-1.66-.67-1-2.37-.88-2.07.51-.18,4.56-3.51,3.58-2.52-.61-.37-1.76-1.84-2.79-3.14-3.82-.93-.67-1.5-2.47-2.45-2.21a6.83,6.83,0,0,0-3.77,3c-1.85,2.66-5.59-.51-7.56,2.56-1.63-.23-2.57-3.26-3.33-4.66C162.21,133.18,162.23,130.08,164.05,129.22Z"/><path class="cls-21" d="M148.63,97.73c10.22,13.52,4.48,20.16-11,21.23-4.39.73-1.33-5.87-2.74-8.39-.2-4.58,8.26-.18,7.91-4.36C141.37,102.11,143,92.08,148.63,97.73Z"/><path class="cls-22" d="M72,98.62l-2.09-.71A24.18,24.18,0,0,1,63,95.5c-.41-1-.11-2-.22-3a18.35,18.35,0,0,0-1.66-5.31c.45-.57,1.05-.47,1.67-.43a31.41,31.41,0,0,1,6.87,1.34,3.46,3.46,0,0,0,4.12-1.22c.73-.92,1.4-1.87,2.07-2.82.36-.5.68-1,1.37-1.12a21.77,21.77,0,0,0,1.28-1.9c.55-1,1.27-1.4,2.35-.85,1.47,1,3.3,1.49,4.34,3.08l.78,1.8a2.17,2.17,0,0,1-.29,1.19,21.89,21.89,0,0,1-2.83,4.86c-1.56,2.34-3.1,4.71-4.88,6.9S73.75,100.42,72,98.62Z"/><path class="cls-23" d="M106.36,122l-.38,2c0,1.11-.82,1.43-1.65,1.77A7,7,0,0,0,101,127.1a7.9,7.9,0,0,1-3.67,1.38l-.53,0a7.92,7.92,0,0,1-4.45-.67,4.83,4.83,0,0,1-2-1.26,1,1,0,0,1-.19-1c.6-.7,1.53-.5,2.27-.81a3.76,3.76,0,0,0,1.73-1.07,18.37,18.37,0,0,0-5.43.75.94.94,0,0,1-.68-.42,24.24,24.24,0,0,1-2.67-7,2.27,2.27,0,0,1,1.65-2.21,4.53,4.53,0,0,0,1.15-.61c.33-.32.89-.32,1.08-.82,1.25-2.36,3-4,5.87-3.78a2.47,2.47,0,0,1,2.12,1.09,4.6,4.6,0,0,0,2.69,4.53,3,3,0,0,1,1.3,2.74,13.74,13.74,0,0,0,.15,2.43c1-.76,2-1.36,3.16-.77A3.41,3.41,0,0,1,106.36,122Z"/><path class="cls-24" d="M189.24,135.79l-1,.3a3.68,3.68,0,0,1-.71-2.31,6.63,6.63,0,0,0-5.35-6.45c-1.54-.31-2.33-1.86-3.87-2.13a8.23,8.23,0,0,1-1.54-.58c.22-.5.49-1,.66-1.51a4.44,4.44,0,0,1,7.09-2.18c.59.45,1,.23,1.5.11a4.85,4.85,0,0,1,6.18,5.47c0,.42-.2.78.13,1.23,2.9,4,.79,5.15-1.65,7.23A8.22,8.22,0,0,1,189.24,135.79Z"/><path class="cls-20" d="M147.87,159.63l.31,2.33c.13.37.37.73.21,1.15a1,1,0,0,1-.29.35c-.26.15-.57.2-.83.35-.94.66-1.6,0-2.3-.47a9.81,9.81,0,0,0-10.79-1.19,9.48,9.48,0,0,1-1.54.65c-.43.11-.93.25-1.22-.19s0-1,.32-1.35a4.18,4.18,0,0,1,1.34-1c3.31-1.7,6.68-1.91,9.25-.74-6.66-3.27-12.91-.66-13.77,6.51a1.25,1.25,0,0,1-.92,1.06c-.61.09-.65-.79-1.25-.71-.93.11-1-.38-.74-1.07-.91-3.6,2-9.55,5.81-10.94,1.76-.65,3.51-1.3,5.32-1.79a1.78,1.78,0,0,1,1.26-.55c4.54-.47,7.91,1.4,9.71,5.39C148.06,158.14,148.45,158.86,147.87,159.63Z"/><path class="cls-25" d="M75.59,71.2a.82.82,0,0,1-.89.65c-1,1.19-2.25,1-3.52.83-.27,0-.55,0-.83,0a2.36,2.36,0,0,1-1.23-.4c-1.14-.77-2-2.21-3.08-2.62S64,71.16,62.49,71.16a2.71,2.71,0,0,1-1.23-.2c-.36-.16-.76-.18-1.12-.31-.84-.31-1.2,0-1.36.85a13.33,13.33,0,0,1-1,3.66c-.5,1-1.12,1.82-2.34,1.84a2.9,2.9,0,0,1-2.6-1.77c-1.08-1.88-1-3.66.22-5a1.06,1.06,0,0,1,.64-.16c1.8.33,2.57-.67,3.14-2.2.86-2.31,1.6-2.53,3.76-1.27a3.07,3.07,0,0,0,4-.27,2,2,0,0,1,2.85-.2,6.88,6.88,0,0,0,2.14.91c2.32.55,3.75-.43,4.06-2.78a2.05,2.05,0,0,1,.61-1.5c2,.41,3.61,3.2,3.17,5.58a10,10,0,0,0-.29,1.11C76.93,70.32,76.19,70.69,75.59,71.2Z"/><path class="cls-11" d="M85.19,83.32c-1.55-.87-3.51-1.17-4.34-3.08-.64-2.21.26-4.4.09-6.61a.68.68,0,0,1,.58-.71.88.88,0,0,1,1,.65c.24.77.36,1.59.6,2.74.87-2,1.61-3.64,2.4-5.31.45-1,1.06-1.31,1.78-.19.28.16-.23,1,.6.69.42-.62,1-1.62,1.73-1,1.4,1.11,0,2.36-.22,3.6a1.36,1.36,0,0,0,.46,0c.66-.33,1.22-1.29,2-.76s-.25,1.55,0,2.06c1.08,2.52-1.11,3.35-2.3,4.54S87.12,82.79,85.19,83.32Z"/><path class="cls-25" d="M77.22,83a20.78,20.78,0,0,1-3.86,5.36,2.54,2.54,0,0,1-2.55.71c-3.18-.68-6.31-1.66-9.59-1.78a.92.92,0,0,1-1.3-.1,1.17,1.17,0,0,1-.2-1.31,1.59,1.59,0,0,1,1.36-.46c4.8,0,7.52-1.88,9.29-6.44.29-.76.38-1.64,1.19-2.11a2.77,2.77,0,0,1,1.9-.2,2.7,2.7,0,0,1,1.43,1.23C76.35,79.28,76.79,81.13,77.22,83Z"/><path class="cls-26" d="M29.81,47.15c2.87-.43,8.75,2.39,4.39,5-5.1,1.24,1.34,7.62-9.47,9.26-1.17-1.24-.11-2.21.56-3C27.9,55,21.17,45.76,29.81,47.15Z"/><path class="cls-23" d="M93,154.4a6.83,6.83,0,0,0-3.39,2.67.45.45,0,0,1-.34.3,43.8,43.8,0,0,1-5.1,4,8.37,8.37,0,0,1-3.92,1.7c-2,.17-2.69-.64-2.67-2.58a15.13,15.13,0,0,1,.83-3,.53.53,0,0,1,.66-.55c2.64.44,4.47-1,6.24-2.6a9.41,9.41,0,0,1,4.91-1.74C91.81,152.33,92.89,153.13,93,154.4Z"/><path class="cls-14" d="M85.31,154.85c-1.66,3.34-9.92,4.63-8.13-.61a7.24,7.24,0,0,1,5.67-5.13C87.71,148.44,86.56,151,85.31,154.85Z"/><path class="cls-25" d="M108.7,117.62c0,.58,0,1.15,0,1.72a4.94,4.94,0,0,1-2.33,2.64c-.69,0-.89-.51-1.19-1-.9-1.44-2.11-1.44-3.14,0-.25.33-.34,1-.88.83s-.46-.8-.48-1.29c0-.66,0-1.33,0-2a2.85,2.85,0,0,0-1.89-3.27c-1.88-.76-1.89-2.53-1.76-4.25a.59.59,0,0,1,.75.16,3.75,3.75,0,0,0,3.31,1.82c1,0,1.12,1,1.21,1.73s.41,1.52,1.48,1.19,1.54.36,2.08,1c.79-.63.51-1.91,1.63-2.09A1.89,1.89,0,0,1,108.7,117.62Z"/><path class="cls-27" d="M61.56,57l1,0c2.46-1,6.32,1,7.21,3.77-.58,1.52-1.44.89-2.14.18a7.29,7.29,0,0,0-3.8-2.22,10.56,10.56,0,0,0-12.32,7.28c-.31,1-.75,1.56-1.89,1.33a3.73,3.73,0,0,0-3.74,1.67,7.47,7.47,0,0,0-1.66,5.76c.18,1.67-.12,2-1.55,1.8-1.75-3.42.26-10.42,5.73-11.1a5,5,0,0,0,1.44-.36c.43-.9.85-1.8,1.27-2.7A13.29,13.29,0,0,1,61.56,57Z"/><path class="cls-22" d="M61.26,104.85c-3.72,2.15-7.77,1.58-11.71,1.21-2.37-.22-4.56-1.38-6.76-2.31a7.66,7.66,0,0,1-3.95-3.43c-.25-1.36.65-2.27,1.31-3.25a9.18,9.18,0,0,0,1.65-3,8.6,8.6,0,0,0,3-3.22A13.09,13.09,0,0,1,47.85,87a4.81,4.81,0,0,1,2.81-1.26,5.9,5.9,0,0,1,3.75.42,1.79,1.79,0,0,1,.43.35,5.37,5.37,0,0,1,.65,4.75C55,92.83,54.34,94.34,54,96c-.19,1,0,1.48,1.05,1.62,1.54.2,3,.58,4.6.71,1.24.11,2.62.23,2.94,1.88A7.23,7.23,0,0,1,61.26,104.85Z"/><path class="cls-3" d="M41.86,94.34c.73.47.25.93,0,1.37q-1.49,2.31-3,4.61c-3.71-3.07-5.54-7.2-6.32-11.79a19.55,19.55,0,0,1,3.7-15.27A20,20,0,0,1,49.08,65a.81.81,0,0,1,.77.13.61.61,0,0,1-.6.63,7.39,7.39,0,0,0-6.45,7.08c-.08,1.21,0,2.43,0,3.65-.2.79-.92,1.07-1.49,1.49a9.87,9.87,0,0,0-2.66,13.08,6.27,6.27,0,0,0,2.07,2.12C41.19,93.5,41.73,93.71,41.86,94.34Z"/><path class="cls-28" d="M80,129.62A27.48,27.48,0,0,0,77.72,128c-2-1.21-2.18-3-1.65-5,.18-.69.37-1.38.56-2.06.63-1.52,2.11-2.63,2.13-4.44.7-.38.49-1,.47-1.61a21.7,21.7,0,0,1,0-4.63c.14-.83.38-1.8,1.56-1,.62.41.58,0,.73-.36.45-.92.58-1.19,1.83-.41,1.79,1.11,1.29,2.32,1.23,3.71,0,.52-.51,1.45.81,1.15.61-.13.81.45.87,1,.37,1.39-1,2-1.38,3A6.72,6.72,0,0,0,82.19,121a2.72,2.72,0,0,0,.32,3c-.2,2-1.2,3.62-2,5.36A.45.45,0,0,1,80,129.62Z"/><path class="cls-29" d="M38.08,153.06c0,1.35.4,2.73-.35,4-4.55,0-7.72-2.73-10.78-5.63a2.7,2.7,0,0,1-.63-1.68,9,9,0,0,1,2.9-2.66c.56-.22,1,.12,1.34.42,2.36,1.78,4.5,3.88,7.22,5.16C37.92,152.74,38,152.92,38.08,153.06Z"/><path class="cls-30" d="M63.26,95.66c.25-.1.56-.36.73-.28,1.95.87,4.16,1.16,5.89,2.53-.91,1.13-1.48,2.58-3,3.1s-2.77.57-4-.52A4.16,4.16,0,0,1,63.26,95.66Z"/><path class="cls-31" d="M63.18,100.22a22,22,0,0,0,3.69.79l-5.62,3.84c.42-1.52.33-3.14,1-4.63A.78.78,0,0,1,63.18,100.22Z"/><path class="cls-7" d="M182.5,140.36c.07,1-.78,4.63,1.05,2.36,1-1.24-.76-3.49,1-4,11.08,4.15-12.22,20.12-17.22,11.14-3.66-2.69-4.41-13.66,1.76-12.48,3.23,1.19,4.47-3.08,7.13-4.47,2.57,1.28,4.71,3.9.25,4.58C179.31,137.92,182.55,136.07,182.5,140.36Z"/><path class="cls-32" d="M164.73,143.79a3.91,3.91,0,0,1-.9-6.54c.63.58-.12,2,1.32,2.09-.24,1.39.43,2.1,1.89,2.36C165.62,141.83,165.44,143.08,164.73,143.79Z"/><path class="cls-33" d="M182.5,140.36H181c.54-.84,1-.57,1.48-.32A.69.69,0,0,1,182.5,140.36Z"/><path class="cls-7" d="M181.7,138.39l-1.59,2.23c-3.28.58-4.68-1.53-4.43-6l2-.37C179.57,134.67,180.85,136.14,181.7,138.39Z"/><path class="cls-34" d="M134.07,106.27a2.21,2.21,0,0,0-2.66,1.32c-1.56-.13-5.87-.29-4.94-2.61,1.82-2.6,4.94-11.26,8.79-7.59-1.12,7,1.14,4,5.18,1.56,1.39-.5-.28-3,4.62-2.83-2.36,1.07-2.45,6.3-2.62,8.52C140.57,105.58,132.76,110.27,134.07,106.27Z"/><path class="cls-35" d="M63.18,100.22h-1c-.4-1.38-1.68-1.2-2.61-1.24-1.84-.06-3.59-.66-5.41-.82-1-.08-1.49-.52-1-1.68.53-1.38.87-2.85,1.34-4.26.62-1.87,1.09-3.73.06-5.62.65-.54,1,0,1.38.39,1.62,1.57,1.61,1.57,3.47.07a.74.74,0,0,1,.77-.18,1.72,1.72,0,0,0,1.06.4,2.5,2.5,0,0,1,1.54,1.83c.48,2.16,1.14,4.31.5,6.55C63.37,97.18,62.62,98.69,63.18,100.22Z"/><path class="cls-36" d="M139.49,180.49a4.19,4.19,0,0,0,1.93-.68c2.64.53,3.88,1.78,4.36,4.35l-.34.34a5.64,5.64,0,0,0-1.35.66h0c-1.77.27-3.48,1.08-5.34.68a11.92,11.92,0,0,1-8-2.67c.6-1.25.88-2.77,2.62-3a5.31,5.31,0,0,0,5,.47A2,2,0,0,1,139.49,180.49Z"/><path class="cls-36" d="M181,158.7a15.9,15.9,0,0,1-12.44-.27c0-2.6,1.72-4,3.67-5.29a19.59,19.59,0,0,0,6.1-.23.6.6,0,0,1,.32,0A7.2,7.2,0,0,1,181,158.7Z"/><path class="cls-37" d="M172.18,153.37a19.05,19.05,0,0,0-3.67,5.06,12.12,12.12,0,0,1-6.66-6l6.61-1.13,3.72.06C173.41,152.32,173.41,152.51,172.18,153.37Z"/><path class="cls-37" d="M181,158.7c-.83-1.84-1.65-3.67-2.47-5.51-.78-.7-.65-1.15.38-1.36,2.27-.8,4.58-.31,6.87-.14.61.05,1.21.06,1.82.09.62.61.14,1.11-.18,1.61A14.23,14.23,0,0,1,181,158.7Z"/><path class="cls-38" d="M145.78,184.16a.76.76,0,0,1-.64-.47,4.65,4.65,0,0,0-3.38-3.35c-.15,0-.23-.35-.34-.53,3.17-2.17,5.73-1.75,8.36,1.35A9.35,9.35,0,0,1,145.78,184.16Z"/><path class="cls-39" d="M132.28,181.78c-.83.85-1.19,2.11-2.36,2.66a7.68,7.68,0,0,1-3.33-5.33c1.28-1.74,2.69-.6,4.07-.19.71.56,1.68.75,2.21,1.57C133,181.06,133.13,181.65,132.28,181.78Z"/><path class="cls-40" d="M138.76,185.84l5.34-.68C142.37,185.76,140.66,186.58,138.76,185.84Z"/><path class="cls-41" d="M144.09,185.16a1.29,1.29,0,0,1,1.35-.66A2,2,0,0,1,144.09,185.16Z"/><path class="cls-42" d="M97.66,107.24a5,5,0,0,1,6.12,3.11c.76,1.8,2.31,3.12,3.56,4.61a4.33,4.33,0,0,0-.38,1.77,1.2,1.2,0,0,1-1,1.14c-.65.08-.83-.41-.93-.94s-.33-.81-1-.51c-1.58.67-2.25.25-2.29-1.49,0-1.19-.19-1.71-1.6-1.4a2.13,2.13,0,0,1-2.29-1.33c-.21-.44-.26-1-.78-1.22-2.44-1.58-5.55-.53-7,2.37-.15.3-.27.61-.41.91a2.56,2.56,0,0,1-2.25-2.08,2.1,2.1,0,0,1,1.14-2.65,1.91,1.91,0,0,0,.75-.86c1.85-3.4,4.87-4,7.82-1.67A1,1,0,0,0,97.66,107.24Z"/><path class="cls-43" d="M89.29,126.3a2.41,2.41,0,0,0,1.48,0,3.81,3.81,0,0,1,1.52,1c1.38,1.59,3,1.44,4.74.7h.26a1.86,1.86,0,0,0,1.34,1c0,1.47-.13,2.93-1.53,3.86a9.92,9.92,0,0,1-4.49-2.26,18.35,18.35,0,0,0-3.9-2.36C88.15,127.41,88.74,126.86,89.29,126.3Z"/><path class="cls-44" d="M90.23,125.69A3.05,3.05,0,0,1,89,124.31c.26-.6.63-1,1.38-1a9.18,9.18,0,0,0,3.45-.46,1,1,0,0,1,1.28.48c.31.6-.17,1-.56,1.23A6.57,6.57,0,0,1,90.23,125.69Z"/><path class="cls-45" d="M97.66,107.24c-.31.89-.64.2-.9,0-2.54-2.11-5.53-1.54-7.14,1.39a3.56,3.56,0,0,1-.77,1c-1.75,1.51-1.75,2.38,0,4,.24.22.52.4.78.6-.31.47-.72.13-1.08.12s-.44.09-.55-.18c-1.47-2.73-1.47-2.72.59-5.07a2.92,2.92,0,0,0,.36-.73A5.07,5.07,0,0,1,97.66,107.24Z"/><path class="cls-46" d="M97,128a2.62,2.62,0,0,1-3,1.06c-.9-.26-1.84-.52-1.78-1.76A14.64,14.64,0,0,0,97,128Z"/><path class="cls-21" d="M121.8,102.93c2-2.27,4-4.52,6.8-5.93,1.35-.69,2.68-1.4,4.16-.35-1.75,2.52-3.88,4.78-5.23,7.58-.33.69-.75,1.34-1.12,2-1.39.29-2.08-.9-3-1.5A3.73,3.73,0,0,1,121.8,102.93Z"/><path class="cls-47" d="M136,94.93a12.31,12.31,0,0,1,5-.63,20.66,20.66,0,0,1,.43,2.92c-.08,1.56-7.15,8.75-6.68,2h0C135.11,98.3,135.28,97,136,94.93Z"/><path class="cls-42" d="M69.53,60.87c1.51.79,3.4.71,4.7,2,0,1.63.46,3.45-1.43,4.43a5.18,5.18,0,0,1-5.53-.51c-1.06-.74-1.61-.76-2.51.23-1.14,1.27-3.21,1.12-4.86-.06-1.49-1.07-1.77-1-2.4.78,0,0,0,.11,0,.16-1,2.94-1.3,3.1-4.31,2.58-1.34-.36-2,.44-2.55,1.47-.3.58-.37,1.27-.71,1.84a3.47,3.47,0,0,0-.36,2.42c.06,2-.3,3.77-2.32,5,1.66.7,3.19,1.27,3.66,3a1.62,1.62,0,0,1-.35,1.85c-3.08,1-4.31,3.77-5.89,6.19-.68,1-1.32,2.06-2.76,2C37,92.49,35,86,37.86,80.93a8.8,8.8,0,0,1,4.94-4.42c1.2,0,1-.71.82-1.47a7.68,7.68,0,0,1,3.45-7.9,2.72,2.72,0,0,1,2.82-.37c.67.37.91.15,1-.53.39-6.48,9.66-10,15-7.61a7.34,7.34,0,0,1,2.5,2.16C68.74,61.29,69.06,61.66,69.53,60.87Z"/><path class="cls-7" d="M49.55,73.48c-.38-1.61,2.79-5.57,3.59-3-2.09,6.85,3.19,8.12,5,.59,1.11-4.52,2.94.84,4.9-.56,6.43-4.63,3.16,2,8.45,1.66C72.7,89.11,57.2,93.24,49.55,73.48Z"/><path class="cls-48" d="M135.75,115c.57-2.75-1.08-13.87-4.34-7.38.24,1.54-.53,2.12-2,2-2.16-.13-6.46-.38-6.63,2.56.35,2.55,4.63,0,4.4,2.83C126.14,120,137.86,120.36,135.75,115Zm0,0Z"/><path class="cls-14" d="M102,148.76c.08,1.21-.86,1.72-1.65,2.31a14.62,14.62,0,0,1-4,2c-2.62.56-5-1.7-4.34-4a9,9,0,0,1,7.69-1.6C100.62,147.53,101.6,147.61,102,148.76Z"/><path class="cls-49" d="M92.28,149.38a1.06,1.06,0,0,0,.28,1.46c1.09,1,2.11,2.12,3.74,2.23A8.46,8.46,0,0,1,93,154.4c-.83-1.42-2.19-1.25-3.49-1.12a14.33,14.33,0,0,0-4.17,1.57,23.56,23.56,0,0,0-.27-3.44,2.93,2.93,0,0,0-1.17-1.7v0a1.93,1.93,0,0,1,2.84.19,4.54,4.54,0,0,1,.48.67c1,1.41,2.24,1.37,3.07-.11a4.57,4.57,0,0,1,.58-1C91.32,149.07,91.79,148.91,92.28,149.38Z"/><path class="cls-50" d="M106.71,137.7c.64,1.62.8,3.21-.36,4.69-.87,1-1.34,2.42-2.61,3.13-1.55.45-3,1.18-4.54,1.68-2.08,0-2.71-.56-3-2.36a1.24,1.24,0,0,1,.25-.5.91.91,0,0,1,.75-.18c1,1.17,2.07,1,3.1,0a2.83,2.83,0,0,1,1.29-.73,1.6,1.6,0,0,0,1.31-1.85,1.93,1.93,0,0,1,1.06-2.07,1.61,1.61,0,0,0,.75-1.22c.16-.61.37-1.19,1.15-1.22.39,0,.57.31.74.6Z"/><path class="cls-51" d="M56.11,83.61c1.3.73,2.28,2,3.83,2.34.08.31.15.62.22.93a.88.88,0,0,0-.26.19c-1.73,2.76-2.48,2.79-4.48.17-.23-.3-.4-.68-.88-.64l0-.14A4.88,4.88,0,0,1,56.11,83.61Z"/><path class="cls-29" d="M21.4,57.81a5.49,5.49,0,0,1,2,2.69c0,.7.23,1.44-.25,2.08-6.31,4.24-14.68,1.18-17.38-3.77-.42-2,.2-3.05,2.31-3.73a1.76,1.76,0,0,1,1.22.49c2.57,2.41,5.67,2.52,8.9,2,.6-.1,1.2-.24,1.81-.32S21.12,57.14,21.4,57.81Z"/><path class="cls-52" d="M31.45,145.08c.64-1.54,1.32-3.07,1.92-4.63.81-2.11.52-3-1.35-4.32s-1.94-1.88-.26-3.57A6.89,6.89,0,0,1,33.93,131c1.76-.74,2.84-.31,3.58,1.46.28.67.48,1.37.78,2a1.79,1.79,0,0,0,3.07.4,10.45,10.45,0,0,1,3-2.84,1.63,1.63,0,0,1,2.43.58,5.51,5.51,0,0,1,.61,1.18c.35,1,1.15,1.94.33,3s-2,.87-3.06.49c-.41-.14-.92-.37-1.2.12s.25.69.39,1a2.16,2.16,0,0,0,1.68,1.23c1,.25,2.06.47,3.08.75.87.24,1.74.52,1.94,1.59-.32.34-.71.22-1.09.17s-1-.48-1.35,0,.18.93.42,1.36c.49.82,1,1.65.28,2.59a2.13,2.13,0,0,1-2.42.82c1.12.92,2-.85,3.18-.36-.49,1.4-1.69,1.68-2.92,1.69a31.17,31.17,0,0,1-4.63-.25c-2-.3-3.41.2-3.85,2.37-.72.37-1.29,0-1.82-.41-1.52-1.09-2.94-2.32-4.36-3.53C31.59,146.15,31.2,145.72,31.45,145.08Z"/><path class="cls-22" d="M31.45,145.08a37.51,37.51,0,0,0,6.74,5.37c.69.9,1,1.79-.11,2.61a6.79,6.79,0,0,1-3.82-1.76c-1.74-1.33-3.37-2.79-5-4.2C29.4,145.08,29.9,144.63,31.45,145.08Z"/><path class="cls-53" d="M49.59,146.64c-1.27,1-2.58,1.6-4.05.41-.43-.35-1-.91-.57-1.38s.82.18,1.09.5c.76.9,1.46.52,2.16,0s.55-1.13,0-1.83-1.63-1.89-.83-2.79c1-1.09,2.09.25,3.15.5C51.1,143.74,50.28,145.17,49.59,146.64Z"/><path class="cls-25" d="M56.11,83.61a3.23,3.23,0,0,1-1.54,2.85l-4.06-.33c-.12-2.76-.72-3.42-3.59-3.93-.39-.07-.81-.11-.9-.57s.31-.68.65-.83c1.77-.8,2.28-2.21,2.19-4,0-1.12-.34-2.35.69-3.27,1,1.5,1.49,3.39,3.5,4a.89.89,0,0,1,.45.63C53.83,80.2,55.21,81.78,56.11,83.61Z"/><path class="cls-22" d="M88.6,128.06c-2.34,1.55-5.35,1.6-7.63,3.32a1.49,1.49,0,0,1-1-1.76,29.27,29.27,0,0,1,2.28-5.53c2-1.83,2.06-1.84,4.23-.12,1,.76,1.88,1.55,2.81,2.33C89.74,127.16,88.77,127.45,88.6,128.06Z"/><path class="cls-23" d="M96.66,144.42c-5.08,10.6-22.3,2.71-15.85-8.28,1.46-4,7.5-1.48,10.71-2C96,132,99.18,142,96.66,144.42Z"/><path class="cls-42" d="M80.25,140.7c-2.06,2.38-1.57-5.36-3.28-.83.43,4.13,1,6.81-3.75,3.21-2.14-.94-1.11-3.89-2.28-5.7.93-3.16,5.13-3.44,7.77-2.5,1.12-.11,1.46-2.56,2.26-3.5.79-2.17,5.56-3.31,7.63-3.33,1.69,0,3.21.35,4.09,2,1.61,1.23,4,1.8,5.34,3.39,1.71,3.11,7.58-3,8,3.88-1.53.46.19,2.86-2,2.82-.53,0-.64.5-.52,1,.4,1.77-.28,2.77-2.13,3-1.56.83-2.92,3-4.11.29,3.24-1.3,4.43-4.31.89-6.26-.62,6.71-1.9-3.15-3.71-3.91-.91-.71-1.64-1.29-2.84-.31-1.52,1.56-3.13-1.4-4.53-.27C82.32,135.22,80.52,131.47,80.25,140.7Z"/><path class="cls-54" d="M70.94,137.2c.62.67.8,1.68,1.82,2.05.59.21.2.57-.05.88-.92,1.12-.31,1.88.74,2.24a2.62,2.62,0,0,1,1.78,1.21c.45.85,1.27.68,2,.29a6,6,0,0,1,3,0c.5.57.32,1.27.38,1.93-1.42,1.61-2.76,1.63-4.17.13A5.52,5.52,0,0,0,73,144a2.21,2.21,0,0,1-2.13-2.17C70.8,140.32,70.91,138.76,70.94,137.2Z"/><path class="cls-55" d="M178.86,151.83a1,1,0,0,0-.38,1.36c-.45.3-.9.61-1.36.9a3.45,3.45,0,0,1-4.94-.72,1.25,1.25,0,0,0,0-2,11.22,11.22,0,0,0,6.13-.32A.67.67,0,0,0,178.86,151.83Z"/><path class="cls-56" d="M173.85,142.32c-.12.81-.23,1.69-.38,2.56-.12.64-.39,1.25-1.19,1.09s-1.59-.21-1.75-1.23a8.89,8.89,0,0,1,1.85-4.36c.24-.17.5-.3.75-.09A2.4,2.4,0,0,1,173.85,142.32Z"/><path class="cls-57" d="M164.75,145.13c-.59.51-1,1.41-2,1.05a1.83,1.83,0,0,1-1.35-1.5c-.09-.69,0-1.25,1-.93.67.22,1.39.39,2-.27C165,143.89,164.65,144.57,164.75,145.13Z"/><path class="cls-57" d="M183.9,143.74c-.59.51-1,1.41-2,1a1.82,1.82,0,0,1-1.35-1.5c-.1-.69,0-1.25.94-.93.68.22,1.39.39,2-.27C184.11,142.5,183.81,143.18,183.9,143.74Z"/><path class="cls-58" d="M167.53,140.06c0,.22,0,.44-.05.66a4,4,0,0,1-1.76-.75A1.62,1.62,0,0,1,167.53,140.06Z"/><path class="cls-59" d="M182.2,142.37c-.48-.1-1-.18-1-.87.84-.26,1,.26,1,.87Z"/><path class="cls-22" d="M106.05,137.32c-.22-.38-.46-.75-.65-1.15a2.88,2.88,0,0,0-3.8-1.71c-1.13.37-2.31,1.39-3.29,1.2-.63-.12-.59-2-1.3-3,1-1,.33-2.74,1.62-3.61,3-.24,4.9,1.44,6.34,3.8a9.72,9.72,0,0,1,1.67,4.82Z"/><path class="cls-60" d="M66,74.91c.14,1.71,0,3.43.26,5.15.12.78-.62,1.09-1.4,1"/><path class="cls-61" d="M91,148.77c0,.33,0,.65.08,1-.07,1.46-.77,2.5-2.28,2.53a2,2,0,0,1-2.28-1.89c0-.43,0-.87,0-1.3C88,147.87,89.48,148.3,91,148.77Z"/><path class="cls-62" d="M97.31,140.38c.59-.68.15-1.65.66-2.36a.19.19,0,0,1,.33,0c1.9.25,2.66,1.13,2.69,3.09s-.65,2.93-2.54,3.25a11.11,11.11,0,0,1-1.16.07h-.63c0-1.27.93-2.39.64-3.72-.08-.07-.11-.14-.08-.21S97.28,140.38,97.31,140.38Z"/><path class="cls-7" d="M5.44,51.1c.18-.79.82-.91,1.53-1-2.19-.76.32-2.29,1.38-2.7,3.3-1.13-.14-9.22,4.68-3.91,2.82,4.18,6.48.7,10.11,1.2.46,1.92-2,4.12.71,5.37.22,2.24-.84,2.54-2.76,2.42,4.92-1.29,5,4.9.07,2.07C29.55,57.9,10,60.67,8,55.46c-2.38-1.5-3.6-3.26.11-3.63C7.24,50.66,5.14,52.81,5.44,51.1Z"/><path class="cls-63" d="M23.76,50.13c-1.35.28-2.3-.94-1.85-2.55a22.4,22.4,0,0,1,1.23-2.86,1.26,1.26,0,0,1,.88,1.1C23.86,47.25,24.2,48.72,23.76,50.13Z"/><path class="cls-63" d="M10.33,42c1.53,1,1.12,2.66.93,4.08S10,47.28,9,47.21A12.28,12.28,0,0,1,10.33,42Z"/><path class="cls-63" d="M23.76,50.13c.15-1.43-.29-2.9.26-4.31a7.86,7.86,0,0,1-.22,4.7C23.79,50.39,23.77,50.26,23.76,50.13Z"/><path class="cls-64" d="M54,170.44c3.11.2,4.54-1,4.88-3.87.13-1,.46-2.08,1.59-2.32s1.75.71,2.17,1.67c.2.49.21,1.14,1,1.17,1.16.06,1.8.7,1.56,1.85a1.74,1.74,0,0,1-2.24,1.48c-1.91-.66-2.84.65-4,1.55a1.48,1.48,0,0,0-.62,2,1.78,1.78,0,0,1-.87,2.54c-1.17.54-1.8-.3-2.12-1.24s-1-.7-1.59-.92c-1-.39-2-1-1.78-2.28A1.81,1.81,0,0,1,54,170.44Z"/><path class="cls-20" d="M135.28,170.05c.05.85.62,1.13,1.34,1.07,1.41-.13,2.82-.34,3.76-1.61.42-1.12,1.29-1,2.19-.79,2.07.59,3,4,1.43,5.53a1.7,1.7,0,0,1-2.29.08,5.6,5.6,0,0,0-6.77.9c-.57.6-1,1.43-2,1.16s-1.34-1.28-1.55-2.2a3.73,3.73,0,0,1,2.83-4.58A.84.84,0,0,1,135.28,170.05Z"/><path class="cls-65" d="M40.11,139.43c-.32.73-.18,1.91-1.19,2.06-.75.11-1.21-.66-1.15-1.52s.12-2,1.18-2.14S39.92,138.68,40.11,139.43Z"/><path class="cls-25" d="M97.31,140.38c0,.11,0,.22,0,.32-1,.11-1-.6-1.09-1.27-.33-1.8-.59-3.63-2.2-4.87-.6-.46-1.06-.82-1.86-.19a2.82,2.82,0,0,1-3.55,0,1.22,1.22,0,0,0-1.6-.11,3.08,3.08,0,0,1-2.89.25c-1.57-.67-2.1.27-2.63,1.38-.74,1.51-.55,3.25-1.23,4.77-.18-.12-.46-.2-.52-.36-.55-1.45.79-5.62,2.07-6.58a1.92,1.92,0,0,1,2.13-.31,2.67,2.67,0,0,0,3.23-.49c.62-.7,1.08-.43,1.67.08,1,.9,2.17,1.11,3.18-.12.36-.44.69-.66,1.25-.26,1.57,1.09,3.09,2.2,3.41,4.29C96.85,138.1,97.09,139.24,97.31,140.38Z"/><path class="cls-66" d="M80.22,144.1c-1,.88-2,.59-3,0a6.27,6.27,0,0,1-1-4.13,2.94,2.94,0,0,1,1-2c.8-.67,1.38-.81,1.74.53.23.89-.24,2.1.94,2.66C79.75,142.11,80.22,143.09,80.22,144.1Z"/><path class="cls-67" d="M98.3,138,98,138a1,1,0,0,1,.08-1.31.42.42,0,0,1,.4,0C98.81,137.14,98.49,137.57,98.3,138Z"/><path class="cls-63" d="M17.34,53.45c.87.16,1.65.63,1.62,1.56a1.56,1.56,0,0,1-1.8,1.35c-.84,0-1.77-.38-1.63-1.46A1.72,1.72,0,0,1,17.34,53.45Z"/><path class="cls-68" d="M11.75,54.82c-.72-.12-1.64.24-1.95-.8a1.18,1.18,0,0,1,.47-1.46c.71-.46,1.45-.67,2.09.07.86,1,0,1.58-.61,2.2Z"/><path class="cls-69" d="M12.42,54.82c1-.38,1.5-.92.85-2a.59.59,0,0,1,.39-.92,1.6,1.6,0,0,1,1.44.17.61.61,0,0,1,.09,1c-1.31,1-.61,1.9.12,2.85-1.15.58-1.49-1.26-2.52-.71C12.43,55.31,12.34,55.15,12.42,54.82Z"/><path class="cls-70" d="M12.38,49.18c-.16.55-.17,1.41-1,1.39s-.91-.73-.82-1.35.26-1.4,1.13-1.35S12.41,48.55,12.38,49.18Z"/><path class="cls-71" d="M19.18,49.94c-.11.62.08,1.51-.92,1.46-.69,0-.83-.71-.73-1.27s0-1.53.91-1.57S19.09,49.39,19.18,49.94Z"/><path class="cls-69" d="M12.42,54.82l.37.38a1.16,1.16,0,0,1-1.36.14l.32-.52h.67Z"/><path class="cls-3" d="M125.68,47.42a19.79,19.79,0,1,1,19.78-19.79A19.82,19.82,0,0,1,125.68,47.42Z"/><path class="cls-4" d="M125.68,9.77a17.87,17.87,0,1,1-17.87,17.86A17.88,17.88,0,0,1,125.68,9.77m0-3.85a21.71,21.71,0,1,0,21.7,21.71,21.71,21.71,0,0,0-21.7-21.71Z"/><path class="cls-72" d="M128.11,26.14l1.09,2.53s0,.16.32-.06a4.61,4.61,0,0,0,.48-.48l2.21,3.67-.39.58s-1.3,2.67-2.63,2.64-3.58-5.17-3.58-5.17l-.47-3.37Z"/><polygon class="cls-73" points="125.31 39.27 125.38 41.24 123.73 41.86 123.03 40.96 123.63 39.53 125.31 39.27"/><path class="cls-42" d="M113.66,44a16.74,16.74,0,0,1-3.08-1.82.79.79,0,0,1-.2-.25,5.43,5.43,0,0,1-.75-2.31,7.77,7.77,0,0,1,.76-3.79.4.4,0,0,1,.24.14,6.16,6.16,0,0,0,3.62,1.52c1.32.14,2.64.3,4,.32.2,0,.37.11.56.13s0,0,0,0a7.24,7.24,0,0,1,2,1.47,9.45,9.45,0,0,1-.26,1.39.35.35,0,0,1-.18.25c-.31.07-.62-.19-.93,0a2,2,0,0,1-.93-.06,2.42,2.42,0,0,0-1.35.19,5.9,5.9,0,0,0-2.64,2A1.91,1.91,0,0,1,113.66,44Z"/><path class="cls-74" d="M126.17,46.36l-8.52-.18a3.53,3.53,0,0,1-3.45-3.6l-.33,1.64a3.53,3.53,0,0,1,3.59-3.45L126,41a3.54,3.54,0,0,1,3.45,3.6l.33-1.64A3.53,3.53,0,0,1,126.17,46.36Z"/><path class="cls-75" d="M138.15,44.47l-6,1.13a1.93,1.93,0,0,1-1.82-2l.36-7.84a1.91,1.91,0,0,1,2-1.82l7,.32a1.9,1.9,0,0,1,1.82,2l-1.34,6.4A1.92,1.92,0,0,1,138.15,44.47Z"/><rect class="cls-72" x="118.35" y="16.64" width="3.52" height="4.7" rx="1.66" transform="translate(7.84 -27.74) rotate(13.61)"/><rect class="cls-72" x="134.64" y="30.71" width="3.52" height="4.7" rx="1.66"/><rect class="cls-72" x="120.11" y="37.87" width="3.52" height="4.7" rx="1.66"/><path class="cls-7" d="M111.3,32.63c-5-.61-7.09-1.6-3-6,.29-.3.82-.84,1.09-1.19.63-.51,1.43,1.1,2,1.49s.32.71,0,1.05c-.74.94.38,1.4,1.2,1,1.44.22,2.85.72,4.29,1.05.82,0,.63,1.23,0,1.34-1.29-.47-1.92,1-2.2,2A6.73,6.73,0,0,1,111.3,32.63Z"/><path class="cls-76" d="M133.6,34.4c.14,1.93-4.85,10.54-1.49,10.49a17.07,17.07,0,0,1-2.47,1,9.22,9.22,0,0,0-2.24-3.27C127.71,40.41,130.69,31.89,133.6,34.4Z"/><path class="cls-77" d="M112.12,43.89c2.51-4.49,9.5-4.5,6.23,1.83A20,20,0,0,1,112.12,43.89Z"/><path class="cls-74" d="M112.93,20.1l.89-.44a1.72,1.72,0,0,1,.65.48,6.2,6.2,0,0,0,2.93,1.51,13.12,13.12,0,0,0,6.41-.12.24.24,0,0,1,.2.16,4.93,4.93,0,0,1,.54,2.16.23.23,0,0,1-.06.12,2.52,2.52,0,0,1-1.07.23c-.91,0-1.79.36-2.71.31a10.53,10.53,0,0,1-3.67-.82,8.14,8.14,0,0,0-1.07-.41,11.77,11.77,0,0,1-3.22-1.63c-.54-.34-.55-.81-.08-1.25A.83.83,0,0,0,112.93,20.1Z"/><path class="cls-35" d="M112.93,20.1c.07,0,.14,0,.07.13l-.25.26c-.42.43-.39.74.11,1.06a20.76,20.76,0,0,0,3.54,1.74,19.34,19.34,0,0,0,3.64,1,3.42,3.42,0,0,0,1.46,0c.91-.24,1.87-.17,2.78-.41l.19,0a2,2,0,0,1,.18,1.39,1,1,0,0,1-.67.42,11.81,11.81,0,0,1-6.43-.16,3.28,3.28,0,0,1-1.06-.38c-.19-.25,0-.42.12-.62s.37-.44.2-.54-.32.23-.46.39-.23.46-.5.57a.29.29,0,0,1-.16,0c-1.64-.37-3.29-.76-4.46-2.13a4.09,4.09,0,0,1-.68-.86A21.43,21.43,0,0,1,112.93,20.1Z"/><path class="cls-74" d="M111.2,33l.08-.18a1.27,1.27,0,0,1,.44.08,27.89,27.89,0,0,0,3.76,1.31.48.48,0,0,1,.23.17,2.6,2.6,0,0,0,1.34.94,1.07,1.07,0,0,1,.7.69,7.43,7.43,0,0,0,.37.81.58.58,0,0,1,.09.51.42.42,0,0,1-.4.16,19.08,19.08,0,0,1-6-1.07A5.08,5.08,0,0,1,111,36a.93.93,0,0,1-.47-.54A5.4,5.4,0,0,1,111.2,33Z"/><path class="cls-76" d="M139.77,40.89c-.15-.94-1.75-6.44-.84-6.34,1.86-.85,3.24,1.06,4,2.49A14.51,14.51,0,0,1,139.77,40.89Z"/><path class="cls-77" d="M126.28,45.91a9.81,9.81,0,0,0-1.31-5,4.54,4.54,0,0,1,5.08,4.23A14.75,14.75,0,0,1,126.28,45.91Z"/><path class="cls-74" d="M110.55,22c.36.09.49.42.71.67a5.47,5.47,0,0,0,3,1.78,16,16,0,0,0,1.65.43.15.15,0,0,1,0,.11,5.54,5.54,0,0,1-2,2.19l-.15.08a.32.32,0,0,1-.23.05,15.13,15.13,0,0,1-3.42-2.34,5.72,5.72,0,0,1-.73-.66.82.82,0,0,1-.25-.74A6.41,6.41,0,0,1,110.55,22Z"/><path class="cls-35" d="M124.11,21.57c-.06.22-.56.21-.72.24a14.92,14.92,0,0,1-4,.32,8.37,8.37,0,0,1-4.53-1.48,2.84,2.84,0,0,1-1-1,4,4,0,0,1,1.69-.87,2.8,2.8,0,0,1,.59-.09,10.2,10.2,0,0,1,1.1,0c.23,0,.28.15.29.31.12,1.68,1.58,2.26,2.75,2.43a1.16,1.16,0,0,0,.64-.08,5.73,5.73,0,0,0,2-1,.42.42,0,0,1,.3-.13C123.56,20.44,124.21,21.16,124.11,21.57Z"/><path class="cls-35" d="M110.56,35.48A8.41,8.41,0,0,0,114.69,37c1,.2,2,.19,3.06.32a.45.45,0,0,0,.43-.08.85.85,0,0,1,.65.79c-1.19,0-2.39-.14-3.58-.26a9.82,9.82,0,0,1-2.84-.52,5.73,5.73,0,0,1-1.7-1c-.14-.12-.31-.23-.32-.45l.1-.37C110.5,35.44,110.52,35.44,110.56,35.48Z"/><path class="cls-74" d="M118.39,18.61c0,.29-.09.57-.12.85a.92.92,0,0,0,.22.73,2,2,0,0,0,2,.75c.85-.17,1.14-.78,1.32-1.52l.06-.23a1,1,0,0,1,.65.09c0,.08-.13.09-.16.18a1.79,1.79,0,0,1,.84.7.17.17,0,0,1,0,.1,4.58,4.58,0,0,1-2.23,1.21,3,3,0,0,1-2.72-.73,2,2,0,0,1-.86-1.72c0-.23-.08-.32-.31-.31s-.63,0-.94,0a5,5,0,0,1,1.09-.08,2.89,2.89,0,0,0,.45-.14A.66.66,0,0,1,118.39,18.61Z"/><path class="cls-35" d="M109.09,23.53c.94,1.72,2.9,2.58,4.42,3.69C112.5,29.5,107.54,24.75,109.09,23.53Z"/><path class="cls-78" d="M115.48,34.33a15,15,0,0,1-3.58-1.18c-.2-.1-.51,0-.62-.31l0-.21a30.89,30.89,0,0,0,3.43.64,3.52,3.52,0,0,0,.68.39A.51.51,0,0,1,115.48,34.33Z"/><path class="cls-79" d="M142,27.28A2.32,2.32,0,0,1,139.62,31c-1.32,1.13-2.92,2.31-4.77,2.28-4.82.11-6.38-5.69-4.53-9.36.13-.46.3-.56.75-.47a15.76,15.76,0,0,0,6.85-.67c1.94-.21,2.15,3.74,2,5C140.65,27.58,141.08,26,142,27.28Z"/><path class="cls-42" d="M142,27.28l-.36-.19a.68.68,0,0,0-1,.25c-.11.15-.2.32-.32.47s-.31.28-.53.16a.38.38,0,0,1-.15-.5c.51-1.53-.08-2.86-.79-4.15-.31-.56-.44-.56-1.06-.37a18.44,18.44,0,0,1-5.47.76,5.45,5.45,0,0,1-1.45-.19c-.21-.06-.31,0-.36.19s-.18.61-.24.91a.45.45,0,0,1-.44.41.62.62,0,0,1-.4-.43,9.75,9.75,0,0,1-.83-3.6c0-.41.21-.6.62-.52a3.28,3.28,0,0,1,.74.33c.25.12.4.14.4-.21a3.57,3.57,0,0,1,.1-.73.68.68,0,0,1,.47-.57c.28-.08.46.08.63.28s.14.12.25.22a8.52,8.52,0,0,1,.19-.86c.05-.2.14-.4.37-.44s.37.13.48.31a2,2,0,0,0,.43.54.41.41,0,0,1,.22.23.68.68,0,0,0,.86.44.55.55,0,0,1,.66.33,2,2,0,0,0,1.5,1.08,5.12,5.12,0,0,0,2.1,0,1.6,1.6,0,0,0,1-.67.66.66,0,0,1,.49-.31,2.83,2.83,0,0,1,1.49,1.14,6.67,6.67,0,0,1,1.13,4.53A1.41,1.41,0,0,1,142,27.28Z"/><path class="cls-7" d="M140.18,20.44a3.31,3.31,0,0,1-3.69,1.14c-1.49-.22-1.31-1.28-1.93-1.45-.86.15-1,.05-1.25-.78.27-1.17,2.94-1.86,4-1.51s3,.88,2.8,2.37C140.07,20.31,140.06,20.4,140.18,20.44Z"/><path class="cls-80" d="M127.84,24l.38.67a2.24,2.24,0,0,1,.26.54c.13.42.34.66,0,.94a12.09,12.09,0,0,1-1.89.52,5.65,5.65,0,0,1-1.69.12c-.15,0-.34.13-.45,0a2.51,2.51,0,0,1,.09-1.48.76.76,0,0,1,.5-.39,19.32,19.32,0,0,0,2.24-1A.4.4,0,0,1,127.84,24Z"/><path class="cls-80" d="M124.47,23.86a12.07,12.07,0,0,0-.57-2.12c0-.06.06-.14.12-.16a18.28,18.28,0,0,1,1.74-.66,8.43,8.43,0,0,1,1.29,1.74c.13.37-.27.26-.58.51a3.94,3.94,0,0,1-1.77.75A.32.32,0,0,1,124.47,23.86Z"/><path class="cls-81" d="M124.47,23.86a7,7,0,0,0,2.58-1.2,9.33,9.33,0,0,1,.79,1.36c-1,.07-2.42,1.32-3.29,1.32A14.68,14.68,0,0,1,124.47,23.86Z"/><path class="cls-81" d="M125.76,20.92a5.09,5.09,0,0,1-1.86.82,8.89,8.89,0,0,0-.74-1.48,1.78,1.78,0,0,1,0-.83A4.31,4.31,0,0,1,125.76,20.92Z"/><path class="cls-82" d="M123.55,19.51c.07.19-.29.5-.39.75-.41-.21-.73-.78-1.23-.86-.08,0-.15-.06-.13-.14a.21.21,0,0,1,.19-.11h.42A5.84,5.84,0,0,1,123.55,19.51Z"/><polygon class="cls-7" points="115.3 29.77 118.63 30.64 116.65 33.68 114.56 33.25 115.3 29.77"/><path class="cls-35" d="M119.15,28.28a4.55,4.55,0,0,0-1.61,1.65.73.73,0,0,1-.7.05c-1-.27-2-.38-2.89-.67a.34.34,0,0,0-.28,0l-.32-.07a3.69,3.69,0,0,1,1.39-1.81c.64.11,1.26.33,1.91.39s1.34.2,2,.21C118.86,28,119.09,28,119.15,28.28Z"/><path class="cls-81" d="M114.65,27.54c-.49.53-.84,1.16-1.3,1.71l-.82-.15c-.08-.07-.2-.07-.25-.18s0-.24-.08-.36A2.63,2.63,0,0,0,112,28a.25.25,0,0,1,0-.36,2.22,2.22,0,0,0,1.56-.4l.16-.08a1.44,1.44,0,0,1,1,.29A.09.09,0,0,1,114.65,27.54Z"/><path class="cls-83" d="M117.66,31.86a.41.41,0,0,1-.07.49.82.82,0,0,0-1.24.34A1.64,1.64,0,0,0,116,34c0,.07,0,.16-.06.24-.4.15-.47-.16-.58-.41a1.2,1.2,0,0,1,.2-1.11,2.35,2.35,0,0,1,.81-.85A1,1,0,0,1,117.66,31.86Z"/><path class="cls-84" d="M112.53,29.1c-1.58.57-2-.53-1-1.72A2.7,2.7,0,0,1,112.53,29.1Z"/><path class="cls-85" d="M113.67,29.32c.11-.25.29-.08.42-.05,1.13.29,2.31.4,3.45.66-.07.13-.13.26-.19.4Z"/><path class="cls-74" d="M114.65,27.54v-.08a.33.33,0,0,1,.06-.27c.54-.7,1-1.46,1.58-2.14a.24.24,0,0,1,.17,0,17.47,17.47,0,0,0,4,.84,14.28,14.28,0,0,0,3.58-.36,1.09,1.09,0,0,0,.51-.15h0v1.59a7.91,7.91,0,0,1-2.28,0,4.64,4.64,0,0,0-3,1.25l-.14.08a5.77,5.77,0,0,0-1.44-.14A15.93,15.93,0,0,1,114.65,27.54Z"/><path class="cls-86" d="M116.46,25l-.09.08c-.18,0-.37,0-.49-.17v-.08c.2-.31.39-.62.59-.92s.27-.29.48-.16.11.31,0,.46Z"/><path class="cls-87" d="M115.88,24.92c.18,0,.38,0,.49.17-.54.81-1.1,1.61-1.72,2.37-.32-.11-.7-.07-1-.32A8.33,8.33,0,0,0,115.88,24.92Z"/><path class="cls-88" d="M133.72,30a3.19,3.19,0,0,1,.41.09,2.77,2.77,0,0,0,2.51-.63c.09-.08.18-.23.3-.14s0,.25,0,.36a.73.73,0,0,1-.22.24,3,3,0,0,1-2.51.54C134,30.42,133.74,30.34,133.72,30Z"/><circle class="cls-89" cx="131.35" cy="26.23" r="0.86"/><circle class="cls-89" cx="136.25" cy="26.48" r="0.86"/><path class="cls-35" d="M111.3,32.63l4,.76a2.87,2.87,0,0,0,.18.94l-3.6-1.26-.5-.22Z"/><circle class="cls-90" cx="122.64" cy="34.55" r="5.55"/><path class="cls-91" d="M122.39,38a1.6,1.6,0,0,1-1.63-1.38c0-.15,0-.34.17-.37s.23.15.27.29a1.37,1.37,0,0,0,2.24.77l.42-.33c.07,0,.16-.14.25,0s0,.2,0,.29a1.53,1.53,0,0,1-.84.62C122.92,38,122.6,38,122.39,38Z"/><rect class="cls-90" x="115.45" y="32.09" width="4.72" height="4.62" rx="2.18"/><rect class="cls-90" x="125.88" y="32.7" width="3.88" height="3.8" rx="1.79"/><circle class="cls-89" cx="120.47" cy="32.7" r="0.86"/><circle class="cls-89" cx="125.38" cy="32.95" r="0.86"/><path class="cls-42" d="M128.23,32.7c0,.42-.14,2.62-.65,1.51,0-2.06-.81-3.92-2.93-4.51-7.52-2.07-5.84,5.69-7.55,4.74a4.4,4.4,0,0,1,1.46-6.14c2.1-2.15,5.19-1.06,7.76-1.71C127.43,26.44,127.74,31.56,128.23,32.7Z"/><path class="cls-92" d="M133.37,26.66c0,.18-.07.33-.11.49a6,6,0,0,1-.41.93,1.33,1.33,0,0,0-.06.12.25.25,0,0,0,.07.22l.46.43"/><path class="cls-92" d="M123,33.42c0,.19.07.34.12.5a5.48,5.48,0,0,0,.41.93.61.61,0,0,1,0,.12.22.22,0,0,1-.07.21,6.17,6.17,0,0,1-.46.43"/><path class="cls-36" d="M126.45,15c.3-.84.51-1.7.74-2.55.13-.06.24,0,.36,0a.9.9,0,0,0,.49,0,2.32,2.32,0,0,0,1.46-2.77A3.9,3.9,0,0,0,129,8.51c-.08-.14-.19-.28-.11-.46a1.47,1.47,0,0,1,1-.11,4,4,0,0,1,3.39,4.12s0,.08,0,.12-.11.44,0,.54.34-.11.5-.2a.39.39,0,0,1,.45,0,.41.41,0,0,1,.16.43,4.59,4.59,0,0,1-6,3.78A4.41,4.41,0,0,1,126.45,15Z"/><path class="cls-36" d="M128.85,7.73a3.86,3.86,0,0,1,.81,2.34,2.72,2.72,0,0,1-1.75,2.2.79.79,0,0,1-.8-.17c-.17-.46.06-.9.1-1.36a12,12,0,0,0-.1-3.44,2,2,0,0,1,1.33,0Z"/><circle class="cls-72" cx="127.4" cy="10.6" r="2.7"/><path class="cls-7" d="M127.79,10.76a9.7,9.7,0,0,0-.12-1.54,13.14,13.14,0,0,0-.41-1.71c-1-2.78-3.08-4.71-5.56-4.71-3.26,0-5.92,3.34-6.09,7.54a8.52,8.52,0,0,1-.54-2c0-.15.06-.34-.15-.43s-.35.08-.47.18a3.08,3.08,0,0,0-.94,1.67,3.05,3.05,0,0,0,2,3.61,1,1,0,0,1,.42.16c.86,3,3.09,5.21,5.72,5.21,0,0,.18,0,.19,0C125.17,18.59,127.79,15.08,127.79,10.76Z"/><path class="cls-92" d="M123.43,10.06c0,.37,0,.68.09,1a11.16,11.16,0,0,0,.54,2,1.44,1.44,0,0,1,.08.25.53.53,0,0,1-.2.41c-.34.24-.68.5-1,.71"/><path class="cls-36" d="M128.37,3.75a8.11,8.11,0,0,1,.48,1.88,4.6,4.6,0,0,1-.19,1.88c-.2.18-.44.06-.66.07l-.61,0a8.24,8.24,0,0,1-3.65-.49,8.78,8.78,0,0,1-4.27-2.6c-.13-.17-.3-.23-.38,0A10,10,0,0,1,118.47,6a9,9,0,0,0-.89,3.46,7.53,7.53,0,0,0,.19,2.22,1,1,0,0,1,0,.48.57.57,0,0,1-.93.43,1.67,1.67,0,0,1-.37-.38A7.71,7.71,0,0,1,115,8.65c0-.17,0-.44-.18-.5s-.36.16-.48.32a3,3,0,0,0,.48,4.36,4.22,4.22,0,0,0,1,.43,1,1,0,0,1,.74,1.12.5.5,0,0,1-.12.24,3.82,3.82,0,0,1-4.95,3.06A4.37,4.37,0,0,1,108,13.82a.43.43,0,0,1,.18-.46.39.39,0,0,1,.46.05c.15.1.34.31.49.22s0-.35,0-.53a4.08,4.08,0,0,1,3.77-4.33,2.75,2.75,0,0,1,.4,0,5.65,5.65,0,0,1,.64-4.17,12,12,0,0,1,1.9-2.33A8.33,8.33,0,0,1,120.14.4c.41-.07.83-.15,1.23-.26C124-.54,127.08,1.36,128,3.19,128.14,3.38,128.26,3.56,128.37,3.75Z"/><path class="cls-93" d="M121.39,16.34a2,2,0,0,1-2.21-1.85c0-.17-.06-.41.19-.4s.17.23.16.38a1.36,1.36,0,0,0,1.06,1.37,3.41,3.41,0,0,0,1.82-.08c.18,0,.46-.21.54,0s-.25.31-.44.38A3.29,3.29,0,0,1,121.39,16.34Z"/><circle class="cls-89" cx="120.06" cy="10.51" r="0.69"/><circle class="cls-89" cx="125.84" cy="10.68" r="0.69"/><path class="cls-92" d="M123.43,10.06c0,.37,0,.68.09,1a11.16,11.16,0,0,0,.54,2,1.44,1.44,0,0,1,.08.25.53.53,0,0,1-.2.41c-.34.24-.68.5-1,.71"/><path class="cls-94" d="M112.46,39.78A17.87,17.87,0,0,0,142,34.92L109.85,36A17.89,17.89,0,0,0,112.46,39.78Z"/><path class="cls-94" d="M142.52,33.73A17.87,17.87,0,1,0,109.84,36L142,34.92C142.21,34.53,142.37,34.14,142.52,33.73Z"/><path class="cls-4" d="M142,34.92A17.82,17.82,0,0,1,109.85,36l-4.19.14A21.71,21.71,0,0,0,146.14,35a2.17,2.17,0,0,1,.07-.24Z"/><path class="cls-17" d="M68.5,72.65a1.68,1.68,0,0,0,.52.46c.21.14.42.28.59.42s.37.29.57.45a1.61,1.61,0,0,0,.59.38c.19,0,.39-.08.38-.44a1.94,1.94,0,0,0-.83-1.35,1.87,1.87,0,0,0-1.52-.43C68.46,72.24,68.39,72.47,68.5,72.65Z"/><path class="cls-17" d="M175.8,141.42a2.56,2.56,0,0,0,1,0c.35-.06.7-.11,1-.14s.67,0,1-.06a2.32,2.32,0,0,0,1-.17c.25-.14.33-.47,0-.83a2.72,2.72,0,0,0-2.17-.6,2.68,2.68,0,0,0-2,1C175.37,141,175.52,141.33,175.8,141.42Z"/><path class="cls-20" d="M176.11,137.92a3.43,3.43,0,0,0,1,0l1-.12,1-.07a3.26,3.26,0,0,0,1-.14c.25-.1.34-.34,0-.59a3.38,3.38,0,0,0-2.14-.38,3.24,3.24,0,0,0-2,.76C175.7,137.65,175.84,137.86,176.11,137.92Z"/><path class="cls-17" d="M178.45,146.82a2.38,2.38,0,0,0-1,.28l-.94.38c-.3.11-.63.22-1,.32a2.38,2.38,0,0,0-.91.41c-.21.2-.2.54.24.8a2.7,2.7,0,0,0,2.24,0,2.63,2.63,0,0,0,1.66-1.47C179,147.1,178.74,146.83,178.45,146.82Z"/><path class="cls-17" d="M167.37,140.75a2.52,2.52,0,0,0,1,.16c.36,0,.71,0,1,.06l1,.12a2.22,2.22,0,0,0,1,0c.28-.09.41-.4.14-.82a2.73,2.73,0,0,0-2-1,2.65,2.65,0,0,0-2.13.61C167,140.28,167.11,140.61,167.37,140.75Z"/><path class="cls-17" d="M61.56,72.63A1.72,1.72,0,0,1,61,73l-.66.29c-.2.09-.42.21-.64.33a1.71,1.71,0,0,1-.66.26c-.2,0-.37-.17-.29-.52a1.94,1.94,0,0,1,1.1-1.15,1.86,1.86,0,0,1,1.56-.11C61.68,72.24,61.7,72.48,61.56,72.63Z"/><rect class="cls-17" x="68.11" y="74.91" width="1.9" height="1.9" rx="0.95"/><rect class="cls-17" x="59.64" y="74.91" width="2.09" height="2.09" rx="1.04"/><path class="cls-95" d="M58.8,80.4s2.17,5.28,5.69,2.76"/><path class="cls-63" d="M8,50.35a10.37,10.37,0,0,1-2,.18c-.66,0-1.31-.16-2-.21a14,14,0,0,0-4,.21l0-.09a10.15,10.15,0,0,1,2-.65A20.17,20.17,0,0,1,4,49.52a7.89,7.89,0,0,1,2.06,0,5.4,5.4,0,0,1,2,.72Z"/><path class="cls-63" d="M8.77,51.84a10.36,10.36,0,0,1-2,.59c-.65.14-1.32.11-2,.2a13.56,13.56,0,0,0-3.83,1l-.06-.09a10.85,10.85,0,0,1,1.78-1,17.26,17.26,0,0,1,1.95-.67,8.35,8.35,0,0,1,2-.42,5.69,5.69,0,0,1,2.07.31Z"/><path class="cls-63" d="M29.7,53.82a30.3,30.3,0,0,0-3.95-.7c-.66-.07-1.32,0-2-.13s-1.28-.18-2-.34l0-.1a4.23,4.23,0,0,1,2-.56,7.17,7.17,0,0,1,2.06.34,19.17,19.17,0,0,1,3.84,1.4Z"/><path class="cls-63" d="M29.32,57.15a33.65,33.65,0,0,0-3.88-1c-.65-.12-1.31-.13-1.94-.28s-1.26-.29-1.95-.51v-.1a4.35,4.35,0,0,1,2.09-.39,7.4,7.4,0,0,1,2,.51,19.82,19.82,0,0,1,3.71,1.71Z"/><path class="cls-96" d="M85.43,144.87s3.78,2,6.25,0"/><path class="cls-96" d="M88.72,137.92s3.08,5.05-.17,5"/><circle class="cls-97" cx="92.56" cy="138.46" r="1.26"/><circle class="cls-97" cx="94.38" cy="116.62" r="1.26"/><circle class="cls-97" cx="84.58" cy="138.46" r="1.26"/><path class="cls-98" d="M71.44,100.39c.41-.6.88-1.18.57-2a2,2,0,0,0-2-.81c-1.48.55-2,2.27-3.36,2.9-2,1.23-3.88,2.75-6,3.88-5.14,2.92-17.79.85-21.44-4.37-5-5.1-7.11-11.11-6-18.23S41,66.71,50,65.4a3.11,3.11,0,0,0,1.09-3,21.31,21.31,0,0,0-15,7.28c-.39.32-.87.55-1,1.11a22,22,0,0,0-4.47,20.33,23,23,0,0,0,31.86,15.34l6.73-3.68A14.58,14.58,0,0,0,71.44,100.39Z"/><path class="cls-98" d="M62.84,106.36l-.21.09Z"/><path class="cls-98" d="M62.45,106.54l.18-.09-.12.06Z"/><path class="cls-98" d="M62.84,106.36c.62-.29,1.2-.55,1.71-.8a3.27,3.27,0,0,0-.55.23C63.61,106,63.23,106.18,62.84,106.36Z"/><path class="cls-98" d="M69.26,102.82h0l-.15.14A1.1,1.1,0,0,0,69.26,102.82Z"/><path class="cls-98" d="M69.24,102.83l-6.73,3.68.12-.06.21-.09c.39-.18.77-.37,1.16-.57a3.27,3.27,0,0,1,.55-.23A24.07,24.07,0,0,0,69.09,103Z"/><path class="cls-47" d="M141,94.3a20.66,20.66,0,0,1,.43,2.92c.07,2-7.15,8.75-6.68,2"/><path class="cls-99" d="M128.17,88.8a3.21,3.21,0,0,1-3.57-3.67,9,9,0,0,1,.86-3l.32-.3c.59-1,1.56-.58,2.4-.67,0,.11,0,.21,0,.32,0,1.31.51,2.68-.41,3.89-1.08-.1-1.08-.1-1.07-1.87,0,.24,0,.5,0,.75-.16,1.27.31,1.87,1.67,1.76.59-.05,1.4-.22,1.54.77C128.14,86.47,127.93,87.45,128.17,88.8Z"/><path class="cls-7" d="M147.61,81.71c-.57-6.65-5.14-11.84-10.7-11.84-5.95,0-10.76,5.93-10.76,13.23S131,96.34,136.91,96.34c4.19,0,7.82-3,9.6-7.27a3.48,3.48,0,0,0,4.18-3.46v-.42A3.52,3.52,0,0,0,147.61,81.71Z"/><path class="cls-100" d="M145.2,83.72h2.39a12,12,0,0,1-.79,3.4c-.21.61-.44,1.49-1.21,1.39-1-.13-.57-1.13-.67-1.78C145.2,85.75,144.49,84.67,145.2,83.72Z"/><path class="cls-101" d="M144.17,83.58c.79,4.21-.45,4.49-4.21,3.81-3.32-.6-3.3-.41-2.8-4.53C137.85,83.25,144.15,83.51,144.17,83.58Z"/><path class="cls-101" d="M133.41,82.13c.33,4.26-.74,4.45-3.86,3.52-2.76-.83-2.76-.64-2-4.71C128.1,81.37,133.4,82.07,133.41,82.13Z"/><path class="cls-102" d="M139.36,85.19a2.14,2.14,0,0,0,.87,0l.89-.12.89,0a2.1,2.1,0,0,0,.86-.15c.22-.12.29-.41,0-.73a2.43,2.43,0,0,0-1.9-.53,2.36,2.36,0,0,0-1.74.88C139,84.84,139.11,85.12,139.36,85.19Z"/><path class="cls-70" d="M139.36,91.43a2.12,2.12,0,0,0-.84.23l-.83.33-.86.27a2,2,0,0,0-.79.35c-.19.17-.19.47.19.7a2.37,2.37,0,0,0,2,.06,2.29,2.29,0,0,0,1.47-1.28C139.81,91.68,139.62,91.45,139.36,91.43Z"/><path class="cls-42" d="M143.89,70.87c.36.56.44,1.19,1.32,1.49a6,6,0,0,1,4,7.37L148.55,83c-.92.91-2,.44-3.08.43-1.14-.72-1.2-1.9-1.28-3.06a4.36,4.36,0,0,0-6.19-4,5.19,5.19,0,0,1-4.05.13c-1.25-.54-2,0-2.59,1-.42.72-.75,1.49-1.15,2.22-.3.57-.54,1.25-1.36,1.3a1.76,1.76,0,0,1-.83-1,2.94,2.94,0,0,0-.88-1.57c-1.82-2-1.92-4-.29-6a1.08,1.08,0,0,0,.3-.88,4.52,4.52,0,0,1,2.66-4.89,5.59,5.59,0,0,1,6.13.46,2,2,0,0,0,2.47.34c1.47-.7,4,.55,4.79,2.12C143.42,70,143.46,70.55,143.89,70.87Z"/><path class="cls-103" d="M143.89,70.87c-.33.82-.38.13-.49-.09-1.33-2.7-3.09-3.47-5.83-2.43-.9.33-1.2-.41-1.7-.74-3.19-2.14-7.23-1-8.11,2.47a10.69,10.69,0,0,1-1.32,3.56,3.33,3.33,0,0,0,.77,4.26c.59.56,1.35,1,1.24,2-2-.19-2.95-1.53-2.95-4a4.22,4.22,0,0,1,.89-3.59,1,1,0,0,0,.28-.88c-.41-2.51.84-4.22,2.88-5.29a6,6,0,0,1,6.74.59,1.68,1.68,0,0,0,2,.37C140.77,66.15,143.23,67.86,143.89,70.87Z"/><path class="cls-50" d="M125.5,76a6.57,6.57,0,0,0,2.95,4,1.06,1.06,0,0,1,.33,1l-.11.21a5.35,5.35,0,0,1-2.26.53,3.73,3.73,0,0,1-2.6-1.1A2.75,2.75,0,0,1,125,76.78,1.07,1.07,0,0,0,125.5,76Z"/><path class="cls-104" d="M127.77,81.18l-.38,2.54s-.6,1.73,1.74,2,3,.35,3,.35"/><rect class="cls-102" x="129.87" y="81.92" width="2.21" height="2.21" rx="1.11"/><path class="cls-105" d="M133.52,83.32s-2.38,7,2.24,5.69"/><path class="cls-104" d="M133.47,82.79l3.58.46-.29,2.8a2,2,0,0,0,1.76,1.31l4.74.38s.92,0,1-1.95.25-1.82.25-1.82l4.18-.75"/><rect class="cls-101" x="126.78" y="164.53" width="7.94" height="4.57" rx="0.98" transform="matrix(1, -0.07, 0.07, 1, -11.92, 10.07)"/><rect class="cls-101" x="140.13" y="163.37" width="7.94" height="4.57" rx="0.98" transform="matrix(1, -0.07, 0.07, 1, -11.8, 11.05)"/><path class="cls-106" d="M126.74,165.13v2.67s-.26,1.48,1.22,1.39,5.7-.42,5.7-.42,1.11,0,1.08-1.29l-.2-2.94"/><path class="cls-106" d="M139.83,164.05l.07,2.66s-.22,1.49,1.27,1.36,5.68-.59,5.68-.59,1.11,0,1-1.32l-.28-2.93"/><path class="cls-106" d="M134.74,166.41a5.81,5.81,0,0,1,5.16-.72"/><path class="cls-105" d="M139.35,166.21s2.12,3.86-.31,4.38-3.51.78-4-.81"/><rect class="cls-102" x="130" y="164.9" width="2.21" height="2.21" rx="1.11"/><rect class="cls-102" x="142.26" y="163.8" width="2.21" height="2.21" rx="1.11"/></g></g></svg>