<svg xmlns="http://www.w3.org/2000/svg" xmlns:xlink="http://www.w3.org/1999/xlink" viewBox="0 0 206.88 163.35"><defs><style>.cls-1,.cls-27,.cls-31,.cls-32,.cls-35{fill:none;}.cls-2{fill:#e8e4fe;}.cls-3{clip-path:url(#clip-path);}.cls-4{fill:#8358ba;}.cls-5{fill:#6e3faa;}.cls-6{fill:#8b54a8;}.cls-7{fill:#6d3ea9;}.cls-8{fill:#d1775b;}.cls-9{fill:#905cae;}.cls-10{fill:#dfb9be;}.cls-11{fill:#e7dbf1;}.cls-12{fill:#d8a9b0;}.cls-13{fill:#dcadae;}.cls-14{fill:#cf7761;}.cls-15{fill:#ce7968;}.cls-16{fill:#d49088;}.cls-17{fill:#7343ab;}.cls-18{fill:#a46aaa;}.cls-19{fill:#d2aae4;}.cls-20{fill:#8c55a8;}.cls-21{fill:#d1aae6;}.cls-22{fill:#9b68b8;}.cls-23{fill:#8f59ad;}.cls-24{fill:#8a56a7;}.cls-25{fill:#8c56aa;}.cls-26{fill:#3f2e4e;}.cls-27{stroke:#8b54a9;}.cls-27,.cls-31,.cls-32,.cls-35{stroke-linecap:round;stroke-miterlimit:10;}.cls-28{fill:#8651a3;}.cls-29{fill:#804a9d;}.cls-30{fill:#9469bc;}.cls-31{stroke:#483692;}.cls-31,.cls-32{stroke-width:2.39px;}.cls-32{stroke:#8956a5;}.cls-33{fill:#534869;}.cls-34{fill:#df8267;}.cls-35{stroke:#a2492e;stroke-width:1.76px;opacity:0.49;}.cls-36{fill:#be93d5;}</style><clipPath id="clip-path"><ellipse class="cls-1" cx="103.44" cy="73.82" rx="103.44" ry="73.82"/></clipPath></defs><g id="Layer_2" data-name="Layer 2"><g id="Layer_14" data-name="Layer 14"><ellipse class="cls-2" cx="103.44" cy="73.82" rx="103.44" ry="73.82"/><g class="cls-3"><polygon class="cls-4" points="93.22 103.87 101.89 101.05 113.2 122.09 91.97 129.25 93.14 104.25 93.22 103.87"/><path class="cls-5" d="M140.94,87.1s-24.74-2.78-29.14,24.67c0,0-9.59,29.67-5.62,47.21l70.66-1,20.92-.39s-8.4-74.19-41.43-71.5Z"/><rect class="cls-6" x="140.55" y="78.48" width="14.78" height="18.26" rx="7.16"/><path class="cls-7" d="M36.53,147.86l1.8-13.48,60.37,4.13,3.18,20.68S52.88,174,36.53,147.86Z"/><path class="cls-8" d="M56.63,71.27S45.87,66.67,36,76.57,12.87,126,12.87,126s5.51,9.87,22.49,16.34Z"/><path class="cls-9" d="M134.92,97.86c-.51-.43-.87.07-1.27.23a3.56,3.56,0,0,1-1.5.43c-2.19-.07-2.24-.06-2.21,2.29s-1.14,3.91-2.4,5.52c-.88,1.11-2.69.86-3.69-.35a15.94,15.94,0,0,1-.93-1.44c-.71,1.1-.4,2.25-.68,3.28-1.12,4.13-4.69,5.53-8.27,3.1-.44-.31-.78-.72-1.38-.46a20.61,20.61,0,0,1-6.39-12.73,5.71,5.71,0,0,1,.9-3.53,64.82,64.82,0,0,1,5.18-7.08,1.87,1.87,0,0,1,1.46-.87,55.84,55.84,0,0,1,8.6-3.38c3.11-1,6-.21,8.93.53.78.31,1.79-.11,2.41.75a3.84,3.84,0,0,1,.57.57,11.82,11.82,0,0,1,2.35,8.87A24.13,24.13,0,0,1,134.92,97.86Z"/><path class="cls-10" d="M37.94,124.3a22.33,22.33,0,0,1-1.76,4.87c.29,1.44-.61,2.86,0,4.3,0,.94,1,1.77.33,2.79-.33.66.07,1.23.23,1.84a4.32,4.32,0,0,1-.07,2.66c-.61-.06-.53.63-.9.83-.81-.52-1.94-.44-2.55-1.39-.21-.35-.54-.62-.52-1.07.09-2.37,0-4.69.87-7,1.07-2.89,2.78-5.41,4.05-8.16C37.91,123.87,38.09,123.92,37.94,124.3Z"/><path class="cls-11" d="M42.86,112.32a.87.87,0,0,1,.55,1.34,3.55,3.55,0,0,0-.11,2.16c-.37.35-.79.55-1.24.2s-.3-.82-.12-1.27Z"/><path class="cls-12" d="M37.94,124.3l-.35-.36a5.25,5.25,0,0,1,1-1.85A3.65,3.65,0,0,1,37.94,124.3Z"/><path class="cls-13" d="M40.76,118.2l-.71.75c.07-.43.11-.88.6-1.07Z"/><path class="cls-8" d="M113.74,86.25c-2,2.07-3.54,4.5-5.31,6.74-2.28,2.89-1.94,5.9-.72,9.08a27.7,27.7,0,0,0,4.58,7.6,2.59,2.59,0,0,1,.3.79,2,2,0,0,0-.79,1.31c-1.14,3.92-2.6,7.75-3.33,11.79-.82.61-1.19.58-1.72-.41s-1.19-2.28-1.85-3.39c-1.9-3.18-3.48-6.52-5.37-9.7a8.85,8.85,0,0,1-.66-2,5.49,5.49,0,0,0-1.75-3.17,3.5,3.5,0,0,1-.61-.82c-.06-.32-.27-.62-.08-1C94.74,101,94.25,98.53,94,96a59.85,59.85,0,0,0-3.34-13.57c-.66-1.84-2.07-3.24-3.16-4.83a24,24,0,0,1-2-3c-.7-1.46-2.34-1.64-3.51-2.46,2.39-2,5.29-2.63,8.26-3.14,4.49-.78,8,.94,11.47,3.67C106.53,76.43,110,81.44,113.74,86.25Z"/><path class="cls-14" d="M36.9,141.56l-.42-.71c-.47-.94.16-1.88,0-2.81-.15-.35-.31-.7.31-.7a5.42,5.42,0,0,0,2.16,2.87,3.18,3.18,0,0,1-1.72,1.42A.71.71,0,0,0,36.9,141.56Z"/><path class="cls-15" d="M36.15,133.47c-1-1.44-.38-2.87,0-4.3C37,130.61,36.08,132,36.15,133.47Z"/><path class="cls-16" d="M36.78,137.34c-.11.23-.21.46-.31.7a1.29,1.29,0,0,1,0-1.78Z"/><path class="cls-17" d="M48.94,139.79a.93.93,0,0,1-.76,1C47.92,140.12,48.43,140.06,48.94,139.79Z"/><path class="cls-18" d="M38.79,129.25c-.26-.36-.26-.91-.08-1,.44-.14.19.32.23.51S38.86,129.07,38.79,129.25Z"/><path class="cls-19" d="M120.26,72.79c-1.27,1.11-2.13,3-4.35,2.27A4,4,0,0,1,113,71.81c-.2-1.48-.06-2.7,2-2,1.47.48,3,.85,4.26-.58C120.71,70.11,120.05,71.57,120.26,72.79Z"/><path class="cls-20" d="M120.23,69.9c-5.7-3-6.6-9.51-1.94-14.15,1.34,1.26-.26,4.38,2.85,4.52-.53,3,.92,4.54,4.07,5.1C122.15,65.65,121.76,68.35,120.23,69.9Z"/><path class="cls-21" d="M118.75,38.38c17-16.62,51.65-12.53,53.31,14.62.66,4.08,3.55,11.15-2.36,12.63-1.48-.73-1.41-2.44-2.22-3.59-1.45-2.21-5.12-1.9-4.47,1.1-.41,9.86-7.61,7.74-5.46-1.33-.81-3.8-4-6-6.79-8.25-2-1.46-3.24-5.35-5.3-4.77a14.77,14.77,0,0,0-8.16,6.56c-4,5.75-12.07-1.1-16.35,5.53-2.37-.33-4.06-3.4-5.41-6.29a12.79,12.79,0,0,1-1-7.68C115.13,43.45,116,39.7,118.75,38.38Z"/><path class="cls-22" d="M158.64,62.47c.15,2.16-1.68,10,2.28,5.09C163.17,64.89,159.29,60,163,59c24,9-26.42,43.51-37.24,24.09-7.92-5.82-9.53-29.53,3.81-27,7,2.58,9.66-6.66,15.42-9.66,5.56,2.77,10.18,8.43.54,9.9C151.75,57.2,158.76,53.19,158.64,62.47Z"/><path class="cls-23" d="M158.64,62.47h-3.2c1.16-1.81,2.18-1.22,3.19-.7A1.51,1.51,0,0,1,158.64,62.47Z"/><path class="cls-22" d="M156.93,58.22c-1.15,1.6-2.29,3.21-3.44,4.82-7.09,1.24-10.12-3.31-9.59-12.94l4.41-.8C152.32,50.17,155.08,53.35,156.93,58.22Z"/><path class="cls-19" d="M161.68,70.2c-1.27,1.1-2.12,3-4.35,2.26a4,4,0,0,1-2.92-3.25c-.2-1.48-.06-2.7,2-2,1.46.49,3,.85,4.25-.57C162.13,67.51,161.48,69,161.68,70.2Z"/><path class="cls-24" d="M126.29,61.83c0,.47-.09.94-.13,1.41a8.45,8.45,0,0,1-3.79-1.62C123.87,60.63,125.08,61.24,126.29,61.83Z"/><path class="cls-25" d="M158,66.83c-1-.23-2.14-.41-2.16-1.89,1.83-.57,2.09.55,2.16,1.88Z"/><path class="cls-26" d="M144.16,64.76a5.24,5.24,0,0,0,2.15-.05c.75-.12,1.52-.22,2.18-.28s1.44-.12,2.2-.14a5.21,5.21,0,0,0,2.12-.37c.55-.29.71-1-.05-1.8a5.92,5.92,0,0,0-4.67-1.3A5.75,5.75,0,0,0,143.8,63C143.23,63.91,143.55,64.58,144.16,64.76Z"/><path class="cls-21" d="M144.84,57.19a7.21,7.21,0,0,0,2.15-.08c.75-.11,1.52-.19,2.18-.26s1.44-.11,2.2-.15a7.47,7.47,0,0,0,2.12-.3c.56-.23.74-.74,0-1.28a7.39,7.39,0,0,0-4.64-.82,7,7,0,0,0-4.32,1.64C143.94,56.61,144.24,57.07,144.84,57.19Z"/><path class="cls-26" d="M149.88,76.44a5.32,5.32,0,0,0-2.07.6c-.7.31-1.41.6-2,.83s-1.36.47-2.09.69a5.16,5.16,0,0,0-2,.89c-.46.43-.44,1.16.5,1.73a5.94,5.94,0,0,0,4.85.07,5.72,5.72,0,0,0,3.59-3.18C151,77,150.51,76.47,149.88,76.44Z"/><path class="cls-26" d="M125.93,63.31a5.28,5.28,0,0,0,2.12.35c.77,0,1.54.07,2.2.13s1.43.15,2.19.27a5.23,5.23,0,0,0,2.15,0c.59-.19.89-.87.29-1.78a6,6,0,0,0-4.35-2.15,5.77,5.77,0,0,0-4.62,1.33C125.18,62.3,125.37,63,125.93,63.31Z"/><path class="cls-27" d="M134.8,67.67s-3.42,9.59,8,6.15"/><rect class="cls-28" x="86.95" y="34.03" width="14.6" height="18.88" rx="7.3" transform="translate(-6.06 16.8) rotate(-9.87)"/><rect class="cls-28" x="35.14" y="41.26" width="14.6" height="18.88" rx="7.3" transform="translate(-8.06 8.03) rotate(-9.87)"/><rect class="cls-29" x="60.11" y="63.26" width="15.3" height="17.45" rx="6.87"/><circle class="cls-22" cx="68.13" cy="45.52" r="26.16"/><path class="cls-21" d="M93.27,24.72c.25,1.86.51,3.72.76,5.57.31.89.87,1.74.49,2.75a2.2,2.2,0,0,1-.7.84c-.62.36-1.34.48-2,.83-2.23,1.59-3.82.08-5.48-1.13-8-6.23-16.63-7-25.78-2.82a23.55,23.55,0,0,1-3.67,1.54c-1,.26-2.23.6-2.93-.46-.79-1.21,0-2.29.78-3.22A10,10,0,0,1,58,26.27c7.92-4.06,16-4.56,22.09-1.77-15.9-7.8-30.85-1.57-32.9,15.57A2.9,2.9,0,0,1,45,42.58c-1.44.23-1.56-1.86-3-1.69-2.22.28-2.32-.91-1.76-2.55C38,29.73,45,15.54,54.07,12.21c4.21-1.55,8.4-3.1,12.72-4.29a4.28,4.28,0,0,1,3-1.31C80.64,5.49,88.69,10,93,19.5,93.74,21.18,94.67,22.9,93.27,24.72Z"/><path class="cls-21" d="M63.19,49.61c.12,2,1.49,2.72,3.21,2.56,3.37-.3,6.73-.81,9-3.83,1-2.68,3.08-2.5,5.23-1.89,5,1.4,7.07,9.64,3.42,13.21-1.74,1.7-3.59,1.3-5.46.18A13.44,13.44,0,0,0,62.38,62c-1.34,1.45-2.44,3.43-4.83,2.78-2.55-.7-3.21-3.05-3.72-5.25-1.19-5.14,1.7-9.6,6.77-10.95A2,2,0,0,1,63.19,49.61Z"/><rect class="cls-30" x="42.9" y="36.43" width="18.98" height="10.92" rx="2.34" transform="translate(-2.94 3.97) rotate(-4.22)"/><rect class="cls-30" x="74.79" y="33.66" width="18.98" height="10.92" rx="2.34" transform="translate(-2.65 6.31) rotate(-4.22)"/><path class="cls-31" d="M42.8,37.87v6.36s-.63,3.55,2.92,3.33,13.6-1,13.6-1,2.66.13,2.59-3.08l-.46-7"/><path class="cls-31" d="M74.07,35.29l.18,6.36s-.52,3.56,3,3.24,13.56-1.4,13.56-1.4,2.66,0,2.5-3.15l-.66-7"/><path class="cls-31" d="M61.91,40.92a13.86,13.86,0,0,1,12.32-1.71"/><path class="cls-32" d="M72.93,40.44s5,9.22-.74,10.48-8.39,1.86-9.48-2"/><rect class="cls-33" x="50.59" y="37.32" width="5.28" height="5.28" rx="2.64"/><rect class="cls-33" x="79.89" y="34.68" width="5.28" height="5.28" rx="2.64"/><path class="cls-34" d="M55.31,70.89l4.88,1.47s-.32,7.37,6.87,8.11,8.55-6.22,8.55-6.22l6.86-2.17s10.35,1.11,14,30.79l2.07,36.26s-25,14.58-60.91-4.47C37.67,134.66,40.29,77.56,55.31,70.89Z"/><path class="cls-8" d="M42.22,119.15a26.23,26.23,0,0,0-2,22.54s-4,6.8-18.28-11.27l6.19-16.59S41.8,115.69,42.22,119.15Z"/><line class="cls-35" x1="27.83" y1="114.18" x2="40.18" y2="118.03"/><path class="cls-22" d="M52,122a5.26,5.26,0,0,1-.6-1,4,4,0,0,0,0-4.63c-1.38-1.67-4.17-1.64-6.24.07A6,6,0,0,0,44,117.68c-6.11,3.89-12,19.64-4.75,24.17,1.19,1.09,1.51,1.54,2.42,1.66a29.89,29.89,0,0,0,2.91,1,5.41,5.41,0,0,0,.86.71c2.22,1.51,5,1.28,6.22-.51s.51-4.08-1.36-5.62c.07-.21.33-.43.93-.67,5.52-2,1.75-5.67-.77-8.41,2.13-.43,4.58-.76,5-3.26S53.78,123,52,122Z"/><path class="cls-4" d="M174.77,94s11.39,56.29,8.8,63.94l14.19-.27S191.57,108.34,174.77,94Z"/><path class="cls-34" d="M140.71,89.49s.37,5.76,4.89,5.21,9.66-4.91,9.66-4.91,6.62,6.82,6.69,22.32,1.77,46.09,1.77,46.09l-35.86.78S123.39,98.08,140.71,89.49Z"/></g><path class="cls-36" d="M173.32,53l-2.13.64a7.9,7.9,0,0,1-1.54-5,14.33,14.33,0,0,0-11.58-13.94c-3.31-.66-5-4-8.36-4.6a17.75,17.75,0,0,1-3.33-1.26c.48-1.08,1.05-2.14,1.43-3.27,2.27-6.67,9.69-9.06,15.34-4.71,1.27,1,2.1.5,3.24.24,7.93-1.83,14.17,3.7,13.36,11.82-.09.92-.44,1.69.27,2.67,6.29,8.59,1.72,11.14-3.56,15.64A18.79,18.79,0,0,1,173.32,53Z"/></g></g></svg>