<svg width="19" height="19" viewBox="0 0 19 19" fill="none" xmlns="http://www.w3.org/2000/svg">
<path d="M9.49997 5.9375C8.4392 5.96614 7.41372 6.32463 6.56614 6.96311C5.71856 7.60159 5.09101 8.48832 4.77075 9.5C5.09101 10.5117 5.71856 11.3984 6.56614 12.0369C7.41372 12.6754 8.4392 13.0339 9.49997 13.0625C10.5607 13.0339 11.5862 12.6754 12.4338 12.0369C13.2814 11.3984 13.9089 10.5117 14.2292 9.5C13.9089 8.48832 13.2814 7.60159 12.4338 6.96311C11.5862 6.32463 10.5607 5.96614 9.49997 5.9375ZM9.49997 11.875C9.03024 11.875 8.57106 11.7357 8.18049 11.4747C7.78993 11.2138 7.48551 10.8428 7.30576 10.4089C7.126 9.9749 7.07897 9.49737 7.17061 9.03666C7.26225 8.57596 7.48844 8.15277 7.82059 7.82062C8.15274 7.48847 8.57593 7.26227 9.03663 7.17063C9.49734 7.07899 9.97487 7.12603 10.4088 7.30579C10.8428 7.48554 11.2137 7.78995 11.4747 8.18052C11.7357 8.57109 11.875 9.03027 11.875 9.5C11.8742 10.1296 11.6237 10.7333 11.1785 11.1785C10.7333 11.6237 10.1296 11.8742 9.49997 11.875Z" fill="black"/>
<path d="M9.5 1.1875C7.85595 1.1875 6.24881 1.67502 4.88183 2.58841C3.51484 3.5018 2.44941 4.80003 1.82026 6.31894C1.1911 7.83785 1.02649 9.50922 1.34723 11.1217C1.66797 12.7342 2.45965 14.2153 3.62218 15.3778C4.7847 16.5403 6.26585 17.332 7.87832 17.6528C9.49078 17.9735 11.1621 17.8089 12.6811 17.1797C14.2 16.5506 15.4982 15.4852 16.4116 14.1182C17.325 12.7512 17.8125 11.1441 17.8125 9.5C17.8125 7.29539 16.9367 5.18107 15.3778 3.62217C13.8189 2.06328 11.7046 1.1875 9.5 1.1875ZM9.5 14.25C8.15099 14.214 6.84884 13.7476 5.7838 12.9189C4.71876 12.0901 3.94666 10.9425 3.58032 9.64369L3.54469 9.5L3.58032 9.35631C3.94666 8.0575 4.71876 6.90988 5.7838 6.08113C6.84884 5.25239 8.15099 4.78596 9.5 4.75C10.849 4.78596 12.1512 5.25239 13.2162 6.08113C14.2812 6.90988 15.0533 8.0575 15.4197 9.35631L15.4553 9.5L15.4197 9.64369C15.0533 10.9425 14.2812 12.0901 13.2162 12.9189C12.1512 13.7476 10.849 14.214 9.5 14.25Z" fill="black"/>
<path d="M9.5 10.6875C10.1558 10.6875 10.6875 10.1558 10.6875 9.5C10.6875 8.84416 10.1558 8.3125 9.5 8.3125C8.84416 8.3125 8.3125 8.84416 8.3125 9.5C8.3125 10.1558 8.84416 10.6875 9.5 10.6875Z" fill="black"/>
</svg>
