<?xml version="1.0" encoding="utf-8"?>
<!-- Generator: Adobe Illustrator 25.2.0, SVG Export Plug-In . SVG Version: 6.00 Build 0)  -->
<svg version="1.0" id="Layer_1" xmlns="http://www.w3.org/2000/svg" xmlns:xlink="http://www.w3.org/1999/xlink" x="0px" y="0px"
	 viewBox="0 0 84.91 96.66" style="enable-background:new 0 0 84.91 96.66;" xml:space="preserve">
<style type="text/css">
	.st0{fill:#5700B2;}
</style>
<g>
	<g>
		<path class="st0" d="M2.43,9.34c19.76,11.41,39.51,22.81,59.27,34.22c5.24,3.03,10.49,6.06,15.73,9.08c0-2.88,0-5.76,0-8.63
			C57.67,55.42,37.91,66.82,18.16,78.23c-5.24,3.03-10.49,6.06-15.73,9.08c-5.57,3.22-0.54,11.86,5.05,8.63
			c19.76-11.41,39.51-22.81,59.27-34.22c5.24-3.03,10.49-6.06,15.73-9.08c3.24-1.87,3.24-6.76,0-8.63
			C62.72,32.6,42.96,21.2,23.21,9.79C17.96,6.76,12.72,3.74,7.47,0.71C1.89-2.52-3.15,6.12,2.43,9.34L2.43,9.34z"/>
	</g>
</g>
</svg>
