<svg width="26" height="27" viewBox="0 0 26 27" fill="none" xmlns="http://www.w3.org/2000/svg">
<path d="M5.64357 5.73168L12.3881 14.4213M12.3881 14.4213L21.6588 3.96185M12.3881 14.4213L21.0942 20.6168M12.3881 14.4213L2.55313 22.1452" stroke="#4E4B66"/>
<path d="M17.1446 15.6897C16.5037 18.0883 14.0354 19.5156 11.6302 18.8754C9.22502 18.2352 7.79653 15.7707 8.43743 13.3721C9.07833 10.9735 11.5467 9.54629 13.9518 10.1865C16.357 10.8267 17.7855 13.2911 17.1446 15.6897Z" fill="white" stroke="black"/>
<path d="M24.334 6.28462C23.7883 8.32699 21.6865 9.54242 19.6382 8.99724C17.5899 8.45205 16.3736 6.35342 16.9194 4.31106C17.4651 2.2687 19.5669 1.05326 21.6151 1.59844C23.6634 2.14363 24.8797 4.24226 24.334 6.28462Z" fill="white" stroke="#4E4B66"/>
<path d="M8.3634 7.25965C8.12629 8.14706 7.21271 8.67591 6.32163 8.43873C5.43054 8.20155 4.90214 7.28888 5.13925 6.40147C5.37637 5.51406 6.28994 4.98521 7.18102 5.22239C8.07211 5.45957 8.60051 6.37224 8.3634 7.25965Z" fill="white" stroke="#4E4B66"/>
<path d="M5.84936 22.2719C5.50938 23.5443 4.19973 24.302 2.92292 23.9621C1.64611 23.6223 0.888408 22.3143 1.22839 21.0419C1.56837 19.7695 2.87802 19.0118 4.15483 19.3516C5.43163 19.6915 6.18934 20.9995 5.84936 22.2719Z" fill="white" stroke="#4E4B66"/>
<path d="M21.8194 21.2948C21.5823 22.1822 20.6688 22.7111 19.7777 22.4739C18.8866 22.2367 18.3582 21.324 18.5953 20.4366C18.8324 19.5492 19.746 19.0204 20.6371 19.2575C21.5281 19.4947 22.0566 20.4074 21.8194 21.2948Z" fill="white" stroke="#4E4B66"/>
</svg>
