<?xml version="1.0" encoding="utf-8"?>
<!-- Generator: Adobe Illustrator 25.2.1, SVG Export Plug-In . SVG Version: 6.00 Build 0)  -->
<svg version="1.1" id="Layer_1" xmlns="http://www.w3.org/2000/svg" xmlns:xlink="http://www.w3.org/1999/xlink" x="0px" y="0px"
	 viewBox="0 0 100 100" style="enable-background:new 0 0 100 100;" xml:space="preserve">
<style type="text/css">
	.st0{fill:#444444;}
</style>
<path class="st0" d="M82.1,37.2c9.8,0,17.9-8,17.9-17.9c0-9.8-8-17.9-17.9-17.9c-9.9,0-17.9,8-17.9,17.9c0,4.7,1.8,9,4.8,12.2
	l-7.6,9c-3.3-2.3-7.4-3.7-11.7-3.7c-4.1,0-7.8,1.2-11,3.2l-7.3-9.3c1.1-1.4,1.8-3.2,1.8-5.1c0-4.6-3.8-8.4-8.4-8.4s-8.4,3.8-8.4,8.4
	s3.8,8.4,8.4,8.4c1.2,0,2.4-0.3,3.4-0.7l7.3,9.3c-3.9,3.8-6.3,9-6.3,14.8c0,4,1.2,7.7,3.1,10.9l-12.9,9.9c-2.1-1.9-4.8-3-7.8-3
	C5.2,75.2,0,80.4,0,86.9s5.2,11.6,11.6,11.6s11.6-5.2,11.6-11.6c0-1.9-0.5-3.7-1.3-5.3l12.9-9.9c3.8,4,9.1,6.5,15,6.5
	c5.5,0,10.5-2.2,14.2-5.7l8.4,7.1c-0.6,1.2-1,2.6-1,4.1c0,5,4,9,9,9s9-4,9-9s-4-9-9-9c-2,0-3.8,0.7-5.3,1.7l-8.4-7.1
	c2.3-3.3,3.7-7.4,3.7-11.7c0-5.5-2.2-10.6-5.8-14.3l7.6-9C75.1,36.1,78.5,37.2,82.1,37.2z M24.9,29.9c-2.3,0-4.3-1.9-4.3-4.3
	c0-2.3,1.9-4.3,4.3-4.3c2.3,0,4.3,1.9,4.3,4.3c0,0.6-0.1,1.1-0.3,1.7c-0.6,1.3-1.8,2.3-3.3,2.5C25.3,29.9,25.1,29.9,24.9,29.9z
	 M19.2,86.9c0,4.1-3.4,7.5-7.5,7.5c-4.1,0-7.5-3.4-7.5-7.5c0-4.1,3.4-7.5,7.5-7.5c1.7,0,3.2,0.6,4.5,1.5c1.1,0.8,2,2,2.5,3.3
	C19,84.9,19.2,85.9,19.2,86.9z M78.4,79.2c0.6-0.3,1.3-0.4,2-0.4c2.7,0,4.9,2.2,4.9,4.9c0,2.7-2.2,4.9-4.9,4.9
	c-2.7,0-4.9-2.2-4.9-4.9c0-0.4,0.1-0.9,0.2-1.3C76.1,80.9,77.1,79.8,78.4,79.2z M49.8,73.9c-4.6,0-8.7-1.9-11.7-4.9
	c-1-1-1.8-2.1-2.5-3.3c-1.4-2.4-2.3-5.3-2.3-8.3c0-4.5,1.8-8.6,4.8-11.6c1-1,2.1-1.8,3.3-2.5c2.5-1.5,5.4-2.4,8.5-2.4
	c3.3,0,6.4,1,9,2.7c1.2,0.8,2.2,1.7,3.1,2.7c2.7,2.9,4.3,6.8,4.3,11.1c0,3.3-1,6.4-2.7,9c-0.8,1.2-1.7,2.2-2.7,3.1
	C58,72.3,54.1,73.9,49.8,73.9z M95.9,19.4c0,7.6-6.2,13.7-13.7,13.7c-2.6,0-5.1-0.8-7.2-2.1c-1.2-0.7-2.2-1.6-3.1-2.7
	c-2.1-2.4-3.4-5.6-3.4-9c0-7.6,6.2-13.7,13.7-13.7S95.9,11.8,95.9,19.4z"/>
</svg>
