<svg width="24" height="24" viewBox="0 0 24 24" fill="none" xmlns="http://www.w3.org/2000/svg">
<path d="M15.2012 15.088C14.6996 16.9858 12.7712 18.1077 10.8997 17.6041C9.02823 17.1005 7.90952 15.1585 8.41106 13.2608C8.9126 11.363 10.841 10.2411 12.7125 10.7447C14.584 11.2484 15.7027 13.1903 15.2012 15.088Z" fill="#FCFCFC" stroke="#FCFCFC"/>
<path d="M22.4829 5.87027C21.9813 7.76801 20.0529 8.88995 18.1814 8.38633C16.31 7.88271 15.1913 5.94076 15.6928 4.04302C16.1943 2.14528 18.1228 1.02334 19.9943 1.52696C21.8657 2.03058 22.9844 3.97253 22.4829 5.87027Z" fill="#FCFCFC" stroke="#FCFCFC"/>
<path d="M7.70366 6.78326C7.48769 7.60043 6.65884 8.08 5.85821 7.86455C5.05758 7.6491 4.57546 6.81673 4.79142 5.99956C5.00739 5.18239 5.83624 4.70281 6.63687 4.91827C7.4375 5.13372 7.91962 5.96608 7.70366 6.78326Z" fill="#FCFCFC" stroke="#FCFCFC"/>
<path d="M5.37714 20.8272C5.06598 22.0046 3.8706 22.6983 2.71302 22.3868C1.55545 22.0753 0.861129 20.873 1.17229 19.6957C1.48344 18.5183 2.67882 17.8246 3.8364 18.1361C4.99397 18.4476 5.68829 19.6499 5.37714 20.8272Z" fill="#FCFCFC" stroke="#FCFCFC"/>
<path d="M20.1563 19.9141C19.9403 20.7313 19.1115 21.2109 18.3108 20.9954C17.5102 20.78 17.0281 19.9476 17.2441 19.1304C17.46 18.3132 18.2889 17.8337 19.0895 18.0491C19.8901 18.2646 20.3722 19.0969 20.1563 19.9141Z" fill="#FCFCFC" stroke="#FCFCFC"/>
<path d="M6.0757 7.04281L11.4831 14.0865M11.4831 14.0865L18.9158 5.60821M11.4831 14.0865L18.4632 19.1084M11.4831 14.0865L3.59796 20.3473" stroke="#FCFCFC"/>
</svg>
