<svg width="20" height="22" viewBox="0 0 20 22" fill="none" xmlns="http://www.w3.org/2000/svg">
<path fill-rule="evenodd" clip-rule="evenodd" d="M6.48413 2.73763C5.22667 3.07567 3.97736 3.44336 2.73725 3.84037C2.62503 3.87502 2.52485 3.94062 2.44823 4.02964C2.37162 4.11866 2.32167 4.22749 2.30413 4.34362C1.57125 9.702 3.2625 13.6125 5.27963 16.1879C6.29163 17.4804 7.3875 18.4374 8.3005 19.0658C8.75838 19.3792 9.16125 19.6075 9.47888 19.7533C9.63838 19.8261 9.76763 19.8756 9.86663 19.9045C9.91028 19.9185 9.95484 19.9296 10 19.9375C10.0096 19.9361 10.0523 19.9306 10.1334 19.9059C10.2324 19.8756 10.3616 19.8261 10.5211 19.7533C10.8374 19.6075 11.243 19.3792 11.6995 19.0658C12.8444 18.2625 13.8626 17.2925 14.7204 16.1879C16.7375 13.6125 18.4288 9.702 17.6959 4.34362C17.6783 4.22749 17.6284 4.11866 17.5518 4.02964C17.4752 3.94062 17.375 3.87502 17.2628 3.84037C16.402 3.56538 14.95 3.11713 13.5159 2.73763C12.0501 2.35125 10.7013 2.0625 10 2.0625C9.29875 2.0625 7.95125 2.35125 6.48413 2.73763ZM6.13213 1.40937C7.56625 1.02987 9.08838 0.6875 10 0.6875C10.9103 0.6875 12.4338 1.02987 13.8679 1.40937C15.147 1.75282 16.4179 2.12646 17.6794 2.53C18.4054 2.761 18.9526 3.38662 19.0585 4.158C19.8464 9.92887 18.019 14.2051 15.8039 17.0349C14.8599 18.2493 13.7392 19.3153 12.4791 20.1974C12.041 20.5043 11.5778 20.7738 11.0945 21.0031C10.7233 21.1736 10.3273 21.3125 10 21.3125C9.67275 21.3125 9.27675 21.1736 8.9055 21.0031C8.42209 20.774 7.95891 20.5045 7.52088 20.1974C6.2613 19.3152 5.14106 18.2492 4.1975 17.0349C1.97963 14.2051 0.153628 9.92887 0.941503 4.158C0.99418 3.7841 1.15167 3.43276 1.39574 3.14465C1.6398 2.85653 1.96047 2.64343 2.32063 2.53C3.58212 2.12647 4.85297 1.75283 6.13213 1.40937Z" fill="black"/>
<path d="M12.0625 8.9375C12.0625 9.48451 11.8452 10.0091 11.4584 10.3959C11.0716 10.7827 10.547 11 10 11C9.45299 11 8.92839 10.7827 8.54159 10.3959C8.1548 10.0091 7.9375 9.48451 7.9375 8.9375C7.9375 8.39049 8.1548 7.86589 8.54159 7.47909C8.92839 7.0923 9.45299 6.875 10 6.875C10.547 6.875 11.0716 7.0923 11.4584 7.47909C11.8452 7.86589 12.0625 8.39049 12.0625 8.9375Z" fill="black"/>
<path d="M9.19014 11.046C9.21713 10.8858 9.30002 10.7402 9.42412 10.6352C9.54821 10.5303 9.70548 10.4727 9.86802 10.4727H10.0825C10.2442 10.4728 10.4007 10.53 10.5244 10.6341C10.6481 10.7382 10.7312 10.8826 10.759 11.0419L11.2361 13.7919C11.2532 13.8907 11.2484 13.9919 11.2222 14.0887C11.196 14.1854 11.1489 14.2752 11.0844 14.3518C11.0198 14.4284 10.9392 14.49 10.8484 14.5323C10.7575 14.5745 10.6585 14.5963 10.5583 14.5963H9.41014C9.31035 14.5962 9.21176 14.5745 9.12122 14.5325C9.03069 14.4905 8.95038 14.4293 8.88587 14.3531C8.82137 14.277 8.77422 14.1877 8.74769 14.0915C8.72117 13.9953 8.7159 13.8945 8.73227 13.796L9.19014 11.046Z" fill="black"/>
</svg>
