<svg width="21" height="21" viewBox="0 0 21 21" fill="none" xmlns="http://www.w3.org/2000/svg">
<path fill-rule="evenodd" clip-rule="evenodd" d="M10.5 15.3125C8.42375 15.3125 6.45639 15.7737 5.11 16.1894C4.33931 16.4273 3.77299 17.1252 3.6344 18.0162L3.4896 18.947C3.41533 19.4245 2.96802 19.7514 2.49051 19.6771C2.013 19.6028 1.68612 19.1555 1.7604 18.678L1.90519 17.7472C2.13161 16.2917 3.09542 14.9798 4.59382 14.5172C6.03256 14.0731 8.18468 13.5625 10.5 13.5625C12.8153 13.5625 14.9674 14.0731 16.4062 14.5172C17.9046 14.9798 18.8684 16.2917 19.0948 17.7472L19.2396 18.678C19.3139 19.1555 18.987 19.6028 18.5095 19.6771C18.032 19.7514 17.5847 19.4245 17.5104 18.947L17.3656 18.0162C17.227 17.1252 16.6607 16.4273 15.89 16.1894C14.5436 15.7737 12.5763 15.3125 10.5 15.3125Z" fill="#4F4F4F"/>
<path fill-rule="evenodd" clip-rule="evenodd" d="M10.5 2.625C8.567 2.625 7 4.192 7 6.125C7 8.058 8.567 9.625 10.5 9.625C12.433 9.625 14 8.058 14 6.125C14 4.192 12.433 2.625 10.5 2.625ZM5.25 6.125C5.25 3.2255 7.6005 0.875 10.5 0.875C13.3995 0.875 15.75 3.2255 15.75 6.125C15.75 9.0245 13.3995 11.375 10.5 11.375C7.6005 11.375 5.25 9.0245 5.25 6.125Z" fill="#4F4F4F"/>
</svg>
