<?xml version="1.0" encoding="utf-8"?>
<!-- Generator: Adobe Illustrator 25.2.0, SVG Export Plug-In . SVG Version: 6.00 Build 0)  -->
<svg version="1.0" id="Layer_1" xmlns="http://www.w3.org/2000/svg" xmlns:xlink="http://www.w3.org/1999/xlink" x="0px" y="0px"
	 viewBox="0 0 944.57 118.62" style="enable-background:new 0 0 944.57 118.62;" xml:space="preserve">
<style type="text/css">
	.st0{fill:#FFFFFF;}
	.st1{fill:#80548D;}
	.st2{fill:#333333;}
	.st3{fill:#4B4B4C;}
	.st4{fill:#C89EE7;}
	.st5{fill:#969696;}
	.st6{fill:#686868;}
</style>
<g>
	<path class="st0" d="M186.44,75.47c-0.05-3.42-1.67-6.07-4.31-8.18c-4.11-3.28-8.19-6.6-12.28-9.9l-15.58-30.84
		c-2.65-5.35-5.18-10.76-8.05-15.99c-2.2-4.01-5.98-5.95-10.52-6.33c-0.75-0.06-1.51-0.04-2.26-0.04c-13.11,0-26.21-0.01-39.32-0.01
		V4.18H56.76H8.88c-4.4,0-8.04,3.21-8.75,7.41C0.05,12.07,0,12.55,0,13.06v4.18v69.14c0,6.11,4.95,11.06,11.06,11.06h2.98v-0.05
		c0.29,0,0.59,0,0.88,0c1.23-9.06,8.99-16.04,18.38-16.04c9.4,0,17.16,6.99,18.38,16.05c11.57-0.01,23.14-0.03,34.71-0.03
		c2.57,0,5.14,0,7.71,0c16.63,0,33.26,0,49.9,0c1.24-9.05,8.99-16.02,18.38-16.02c9.4,0,17.16,6.98,18.38,16.04
		c1.43-0.01,2.87-0.02,4.3-0.01c1.02,0.01,1.42-0.17,1.41-1c-0.05-3.74-0.06-7.49-0.07-11.23
		C186.45,81.92,186.49,78.69,186.44,75.47z"/>
	<path class="st1" d="M70.06,31.52c0,0,0.88,1.35,2.35,0v1.72h-2.36L70.06,31.52z"/>
	<path class="st1" d="M74.73,31.49c0,0,0.91,1.39,2.44,0v1.78h-2.44L74.73,31.49z"/>
	<path class="st1" d="M79.42,31.5c0,0,0.9,1.38,2.41,0v1.76h-2.41L79.42,31.5z"/>
	<path class="st2" d="M179.09,101.42c0.15-7.92-5.41-14.1-11.63-15.99c-10.41-3.16-21.06,4.31-21.35,15.09
		c-0.01,0.31-0.06,0.62-0.09,0.93c0.19,8.85,6.76,14.89,13.52,16C169.89,119.16,178.24,112.31,179.09,101.42z"/>
	<path class="st2" d="M49.84,101.42c0.15-7.92-5.41-14.1-11.63-15.99c-10.41-3.16-21.06,4.31-21.35,15.09
		c-0.01,0.31-0.06,0.62-0.09,0.93c0.19,8.85,6.76,14.89,13.52,16C40.65,119.16,48.99,112.31,49.84,101.42z"/>
	<path class="st0" d="M42.72,101.33c0.08-4.58-3.13-8.16-6.73-9.25c-6.02-1.83-12.18,2.49-12.35,8.73c0,0.18-0.03,0.36-0.05,0.54
		c0.11,5.12,3.91,8.61,7.82,9.26C37.4,111.59,42.22,107.63,42.72,101.33z"/>
	<path class="st0" d="M171.96,101.33c0.08-4.58-3.13-8.16-6.73-9.25c-6.02-1.83-12.18,2.49-12.35,8.73c0,0.18-0.03,0.36-0.05,0.54
		c0.11,5.12,3.91,8.61,7.82,9.26C166.64,111.59,171.47,107.63,171.96,101.33z"/>
	<path class="st3" d="M43.75,4.18H11.41V3.05c0-1.68,1.36-3.05,3.05-3.05H40.7c1.68,0,3.05,1.36,3.05,3.05V4.18z"/>
	<g>
		<path class="st4" d="M97.92,42.12c0.03-3.56-0.16-7.1-0.75-10.62c-0.42-2.53-1.02-5.01-2.04-7.38c-1-2.33-2.22-4.51-4.01-6.34
			c-0.8-0.81-1.65-1.54-2.75-1.92c-1.11-0.38-2.02,0.28-2.01,1.39c0.03,8.84,0.01,17.67,0,26.51c0,0.9,0.01,1.8,0.01,2.7
			c0,1.01,0,2.02,0.01,3.03c0.01,0.6,0.05,1.21,0.05,1.81c0.01,3.2,0,6.4,0,9.61l0.28,11.42c0.07,1.55,0.36,3.08,1.02,4.52
			c1.07,2.37,3.81,2.54,5.29,1.23c0.59-0.52,1-1.15,1.29-1.87c0.73-1.76,0.93-3.62,0.97-5.48c0.04-1.88-0.02-3.77-0.16-5.64
			c-0.19-2.54-0.48-5.07-0.76-7.6c-0.18-1.62-0.44-3.23-0.63-4.84c-0.1-0.84-0.08-0.84,0.74-0.88c1.73-0.07,2.61-0.79,2.97-2.49
			c0.1-0.45,0.12-0.92,0.16-1.39c0.12-1.42,0.24-2.84,0.33-4.27C97.97,43.14,97.91,42.63,97.92,42.12z"/>
		<path class="st4" d="M81.38,17.32c-0.68,0.01-1.09,0.48-1.09,1.29c0.01,3.74,0.03,7.48,0.03,11.23c-1.36,1.2-2.23,0.29-2.42,0.05
			l-0.02-4.17c0-2.18,0-4.36,0-6.54c0-0.3,0-0.6-0.03-0.89c-0.07-0.61-0.47-0.95-1.09-0.95c-0.61,0-1.08,0.38-1.16,0.95
			c-0.02,0.18-0.02,0.37-0.02,0.55c0,3.31,0,6.63,0.01,9.94c0,0.35,0.01,0.71,0.01,1.06c-1.33,1.2-2.19,0.28-2.38,0.04l-0.03-4.24
			c0-2.38,0.01-4.76,0-7.14c0-0.73-0.45-1.17-1.12-1.17c-0.71,0-1.15,0.44-1.18,1.16c0,0.14,0,0.28,0,0.42
			c0.01,3.66,0.01,7.32,0.02,10.99c-1.34,1.12-2.19,0.21-2.37,0l-0.04-3.62c0-0.13,0-0.26,0-0.38c0-2.48,0-4.96-0.01-7.44
			c0-0.55-0.34-1-0.77-1.09c-0.64-0.14-1.18,0.07-1.39,0.6c-0.09,0.23-0.1,0.5-0.1,0.75c0,4.83,0.01,9.67,0.02,14.5
			c0,2.24,0.37,4.42,1.22,6.51c0.51,1.25,1.2,2.39,2.09,3.42c0.35,0.4,0.66,0.86,0.83,1.35c0.21,0.59,0.33,1.24,0.34,1.87
			c0.03,1.3,0.01,2.6-0.1,3.89c-0.14,1.65-0.4,3.29-0.57,4.93c-0.22,2.1-0.48,4.2-0.57,6.3c-0.12,2.79-0.15,5.58-0.11,8.37
			c0.04,2.21,0.35,4.4,1.26,6.46c0.63,1.43,1.81,2.8,3.95,2.59c0.94-0.09,1.68-0.52,2.28-1.24c1.05-1.25,1.48-2.76,1.72-4.32
			c0.21-1.35,0.39-2.72,0.41-4.09c0.04-2.29-0.02-4.59-0.09-6.88c-0.04-1.26-0.18-2.51-0.3-3.76c-0.16-1.65-0.32-3.29-0.51-4.94
			c-0.14-1.24-0.4-2.46-0.47-3.7c-0.1-1.72-0.17-3.46,0.19-5.17c0.06-0.27,0.14-0.55,0.29-0.77c0.6-0.87,1.24-1.72,1.85-2.58
			c1.64-2.33,2.54-4.95,2.58-7.78c0.08-5.02,0.02-10.03,0.01-15.05C82.59,17.8,82.11,17.31,81.38,17.32z"/>
	</g>
	<g>
		<path class="st5" d="M166.52,56.75l-14.18-28.64h-7.84c0,0-0.79-0.13-0.79,1.63c0,0.86,0,7.3,0,13.68l13.33,13.33H166.52z"/>
		<path class="st6" d="M157.05,56.75l-13.33-13.33c0,6.7,0,13.33,0,13.33H157.05z"/>
	</g>
	<g>
		<g>
			<path class="st0" d="M263.93,30.65h-26.82v-15.8h73.03v15.8h-26.82v68h-19.4V30.65z"/>
			<path class="st0" d="M373.96,98.65L357.8,75.31h-0.96h-16.88v23.34h-19.39v-83.8h36.28c22.39,0,36.39,11.61,36.39,30.41
				c0,12.57-6.34,21.79-17.24,26.46l18.8,26.94H373.96z M355.76,30.65h-15.8v29.21h15.8c11.85,0,17.84-5.51,17.84-14.6
				C373.6,36.04,367.62,30.65,355.76,30.65z"/>
			<path class="st0" d="M407.85,61.78V14.85h19.4v46.21c0,15.92,6.94,22.51,18.68,22.51c11.85,0,18.67-6.58,18.67-22.51V14.85h19.16
				v46.93c0,24.66-14.13,38.31-37.95,38.31C421.98,100.09,407.85,86.44,407.85,61.78z"/>
			<path class="st0" d="M497.66,56.75c0-25.26,19.4-43.34,45.49-43.34c14.49,0,26.58,5.27,34.48,14.85l-12.45,11.49
				c-5.62-6.46-12.69-9.82-21.07-9.82c-15.68,0-26.82,11.01-26.82,26.82c0,15.8,11.13,26.82,26.82,26.82
				c8.38,0,15.45-3.35,21.07-9.94l12.45,11.49c-7.9,9.7-19.99,14.97-34.6,14.97C517.05,100.09,497.66,82.01,497.66,56.75z"/>
			<path class="st0" d="M621.22,65.73l-11.25,11.73v21.19h-19.27v-83.8h19.27V54l37.11-39.15h21.55L633.91,52.2l36.75,46.45h-22.63
				L621.22,65.73z"/>
			<path class="st4" d="M756.16,75.79c0,14.49-11.49,22.87-33.52,22.87H679.3v-83.8h40.94c20.95,0,31.73,8.74,31.73,21.79
				c0,8.38-4.31,14.85-11.13,18.44C750.17,58.07,756.16,65.25,756.16,75.79z M698.57,29.46v19.75h19.27c9.46,0,14.6-3.35,14.6-9.94
				s-5.15-9.82-14.6-9.82H698.57z M736.64,73.75c0-7.06-5.39-10.41-15.44-10.41h-22.63v20.71h22.63
				C731.26,84.05,736.64,80.94,736.64,73.75z"/>
			<path class="st4" d="M770.18,61.78V14.85h19.4v46.21c0,15.92,6.94,22.51,18.68,22.51c11.85,0,18.67-6.58,18.67-22.51V14.85h19.16
				v46.93c0,24.66-14.13,38.31-37.95,38.31S770.18,86.44,770.18,61.78z"/>
			<path class="st4" d="M916.85,98.65l-20.23-29.09l-19.87,29.09h-22.27l31.01-42.62l-29.45-41.18h22.03l19.27,27.18l18.92-27.18
				h20.95l-29.21,40.46l31.25,43.34H916.85z"/>
		</g>
	</g>
</g>
</svg>
