<?xml version="1.0" standalone="no"?>
<!DOCTYPE svg PUBLIC "-//W3C//DTD SVG 1.1//EN" "http://www.w3.org/Graphics/SVG/1.1/DTD/svg11.dtd" >
<svg xmlns="http://www.w3.org/2000/svg">
<metadata>Generated by IcoMoon</metadata>
<defs>
<font id="softies-afiye" horiz-adv-x="1024">
<font-face units-per-em="1024" ascent="960" descent="-64" />
<missing-glyph horiz-adv-x="1024" />
<glyph unicode="&#x20;" horiz-adv-x="512" d="" />
<glyph unicode="&#xe900;" glyph-name="accessibility" d="M512-21.333c-260.267 0-469.333 209.067-469.333 469.333s209.067 469.333 469.333 469.333 469.333-209.067 469.333-469.333-209.067-469.333-469.333-469.333zM512 832c-213.333 0-384-170.667-384-384s170.667-384 384-384c213.333 0 384 170.667 384 384s-170.667 384-384 384zM597.333 661.333c0-47.128-38.205-85.333-85.333-85.333s-85.333 38.205-85.333 85.333c0 47.128 38.205 85.333 85.333 85.333s85.333-38.205 85.333-85.333zM512 448c-136.533 0-213.333 46.933-213.333 51.2-21.333 12.8-25.6 38.4-12.8 59.733 12.8 17.067 38.4 21.333 55.467 8.533 0 0 59.733-34.133 170.667-34.133s166.4 34.133 170.667 34.133c17.067 12.8 42.667 8.533 55.467-12.8s8.533-46.933-12.8-59.733c0 0-76.8-46.933-213.333-46.933zM426.667 149.333c-4.267 0-12.8 0-17.067 4.267-21.333 8.533-29.867 34.133-21.333 55.467 0 0 46.933 110.933 59.733 162.133 8.533 38.4 4.267 93.867 0 110.933-4.267 12.8 0 25.6 8.533 34.133s21.333 17.067 34.133 17.067h42.667c12.8 0 21.333-4.267 29.867-12.8s12.8-21.333 12.8-34.133c-4.267-42.667-4.267-98.133 0-115.2 12.8-55.467 59.733-162.133 59.733-162.133 8.533-21.333 0-46.933-21.333-55.467s-46.933 0-55.467 21.333c0 4.267-25.6 59.733-46.933 115.2-21.333-55.467-42.667-110.933-46.933-115.2-4.267-17.067-21.333-25.6-38.4-25.6z" />
<glyph unicode="&#xe901;" glyph-name="arrow" d="M88.676 861.823c209.023-120.346 416.99-240.693 626.012-361.039 54.895-31.67 110.845-64.396 165.74-96.066 0 30.614 0 61.229 0 90.788-207.967-120.346-416.99-240.693-624.957-361.039-54.895-31.67-110.845-64.396-165.74-96.066-59.118-33.781-5.278-125.625 53.839-90.788 206.911 120.346 415.934 240.693 624.957 361.039 54.895 31.67 110.845 64.396 165.74 96.066 33.781 20.058 33.781 71.786 0 90.788-209.023 120.346-416.99 240.693-626.012 361.039-54.895 31.67-110.845 64.396-165.74 96.066-59.118 33.781-112.957-57.006-53.839-90.788v0z" />
<glyph unicode="&#xe902;" glyph-name="cake" d="M512 21.333c-247.467 0-349.867 59.733-366.933 72.533-34.133 17.067-59.733 59.733-59.733 98.133v426.667c0 25.6 17.067 42.667 42.667 42.667s42.667-17.067 42.667-42.667v-426.667c0-8.533 8.533-21.333 12.8-25.6 0 0 4.267 0 4.267-4.267 0 0 85.333-55.467 320-55.467s320 55.467 320 55.467c0 0 4.267 4.267 4.267 4.267 4.267 4.267 12.8 17.067 12.8 25.6v426.667c0 25.6 17.067 42.667 42.667 42.667s42.667-17.067 42.667-42.667v-426.667c0-38.4-25.6-81.067-59.733-98.133-8.533-12.8-110.933-72.533-358.4-72.533zM512 448c-204.8 0-426.667 55.467-426.667 170.667s221.867 170.667 426.667 170.667 426.667-55.467 426.667-170.667-221.867-170.667-426.667-170.667zM512 704c-221.867 0-341.333-64-341.333-85.333s119.467-85.333 341.333-85.333c221.867 0 341.333 64 341.333 85.333s-119.467 85.333-341.333 85.333zM512 192c-51.2 0-85.333 38.4-106.667 68.267-12.8 17.067-29.867 38.4-42.667 38.4-17.067 0-25.6-4.267-38.4-12.8-17.067-12.8-42.667-29.867-89.6-29.867-89.6 0-136.533 136.533-149.333 179.2l85.333 25.6c17.067-59.733 51.2-115.2 64-119.467 17.067 0 25.6 4.267 38.4 12.8 17.067 12.8 42.667 29.867 89.6 29.867 51.2 0 85.333-38.4 106.667-68.267 12.8-17.067 29.867-38.4 42.667-38.4 0 0 0 0 0 0 12.8 0 25.6 17.067 42.667 38.4 25.6 29.867 55.467 68.267 106.667 68.267 42.667 0 68.267-17.067 89.6-29.867 12.8-8.533 21.333-12.8 38.4-12.8 12.8 4.267 46.933 55.467 64 119.467l81.067-25.6c-12.8-42.667-59.733-179.2-149.333-179.2-46.933 0-68.267 17.067-89.6 29.867-12.8 8.533-21.333 12.8-38.4 12.8 0 0 0 0 0 0-12.8 0-25.6-17.067-42.667-38.4-17.067-29.867-51.2-68.267-102.4-68.267 0 0 0 0 0 0zM341.333 618.667c-25.6 0-42.667 17.067-42.667 42.667v213.333c0 25.6 17.067 42.667 42.667 42.667s42.667-17.067 42.667-42.667v-213.333c0-25.6-17.067-42.667-42.667-42.667zM512 576c-25.6 0-42.667 17.067-42.667 42.667v213.333c0 25.6 17.067 42.667 42.667 42.667s42.667-17.067 42.667-42.667v-213.333c0-25.6-17.067-42.667-42.667-42.667zM682.667 618.667c-25.6 0-42.667 17.067-42.667 42.667v213.333c0 25.6 17.067 42.667 42.667 42.667s42.667-17.067 42.667-42.667v-213.333c0-25.6-17.067-42.667-42.667-42.667z" />
<glyph unicode="&#xe903;" glyph-name="calendar-light" d="M864 832h-96v104c0 13.2-10.8 24-24 24h-16c-13.2 0-24-10.8-24-24v-104h-384v104c0 13.2-10.8 24-24 24h-16c-13.2 0-24-10.8-24-24v-104h-96c-53 0-96-43-96-96v-704c0-53 43-96 96-96h704c53 0 96 43 96 96v704c0 53-43 96-96 96zM160 768h704c17.6 0 32-14.4 32-32v-96h-768v96c0 17.6 14.4 32 32 32zM864 0h-704c-17.6 0-32 14.4-32 32v544h768v-544c0-17.6-14.4-32-32-32z" />
<glyph unicode="&#xe904;" glyph-name="cross" d="M213.333 106.667c-12.8 0-21.333 4.267-29.867 12.8-17.067 17.067-17.067 42.667 0 59.733l597.333 597.333c17.067 17.067 42.667 17.067 59.733 0s17.067-42.667 0-59.733l-597.333-597.333c-8.533-8.533-17.067-12.8-29.867-12.8zM810.667 106.667c-12.8 0-21.333 4.267-29.867 12.8l-597.333 597.333c-17.067 17.067-17.067 42.667 0 59.733s42.667 17.067 59.733 0l597.333-597.333c17.067-17.067 17.067-42.667 0-59.733-8.533-8.533-17.067-12.8-29.867-12.8z" />
<glyph unicode="&#xe905;" glyph-name="delete" d="M725.333-21.333h-426.667c-72.533 0-128 55.467-128 128v554.667h85.333v-554.667c0-21.333 21.333-42.667 42.667-42.667h426.667c25.6 0 42.667 17.067 42.667 42.667v554.667h85.333v-554.667c0-72.533-55.467-128-128-128zM384 490.667c0 25.6 17.067 42.667 42.667 42.667s42.667-21.333 42.667-42.667v-256c0-25.6-17.067-42.667-42.667-42.667s-42.667 21.333-42.667 42.667v256zM554.667 490.667c0 25.6 17.067 42.667 42.667 42.667s42.667-21.333 42.667-42.667v-256c0-25.6-17.067-42.667-42.667-42.667s-42.667 21.333-42.667 42.667v256zM128 789.333h768c25.6 0 42.667-17.067 42.667-42.667v0c0-25.6-17.067-42.667-42.667-42.667h-768c-25.6 0-42.667 17.067-42.667 42.667v0c0 25.6 17.067 42.667 42.667 42.667zM682.667 746.667h-85.333v85.333h-170.667v-85.333h-85.333v85.333c0 46.933 38.4 85.333 85.333 85.333h170.667c46.933 0 85.333-38.4 85.333-85.333v-85.333z" />
<glyph unicode="&#xe906;" glyph-name="edit" d="M298.667 21.333h-170.667c-25.6 0-42.667 17.067-42.667 42.667v170.667c0 12.8 4.267 21.333 12.8 29.867l550.4 550.4c34.133 34.133 76.8 51.2 119.467 51.2 0 0 0 0 0 0 38.4 0 72.533-12.8 102.4-34.133 4.267 0 8.533-4.267 8.533-8.533l8.533-8.533c4.267-4.267 8.533-8.533 8.533-8.533 21.333-29.867 34.133-64 34.133-102.4 0-46.933-17.067-89.6-51.2-119.467l-550.4-550.4c-8.533-8.533-17.067-12.8-29.867-12.8zM170.667 106.667h110.933l537.6 537.6c17.067 17.067 25.6 38.4 25.6 59.733s-8.533 38.4-21.333 55.467c-12.8 12.8-34.133 21.333-55.467 21.333 0 0 0 0 0 0-21.333 0-42.667-8.533-59.733-25.6l-537.6-537.6v-110.933zM589.347 694.301l60.339 60.339 171.967-171.967-60.339-60.339-171.967 171.967z" />
<glyph unicode="&#xe907;" glyph-name="graduation-cap" d="M512 247.467c-21.333 0-42.667 4.267-55.467 12.8l-396.8 196.267c-34.133 17.067-55.467 46.933-55.467 76.8s21.333 59.733 55.467 76.8l396.8 200.533c34.133 17.067 81.067 17.067 115.2 0l396.8-196.267c34.133-17.067 55.467-46.933 55.467-76.8s-21.333-59.733-55.467-76.8l-396.8-200.533c-17.067-8.533-38.4-12.8-59.733-12.8zM93.867 533.333l396.8-200.533c8.533-4.267 29.867-4.267 38.4 0l396.8 200.533c0 0 0 0 0 0s0 0 0 0l-396.8 200.533c-8.533 4.267-29.867 4.267-38.4 0l-396.8-200.533c0 0 0 0 0 0s0 0 0 0v0zM512 64c-132.267 0-226.133 29.867-230.4 34.133-38.4 8.533-68.267 51.2-68.267 93.867v234.667h85.333v-234.667c0-4.267 4.267-12.8 8.533-12.8s85.333-29.867 204.8-29.867c119.467 0 200.533 29.867 200.533 29.867 4.267 0 12.8 8.533 12.8 12.8v234.667h85.333v-234.667c0-42.667-29.867-85.333-72.533-93.867 0 0-93.867-34.133-226.133-34.133zM597.333 533.333c0-23.564-38.205-42.667-85.333-42.667s-85.333 19.103-85.333 42.667c0 23.564 38.205 42.667 85.333 42.667s85.333-19.103 85.333-42.667zM938.667 277.333h-42.667v192l-388.267 42.667 4.267 42.667 405.333-42.667c12.8 0 17.067-8.533 17.067-21.333v-213.333zM938.667 149.333h-42.667c-12.8 0-25.6 4.267-34.133 17.067-8.533 8.533-8.533 21.333-8.533 34.133l21.333 85.333c4.267 17.067 21.333 34.133 42.667 34.133s38.4-12.8 42.667-34.133l21.333-85.333c4.267-12.8 0-25.6-8.533-38.4-8.533-8.533-21.333-12.8-34.133-12.8z" />
<glyph unicode="&#xe908;" glyph-name="help" d="M512-21.333c-260.267 0-469.333 209.067-469.333 469.333s209.067 469.333 469.333 469.333 469.333-209.067 469.333-469.333-209.067-469.333-469.333-469.333zM512 832c-213.333 0-384-170.667-384-384s170.667-384 384-384c213.333 0 384 170.667 384 384s-170.667 384-384 384zM512 341.333c17.067 0 25.6 12.8 29.867 25.6l4.267 29.867c72.533 12.8 136.533 51.2 136.533 140.8v0c0 85.333-64 136.533-162.133 136.533-64 0-106.667-21.333-145.067-55.467-8.533-8.533-12.8-17.067-12.8-29.867 0-21.333 17.067-38.4 38.4-38.4 8.533 0 17.067 4.267 25.6 8.533 25.6 25.6 55.467 38.4 93.867 38.4 51.2 0 76.8-25.6 76.8-64v0c0-42.667-34.133-68.267-98.133-72.533-17.067 0-29.867-17.067-25.6-34.133l8.533-59.733c0-17.067 12.8-25.6 29.867-25.6v0zM460.8 243.2v-8.533c0-25.6 21.333-46.933 46.933-46.933s46.933 21.333 46.933 46.933v8.533c0 25.6-21.333 46.933-46.933 46.933s-46.933-21.333-46.933-46.933z" />
<glyph unicode="&#xe909;" glyph-name="home" d="M981.333 448c-8.533 0-17.067 4.267-25.6 8.533l-443.733 362.667-443.733-362.667c-17.067-12.8-46.933-12.8-59.733 4.267s-12.8 46.933 4.267 59.733l469.333 384c17.067 12.8 38.4 12.8 55.467 0l469.333-384c17.067-12.8 21.333-42.667 4.267-59.733-4.267-8.533-17.067-12.8-29.867-12.8zM853.333 21.333h-213.333c-46.933 0-85.333 38.4-85.333 85.333v213.333h-85.333v-213.333c0-46.933-38.4-85.333-85.333-85.333h-213.333c-46.933 0-85.333 38.4-85.333 85.333v426.667c0 25.6 17.067 42.667 42.667 42.667s42.667-17.067 42.667-42.667v-426.667h213.333v213.333c0 46.933 38.4 85.333 85.333 85.333h85.333c46.933 0 85.333-38.4 85.333-85.333v-213.333h213.333v426.667c0 25.6 17.067 42.667 42.667 42.667s42.667-17.067 42.667-42.667v-426.667c0-46.933-38.4-85.333-85.333-85.333z" />
<glyph unicode="&#xe90a;" glyph-name="lock-round" d="M512-21.333c-187.733 0-341.333 153.6-341.333 341.333s153.6 341.333 341.333 341.333 341.333-153.6 341.333-341.333-153.6-341.333-341.333-341.333zM512 576c-140.8 0-256-115.2-256-256s115.2-256 256-256 256 115.2 256 256-115.2 256-256 256zM554.667 290.133v-55.467c0-25.6-17.067-42.667-42.667-42.667s-42.667 17.067-42.667 42.667v55.467c-25.6 12.8-42.667 42.667-42.667 72.533 0 46.933 38.4 85.333 85.333 85.333s85.333-38.4 85.333-85.333c0-29.867-17.067-59.733-42.667-72.533zM682.667 533.333c-25.6 0-42.667 17.067-42.667 42.667v128c0 72.533-55.467 128-128 128s-128-55.467-128-128v-128c0-25.6-17.067-42.667-42.667-42.667s-42.667 17.067-42.667 42.667v128c0 119.467 93.867 213.333 213.333 213.333s213.333-93.867 213.333-213.333v-128c0-25.6-17.067-42.667-42.667-42.667z" />
<glyph unicode="&#xe90b;" glyph-name="mail-open" d="M853.333-21.333h-682.667c-72.533 0-128 55.467-128 128v469.333c0 55.467 34.133 110.933 81.067 136.533l371.2 204.8c12.8 8.533 29.867 8.533 42.667 0l366.933-204.8c42.667-25.6 76.8-81.067 76.8-136.533v-469.333c0-72.533-55.467-128-128-128zM516.267 832l-349.867-192c-21.333-12.8-38.4-38.4-38.4-64v-469.333c0-25.6 17.067-42.667 42.667-42.667h682.667c21.333 0 42.667 17.067 42.667 42.667v469.333c0 25.6-17.067 51.2-38.4 64l-341.333 192zM512 234.667c-8.533 0-21.333 4.267-25.6 8.533l-256 213.333c-17.067 17.067-21.333 42.667-4.267 59.733s42.667 21.333 59.733 4.267l230.4-192 230.4 192c17.067 17.067 46.933 12.8 59.733-4.267 17.067-17.067 12.8-46.933-4.267-59.733l-256-213.333c-12.8-4.267-25.6-8.533-34.133-8.533z" />
<glyph unicode="&#xe90c;" glyph-name="mail" d="M896 64h-768c-46.933 0-85.333 38.4-85.333 85.333v554.667c0 46.933 38.4 85.333 85.333 85.333h768c46.933 0 85.333-38.4 85.333-85.333v-554.667c0-46.933-38.4-85.333-85.333-85.333zM128 704v0-554.667h768v554.667h-768zM512 320c-8.533 0-21.333 4.267-25.6 8.533l-256 213.333c-17.067 17.067-21.333 42.667-4.267 59.733s42.667 21.333 59.733 4.267l230.4-192 230.4 192c17.067 17.067 46.933 12.8 59.733-4.267 17.067-17.067 12.8-46.933-4.267-59.733l-256-213.333c-12.8-4.267-25.6-8.533-34.133-8.533z" />
<glyph unicode="&#xe90d;" glyph-name="map-pin" d="M512-64c-12.8 0-21.333 4.267-29.867 12.8-12.8 12.8-354.133 358.4-354.133 627.2 0 213.333 170.667 384 384 384s384-170.667 384-384c0-268.8-341.333-614.4-354.133-627.2-8.533-8.533-17.067-12.8-29.867-12.8zM512 874.667c-166.4 0-298.667-132.267-298.667-298.667 0-192 217.6-448 298.667-533.333 81.067 89.6 298.667 341.333 298.667 533.333 0 166.4-132.267 298.667-298.667 298.667zM512 405.333c-93.867 0-170.667 76.8-170.667 170.667s76.8 170.667 170.667 170.667c93.867 0 170.667-76.8 170.667-170.667s-76.8-170.667-170.667-170.667zM512 661.333c-46.933 0-85.333-38.4-85.333-85.333s38.4-85.333 85.333-85.333c46.933 0 85.333 38.4 85.333 85.333s-38.4 85.333-85.333 85.333z" />
<glyph unicode="&#xe90e;" glyph-name="menu" d="M853.333 192h-682.667c-21.333 0-42.667 17.067-42.667 42.667s17.067 42.667 42.667 42.667h682.667c21.333 0 42.667-17.067 42.667-42.667s-17.067-42.667-42.667-42.667zM170.667 234.667v0c0 0 0 0 0 0v0zM853.333 405.333h-682.667c-21.333 0-42.667 17.067-42.667 42.667s17.067 42.667 42.667 42.667h682.667c21.333 0 42.667-17.067 42.667-42.667s-17.067-42.667-42.667-42.667zM170.667 448v0c0 0 0 0 0 0v0zM853.333 618.667h-682.667c-25.6 0-42.667 17.067-42.667 42.667s17.067 42.667 42.667 42.667h682.667c21.333 0 42.667-17.067 42.667-42.667s-17.067-42.667-42.667-42.667zM170.667 661.333v0c0 0 0 0 0 0v0z" />
<glyph unicode="&#xe90f;" glyph-name="more-h" d="M426.667 448c0 46.933 38.4 85.333 85.333 85.333s85.333-38.4 85.333-85.333c0-46.933-38.4-85.333-85.333-85.333s-85.333 38.4-85.333 85.333zM725.333 448c0 46.933 38.4 85.333 85.333 85.333s85.333-38.4 85.333-85.333c0-46.933-38.4-85.333-85.333-85.333s-85.333 38.4-85.333 85.333zM128 448c0 46.933 38.4 85.333 85.333 85.333s85.333-38.4 85.333-85.333c0-46.933-38.4-85.333-85.333-85.333s-85.333 38.4-85.333 85.333z" />
<glyph unicode="&#xe910;" glyph-name="pause" d="M768 21.333h-128c-46.933 0-85.333 38.4-85.333 85.333v682.667c0 46.933 38.4 85.333 85.333 85.333h128c46.933 0 85.333-38.4 85.333-85.333v-682.667c0-46.933-38.4-85.333-85.333-85.333zM640 789.333v-682.667h128v682.667h-128zM384 21.333h-128c-46.933 0-85.333 38.4-85.333 85.333v682.667c0 46.933 38.4 85.333 85.333 85.333h128c46.933 0 85.333-38.4 85.333-85.333v-682.667c0-46.933-38.4-85.333-85.333-85.333zM256 789.333v-682.667h128v682.667h-128z" />
<glyph unicode="&#xe911;" glyph-name="play" d="M213.333 21.333c-8.533 0-12.8 0-21.333 4.267-12.8 8.533-21.333 21.333-21.333 38.4v768c0 17.067 8.533 29.867 21.333 38.4s29.867 8.533 42.667 0l682.667-384c12.8-8.533 21.333-21.333 21.333-38.4s-8.533-29.867-21.333-38.4l-682.667-384c-8.533-4.267-12.8-4.267-21.333-4.267zM256 759.467v-622.933l554.667 311.467-554.667 311.467z" />
<glyph unicode="&#xe912;" glyph-name="plus" d="M554.667 490.667v256c0 25.6-17.067 42.667-42.667 42.667s-42.667-17.067-42.667-42.667v-256h-256c-25.6 0-42.667-17.067-42.667-42.667s17.067-42.667 42.667-42.667h256v-256c0-25.6 17.067-42.667 42.667-42.667s42.667 17.067 42.667 42.667v256h256c25.6 0 42.667 17.067 42.667 42.667s-17.067 42.667-42.667 42.667h-256z" />
<glyph unicode="&#xe913;" glyph-name="search" d="M426.667 192c-187.733 0-341.333 153.6-341.333 341.333s153.6 341.333 341.333 341.333 341.333-153.6 341.333-341.333-153.6-341.333-341.333-341.333zM426.667 789.333c-140.8 0-256-115.2-256-256s115.2-256 256-256 256 115.2 256 256-115.2 256-256 256zM896 21.333c-12.8 0-21.333 4.267-29.867 12.8l-256 256c-17.067 17.067-17.067 42.667 0 59.733s42.667 17.067 59.733 0l256-256c17.067-17.067 17.067-42.667 0-59.733-8.533-8.533-17.067-12.8-29.867-12.8z" />
<glyph unicode="&#xe914;" glyph-name="settings" d="M554.667-64h-85.333c-46.933 0-85.333 38.4-85.333 85.333v21.333c-25.6 8.533-46.933 17.067-68.267 29.867l-17.067-17.067c-17.067-17.067-38.4-25.6-59.733-25.6 0 0 0 0 0 0-21.333 0-42.667 8.533-59.733 25.6l-59.733 59.733c-17.067 17.067-25.6 38.4-25.6 59.733s8.533 42.667 25.6 59.733l12.8 12.8c-12.8 21.333-21.333 46.933-29.867 68.267h-17.067c-46.933 0-85.333 38.4-85.333 85.333v85.333c0 46.933 38.4 85.333 85.333 85.333h21.333c8.533 25.6 17.067 46.933 29.867 68.267l-17.067 21.333c-17.067 12.8-25.6 34.133-25.6 59.733 0 21.333 8.533 42.667 25.6 59.733l59.733 59.733c17.067 17.067 38.4 25.6 59.733 25.6s42.667-8.533 59.733-25.6l12.8-12.8c25.6 8.533 46.933 21.333 72.533 25.6v21.333c0 46.933 38.4 85.333 85.333 85.333h85.333c46.933 0 85.333-38.4 85.333-85.333v-21.333c25.6-8.533 46.933-17.067 68.267-29.867l17.067 17.067c29.867 34.133 85.333 34.133 119.467 0l59.733-59.733c17.067-17.067 25.6-38.4 25.6-59.733s-8.533-42.667-25.6-59.733l-12.8-12.8c12.8-21.333 21.333-46.933 29.867-68.267h17.067c46.933 0 85.333-38.4 85.333-85.333v-85.333c0-46.933-38.4-85.333-85.333-85.333h-21.333c-8.533-25.6-17.067-46.933-29.867-68.267l12.8-12.8c34.133-34.133 34.133-89.6 0-119.467l-59.733-59.733c-17.067-17.067-38.4-25.6-59.733-25.6 0 0 0 0 0 0-21.333 0-42.667 8.533-59.733 25.6l-12.8 12.8c-21.333-12.8-46.933-21.333-68.267-29.867v-25.6c0-46.933-38.4-85.333-85.333-85.333zM307.2 166.4c8.533 0 17.067-4.267 21.333-8.533 34.133-21.333 68.267-34.133 106.667-42.667 21.333-4.267 34.133-21.333 34.133-42.667v-51.2h85.333v51.2c0 21.333 12.8 38.4 34.133 42.667 38.4 8.533 72.533 21.333 106.667 42.667 17.067 8.533 38.4 8.533 51.2-4.267l38.4-38.4 59.733 59.733-38.4 38.4c-12.8 12.8-17.067 34.133-4.267 51.2 21.333 34.133 34.133 68.267 42.667 106.667 4.267 21.333 21.333 34.133 42.667 34.133h51.2v85.333h-51.2c-21.333 0-38.4 12.8-42.667 34.133-8.533 38.4-21.333 72.533-42.667 106.667-8.533 17.067-8.533 38.4 4.267 51.2l38.4 38.4-59.733 59.733-38.4-38.4c-12.8-12.8-34.133-17.067-51.2-4.267-34.133 21.333-68.267 34.133-106.667 42.667-21.333 4.267-34.133 21.333-34.133 42.667v51.2h-85.333v-51.2c0-21.333-12.8-38.4-34.133-42.667-38.4-8.533-72.533-21.333-106.667-42.667-17.067-12.8-38.4-8.533-51.2 4.267l-38.4 38.4-59.733-59.733 38.4-38.4c12.8-12.8 17.067-34.133 4.267-51.2-21.333-34.133-34.133-68.267-42.667-106.667-4.267-21.333-21.333-34.133-42.667-34.133h-51.2v-85.333h51.2c21.333 0 38.4-12.8 42.667-34.133 8.533-38.4 21.333-72.533 42.667-106.667 8.533-17.067 8.533-38.4-4.267-51.2l-38.4-38.4 59.733-59.733 38.4 38.4c8.533 8.533 21.333 12.8 29.867 12.8zM512 234.667c-119.467 0-213.333 93.867-213.333 213.333s93.867 213.333 213.333 213.333 213.333-93.867 213.333-213.333-93.867-213.333-213.333-213.333zM512 576c-72.533 0-128-55.467-128-128s55.467-128 128-128 128 55.467 128 128-55.467 128-128 128z" />
<glyph unicode="&#xe915;" glyph-name="tag" d="M768 618.667c0-47.128-38.205-85.333-85.333-85.333s-85.333 38.205-85.333 85.333c0 47.128 38.205 85.333 85.333 85.333s85.333-38.205 85.333-85.333zM426.667 12.8c-34.133 0-68.267 12.8-89.6 38.4l-221.867 221.867c-51.2 51.2-51.2 132.267 0 179.2l379.733 379.733c25.6 25.6 68.267 42.667 102.4 42.667h298.667c25.6 0 42.667-17.067 42.667-42.667v-298.667c0-34.133-17.067-76.8-42.667-102.4l-379.733-379.733c-21.333-25.6-55.467-38.4-89.6-38.4 0 0 0 0 0 0zM597.333 789.333c-12.8 0-34.133-8.533-42.667-17.067l-379.733-379.733c-17.067-17.067-17.067-42.667 0-59.733l221.867-221.867c8.533-8.533 17.067-12.8 29.867-12.8 0 0 0 0 0 0 12.8 0 21.333 4.267 29.867 12.8l379.733 379.733c8.533 8.533 17.067 29.867 17.067 42.667v256h-256z" />
<glyph unicode="&#xe916;" glyph-name="tick" d="M384 149.333c-12.8 0-21.333 4.267-29.867 12.8l-213.333 213.333c-17.067 17.067-17.067 42.667 0 59.733s42.667 17.067 59.733 0l183.467-183.467 482.133 482.133c17.067 17.067 42.667 17.067 59.733 0s17.067-42.667 0-59.733l-512-512c-8.533-8.533-17.067-12.8-29.867-12.8z" />
<glyph unicode="&#xe917;" glyph-name="upload" d="M512 21.333c-25.6 0-42.667 17.067-42.667 42.667v512c0 25.6 17.067 42.667 42.667 42.667s42.667-17.067 42.667-42.667v-512c0-25.6-17.067-42.667-42.667-42.667zM768 362.667c-12.8 0-21.333 4.267-29.867 12.8l-226.133 226.133-226.133-226.133c-17.067-17.067-42.667-17.067-59.733 0s-17.067 42.667 0 59.733l256 256c17.067 17.067 42.667 17.067 59.733 0l256-256c17.067-17.067 17.067-42.667 0-59.733-8.533-8.533-17.067-12.8-29.867-12.8zM896 657.067c-25.6 0-42.667 17.067-42.667 42.667v89.6h-682.667v-89.6c0-25.6-17.067-42.667-42.667-42.667s-42.667 17.067-42.667 42.667v89.6c0 46.933 38.4 85.333 85.333 85.333h682.667c46.933 0 85.333-38.4 85.333-85.333v-89.6c0-21.333-17.067-42.667-42.667-42.667z" />
<glyph unicode="&#xe918;" glyph-name="user" d="M938.667 21.333c0 0-4.267 0 0 0-25.6 4.267-46.933 21.333-42.667 46.933 0 0 4.267 72.533-38.4 119.467-25.6 29.867-72.533 46.933-132.267 46.933h-426.667c-59.733 0-106.667-17.067-132.267-46.933-42.667-46.933-38.4-119.467-38.4-119.467 0-21.333-17.067-42.667-38.4-46.933-21.333 0-42.667 12.8-46.933 38.4 0 4.267-8.533 110.933 59.733 183.467 42.667 51.2 110.933 76.8 196.267 76.8h426.667c85.333 0 149.333-25.6 196.267-76.8 68.267-76.8 59.733-179.2 59.733-183.467 0-21.333-21.333-38.4-42.667-38.4zM512 362.667c-140.8 0-256 115.2-256 256s115.2 256 256 256 256-115.2 256-256-115.2-256-256-256zM512 789.333c-93.867 0-170.667-76.8-170.667-170.667s76.8-170.667 170.667-170.667c93.867 0 170.667 76.8 170.667 170.667s-76.8 170.667-170.667 170.667z" />
<glyph unicode="&#xe919;" glyph-name="alert" d="M968.533 21.333h-913.067c-17.067 0-29.867 8.533-38.4 21.333s-8.533 29.867 0 42.667l456.533 810.667c17.067 25.6 59.733 25.6 72.533 0l456.533-810.667c8.533-12.8 8.533-29.867 0-42.667s-17.067-21.333-34.133-21.333zM128 106.667h768l-384 682.667-384-682.667zM512 200.533c29.867 0 51.2 25.6 51.2 51.2 0 29.867-25.6 51.2-51.2 51.2s-51.2-25.6-51.2-51.2c0-25.6 21.333-51.2 51.2-51.2zM512 576v0c25.6 0 42.667-17.067 42.667-42.667v-128c0-25.6-17.067-42.667-42.667-42.667v0c-25.6 0-42.667 17.067-42.667 42.667v128c0 25.6 17.067 42.667 42.667 42.667z" />
</font>
</defs>
</svg>
