<?xml version="1.0" standalone="no"?>
<!DOCTYPE svg PUBLIC "-//W3C//DTD SVG 20010904//EN"
 "http://www.w3.org/TR/2001/REC-SVG-20010904/DTD/svg10.dtd">
<svg version="1.0" xmlns="http://www.w3.org/2000/svg"
 width="700.000000pt" height="700.000000pt" viewBox="0 0 700.000000 700.000000"
 preserveAspectRatio="xMidYMid meet">
<metadata>
Created by potrace 1.11, written by Peter Selinger 2001-2013
</metadata>
<g transform="translate(0.000000,700.000000) scale(0.100000,-0.100000)"
fill="#000000" stroke="none">
<path d="M3215 6989 c-712 -58 -1385 -331 -1944 -786 -134 -110 -361 -336
-474 -474 -1029 -1258 -1065 -3051 -88 -4344 535 -707 1334 -1192 2201 -1334
231 -38 323 -45 590 -45 336 0 555 25 853 100 775 193 1458 645 1939 1281 613
813 839 1826 632 2841 -109 532 -364 1063 -721 1501 -112 136 -338 362 -474
474 -641 523 -1432 803 -2253 796 -89 -1 -206 -5 -261 -10z m-668 -1493 c153
-41 275 -152 329 -301 l22 -60 635 -3 635 -2 18 55 c39 126 155 247 281 295
161 62 358 25 486 -90 113 -101 162 -222 155 -382 -3 -82 -8 -103 -39 -168
-42 -86 -100 -156 -164 -197 -25 -15 -45 -34 -45 -41 0 -12 192 -770 225 -888
l14 -50 78 -12 c284 -44 468 -316 398 -587 -62 -235 -289 -389 -526 -355 -70
10 -143 37 -190 71 -17 12 -34 17 -41 13 -9 -6 -840 -688 -877 -720 -2 -2 4
-32 15 -66 25 -86 23 -214 -5 -292 -60 -170 -201 -287 -379 -318 -251 -43
-501 141 -542 397 -13 80 -7 144 22 229 10 32 16 62 11 66 -4 4 -125 97 -268
206 -143 109 -338 260 -433 335 l-173 137 -52 -23 c-277 -126 -618 66 -656
370 -33 266 140 494 409 539 l35 6 135 473 c74 259 135 475 135 478 0 4 -21
23 -48 43 -71 54 -103 93 -142 171 -42 85 -59 169 -51 253 20 192 142 347 324
409 79 26 189 30 269 9z"/>
<path d="M2893 4923 c-26 -75 -46 -119 -69 -153 l-27 -40 40 -48 c21 -26 177
-219 347 -429 169 -211 311 -383 316 -383 13 0 18 6 413 469 l344 403 -28 52
c-16 28 -36 72 -45 99 l-16 47 -634 0 c-595 0 -635 -1 -641 -17z"/>
<path d="M4069 4192 c-193 -230 -354 -423 -356 -430 -3 -7 -2 -17 3 -22 5 -5
189 -66 409 -135 220 -70 439 -139 487 -155 l86 -28 39 49 c21 26 66 69 99 94
l62 46 -119 467 c-65 257 -119 470 -119 473 0 4 -28 9 -62 11 -35 3 -89 15
-120 26 l-57 20 -352 -416z"/>
<path d="M2575 4584 c-22 -8 -70 -18 -107 -21 -38 -3 -68 -7 -68 -8 0 -5 -241
-881 -250 -907 -8 -24 -4 -29 49 -62 60 -37 124 -100 155 -152 l19 -31 91 32
c50 18 261 92 469 165 215 76 377 138 377 145 0 19 -663 850 -680 852 -8 1
-33 -5 -55 -13z"/>
<path d="M3205 3476 c-82 -29 -290 -101 -460 -160 l-311 -107 -11 -86 c-9 -59
-22 -105 -46 -153 l-33 -67 205 -160 c113 -87 306 -235 429 -327 l223 -168 80
41 c44 22 87 41 95 41 12 0 14 88 14 600 0 565 -1 600 -17 599 -10 0 -85 -24
-168 -53z"/>
<path d="M3617 3524 c-4 -4 -7 -274 -7 -599 l0 -592 38 -11 c20 -6 62 -27 94
-45 l56 -34 324 259 c177 143 378 305 445 359 l123 99 -21 53 c-11 28 -23 84
-26 123 l-6 70 -496 159 c-273 87 -501 160 -507 162 -5 2 -13 0 -17 -3z"/>
</g>
</svg>
