<?xml version="1.0" encoding="utf-8"?>
<!-- Generator: Adobe Illustrator 25.2.0, SVG Export Plug-In . SVG Version: 6.00 Build 0)  -->
<svg version="1.1" id="Layer_1" xmlns="http://www.w3.org/2000/svg" xmlns:xlink="http://www.w3.org/1999/xlink" x="0px" y="0px"
	 viewBox="0 0 222 222" style="enable-background:new 0 0 222 222;" xml:space="preserve">
<style type="text/css">
	.st0{fill-rule:evenodd;clip-rule:evenodd;fill:#C8C3E2;}
	.st1{fill:#D75C86;}
	.st2{fill:#562D8A;}
	.st3{fill:#6D3EA9;}
	.st4{fill:#62369C;}
	.st5{fill:#DF8267;}
	.st6{fill:#D2755A;}
	.st7{fill:#CB507B;}
	.st8{fill:#DE648F;}
	.st9{fill:#D87659;}
	.st10{fill:#E76C96;}
	.st11{fill:#9B68B8;}
	.st12{fill:#B93E69;}
	.st13{fill:#661934;}
	.st14{fill:#651934;}
	.st15{fill:#CC4F7A;}
	.st16{fill:#E76B96;}
	.st17{fill:#CB6C4E;}
	.st18{fill:#D36C64;}
	.st19{fill:#9B67B8;}
	.st20{fill:#D75C87;}
	.st21{fill:#DD648E;}
	.st22{fill:#D5745E;}
	.st23{fill:none;stroke:#CB6C4E;stroke-width:3.27;stroke-linecap:round;stroke-miterlimit:10;}
	.st24{fill:#8E58AB;}
	.st25{fill:#8C55AA;}
	.st26{fill:#8D57AB;}
	.st27{fill:#8B54A8;}
	.st28{fill:#D2AAE4;}
	.st29{fill:#8C55A8;}
	.st30{fill:#D1AAE6;}
	.st31{fill:#8F59AD;}
	.st32{fill:#8A56A7;}
	.st33{fill:#8C56AA;}
	.st34{fill:#3F2E4E;}
	.st35{fill:none;stroke:#8B54A9;stroke-width:0.6;stroke-linecap:round;stroke-miterlimit:10;}
	.st36{fill:#BE93D5;}
</style>
<g id="Layer_13">
	<path class="st0" d="M108.1,11.2c27.2,2.9,34.4,37.9,51.8,59c14.7,17.8,34.3,33.3,35.6,56.3c1.4,24-11,47-28.8,63.2
		c-17,15.5-40.2,21.4-63.2,20.6c-22.2-0.7-43.6-8.8-59.1-24.7c-15.4-15.7-21-37.2-22.9-59.1c-2.1-24.5-6.5-79.4,8.1-99.2
		C46.4,4.6,80,8.2,108.1,11.2z"/>
</g>
<g id="Layer_12">
	<polygon class="st1" points="162.5,74.2 174.4,74.2 162.5,95.1 153.6,91.6 158.5,75.8 	"/>
	<path class="st2" d="M46.2,20h77.5c1,0,1.8,0.8,1.8,1.8v152.7c0,1-0.8,1.8-1.8,1.8H46.2c-1,0-1.8-0.8-1.8-1.8V21.9
		C44.4,20.9,45.2,20,46.2,20z"/>
	<path class="st3" d="M118.6,73.8H51.8c-0.5,0-0.9-0.4-0.9-0.9V52.7c0-0.5,0.4-0.9,0.9-0.9h66.8c0.5,0,0.9,0.4,0.9,0.9v20.2
		C119.5,73.4,119.1,73.8,118.6,73.8z"/>
	<path class="st4" d="M119.2,76.6H51.2c-0.2,0-0.3-0.1-0.3-0.3V74c0-0.2,0.1-0.3,0.3-0.3h67.9c0.2,0,0.3,0.1,0.3,0.3v2.3
		C119.5,76.5,119.4,76.6,119.2,76.6z"/>
	<path class="st5" d="M113,76.1h-5.1c-0.3,0-0.6-0.3-0.6-0.6V57.2c0-0.3,0.3-0.6,0.6-0.6h5.1c0.3,0,0.6,0.3,0.6,0.6v18.3
		C113.6,75.9,113.3,76.1,113,76.1z"/>
	<path class="st5" d="M88.4,72.3l4.5,3.7c0.2,0.2,0.5,0.1,0.6-0.1c0,0,0.1-0.1,0.1-0.1l7.6-15.3c0.1-0.3,0.1-0.7-0.2-0.9l-4.5-3.7
		c-0.2-0.2-0.5-0.1-0.6,0.1c0,0-0.1,0.1-0.1,0.1l-7.6,15.3C88.1,71.7,88.2,72,88.4,72.3z"/>
	<path class="st6" d="M118.5,76.1h-4.4c-0.3,0-0.5-0.2-0.5-0.5V54.8c0-0.3,0.2-0.5,0.5-0.5h4.4c0.3,0,0.5,0.2,0.5,0.5v20.8
		C119,75.9,118.8,76.1,118.5,76.1z"/>
	<path class="st6" d="M106.2,76.1h-3.9c-0.6,0-1.1-0.5-1.1-1.1V53.7c0-0.6,0.5-1.1,1.1-1.1h3.9c0.6,0,1.1,0.5,1.1,1.1v21.4
		C107.3,75.7,106.8,76.1,106.2,76.1z"/>
	<path class="st5" d="M62.4,76.1h-4.9c-0.3,0-0.6-0.3-0.6-0.6V57.2c0-0.3,0.3-0.6,0.6-0.6h4.9c0.3,0,0.6,0.3,0.6,0.6v18.4
		C63,75.9,62.7,76.1,62.4,76.1z"/>
	<path class="st6" d="M67.6,76.1h-4.1c-0.3,0-0.5-0.2-0.5-0.5V54.8c0-0.3,0.2-0.5,0.5-0.5h4.1c0.3,0,0.5,0.2,0.5,0.5v20.8
		C68.1,75.9,67.9,76.1,67.6,76.1z"/>
	<path class="st6" d="M56.4,76.1h-4.5c-0.3,0-0.6-0.3-0.6-0.6V53.2c0-0.3,0.3-0.6,0.6-0.6h4.5c0.3,0,0.6,0.3,0.6,0.6v22.3
		C57,75.9,56.7,76.1,56.4,76.1z"/>
	<path class="st7" d="M88.1,71v4.3c0,0.6-0.4,1-1,1h-18c-0.6,0-1-0.4-1-1V71c0-0.6,0.4-1,1-1h18C87.7,70,88.1,70.4,88.1,71z"/>
	<path class="st8" d="M86.2,68.3v1.1c0,0.3-0.3,0.6-0.6,0.6H68.7c-0.3,0-0.6-0.3-0.6-0.6v-1.1c0-0.3,0.3-0.6,0.6-0.6h16.9
		C85.9,67.7,86.2,68,86.2,68.3z"/>
	<path class="st7" d="M86.2,66.8v0.6c0,0.3-0.2,0.5-0.5,0.5H68.6c-0.3,0-0.5-0.2-0.5-0.5v-0.6c0-0.3,0.2-0.5,0.5-0.5h17.1
		C86,66.3,86.2,66.5,86.2,66.8z"/>
	<path class="st8" d="M82.1,65.1v0.9c0,0.2-0.2,0.3-0.3,0.3H68.5c-0.2,0-0.3-0.2-0.3-0.3v-0.9c0-0.2,0.2-0.3,0.3-0.3h13.3
		C82,64.8,82.1,64.9,82.1,65.1z"/>
	<path class="st3" d="M118.6,134.7H51.8c-0.5,0-0.9-0.4-0.9-0.9v-20.2c0-0.5,0.4-0.9,0.9-0.9h66.8c0.5,0,0.9,0.4,0.9,0.9v20.2
		C119.5,134.3,119.1,134.7,118.6,134.7z"/>
	<path class="st4" d="M119.2,137.4H51.2c-0.2,0-0.3-0.1-0.3-0.3v-2.3c0-0.2,0.1-0.3,0.3-0.3h67.9c0.2,0,0.3,0.1,0.3,0.3v2.3
		C119.5,137.3,119.4,137.4,119.2,137.4z"/>
	<path class="st5" d="M113,137h-5.1c-0.3,0-0.6-0.3-0.6-0.6V118c0-0.3,0.3-0.6,0.6-0.6h5.1c0.3,0,0.6,0.3,0.6,0.6v18.3
		C113.6,136.7,113.3,137,113,137z"/>
	<path class="st5" d="M88.4,133.1l4.5,3.7c0.2,0.2,0.5,0.1,0.6-0.1c0,0,0.1-0.1,0.1-0.1l7.6-15.3c0.2-0.3,0.1-0.7-0.2-0.9l-4.5-3.7
		c-0.2-0.2-0.5-0.1-0.6,0.1c0,0,0,0.1-0.1,0.1l-7.6,15.3C88.1,132.5,88.2,132.8,88.4,133.1z"/>
	<path class="st6" d="M118.5,137h-4.4c-0.3,0-0.5-0.2-0.5-0.5v-20.8c0-0.3,0.2-0.5,0.5-0.5h4.4c0.3,0,0.5,0.2,0.5,0.5v20.8
		C119,136.7,118.8,137,118.5,137z"/>
	<path class="st6" d="M106.2,137h-3.9c-0.6,0-1.1-0.5-1.1-1.1v-21.4c0-0.6,0.5-1.1,1.1-1.1h3.9c0.6,0,1.1,0.5,1.1,1.1v21.4
		C107.3,136.5,106.8,137,106.2,137z"/>
	<path class="st5" d="M62.4,137h-4.9c-0.3,0-0.6-0.3-0.6-0.6V118c0-0.3,0.3-0.6,0.6-0.6h4.9c0.3,0,0.6,0.3,0.6,0.6v18.4
		C63,136.7,62.7,137,62.4,137z"/>
	<path class="st6" d="M67.6,137h-4.1c-0.3,0-0.5-0.2-0.5-0.5v-20.8c0-0.3,0.2-0.5,0.5-0.5h4.1c0.3,0,0.5,0.2,0.5,0.5v20.8
		C68.1,136.7,67.9,137,67.6,137z"/>
	<path class="st6" d="M56.4,137h-4.5c-0.3,0-0.6-0.3-0.6-0.6v-22.3c0-0.3,0.3-0.6,0.6-0.6h4.5c0.3,0,0.6,0.3,0.6,0.6v22.3
		C57,136.7,56.7,137,56.4,137z"/>
	<path class="st7" d="M88.1,131.8v4.3c0,0.6-0.4,1-1,1h-18c-0.6,0-1-0.4-1-1v-4.3c0-0.6,0.4-1,1-1h18
		C87.7,130.8,88.1,131.3,88.1,131.8z"/>
	<path class="st8" d="M86.2,129.1v1.1c0,0.3-0.3,0.6-0.6,0.6H68.7c-0.3,0-0.6-0.3-0.6-0.6v-1.1c0-0.3,0.3-0.6,0.6-0.6h16.9
		C85.9,128.5,86.2,128.8,86.2,129.1z"/>
	<path class="st7" d="M86.2,127.6v0.6c0,0.3-0.2,0.5-0.5,0.5H68.6c-0.3,0-0.5-0.2-0.5-0.5v-0.6c0-0.3,0.2-0.5,0.5-0.5h17.1
		C86,127.1,86.2,127.3,86.2,127.6z"/>
	<path class="st8" d="M82.1,125.9v0.9c0,0.2-0.2,0.3-0.3,0.3H68.5c-0.2,0-0.3-0.2-0.3-0.3v-0.9c0-0.2,0.2-0.3,0.3-0.3h13.3
		C82,125.6,82.1,125.8,82.1,125.9z"/>
	<path class="st3" d="M51.7,82.5h66.8c0.5,0,0.9,0.4,0.9,0.9v20.2c0,0.5-0.4,0.9-0.9,0.9H51.7c-0.5,0-0.9-0.4-0.9-0.9V83.5
		C50.8,82.9,51.2,82.5,51.7,82.5z"/>
	<path class="st4" d="M51.1,104.4h67.9c0.2,0,0.3,0.1,0.3,0.3v2.3c0,0.2-0.1,0.3-0.3,0.3H51.1c-0.2,0-0.3-0.1-0.3-0.3v-2.3
		C50.8,104.5,50.9,104.4,51.1,104.4z"/>
	<path class="st5" d="M57.3,87.4h5.1c0.3,0,0.6,0.3,0.6,0.6v18.3c0,0.3-0.3,0.6-0.6,0.6h-5.1c-0.3,0-0.6-0.3-0.6-0.6V88
		C56.7,87.6,56.9,87.4,57.3,87.4z"/>
	<path class="st5" d="M81.9,103l-4.5,3.7c-0.2,0.2-0.5,0.1-0.6-0.1c0,0-0.1-0.1-0.1-0.1l-7.6-15.3c-0.2-0.3-0.1-0.7,0.2-0.9l4.5-3.7
		c0.2-0.2,0.5-0.1,0.6,0.1c0,0,0.1,0.1,0.1,0.1l7.6,15.3C82.2,102.4,82.1,102.8,81.9,103z"/>
	<path class="st6" d="M51.8,85.1h4.4c0.3,0,0.5,0.2,0.5,0.5v20.8c0,0.3-0.2,0.5-0.5,0.5h-4.4c-0.3,0-0.5-0.2-0.5-0.5V85.6
		C51.3,85.3,51.5,85.1,51.8,85.1z"/>
	<path class="st6" d="M64.1,83.4H68c0.6,0,1.1,0.5,1.1,1.1v21.4c0,0.6-0.5,1.1-1.1,1.1h-3.9c-0.6,0-1.1-0.5-1.1-1.1V84.5
		C63,83.9,63.5,83.4,64.1,83.4z"/>
	<path class="st5" d="M107.8,87.4h4.9c0.3,0,0.6,0.3,0.6,0.6v18.4c0,0.3-0.3,0.6-0.6,0.6h-4.9c-0.3,0-0.6-0.3-0.6-0.6V87.9
		C107.3,87.6,107.5,87.4,107.8,87.4z"/>
	<path class="st6" d="M102.7,85.1h4.1c0.3,0,0.5,0.2,0.5,0.5v20.8c0,0.3-0.2,0.5-0.5,0.5h-4.1c-0.3,0-0.5-0.2-0.5-0.5V85.6
		C102.2,85.3,102.4,85.1,102.7,85.1z"/>
	<path class="st6" d="M113.9,83.4h4.5c0.3,0,0.6,0.3,0.6,0.6v22.3c0,0.3-0.3,0.6-0.6,0.6h-4.5c-0.3,0-0.6-0.3-0.6-0.6V84
		C113.3,83.7,113.5,83.4,113.9,83.4z"/>
	<path class="st7" d="M102.2,101.8v4.3c0,0.6-0.4,1-1,1h-18c-0.6,0-1-0.4-1-1v-4.3c0-0.6,0.4-1,1-1h18
		C101.7,100.8,102.2,101.2,102.2,101.8z"/>
	<path class="st8" d="M102.2,99v1.1c0,0.3-0.3,0.6-0.6,0.6H84.7c-0.3,0-0.6-0.3-0.6-0.6V99c0-0.3,0.3-0.6,0.6-0.6h16.9
		C101.9,98.5,102.2,98.7,102.2,99z"/>
	<path class="st7" d="M102.2,97.5v0.6c0,0.3-0.2,0.5-0.5,0.5H84.6c-0.3,0-0.5-0.2-0.5-0.5v-0.6c0-0.3,0.2-0.5,0.5-0.5h17.1
		C101.9,97,102.2,97.2,102.2,97.5z"/>
	<path class="st8" d="M102.2,95.9v0.9c0,0.2-0.2,0.3-0.3,0.3H88.5c-0.2,0-0.3-0.2-0.3-0.3v-0.9c0-0.2,0.2-0.3,0.3-0.3h13.3
		C102,95.5,102.2,95.7,102.2,95.9z"/>
	<path class="st3" d="M51.7,23.4h66.8c0.5,0,0.9,0.4,0.9,0.9v20.2c0,0.5-0.4,0.9-0.9,0.9H51.7c-0.5,0-0.9-0.4-0.9-0.9V24.3
		C50.8,23.8,51.2,23.4,51.7,23.4z"/>
	<path class="st4" d="M51.1,45.2h67.9c0.2,0,0.3,0.1,0.3,0.3v2.3c0,0.2-0.1,0.3-0.3,0.3H51.1c-0.2,0-0.3-0.1-0.3-0.3v-2.3
		C50.8,45.4,50.9,45.2,51.1,45.2z"/>
	<path class="st5" d="M57.3,28.2h5.1c0.3,0,0.6,0.3,0.6,0.6v18.4c0,0.3-0.3,0.6-0.6,0.6h-5.1c-0.3,0-0.6-0.3-0.6-0.6V28.8
		C56.7,28.5,56.9,28.2,57.3,28.2z"/>
	<path class="st5" d="M81.9,43.8l-4.5,3.7c-0.2,0.2-0.5,0.1-0.6-0.1c0,0-0.1-0.1-0.1-0.1L69.1,32c-0.2-0.3-0.1-0.7,0.2-0.9l4.5-3.7
		c0.2-0.2,0.5-0.1,0.6,0.1c0,0,0.1,0.1,0.1,0.1L82,42.9C82.2,43.2,82.1,43.6,81.9,43.8z"/>
	<path class="st6" d="M51.8,25.9h4.4c0.3,0,0.5,0.2,0.5,0.5v20.8c0,0.3-0.2,0.5-0.5,0.5h-4.4c-0.3,0-0.5-0.2-0.5-0.5V26.4
		C51.3,26.1,51.5,25.9,51.8,25.9z"/>
	<path class="st6" d="M64.1,24.2H68c0.6,0,1.1,0.5,1.1,1.1v21.4c0,0.6-0.5,1.1-1.1,1.1h-3.9c-0.6,0-1.1-0.5-1.1-1.1V25.3
		C63,24.7,63.5,24.2,64.1,24.2z"/>
	<path class="st5" d="M107.8,28.2h4.9c0.3,0,0.6,0.3,0.6,0.6v18.4c0,0.3-0.3,0.6-0.6,0.6h-4.9c-0.3,0-0.6-0.3-0.6-0.6V28.8
		C107.3,28.5,107.5,28.2,107.8,28.2z"/>
	<path class="st6" d="M102.7,25.9h4.1c0.3,0,0.5,0.2,0.5,0.5v20.8c0,0.3-0.2,0.5-0.5,0.5h-4.1c-0.3,0-0.5-0.2-0.5-0.5V26.4
		C102.2,26.1,102.4,25.9,102.7,25.9z"/>
	<path class="st6" d="M113.9,24.2h4.5c0.3,0,0.6,0.3,0.6,0.6v22.3c0,0.3-0.3,0.6-0.6,0.6h-4.5c-0.3,0-0.6-0.3-0.6-0.6V24.8
		C113.3,24.5,113.5,24.2,113.9,24.2z"/>
	<path class="st7" d="M102.2,42.6v4.3c0,0.6-0.4,1-1,1h-18c-0.6,0-1-0.4-1-1v-4.3c0-0.6,0.4-1,1-1h18
		C101.7,41.6,102.2,42,102.2,42.6z"/>
	<path class="st8" d="M102.1,39.9V41c0,0.3-0.3,0.6-0.6,0.6H84.7c-0.3,0-0.6-0.3-0.6-0.6v-1.1c0-0.3,0.3-0.6,0.6-0.6h16.9
		C101.9,39.3,102.1,39.5,102.1,39.9z"/>
	<path class="st7" d="M102.1,38.3V39c0,0.3-0.2,0.5-0.5,0.5H84.6c-0.3,0-0.5-0.2-0.5-0.5v-0.6c0-0.3,0.2-0.5,0.5-0.5h17.1
		C101.9,37.8,102.1,38.1,102.1,38.3z"/>
	<path class="st8" d="M102.2,36.7v0.9c0,0.2-0.2,0.3-0.3,0.3H88.5c-0.2,0-0.3-0.2-0.3-0.3v-0.9c0-0.2,0.2-0.3,0.3-0.3h13.3
		C102,36.4,102.2,36.5,102.2,36.7z"/>
	<path class="st3" d="M51.8,143.9h66.8c0.5,0,0.9,0.4,0.9,0.9V165c0,0.5-0.4,0.9-0.9,0.9H51.8c-0.5,0-0.9-0.4-0.9-0.9v-20.2
		C50.9,144.3,51.3,143.9,51.8,143.9z"/>
	<path class="st4" d="M51.3,165.7h67.9c0.2,0,0.3,0.1,0.3,0.3v2.3c0,0.2-0.1,0.3-0.3,0.3H51.3c-0.2,0-0.3-0.1-0.3-0.3v-2.3
		C50.9,165.9,51.1,165.7,51.3,165.7z"/>
	<path class="st5" d="M57.4,148.7h5.1c0.3,0,0.6,0.3,0.6,0.6v18.3c0,0.3-0.3,0.6-0.6,0.6h-5.1c-0.3,0-0.6-0.3-0.6-0.6v-18.3
		C56.8,149,57.1,148.7,57.4,148.7z"/>
	<path class="st5" d="M82,164.4l-4.4,3.6c-0.2,0.2-0.5,0.1-0.6-0.1c0,0,0-0.1-0.1-0.1l-7.6-15.3c-0.2-0.3-0.1-0.7,0.2-0.9l4.5-3.7
		c0.2-0.2,0.5-0.1,0.6,0.1c0,0,0.1,0.1,0.1,0.1l7.6,15.3C82.3,163.8,82.3,164.1,82,164.4z"/>
	<path class="st6" d="M51.9,146.4h4.4c0.3,0,0.5,0.2,0.5,0.5v20.8c0,0.3-0.2,0.5-0.5,0.5h-4.4c-0.3,0-0.5-0.2-0.5-0.5v-20.8
		C51.4,146.6,51.6,146.4,51.9,146.4z"/>
	<path class="st6" d="M64.2,144.8h3.9c0.6,0,1.1,0.5,1.1,1.1v21.4c0,0.6-0.5,1.1-1.1,1.1h-3.9c-0.6,0-1.1-0.5-1.1-1.1v-21.4
		C63.2,145.2,63.6,144.8,64.2,144.8z"/>
	<path class="st5" d="M108,148.7h4.9c0.3,0,0.6,0.3,0.6,0.6v18.4c0,0.3-0.3,0.6-0.6,0.6H108c-0.3,0-0.6-0.3-0.6-0.6v-18.4
		C107.4,149,107.7,148.7,108,148.7z"/>
	<path class="st6" d="M102.8,146.4h4.1c0.3,0,0.5,0.2,0.5,0.5v20.8c0,0.3-0.2,0.5-0.5,0.5h-4.1c-0.3,0-0.5-0.2-0.5-0.5v-20.8
		C102.3,146.6,102.5,146.4,102.8,146.4z"/>
	<path class="st6" d="M114,144.8h4.5c0.3,0,0.6,0.3,0.6,0.6v22.3c0,0.3-0.3,0.6-0.6,0.6H114c-0.3,0-0.6-0.3-0.6-0.6v-22.3
		C113.4,145,113.7,144.8,114,144.8z"/>
	<path class="st7" d="M102.3,163.1v4.3c0,0.6-0.4,1-1,1h-18c-0.6,0-1-0.4-1-1v-4.3c0-0.6,0.4-1,1-1h18
		C101.9,162.1,102.3,162.5,102.3,163.1z"/>
	<path class="st8" d="M102.3,160.4v1.1c0,0.3-0.3,0.6-0.6,0.6H84.8c-0.3,0-0.6-0.3-0.6-0.6v-1.1c0-0.3,0.3-0.6,0.6-0.6h16.9
		C102,159.8,102.3,160.1,102.3,160.4z"/>
	<path class="st7" d="M102.3,158.9v0.6c0,0.3-0.2,0.5-0.5,0.5H84.7c-0.3,0-0.5-0.2-0.5-0.5v-0.6c0-0.3,0.2-0.5,0.5-0.5h17.1
		C102.1,158.4,102.3,158.6,102.3,158.9z"/>
	<path class="st8" d="M102.3,157.2v0.9c0,0.2-0.2,0.3-0.3,0.3H88.7c-0.2,0-0.3-0.2-0.3-0.3v-0.9c0-0.2,0.2-0.3,0.3-0.3H102
		C102.1,156.9,102.3,157,102.3,157.2z"/>
	<path class="st9" d="M148.7,173.1c-1.8,1.1-4,1.3-5.9,0.6c-0.4-0.2-0.9-0.3-1.4-0.3c-1,0.4-1.6-0.1-2.2-0.9
		c-0.2-0.5-0.1-1.1,0.3-1.5c1.1-0.8,1-2,0.9-3.1c-0.1-1.8-0.4-3.6-0.9-5.3c-0.2-0.5-0.3-1.1-1-1.1s-0.8,0.7-0.9,1.2
		c-0.6,2.7-1.5,5.3-1.4,8.1c0,0.5,0,1.1-0.5,1.5c-1.2,0.3-2.4,0.4-3.6,0.3c-1.8-0.2-3.7-0.2-5.5-0.4c-0.7-0.1-1.4-0.2-2.1-0.5
		c-1.6-0.9-1.8-1.5-1-3c0.2-0.3,0.4-0.5,0.4-0.9c-0.3-2.2,0.1-4.4-0.5-6.6c-0.1-0.5-0.2-1-0.8-1.1s-0.8,0.5-1,0.9
		c-0.9,2.1-1.5,4.3-1.8,6.6c-0.1,0.8,0,1.7-1,2.1c-1.3,0.4-2.6,0.6-3.9,0.6c-0.9-0.2-1.9-0.5-2.8-0.6c-1.7-1.5-3-3.6-3.5-5.8
		c-0.5-1.6-0.8-3.3-0.8-4.9c0.1-1-0.3-2-1.2-2.5c-0.5-2,0.1-3.8,0.5-5.7c0.2-2.4,1.3-4.5,2-6.7c0.5-1.7,1.1-3.4,1.9-5
		c2.3-4.6,6.8-6,11.3-7.5c0.3-0.1,0.6,0,0.8,0.1c0.2,0.1,0.4,0.3,0.5,0.6c0.1,0.5-0.1,1-0.5,1.2c-0.5,0.3-0.7,1-0.5,1.6
		c-0.3,0.9-0.6,1.7,0.4,2.4c0.3,0.6,0.8,1.2,1.4,1.5c1.2,0.7,2.4,1.5,3.4,2.4c-0.1,1.3,0.4,1.8,1.7,1.6c1.2-0.3,2.4-0.3,3.5-0.1
		c1,0,2-0.2,2.8-0.6c4.3-1.5,8.9-2,13.4-1.6c1.3,0.2,2.6,0.2,3.9,0.1c0.6-0.1,1.2-0.1,1.5,0.6c0.2,1.8,0.2,3.5-0.1,5.3
		c-0.2,0.6-0.2,1.3,0,1.9c0.8,2.2,0.1,4.4,0.1,6.6c-0.4,4.9-1.1,9.8-2.1,14.6c-0.2,1.5-1.2,2.8-2.7,3.2
		C149.4,173,149,172.9,148.7,173.1z"/>
	<path class="st7" d="M153.9,155.2l0.4-14c-0.4-0.8-0.5-1.6-0.4-2.5c0.6-2.3,0.9-4.6,1.4-6.9c0.1-0.9,0.4-1.7,0.9-2.4
		c0.8-0.4,1.5-1,2-1.8c0.9-1.5,2.4-2.5,4.1-2.8c0.4,0.1,0.9,0.4,1.3,0.1c1.9-1.3,4-1,6.1-1.1c0.6,0,1.1-0.4,1.7-0.6
		c0.4-0.2,0.8-0.6,0.9-1.1c1.9-5.5,3-11.2,3.4-17c0.5-6.4,0.7-12.8,1.9-19.1c0.7-3.9,2.6-7.1,4.7-10.3c0.5-0.6,1.3-1,2.1-1l1,0.4
		c-0.1,1.7-1.2,3-2,4.3c-1.6,2.5-2.6,5.4-3,8.3c-0.6,4-0.9,8-1.1,12c-0.5,8.2-1,16.4-4.4,24c-0.3,0.8-0.7,1.5-1.3,2
		c-0.3,0.4-0.8,0.6-1.3,0.7c-2.7,0.3-5.4,1-8.1,0.5c-0.8-0.1-1.2,0.3-1.7,0.7c-2.9,1.2-4.1,3.7-4.9,6.4c-1,3.9-1.6,7.9-1.7,11.9
		c-0.1,1.1,0.3,1.9,1.6,2s1.7-0.7,2-1.7c0.8-3.5,1.9-6.9,3.4-10.2c0.4-0.8,0.7-1.7,1.7-2c1.9-0.3,3.8-0.5,5.6-0.9
		c2-0.5,3.7-1.5,5.1-3c1.1-1,1.2-2.4,1.4-3.7c2-4.2,3.4-8.7,4.1-13.3c1.1-6,1.8-12.1,2.2-18.3c0.3-5.6,1.2-11,3.7-16.1
		c0.6-1.3,1.5-2.4,2.2-3.6c1.9,0.2,3,1.6,4.3,2.7c0.4,0.4,0.5,0.9,0.2,1.4c-1.5,4.7-1.9,9.6-2.9,14.3c-4.4,21-8.7,42-12.8,63
		c-0.4,2.5-2.1,4.6-4.5,5.4c-1.1,1.7-2.4,3-4.6,2.8c-2.8,1.9-5.9,3.4-8.6,5.5c-1.2,1.1-2.8,1.7-4.4,1.7c-0.8-0.4-0.7-1-0.6-1.7
		c0.6-3.9,1.1-7.8,1.6-11.7c0.3-2.2,0.3-2.2-1.9-2.9C154.4,155.9,154,155.6,153.9,155.2z"/>
	<path class="st1" d="M184.3,74.8c-3.4,3.6-5.6,8.2-6.3,13.1c-1.2,7-1,14.1-1.9,21.1c-0.5,4.9-1.7,9.8-3.6,14.3
		c-0.1,0.4-0.4,0.8-0.7,1.1c-0.1-0.1-0.2-0.3-0.3-0.4c-1.2-1.6-0.7-3.6-1-5.3c-0.8-4-1.2-8.1-2.7-11.9c-0.4-1.1-0.9-2.1-1.5-3.1
		c-2.5-4-5.2-5.2-10.1-4.4c-0.8,0.1-1.7,0.6-2.5-0.1c-0.2-0.3-0.3-0.6-0.3-1c-0.1-0.9,0.6-1.4,1.2-1.8c2.3-1.4,4.1-3.5,5.3-5.9
		c0.2-0.6,0.7-1,1.3-1.1c2.2-0.1,3.1-1.7,4-3.4c0.2-0.4,0.3-0.8,0.5-1.2c1.7-1.7,1.9-3.7,1.3-5.8c-0.2-0.6-0.6-1.2-0.3-1.9
		c0.4-0.4,0.9-0.7,1.5-0.8c1.4-0.3,2.6-1,3.6-1.9c0.4-0.4,0.9-0.8,1.6-0.4l1.6,0.1l8.1,0.3C183.6,74.6,184,74.5,184.3,74.8z"/>
	<path class="st10" d="M188.9,75.2c0.3,0.5,0.3,1.2,0,1.7c-3.3,4.6-4.5,9.9-4.9,15.5c-0.7,9.4-1.6,18.7-4.1,27.8
		c-0.6,2.3-1.5,4.5-2.8,6.6c-1.6,1-3.9,0.3-3.9-1.3c2.8-5.9,3.9-12.1,4.6-18.5c0.7-7,0.3-14,1.9-20.9c0.4-2.3,1.4-4.6,2.7-6.6
		c0.5-0.8,1-1.7,1.4-2.6c0.3-0.7,0.8-1.3,1.5-1.6C186.4,74.7,187.7,74.7,188.9,75.2z"/>
	<path class="st11" d="M112.5,167.6l2.7,0.4c1.6,0.2,3.2,0.2,4.8-0.1c0.8-0.3,1.8,0.1,2.1,1c0,0.1,0,0.1,0.1,0.2
		c0.4,1-0.1,2.2-1.1,2.6c0,0-0.1,0-0.1,0l-10.2,16.5c-1.4,0.9-5.9,1-7.1,0.1c-1-0.7-0.4-1.8-0.8-2.7c0.8-2.7,1.7-5.3,2.9-7.9
		c-0.2-0.5-0.1-1,0.1-1.4c0.7-1.6,1.3-3.2,1.9-4.8c0.6-1.6,1.4-3.1,2.4-4.4C111.1,166.4,111.7,167.5,112.5,167.6z"/>
	<path class="st11" d="M139.6,170.5c0.7,0.2,1.3,0.6,1.8,1.1c0.8,1.3,0.9,2.9,0.4,4.3c-1.4,4.2-2.5,8.4-3.4,12.7
		c-0.4,1.2-1.5,2-2.7,1.9c-1.5,0.1-3,0-4.5,0c-1.1,0-1.8-0.5-1.7-1.8c0.8-5.9,1.6-11.8,2.4-17.8c-0.2-0.4,0.2-0.5,0.3-0.8
		c1.2-0.6,2.4-0.1,3.6-0.4C137,168.7,138.3,169,139.6,170.5z"/>
	<path class="st12" d="M120,206.8c-0.3,0-0.4-0.2-0.3-0.4c1.1-1.8,1.9-3.8,2.9-5.5c0.9-1.6,1.9-3.1,2.7-4.8c1.4-0.6,2.7,0.2,3.9,0.6
		c3.8,1.3,8,1.2,11.8-0.1c0.2-0.1,0.4,0,0.6,0.1c0.1,1.7-0.7,3.4-2.1,4.4c-1.6,1.3-3,3-4,4.9c-1.3,2.3-3,3.6-5.8,3.6
		c-1.5,0-2.9,0.1-4.4,0.2c-2,0.2-4-0.8-5-2.6c1.4-0.2,2.7,0.3,4,0.3c1.6,0,3.3,0.2,4.5,0.2C125.9,207.5,122.9,207.3,120,206.8z"/>
	<path class="st12" d="M107.7,198c-1.7,1.7-3.9,2.7-5.8,4.1c-1.5,1.1-2.9,2.2-4.3,3.4s-3.1,1.9-5,1s-3.4-2-3.3-4.4
		c0.7-0.4,1.1,0.2,1.6,0.4c1.3,0.5,2.6,1,3.9,1.4c-1.9-0.5-3.8-1.3-5.5-2.3c-0.3-0.2-0.6-0.3-0.6-0.7c0.7-1.5,2.1-2.4,3-3.7
		c1.2-0.2,2.1,0.7,3.2,1.1c1.4,0.6,2.8,1.1,4.1,1.5c-1.8-0.6-3.6-1.3-5.3-2.1c-0.4-0.2-0.8-0.4-0.8-0.9l3-2.9
		c0.5-0.3,0.9-0.1,1.4,0.1c3,1.4,6.2,2.4,9.4,3C107.1,197.1,107.6,197.5,107.7,198z"/>
	<path class="st12" d="M129.3,188.8c2.4,1.7,5.1,1.1,7.6,0.5c0.5-0.1,0.9-0.3,1.3-0.6c0.8,0.4,1.3,1.1,1.6,2c-3,0.8-6,1.5-7.7,1.2
		c1.4,0.3,4.1-0.2,6.7-0.9c0.4-0.1,0.7-0.1,1.1,0.1l1,3.4c0.1,0.6,0.4,1.1,0.9,1.5c-2.5,1.6-5.4,1.7-8.2,1.5
		c-2.8-0.3-5.5-0.9-8.1-1.9C126.6,193.3,127.4,190.7,129.3,188.8z"/>
	<path class="st1" d="M153.9,155.2c1.1,0,2.2,0,3.2-0.1c0.7,0,1,0.1,0.8,0.9c-1.1,5.1-1.4,10.4-2.3,15.5l-0.1,0.6
		c-0.2,0.4-0.6,0.5-1,0.7c-1.6,1.1-3.7,1-5.2-0.1c2.4-1.5,2.5-4.1,2.9-6.5C152.9,162.5,153.4,158.9,153.9,155.2z"/>
	<path class="st12" d="M96.2,193.4c1.4-0.7,2-2.1,2.9-3.3c2.1-0.2,4,0.4,6,0.6c1.5,0.1,3,0.1,4.4,0.2c0.5,0,1-0.2,1.4-0.6
		c0.2-0.1,0.4-0.1,0.5,0.1c1,2.4,0.6,4.5-1.6,6.6c-4.6,0.8-8.6-1.4-12.7-2.8C96.8,194.1,96.2,194.1,96.2,193.4z"/>
	<path class="st13" d="M149.4,172.7l5.2,0.1c-0.3,3.3-0.1,6.6-0.7,9.9c-0.2,1-0.4,1.9-1.8,1.8s-2.1-0.5-2.1-2.1
		c0-2.7-0.3-5.4-0.4-8.1c0-0.7-0.1-1.2-0.9-1.2L149.4,172.7z"/>
	<path class="st13" d="M101.7,172.8v-5.1c1.6-0.8,3.5-0.6,5,0.5c1,1.5,0.3,3,0.2,4.6c0.2,1.5-0.7,2.8-0.8,4.3
		c-0.2,0.5-0.3,1-0.9,1.2c-2.9,0.2-3.1,0.1-3.3-2.7C101.9,174.6,101.8,173.7,101.7,172.8z"/>
	<path class="st12" d="M111.5,190.4h-0.4c-1.3,0.8-2.7,0.4-4.1,0.4c-2.5,0.1-4.9-0.3-7.3-1.1c1.2-1.2,1.4-3.2,3.2-4
		c0.2,0.2,0.6,0.3,0.6,0.5c0.5,2.3,2.3,2,3.8,1.8c1.1-0.1,2.1-0.1,3.2,0.1L111.5,190.4z"/>
	<path class="st14" d="M168.6,164.9l4.6-2.8c-0.2,2.3-0.5,4.6-0.7,7c-0.1,1.3-0.9,1.6-2.1,1.5s-1.4-0.7-1.4-1.7
		C168.9,167.6,169.4,166.2,168.6,164.9z"/>
	<path class="st7" d="M131.9,73.4c0,0.1,0,0.2,0,0.2c0.6,5.1-0.5,10.2-1.1,15.2c-0.2,2.1-0.2,4.3-0.2,6.5c-0.1,4-0.4,8-0.8,12
		c0,0.6,0,1.3,0.1,1.9c-0.6,2-1.6,4-1.3,6.2c-0.9,0.9-1.4,2.6-3.3,1.8c-1-1.7-0.2-3.4-0.2-5.1c0.3-6,0.6-11.9-1.1-17.8
		c-1.5-5-2.2-10.2-2.3-15.4c0-1,0.1-2.1,0.4-3.1c0.6-2.1,1.5-4,4-4.3C128.2,72,130.1,72.6,131.9,73.4z"/>
	<path class="st10" d="M126.2,71.7c-7.2,6.1-2,16.9-0.8,24.8c0.9,2.8,2.7,25.7-2.8,20.1c1.6-9.1-2.7-16.3-3.8-25.2
		C118.7,84.4,113.7,67.7,126.2,71.7z"/>
	<path class="st1" d="M106.3,168.5l0.4,0.3c0.7,0.1,1.3,0.1,2,0.2l0.2-0.1c0.6-0.6,0.2-1.2-0.2-1.8c-0.5-0.9-0.9-1.9-0.9-2.9
		c-0.3-2.1-0.4-4.2-0.4-6.3c0.1-0.6,0-1.2-0.4-1.7c0.3-1.9,0.6-3.7,0.9-5.6c-0.3-0.7-1-1.2-1.8-1.1c-1.8,0-3.7-0.1-5.5-0.3
		c-0.8-0.1-1.7-0.2-2.1,0.8c-0.1,1.8,0,3.6,0.2,5.4c0.1,0.5,0.2,1,0.2,1.5c0.1,1.4,0.2,2.8,0.5,4.1c0.4,1.6,0.9,3.1,1.3,4.7
		c0.1,0.4,0.2,0.8,0.2,1.3c0.2,0.4,0.5,0.7,1,0.8L106.3,168.5z"/>
	<path class="st15" d="M107.8,150.6c-3.1-0.5-6.3-0.4-9.5-0.6c-1.2,0.1-2.3-0.8-2.4-2c0,0,0-0.1,0-0.1c-0.2-1.2-0.2-2.5,0-3.7l0.9-1
		c0.3-0.2,0.7-0.4,1.1-0.4c3,0.3,6.1,0,9.1,0.3c1,0.1,2.1,0.1,2.8,1.1C109.1,146.2,108.4,148.4,107.8,150.6z"/>
	<path class="st16" d="M97.5,140.8c0.1,0,0.2,0,0.3,0c2.1-1.1,4.4-1.8,6.8-2c1.7-0.3,3.4-0.5,5.2-0.4c0.7,0.1,1.5,0,1.8,0.8
		l-1.7,4.9c-3.4-0.3-6.8-0.4-10.2-0.4c-1,0-1.9-0.2-2.8-0.6C96.6,142.3,96.8,141.4,97.5,140.8z"/>
	<path class="st7" d="M94.5,160.8c1.1,0.5,2.2,0.3,3.4,0.3c0.9-0.1,1.7,0.5,1.9,1.4c0,0.1,0,0.1,0,0.2c0.2,1,0.4,2,0.6,3
		c-3,0.1-5.9-0.3-8.9,0c-0.4,0-0.9-0.1-1.2-0.3v-1c0-3.2,0-3.2,3.2-3.3C93.8,160.8,94.1,160.5,94.5,160.8z"/>
	<path class="st7" d="M111.5,139.2c-4.3,0.1-8.7,0.2-12.8,1.6c-0.3,0.1-0.7,0.1-1,0l0.1-0.4c0.3-1.1,1.3-2,2.5-2.1
		c1.2-0.1,2-1.1,1.9-2.3c0-0.1,0-0.2,0-0.2c-0.3-4.3-1.7-8.5-4.2-12c-0.4-0.6-1-1-1.6-1.3c-1.7-0.7-3,0.1-3.1,2
		c-0.1,1,0.9,2-0.1,2.9c-1.4-1.4-1.8-3.4-1.2-5.2c0.7-2.4,2.8-3.2,4.9-3.7c1-0.2,2-0.2,3-0.2c0.5-0.2,1.1-0.3,1.6-0.1
		c0.9,0.2,1.8,0.4,2.7,0.4c2.8,0,5.2,1.1,7.8,2.1c4.5,1.7,9.1,3.1,13.7,4.3c0.8,0.2,1.8,0.3,2.2,1.2c0.4,1.3,0.4,2.7,0,4.1
		c-0.4,0.9-1.3,1-2,1.4c-1,0.3-2,0.4-3,0.4c-2.1,0.8-4.3,1.6-6.4,2.4C114.2,135.3,113.1,137.5,111.5,139.2z"/>
	<path class="st17" d="M139.6,172.4l-4-0.7c-0.4-1-0.5-2-0.2-3c0.5-2.3,1-4.7,1.5-7c0.2-0.8,0.4-1.5,1.4-1.6s1.3,0.7,1.6,1.4
		c0.8,2,1.2,4.2,1.3,6.4c0.1,0.8,0.1,1.6,0.2,2.4s0.3,1.6-1.1,1.3C139.7,171.4,139.7,172,139.6,172.4z"/>
	<path class="st17" d="M124.4,170.7c-0.7,0.3-1.4,0.2-2.1-0.2c-0.9-1-2.1-1.1-3.3-1.3c0-3.3,0.8-6.6,2.4-9.6
		c0.3-0.5,0.6-1.1,1.3-1.1c0.7,0.1,1.2,0.6,1.3,1.3c0.3,1.1,0.5,2.2,0.6,3.4c0.1,1.7,0.1,3.4,0.3,5c0.1,0.5,0.7,1.8-0.9,1.5
		C123.6,169.7,123.6,169.9,124.4,170.7z"/>
	<path class="st17" d="M109,168.6c-2.4-1.9-2-4.8-2.3-7.3c-0.3-1.7-0.2-3.5,0.3-5.1c1.5,0,1.6,1.1,1.6,2.1c0,3.3,1,6.6,2.7,9.4
		c0.3,0.4,0.6,0.8,0.9,1.1c-0.7,0.2-1.4-0.5-2,0.1C109.7,169.2,109.2,169.2,109,168.6z"/>
	<path class="st18" d="M125.6,131.4l-2.3,0.9l-0.3-0.3c0.8-0.5,1.7-0.8,2.6-1C125.8,131.2,125.8,131.3,125.6,131.4z"/>
	<path class="st5" d="M155.9,132c-4.3,0-8.6,0.3-12.9,0.8c-1.1,0.2-2.1-0.1-3-0.8c-1.2-0.9-2.6-1.7-4-2.3c-0.3-0.3-0.4-0.8-0.4-1.2
		c-0.1-8.6,1.2-16.8,6.1-24.1c1-1.6,2.4-3,3.9-4.1c0.6-0.1,1.3,0.2,1.7,0.7c1.4,1.3,2,1.4,3.9,0.5c1-0.5,1.9-1.4,3.2-1.1
		c0.8,0.7,1.4,1.6,1.8,2.7c1.9,4.3,3,8.9,3.2,13.5c0.2,2.7,0.1,5.4-0.3,8.1c-0.3,1.9-1.2,3.7-2.4,5.1L155.9,132z"/>
	<path class="st3" d="M156.6,129.8c1-2.3,1.6-4.8,1.9-7.3c0.7-7.6-0.9-15.2-4.6-21.8c-0.9-0.5-0.9-1.1,0-1.6
		c1.6-0.5,3.2-0.7,4.8-0.8c4.5-0.1,7,2.7,8.9,6.2c2.3,4.3,2.8,9.1,3.6,13.8c0.3,2,0.4,4,0.6,6c-0.9,0.2-1.7,0-2.4-0.5
		c-1.7-1.1-4-0.7-5.2,0.8c-0.5,0.6-1.1,1.1-1.9,0.9c-1.6,0.9-3.3,1.8-4.3,3.5C157.6,129.4,157.1,129.7,156.6,129.8z"/>
	<path class="st10" d="M164.7,134.6c-1.1,1.3-1.9,2.8-2.3,4.4c-0.8,2.9-2,5.6-2.5,8.6c-0.3,1.9-1.8,1.3-3,1.3s-2-0.3-2-1.8
		c0.1-4.6,0.8-9.2,2-13.7c0.8-2.6,2-5.2,4.9-6.3c2.3-0.4,3.6,0.2,4.4,1.9C167,131,166.4,133.3,164.7,134.6z"/>
	<path class="st1" d="M164.7,134.6c0.3-0.8,0.6-1.6,0.8-2.4c0.7-2.9-0.5-4.5-3.8-5.1c0.9-0.5,1.9-0.8,2.9-0.7c2.8-0.1,5.7-0.4,8.5-1
		c1.1,1.1,2.6,0.9,3.9,1.3c0.5,2-0.6,3.4-1.9,4.7C172.2,134.1,168.5,134.7,164.7,134.6z"/>
	<path class="st19" d="M162.2,125.4c0.3-0.2,0.6-0.4,0.9-0.7c1.9-2.9,4.8-3.3,7.3-1c0.4,0.3,0.9,0.5,1.5,0.6c0,0.1,0,0.1,0,0.2
		c-2.8,0.3-5.6-0.1-8.3,1.2C163.1,125.9,162.5,125.8,162.2,125.4z"/>
	<path class="st20" d="M136.3,90.8c1.3,3.7,4.3,6.5,8.1,7.5c-0.1,0.6-0.6,0.7-1.1,0.8c-4.5,1.1-8.4,3.9-11.1,7.7
		c-0.4,0.6-0.9,1.2-1.4,1.8s-0.9,1.1-1.8,0.9c-0.1-3.1,0.1-6.3,0.5-9.4c0.2-2.8,0.4-5.5,0.4-8.3c0.1-4.8,1-9.5,1.5-14.2
		c0.1-1.3,0.2-2.6,0.4-3.9c0.1,2.1,0.4,4.2,2.4,5.5c0,1.3-0.9,2.4-0.9,3.8c0,1.6,0.3,3,1.6,4c0.4,0.2,0.6,0.7,0.6,1.1
		c0.1,1.2-0.4,1.8-1.7,1.7c-0.4,0-1.1-0.3-1.1,0.4s0.7,0.9,1.3,0.8S135.6,90.4,136.3,90.8z"/>
	<path class="st11" d="M127.5,126.1c-5.7-1.2-11.2-3.3-16.8-4.9c-2.1-2.3-5.1-1.3-7.7-2c-1-0.1-2-0.5-2.9-1c0.2-2.2,2.2-3.8,4.4-3.6
		c0.1,0,0.2,0,0.2,0c6,0.7,12,0.7,17.9,1.8l2.9,0.6c1-0.4,1.8-1,2.5-1.8c0.4-0.1,0.9,0.2,1,0.6c0.9,2.2,2,4.4,2.8,6.6
		c0.1,0.3,0.1,0.6,0,0.9c-0.5,0.9-1.2,1.7-2,2.3C129.1,126.4,128.4,126.9,127.5,126.1z"/>
	<path class="st10" d="M93.3,127.4c-0.5-1-0.7-2.2-0.7-3.3c0.1-2.1,1.5-3.2,3.5-2.7c1.2,0.3,2.3,1.1,2.9,2.2
		c2.7,4.1,4.1,8.8,4.2,13.7c0,0.9-0.4,1.1-1.1,1.4c-1.5,0.3-2.9,0.9-4.2,1.7c0-1.2-0.2-2.4-0.4-3.5C97,133.3,96,130,93.3,127.4z"/>
	<path class="st21" d="M94.5,160.8l-1,0.3v-0.3c-0.1-3.5-0.1-3.5,3.3-3.2c0.8,0.5,2.1-0.1,2.3,1.5c0.2,1.2,0,1.8-1.3,1.7
		C96.8,160.7,95.7,160.8,94.5,160.8z"/>
	<path class="st3" d="M131.4,123.6c-1.1-2.7-2.5-5.3-3.4-8.2c-0.6-2.2,0.4-4,1.1-6c2.6-3,4.7-6.5,8.3-8.6c2.2-1.3,4.4-2.6,7.1-2.6
		h1.3c0.3,0.7,0.8,1.5,0,2.2c-6.6,6.7-9.2,15-9.4,24.2c0.1,1.6-0.1,3.3-0.5,4.8l-0.9-0.2c-0.2,0-0.5,0-0.6-0.2
		C132.5,127.8,131.4,125.8,131.4,123.6z"/>
	<path class="st20" d="M131.4,123.6l3.2,5.5c-0.2,0.4-0.7,0.1-0.9,0.4c-1.1-0.1-2.3,0.3-3.1,1c-1,0-2,0.7-3,0c0-1.4,0-2.8,0-4.2
		C129.1,125.8,130.1,124.5,131.4,123.6z"/>
	<path class="st22" d="M127.5,130.4c1,0.1,2-0.7,3,0c-0.6,1.1-1.7,0.6-2.6,0.8c-0.8,0.2-1.6,0.2-2.4,0.3V131L127.5,130.4z"/>
	<path class="st12" d="M102.9,185.6c0,0-11.6,12.2-12.4,13.1s-5,4.3,1.2,7.4s8.4-5.4,8.4-5.4l5.4-0.9c0,0,4.8-1.9,6-4.6
		s-0.8-7-0.8-7S105.7,190.4,102.9,185.6z"/>
	<path class="st12" d="M129.3,188.8l-9,16.3c0,0-3.6,4.5,5,4.6s8.3-2.9,8.3-2.9l7-6.9c0,0,2.4-2.1-0.2-6.9c0,0-0.3-3.7-2.1-4.2
		S134.6,192.1,129.3,188.8z"/>
	<line class="st23" x1="126.6" y1="141.6" x2="152.8" y2="140.1"/>
	<path class="st11" d="M155.9,132c0,2.2-0.5,4.4-1.3,6.5c-0.4,1.1-1.3,1.1-2.3,1.1c-3.5,0.1-7.1-0.3-10.6,0.1
		c-4.3,0.5-8.7,0-12.8,1.5c-0.5,0.2-1,0.1-1.4-0.1c-1.3,0.2-2.5,0.3-3-1.4c-0.1-0.3-0.4-0.6-0.7-0.6c-1-0.1-1.3-0.8-1.5-1.7
		c-0.4-0.9,0.3-1.8-0.2-2.7c-0.2-1,0.3-2,1.3-2.5c0.6-0.8,1.6-0.8,2.4-1.1c1.3,0,2.4-0.8,3.7-0.7c0.4,0,0.5-0.4,0.7-0.6
		c0.9-0.9,2.1-1.3,3.4-1.2c0.6,0.2,1.1,0.2,1.7,0.2c0.4,0.1,0.8,0.3,1.2,0.4c1,0.2,1.9,0.6,2.6,1.2c1.9,1.7,4.1,1.5,6.3,1.3
		c2.7-0.3,5.5-0.5,8.3-0.5C154.5,131.1,155.3,131.4,155.9,132z"/>
	<path class="st24" d="M123.4,134.2c1.5-1,3.4-1.1,5-0.4C126.8,134.6,125,134.8,123.4,134.2z"/>
	<path class="st25" d="M124.4,138.3c1-1.3,2.3-2.2,3.8-2.5c0.4-0.1,0.8-0.1,0.9,0.4s-0.4,0.5-0.7,0.6C127,137,126,138.3,124.4,138.3
		z"/>
	<path class="st26" d="M128.9,132.2c1.2-0.8,2.6-1,4-0.7c0.3,0.1,0.8,0.2,0.7,0.7s-0.5,0.3-0.8,0.3L128.9,132.2z"/>
	<path class="st27" d="M150.7,93.5h0.3c2.4,0,4.3,1.9,4.3,4.3v2.4c0,2.4-1.9,4.3-4.3,4.3h-0.3c-2.4,0-4.3-1.9-4.3-4.3v-2.4
		C146.4,95.4,148.3,93.5,150.7,93.5z"/>
	<path class="st28" d="M134.2,90.1c-0.8,0.7-1.3,1.8-2.6,1.4c-0.9-0.2-1.6-1-1.8-2c-0.1-0.9,0-1.6,1.2-1.2c0.9,0.3,1.8,0.5,2.6-0.3
		C134.4,88.4,134.1,89.3,134.2,90.1z"/>
	<path class="st29" d="M134.2,88.3c-3.4-1.8-4-5.7-1.2-8.5c0.8,0.8-0.2,2.6,1.7,2.7c-0.3,1.8,0.6,2.7,2.4,3.1
		C135.3,85.8,135.1,87.4,134.2,88.3z"/>
	<path class="st30" d="M133.3,69.3c10.2-10,31.1-7.5,32.1,8.8c0.4,2.4,2.1,6.7-1.4,7.6c-0.9-0.4-0.9-1.5-1.3-2.2
		c-0.9-1.3-3.1-1.1-2.7,0.7c-0.2,5.9-4.6,4.7-3.3-0.8c-0.5-2.3-2.4-3.6-4.1-5c-1.2-0.9-2-3.2-3.2-2.9c-2.1,0.7-3.8,2.1-4.9,4
		c-2.4,3.5-7.3-0.7-9.8,3.3c-1.4-0.2-2.4-2-3.2-3.8c-0.7-1.4-0.9-3.1-0.6-4.6C131.1,72.4,131.6,70.1,133.3,69.3z"/>
	<path class="st11" d="M157.3,83.8c0.1,1.3-1,6,1.4,3.1c1.4-1.6-1-4.5,1.3-5.2c14.4,5.4-15.9,26.2-22.4,14.5
		c-4.8-3.5-5.7-17.8,2.3-16.2c4.2,1.6,5.8-4,9.3-5.8c3.3,1.7,6.1,5.1,0.3,6C153.1,80.7,157.3,78.3,157.3,83.8z"/>
	<path class="st31" d="M157.3,83.8h-1.9c0.7-1.1,1.3-0.7,1.9-0.4C157.3,83.6,157.3,83.7,157.3,83.8z"/>
	<path class="st11" d="M156.2,81.3l-2.1,2.9c-4.3,0.8-6.1-2-5.8-7.8l2.6-0.5C153.5,76.4,155.1,78.3,156.2,81.3z"/>
	<path class="st28" d="M159.1,88.5c-0.8,0.7-1.3,1.8-2.6,1.4c-0.9-0.2-1.6-1-1.8-2c-0.1-0.9,0-1.6,1.2-1.2c0.9,0.3,1.8,0.5,2.6-0.3
		C159.4,86.9,159,87.8,159.1,88.5z"/>
	<path class="st32" d="M137.8,83.4c0,0.3-0.1,0.6-0.1,0.8c-0.8-0.1-1.6-0.5-2.3-1C136.2,82.9,137.1,82.9,137.8,83.4z"/>
	<path class="st33" d="M156.9,86.5c-0.6-0.1-1.3-0.2-1.3-1.1C156.7,85,156.8,85.7,156.9,86.5z"/>
	<path class="st34" d="M148.6,85.2c0.4,0.1,0.9,0.1,1.3,0c0.5-0.1,0.9-0.1,1.3-0.2s0.9-0.1,1.3-0.1c0.4,0,0.9-0.1,1.3-0.2
		c0.3-0.2,0.4-0.6,0-1.1c-0.8-0.6-1.8-0.9-2.8-0.8c-1,0-1.9,0.5-2.6,1.3C148,84.7,148.2,85.1,148.6,85.2z"/>
	<path class="st30" d="M149,80.7c0.4,0,0.9,0,1.3-0.1l1.3-0.2c0.4,0,0.9-0.1,1.3-0.1c0.4,0,0.9-0.1,1.3-0.2c0.3-0.1,0.4-0.4,0-0.8
		c-0.9-0.5-1.8-0.6-2.8-0.5c-1,0-1.9,0.4-2.6,1C148.4,80.3,148.6,80.6,149,80.7z"/>
	<path class="st34" d="M152,92.2c-0.4,0-0.9,0.2-1.2,0.4c-0.4,0.2-0.9,0.4-1.2,0.5s-0.8,0.3-1.3,0.4c-0.4,0.1-0.8,0.3-1.2,0.5
		c-0.3,0.3-0.3,0.7,0.3,1c0.9,0.4,2,0.4,2.9,0c1-0.3,1.8-1,2.2-1.9C152.7,92.6,152.4,92.3,152,92.2z"/>
	<path class="st34" d="M137.6,84.3c0.4,0.2,0.8,0.2,1.3,0.2c0.5,0,0.9,0,1.3,0.1l1.3,0.2c0.4,0.1,0.9,0.1,1.3,0
		c0.4-0.1,0.5-0.5,0.2-1.1c-0.6-0.8-1.6-1.3-2.6-1.3c-1-0.2-2,0.1-2.8,0.8C137.1,83.7,137.2,84.2,137.6,84.3z"/>
	<path class="st35" d="M142.9,87c0,0-2,5.8,4.8,3.7"/>
	<path class="st36" d="M166.1,78.2l-1.3,0.4c-0.6-0.9-1-1.9-0.9-3c0-4.1-3-7.6-7-8.4c-2-0.4-3-2.4-5-2.8c-0.7-0.2-1.4-0.4-2-0.8
		c0.3-0.7,0.6-1.3,0.9-2c0.9-3.1,4.1-4.8,7.1-3.9c0.8,0.2,1.5,0.6,2.1,1.1c0.8,0.6,1.3,0.3,1.9,0.2c4.8-1.1,8.5,2.2,8,7.1
		c-0.1,0.6-0.3,1,0.2,1.6c3.8,5.2,1,6.7-2.1,9.4C167.4,77.5,166.8,77.9,166.1,78.2z"/>
</g>
</svg>
