<svg id="Layer_11" data-name="Layer 11" xmlns="http://www.w3.org/2000/svg" viewBox="0 0 575.67 575.67"><defs><style>.cls-1{fill:#7e402e;}.cls-2{fill:#6e3525;}.cls-3{fill:#b36955;}.cls-4{fill:#a15a45;}.cls-5{fill:#a25b46;}.cls-6{fill:#b36954;}.cls-7{fill:#8e56ad;}.cls-8{fill:#df8267;}.cls-9{fill:#332d38;}.cls-10{fill:#342d38;}.cls-11{fill:#8f56ad;}.cls-12{fill:#3c3140;}.cls-13{fill:#39303b;}.cls-14{fill:#9b68b8;}.cls-15{fill:#8c55aa;}.cls-16{fill:#3f2e4e;}.cls-17{fill:#e57d4a;}.cls-18{fill:#d85b85;}.cls-19{fill:#7f402e;}.cls-20{fill:#49217c;}.cls-21{fill:#562d8a;}.cls-22{fill:#c84b76;}.cls-23{fill:#c84b75;}.cls-24{fill:#9b67b8;}.cls-25{fill:#8c55a9;}.cls-26{fill:#f3865c;}.cls-27{fill:#de8268;}.cls-28{fill:#e56526;}.cls-29{fill:#f4a153;}.cls-30{fill:#f4865c;}.cls-31{fill:#f46f38;}.cls-32{fill:#ed8058;}.cls-33{fill:#f06a2a;}.cls-34{fill:#f48444;}.cls-35{fill:#ee814e;}.cls-36{fill:#944e3a;}.cls-37{fill:#f6ae61;}.cls-38{fill:#b06a58;}.cls-39{fill:#6f3523;}.cls-40{fill:#b16a52;}.cls-41{fill:#6f3524;}.cls-42{fill:#7d3924;}.cls-43{fill:#4d1e31;}.cls-44{fill:#fff;}.cls-45{fill:#fa6e33;}.cls-46{fill:#8f4d3b;}.cls-47{fill:#f18143;}.cls-48{fill:#f1824f;}.cls-49{fill:#81509e;}.cls-50{fill:#a863c0;}.cls-51{fill:#e67d4a;}.cls-52{fill:#f0834f;}.cls-53{fill:#f0824e;}.cls-54{fill:#ef572a;}.cls-55{fill:#75438f;}.cls-56{fill:#ef6e93;}.cls-57{fill:#f05728;}.cls-58{fill:#e56527;}.cls-59{fill:#e76a2a;}.cls-60{fill:#ef804c;}.cls-61{fill:#c84e78;}.cls-62,.cls-69{fill:none;stroke-linecap:round;stroke-miterlimit:10;}.cls-62{stroke:#c84e78;stroke-width:6px;}.cls-63{fill:#eb7f56;}.cls-64{fill:#e47c49;}.cls-65{fill:#ba7fd1;}.cls-66{fill:#82509e;}.cls-67{fill:#74438e;}.cls-68{fill:#322c37;}.cls-69{stroke:#8f56ad;stroke-width:2px;}</style></defs><path class="cls-1" d="M549.5,407.62a23.16,23.16,0,0,0-9.52-2.7c-3.06-.19-6.09-1-9.72-1.56,3-3.67,6.58-4.42,10.11-5.22,2.25-.51,5.38-.62,4.62-4-.63-2.85-3.35-2.48-5.56-2-7.28,1.58-14.67,2.94-20.72,7.79a5.25,5.25,0,0,1-3.29,1.21L401.48,382.72a31.13,31.13,0,0,0-35.59,25.71l-1.29,7.95A31.15,31.15,0,0,0,390.31,452l140.8,22.71a25.8,25.8,0,0,0,16-2.23,7.79,7.79,0,0,0,1.2-.65c7.57-4.38,12.68-12.79,14.34-23.09l1.28-7.95C566.22,426.54,561.23,413.11,549.5,407.62Z"/><path class="cls-2" d="M542.28,405.44c16.85,2.72,24.36,18.46,21.64,35.32l-1.28,7.95c-2.72,16.86-14.68,28.69-31.53,26L390.31,452"/><path class="cls-3" d="M557.2,450.39c0,.48-.09,1-.14,1.45-1.69.82-1.5,2.79-2.48,4.05-3.55,5.68-5.9,12.2-11.48,16.48-10,.77-15.79-3.56-18.35-13.27-2-7.48-1-14.78.4-22.14a86.56,86.56,0,0,1,10.54-23.71c3.72-6,6-6.76,12.36-4.09,8.73,3.65,12,10.66,12.51,19.47.81,4.67-.55,9.08-1.62,13.52C558.51,444.92,557.26,447.53,557.2,450.39Z"/><path class="cls-4" d="M554.38,436.76c-.83,7.89-2.86,14.12-7.17,19.48-2.45,3.05-5.33,5.19-9.37,4.08-4.25-1.18-7.28-3.76-7.69-8.56a55.49,55.49,0,0,1,3.93-25.53c1.57-3.91,3.87-7.42,8.91-7.27,4.81.15,9.12,3.66,10.78,8.64C554.91,431,554.12,434.51,554.38,436.76Z"/><path class="cls-3" d="M550.93,438.27a25,25,0,0,1-6,16.63c-1.61,1.88-3.32,4.14-6.32,3.3a7.84,7.84,0,0,1-6-6.67c-1.33-9.07.84-17.6,4.44-25.82a6,6,0,0,1,6.42-3.91c3.35.27,6.1,1.27,7.51,4.76C552.5,430.52,551.11,434.39,550.93,438.27Z"/><path class="cls-5" d="M547.66,441.46a18.23,18.23,0,0,1-2.93,7.62c-.91,1.43-2.09,2.4-3.94,2a3.86,3.86,0,0,1-3.13-3.19,21.17,21.17,0,0,1,3.94-16.55c1.76-2.49,3.8-1.9,4.93.94C547.79,435.43,547.36,438.8,547.66,441.46Z"/><path class="cls-6" d="M544.18,431.79c1.21,5.65,1,10.19-.42,14.64-.38,1.15-.89,2.63-2.56,2.28s-1.71-1.8-1.57-3.07C540.12,441.05,539.79,436.16,544.18,431.79Z"/><path class="cls-1" d="M41.83,412.62a23.26,23.26,0,0,1,9.53-2.71c3.06-.19,6.08-1,9.71-1.56-3-3.66-6.57-4.42-10.11-5.22-2.24-.51-5.38-.62-4.62-4,.63-2.84,3.35-2.47,5.56-2,7.28,1.59,14.67,2.94,20.72,7.79a5.27,5.27,0,0,0,3.3,1.22l113.93-18.38a31.14,31.14,0,0,1,35.6,25.7l1.28,7.95A31.13,31.13,0,0,1,201,457L60.23,479.68a25.78,25.78,0,0,1-16-2.24,6.34,6.34,0,0,1-1.2-.65C35.47,472.42,30.35,464,28.69,453.7l-1.28-7.95C25.11,431.53,30.1,418.1,41.83,412.62Z"/><path class="cls-2" d="M49.06,410.43c-16.86,2.72-24.37,18.46-21.65,35.32l1.28,7.95c2.72,16.86,14.68,28.69,31.54,26L201,457"/><path class="cls-3" d="M34.13,455.38c0,.49.09,1,.14,1.46,1.69.82,1.51,2.78,2.48,4,3.55,5.69,5.91,12.2,11.48,16.48,10,.77,15.79-3.55,18.35-13.27,2-7.48,1-14.78-.39-22.13a87.09,87.09,0,0,0-10.54-23.72c-3.72-6-6-6.76-12.37-4.09-8.73,3.65-12,10.66-12.51,19.47-.81,4.67.55,9.08,1.62,13.52C32.82,449.92,34.07,452.52,34.13,455.38Z"/><path class="cls-4" d="M37,441.75c.83,7.89,2.86,14.12,7.17,19.48,2.45,3.06,5.33,5.2,9.37,4.08,4.25-1.17,7.29-3.75,7.69-8.56a55.51,55.51,0,0,0-3.93-25.53c-1.56-3.91-3.87-7.42-8.91-7.26-4.81.14-9.11,3.65-10.78,8.63C36.42,436,37.21,439.51,37,441.75Z"/><path class="cls-3" d="M40.41,443.26a25,25,0,0,0,6,16.63c1.61,1.88,3.33,4.14,6.32,3.3a7.81,7.81,0,0,0,6-6.67c1.33-9.06-.83-17.59-4.43-25.82a6,6,0,0,0-6.43-3.91c-3.35.28-6.1,1.27-7.5,4.77C38.83,435.51,40.22,439.38,40.41,443.26Z"/><path class="cls-5" d="M43.67,446.45a18.28,18.28,0,0,0,2.93,7.63c.92,1.42,2.09,2.39,3.94,2a3.83,3.83,0,0,0,3.13-3.19,21.17,21.17,0,0,0-3.93-16.55c-1.77-2.49-3.81-1.9-4.94.94C43.54,440.42,44,443.8,43.67,446.45Z"/><path class="cls-6" d="M47.16,436.79c-1.21,5.65-1,10.18.41,14.63.38,1.15.89,2.64,2.56,2.28s1.71-1.8,1.57-3.07C51.21,446,51.54,441.15,47.16,436.79Z"/><rect class="cls-7" x="436.48" y="296.73" width="22.2" height="30.78" rx="10.77" transform="translate(-52.48 93.76) rotate(-11.3)"/><path class="cls-8" d="M514.88,296.06c5.66,3.39-3.54,4.54-5.19,7.31,2.07,4.37,1.36,11.94-4.3,8.55s-8.13-9.69-5.5-14.06S509.22,292.67,514.88,296.06Z"/><ellipse class="cls-8" cx="493.63" cy="295.39" rx="7.61" ry="8.84" transform="translate(-70.52 407.94) rotate(-42.18)"/><ellipse class="cls-8" cx="475.1" cy="284.3" rx="13.49" ry="15.67" transform="translate(-67.86 392.62) rotate(-42.18)"/><path class="cls-8" d="M368.46,309.21c-5.88,3-2-5.4-3.45-8.28-4.81-.55-10.85-5.16-5-8.17s12.51-1.76,14.84,2.79S374.33,306.21,368.46,309.21Z"/><ellipse class="cls-8" cx="380.28" cy="291.55" rx="8.84" ry="7.61" transform="translate(-45.54 71.8) rotate(-10.18)"/><ellipse class="cls-8" cx="399.51" cy="281.71" rx="15.67" ry="13.49" transform="translate(-43.5 75.05) rotate(-10.18)"/><path class="cls-9" d="M448.55,267a8.6,8.6,0,0,1-1.21,5c-1.91,3-4.71,3.1-6.8.21s-2.14-10.06.11-13.06c2-2.64,4.7-2.41,6.4.54A19.22,19.22,0,0,1,448.55,267Z"/><path class="cls-10" d="M415.91,263.08c-.18,6.4-2.07,9.82-4.92,9-4.67-1.28-4.27-5.46-4-9,.26-3.36.39-8.06,5.16-7.55C416.49,256,415.15,260.75,415.91,263.08Z"/><path class="cls-11" d="M421.76,275.77c.34-2.35,0-6,3.91-6,3.52,0,3.62,3.45,3.66,6.15s-.14,6-3.72,6.1S421.75,279,421.76,275.77Z"/><path class="cls-12" d="M445,251.07c6.7-.57,10.77,2.83,13.2,8.72.13,3.58.32,7.18-3.16,10.15,0-14.61-1.31-16.31-12.64-16.42C442.55,251.89,444.09,251.79,445,251.07Z"/><path class="cls-13" d="M402.8,261c-.36-3.32-.5-6.59,1.75-9.44,2.88-3.65,6.47-4.05,10.54-2.38.83,1.41,2.66,2.26,2.46,4.27-.34.11-.74.36-.88.26-7.1-5.09-9.24-4.18-11.33,4.79C405,259.77,405,261.49,402.8,261Z"/><ellipse class="cls-14" cx="435.23" cy="275.78" rx="36.61" ry="40.54"/><circle class="cls-14" cx="402.57" cy="274.98" r="13.59"/><path class="cls-15" d="M465.05,261.82a13.59,13.59,0,0,1,0,27.18"/><circle class="cls-16" cx="448.82" cy="270.23" r="5.55"/><circle class="cls-16" cx="416.39" cy="268.53" r="5.55"/><path class="cls-8" d="M473.66,264.67c-4.88.32-5.34,1.42-5.82,6.16.05,3.8,2.56,4.61-.48,8.67a3.31,3.31,0,0,1-4.61.33c-1.45-1-1.44-8-.82-9.3,3.08-6.51-1.15-1.73-3.19-9.07-.31,0-.79.05-.88-.13-1.35.6-19.86-11.27-24.32-18.58-1.29-2.12-3.27-1.84-5.07.34-3.33,4-17.64,15.88-23.75,15.73a27.25,27.25,0,0,1-.81,4.15c.14,3,2,7.87,1.49,10.72-.32,1.73-.23,3.41-1.82,4.54-2.53.88-4.22-.46-4.54-2.62-.64-4.33.1-9.27-.39-14.52-.23-2.36-9.66-26.23,24.92-36.69,3.18-1,6.33-2.31,9.36.42,1.17,1.06,2.3,0,3.53-.19C470.48,218.61,480.23,247.19,473.66,264.67Z"/><path class="cls-16" d="M447.36,253.71a8.93,8.93,0,0,0,2.84,2.49c1.12.75,2.22,1.53,3.16,2.24s2,1.56,3,2.43a9,9,0,0,0,3.17,2.05c1.06.27,2.13-.46,2.08-2.38s-1.4-4.89-4.5-7.25-6.37-2.81-8.12-2.29S446.8,252.75,447.36,253.71Z"/><path class="cls-16" d="M405.51,259.4a9.15,9.15,0,0,0,3.61-1.11c1.22-.56,2.47-1.09,3.56-1.52s2.38-.87,3.66-1.28a8.82,8.82,0,0,0,3.4-1.62c.79-.76.73-2.05-.93-3s-4.89-1.38-8.53,0-5.74,3.95-6.21,5.7S404.4,259.37,405.51,259.4Z"/><path class="cls-16" d="M425.35,301.64a7.43,7.43,0,1,1,14.35-3.83c1.06,4-1.78,4.93-5.74,6S426.41,305.61,425.35,301.64Z"/><path class="cls-17" d="M218.1,359.67c1.5-7.76,2.46-15.63,4.77-23.24,3.34-11,9-20.22,19-26.44,2.17-1.35,4.3-2.72,7-2.67,3.64.05,5.63,2.22,5.05,5.8a44.81,44.81,0,0,0-.87,8.95c.13,3.1,1.65,4.13,4.68,3.54,3.46-.68,5.65-2.91,7.17-5.76,7.45-14,12.85-28.6,12.8-44.76,0-5.23-.3-10.49,0-15.71.31-5.87,3.67-7.4,8.7-4.27,9.26,5.78,16.35,13.34,20.42,23.72s8.53,20.35,8.56,32.65c5.32-6,10-11.11,15.54-15.37,4.08-3.16,8.56-5.51,13.74-6.06,7.56-.8,11,3.38,9,10.61-1.82,6.44-4.89,12.37-7.37,18.54-4.6,11.4-7.61,23.16-7.83,35.53a26.51,26.51,0,0,0,.22,4.27c.94,6.5,4,11,7.36,11,5.81,0,12.24-6,12.9-12.09.18-1.73.06-3.49.15-5.23a4.05,4.05,0,0,1,7.88-1.39c4.25,10.07,8.91,20,8.68,31.35.48,1.43.4,2.94,1.7,4.21s.89,3.19-.1,4.77c-3.65,2.18-4.08,6-4,9.53.09,5.53-1.17,10.77-2.47,16a19.2,19.2,0,0,0-.21,6.58,3.26,3.26,0,0,1-1.2,2.48c-3.31,3.82-5.66,8.26-8,12.71-1.38,2.68-2.93,4.64-6.2,2.29-1.49-1.07-2.67-.18-3.66,1s-1.43,2.48-2.87,3.06a8.13,8.13,0,0,1-5.09,1.65c-3.25-.09-6.59.64-9.67-1-2.42-2.78.06-4.36,1.66-5.89,5.36-5.13,9.72-10.81,11.73-18.14a29.86,29.86,0,0,0,.15-14.58c-.31-1.41-.47-3-2.22-3.26s-2.64,1.1-3.19,2.4c-2.32,5.57-6.88,8.48-12.14,10.7-8.49,3.59-15.34-.79-15.82-9.95a56.88,56.88,0,0,1,3.83-22.81c.74-2,2.16-4.42-.39-6-2.26-1.41-4.21.23-6,1.58-.51.38-.95.84-1.46,1.23-3.86,2.95-6.61,2-7.27-2.75a91.13,91.13,0,0,0-4.92-18.34,32,32,0,0,0-4.74-8.76c-1-1.26-2.07-2.63-3.91-2.07s-1.92,2.37-1.94,3.94c-.08,6.34-.05,12.67-1.05,19-1.74,11-4.77,21-15.42,26.93-5.78,3.21-9.59,2.14-11.9-4.05a16.2,16.2,0,0,1-1.16-6.51,6,6,0,0,0-1.84-5.17c-1-.53-2.08-1-3.11-1.46-1.23-1-2.55-1.86-3.73-2.94-6.54-6-11.5-5.59-16.62,1.45-1,1.42-1.84,3-3.93,3-2.38-.42-2.76-2.25-3-4.21-.16-1.57-.07-3.15-.31-4.71-.8-5.2-2-10.15-7.77-12.21A2.57,2.57,0,0,1,218.1,359.67Z"/><path class="cls-18" d="M192.63,319.11c-.47,12.61-.09,25.25-1.48,37.83-.36,1.38,1.35,1.89,1.32,3.15.07,2.32-1.39,3.35-3.33,4-3.9,1.28-7.83,2.6-11.93,2.8a16.88,16.88,0,0,0-7.59,2.2,19.34,19.34,0,0,1-2.62.33,3.32,3.32,0,0,1-.94.05c-7.89-1.59-15.79-1-23.69,0-10.82-1.19-21.51-1.05-31.9,2.82-2.61,1-5.6,2.29-7.26-1.62-4.58-5.1-3.22-11.34-2-16.76,3-13.07,5-26.36,8.87-39.24a16.18,16.18,0,0,0,.3-3.29c-1-4.45,1.9-6.51,5.11-8.37,1.62-1.4,3.47-1.21,5.41-.9a8.86,8.86,0,0,0,9.46-4c10.22-15.15,16.65-31.36,14.39-50.11-.21-1.69-1.68-4.34,2-4.48l2.49,1c1.73-.52,3,.47,4.34,1.31,4.23,2.63,9,3.66,13.75,4.95a5.07,5.07,0,0,0,5.18-1.53c1-1,2-2,3.66-1.67l4.6.6c3.47.77,4.67,3.68,5.64,6.47,2.69,7.76,5,15.63,5.32,23.92.31,7.09,1.23,14.14,1.27,21.25-.41,4.86.87,9.65.66,14.5C193.6,315.89,194,317.69,192.63,319.11Z"/><path class="cls-14" d="M207.79,232c-8.18,8.39-18,12.37-29.8,11.38-12.32,1.57-21.17-3.61-27.42-16a38,38,0,0,1-7.93-18.1,3.71,3.71,0,0,1,.77-1.28c1.58-1.43.86-3.29.82-4.95-.22-10.7.42-21.15,4.7-31.27,2.73-6.45,7.71-10.32,13-14.07,2.38-1.69,5.14-1.19,7.75-.05,8.47,3.69,17.12,6.68,26.39,7.74a54.26,54.26,0,0,0,14.23.15c3.23-.49,5.39.54,7.36,3.08a23.47,23.47,0,0,1,5.05,10.62,23.7,23.7,0,0,0,1.66,5.43,167,167,0,0,1-2,22.21,11.43,11.43,0,0,1-2.22,5.62,40.39,40.39,0,0,1-10.51,17.64,3.92,3.92,0,0,1-3.55-2.7c-1.88-5-5.55-8.26-9.83-11-.78-5.44.07-11-1.42-16.41-.42-1.5-.44-3.12-1.57-4.93-2.19,5-2.75,10.2-4.24,15.08-.69,2.22-.76,4.74-2.91,6.3-1.49.7-2.68-.13-4-.68-5.49-2.28-10.72-1.39-15.71,1.54-2.72,4.62,1.66,7,3.49,9.85,2.06,3.25,5.87,4.12,9.61,4.42,1.26.1,2.69-.06,3.18-1.51s-.64-2-1.61-2.56c-1.74-1-3.21-2.17-2.36-4.54,2.3-2.51,6.11-1.47,8.55-3.65,1.41-.75,2.85-1.22,4.42-.5a4.06,4.06,0,0,1,1.79,2.08c1.78,4.37,5.21,6.43,9.72,7.07C205.58,228.28,208,228.68,207.79,232Z"/><path class="cls-14" d="M116,304.55l-5.55,6.77c-4.45,2.95-8.57,6.4-13.92,7.87-7.34,2-18.23-3-21.72-9.81-6.49-12.7-11.79-25.92-17.56-38.94A17.58,17.58,0,0,0,52,263.77c-8.25-6.5-12.23-15.92-17.45-24.5a19.44,19.44,0,0,1-2.31-5.19c-.59-2.28-1.15-5,1.51-6.38s4.62.28,6.14,2.24a43.13,43.13,0,0,1,2.92,4.86c2.58-.69,1-2.43.95-3.77-.38-3.91-.84-7.8-1.11-11.71-.15-2.22-.09-4.64,2.41-5.64,2.85-1.15,4.36,1.17,5.8,2.92,2.82,3.44,4.32,7.63,6.12,11.64,1,.41,1.39.09,1.05-1-.15-4.43-.59-8.87.75-13.21.59-1.89,1.31-3.62,3.57-3.95,2.5-.38,3.92,1.13,4.72,3.14,2.19,5.42,4.2,10.91,6.32,16.35,1.22,3.13,2.48,5.37,6,1.76,2.18-2.21,5.31-4.18,8.5-1.77,2.92,2.2,2.49,5.46,1.68,8.72-1.71,6.88-4.15,13.2-10.29,17.54-2.64,1.87-2.9,4.58-1.48,7.6,4.23,9.05,9.92,17.24,15.1,25.72,1.32-2.3,3.07-1.92,4.78-.64,5.56,4.15,10.43,9.24,17.15,11.76C116.56,300.93,117.47,302.65,116,304.55Z"/><path class="cls-14" d="M192.63,319.11c-1.38-6.36-2.87-12.71-1.23-19.26,1.32-3.11,3.76-5.21,6.36-7.21,3.69-2.85,5-2.68,7.85,1.2a7.89,7.89,0,0,1,.81.44c2.28,1.25,1.44,3.2,1.09,5-.78,4-1.78,8-1.36,12.15.17,1.76.41,3.83,2.66,3.81,2.45,0,2.95-2.19,2.91-4.13-.06-4.12-1.58-8-2.27-12-.31-1.84-1.17-3.72.79-5.2,4.14-7.66,9.4-14.65,13.19-22.53,1.92-4,1.57-6.85-2.27-9.8-6.42-4.94-8.58-12.35-9.56-20a5.09,5.09,0,0,1,2.81-5.59c2.45-1.11,4.61-.16,6.7,1.19,5.6,3.61,5.62,3.58,8-2.89,1.73-4.59,3.4-9.21,5.26-13.76.85-2.08,2.11-4.05,4.91-3.65,2.5.35,3.11,2.34,3.71,4.38,1.25,4.22.79,8.5.61,12.77-.1.77-1.13,2.05.9,1.66,2-4.64,3.66-9.45,7.16-13.24,1.27-1.37,2.65-2.91,4.88-2s2.59,2.7,2.46,4.67c-.28,4.24-.72,8.48-1.09,12.72,0,1.34-1.71,3.13,1,3.77a15,15,0,0,1,3.86-5.91c1.48-1.34,3.22-2.27,5.17-1.22s2.23,3,1.8,5c-1.22,5.51-4.08,10.33-7.26,14.82-4.13,5.85-7.31,12.29-13.26,17-6.35,5.05-8.41,13.27-11,20.64-3.19,9-8.08,17.15-12.12,25.7-3.86,8.16-16,11-25,6.77C198.12,322.92,195.45,320.86,192.63,319.11Z"/><path class="cls-19" d="M269.42,505.79c-2.71.39-6.33-1.24-7.2,3.24-13.17-21.09-15.35-18.88-37.79-18.17-5.42-2.36-3.12-9.36-9.05-11.37-7.21-3.71,3.31-7.88,7.34-7.09,30.23-1.3,60.61-.46,90.83-2.91,19.33,1.94,38.62-1.68,58,.59,4.84,4.32-8.41,11.57-10.68,15.85-4.67,2.95-11.16,0-16.53,1.83-11.53.88-12.37,11-18,17.66-2.93-4.71-9.22,1.94-11-2.43-7.88-14.77-32.81-17.36-41.18-1.86C272.29,502.37,272.48,505.73,269.42,505.79Z"/><rect class="cls-20" x="152.39" y="366.61" width="36.11" height="21.06"/><path class="cls-8" d="M223,184.2c-2.28-1.87-2.45-4.71-3.28-7.23-2.43-7.41-4.94-9.11-12.41-8.78-11.6.52-23-1.14-33.29-6.48-11.15-5.8-15.72-1-21.79,9.21-6.64,11.15-6.49,24-5.55,36.6.07,1,.86,2.37-.34,3.07s-1.8-.88-2.71-1.35c-3.33-2.55-4.68-6.05-5.55-10.07a140.45,140.45,0,0,1-2.36-17.42c-.29-3.28.32-6.34,2.93-8.69.45-2.65.7-5.35,1.41-7.94,1.87-6.84,4.65-13.05,11.11-17.06,4.82-3,8.73-6.88,9.17-13.13.09-1.35.46-2.93,2.43-3,1.53-.05,2.22,1,2.79,2.17.28.57.59,1.12.83,1.71,2.45,5.94,2.6,6.16,8.08,2.29,11.2-7.91,25.09-7.38,35.22,3.53,1.19,1.28,2.67,2.3,3.76,3.65,4,5,7.84,5.43,14.87,2.31,1.08-.48,2-1.89,3.36-.61s.26,2.57,0,3.94c-1,5.35-7.6,8.28-7,13.67a118.18,118.18,0,0,1,.82,15.6,15.9,15.9,0,0,1-.4,2.34C225,183.83,224.59,184.72,223,184.2Z"/><path class="cls-21" d="M143,419.86c-9.71,1.16-19.22-.3-28.54-2.72-7.86-2-13.41-6.86-15-15.28-1-10.7,1.79-20.93,3.79-31.25,2,.92,4,.5,6-.31,10.53-4.37,21.54-4.53,32.66-3.69,3.41.93,6.9,0,10.33.5a10,10,0,0,0,7.15,2.25A39.56,39.56,0,0,1,171.94,371c2,.57,4.06,1.05,4.88,3.33.33,2.74-1.52,3.4-3.66,4-18.55,5.52-29,19.26-29.36,38.36A6.79,6.79,0,0,1,143,419.86Z"/><path class="cls-22" d="M116,304.55c-.3-.55-.48-1.41-.92-1.58-7.56-2.92-13.52-8.11-19.39-13.44-.85-.77-1.79-.36-2.71-.36-.9-3.13.15-6,1.42-8.73,5.69-12.11,12.64-23.4,22.08-33,4.79-4.89,10.81-7,17.2-8.52a4.51,4.51,0,0,1,3.69.48c2.85,2,6.27,2.75,9.43,4-.47,4,.9,7.75.87,11.72-.15,17.59-6.91,32.66-17,46.55-1.53,2.11-3.62,2.79-6.17,2.94C121.6,304.79,118.79,303.44,116,304.55Z"/><path class="cls-21" d="M420.26,350.5c7-9.95,12.66-20.71,17.92-31.67,3.79,3.17,7.15,5.73,22-3.71.95-.08,6.36-1.39,7.32-1.47-3.58,6.32-7.19,13.35-3.36,19.46,4,6.41,7.11,13.4,10.71,20.07,1.07,2,.83,3.25-1.19,4.2-3,1.42-6,2.86-9,4.29-6.91-5.19-14.57-9.7-23.17-9.41-6.88.23-13.53,1.91-19.89-2C421.33,350.12,420.72,350.42,420.26,350.5Z"/><path class="cls-18" d="M136.16,468.45a56.33,56.33,0,0,1,7.14-15.75c3-4.84,5.18-5.09,9.81-1.57,1.89-.42,3.28.78,4.84,1.48a24.82,24.82,0,0,0,17.48,1.21c3.78-1.08,7.69-1.52,11.51-2.44,3.13.24,5.09-4,8.61-2.27a4.29,4.29,0,0,1,2.66,3.63c.41,3.33,1.76,6.38,2.68,9.56a3,3,0,0,1-.19,1.5,2.79,2.79,0,0,1-1,1.06c-4.25,1.17-7.33,4.56-11.43,6-4.51-.56-8.79-2.27-13.49-2.06-4.24.18-8.14.88-11.6,3.41-5.24,1.65-7.45,6.21-10,10.46-.84,1.41-.63,3.51-2.71,4.11a45.72,45.72,0,0,1-6-.8c-7.75-2.1-10.44-6.56-8.85-14.34C135.82,470.61,136,469.53,136.16,468.45Z"/><path class="cls-21" d="M169.44,366.54c6.31-1.53,12.62-3.09,18.93-4.58,1.6-.38,3.32-.49,2.64-2.88.75-1.25,2.16-.28,3.1-.91,8-.26,16,.87,24,1.5l.24,2.92a4.52,4.52,0,0,1,1.9,4.13,85.88,85.88,0,0,0,2,16c.38,1.95.63,3.9-1.33,5.1-2.16,1.31-3.92.19-5.52-1.3a26.49,26.49,0,0,1-3.21-3.48c-1.14-1.5-2.21-3.39-4.5-2.79s-2.42,2.74-2.9,4.55a36.83,36.83,0,0,0-.14,19.68c.75,2.69,1.61,5.58-.86,8-1.86,1.24-3.71.82-5.57,0-1.79-1-1.9-2.66-1.74-4.52.32-3.78.17-7.58.13-11.37A17.65,17.65,0,0,0,190,382.5c-1.59-1.3-3.38-2.45-3.24-4.89,1.16-2.38,0-3.34-2.22-3.93-4-1.05-8-2.06-11.81-3.5C171.14,369.57,170.44,368.63,169.44,366.54Z"/><path class="cls-23" d="M205.61,293.84c-3-1.6-5.41-1-7.81,1.54-1.75,1.87-3.72,3.77-6.4,4.47-1.8-8.67-1.46-17.54-2.63-26.27a78.37,78.37,0,0,0-8-25.52c3.17-1.65,5.85,0,8.41,1.48a20.31,20.31,0,0,1,7.05,7c6,9.76,9.06,20.51,10.47,31.78A10.9,10.9,0,0,1,205.61,293.84Z"/><path class="cls-24" d="M138.69,173.06a78.34,78.34,0,0,0,5,36.18l-1,0c-.73-.44-.51-1.68-1.93-1.67-6.68,0-14.44-6.67-15.87-13.55-1.59-7.66,2.88-17.37,9.26-20.1A8.58,8.58,0,0,1,138.69,173.06Z"/><path class="cls-7" d="M223,184.2l2.11-1.67c12.87,4.34,16.11,19.35,6.19,28.51-3.66,3.37-7.44,1.22-11.19,1.45-.77-4.9.47-9.69,1-14.51.36-3.59,1.18-7.13.33-10.74A2.51,2.51,0,0,1,223,184.2Z"/><path class="cls-25" d="M150.57,227.36c3.62,1,4,5.06,6.66,7.16,6.15,4.94,13.33,7.14,20.76,8.88-2.78.38-1.62,2.52-1.81,4.06-3.67,6.63-4.55,7-11.87,4.75-5.46-1.72-11.56-2.29-15.06-7.81C150.58,238.79,150.07,233,150.57,227.36Z"/><path class="cls-26" d="M210.24,293.89q1.77,6.62,3.52,13.24a12.49,12.49,0,0,1-.14,7.9c-.94,2.4-2.58,4-5.32,3.92-2.92-.12-4-2.23-4.47-4.7-1-5.42.3-10.64,1.61-15.85.35-1.37.65-2.75,1-4.12A2.55,2.55,0,0,1,210.24,293.89Z"/><path class="cls-27" d="M197.09,216.14c4.88-.24,7.39,2.85,9.29,6.7,1.18,2.38,2.18,4.86,3.26,7.29a2.8,2.8,0,0,1-1.85,1.89,13.7,13.7,0,0,0-6.15-2c-6.27-.93-9.21-3.9-10.52-10.22C191.74,215.45,192.56,215,197.09,216.14Z"/><path class="cls-28" d="M256.16,381.74c2.61,1.72,2.67,4.44,3,7.16,1.31,10.81,4.85,12.22,13.69,6,6.26-4.43,8.36-11,9.94-17.83a97.78,97.78,0,0,0,2-24.62c-.07-2.68-.39-5.85,2.76-7,3.38-1.2,5.32,1.61,6.93,3.86,6,8.48,8.89,18.17,10.3,28.36.15,1.07-.26,2.46.87,3,1.51.78,2.25-.75,3.1-1.56a16.55,16.55,0,0,1,5.86-4c2.13-.74,4.05-.72,5.76.9s1.78,3.64,1,5.71a89.69,89.69,0,0,0-4.52,14.54,47.76,47.76,0,0,0-.52,12.34c.33,5.25,4.42,8.51,9.57,7.19,5.58-1.41,10.91-3.67,13.42-9.62.43-1,1-2,1.51-3,1.13-2.12,2.69-3.67,5.3-3.12,2.41.52,3,2.54,3.42,4.66,2.86,13.88-.56,25.78-11.18,35.39-1.65,1.5-3.31,3-5,4.45a2.92,2.92,0,0,1-1.32,1.16c-7.53,1.53-15,1.23-22.69.55-8.2-.73-16.43.64-24.63,1.19-5,.34-10.13.36-15.16,1.08a5.59,5.59,0,0,1-4.11-.83c-1.87-2-2-4.58-2-7.11a183.25,183.25,0,0,0-6.47-44c-1-3.67-2.63-7.13-3.58-10.81C252.84,383.61,252.43,381.2,256.16,381.74Z"/><path class="cls-29" d="M332.5,444.79c.31,0,.61-.09.91-.15l10.56,0c6.09-.78,6.76-.16,6.07,5.8-.2,1.71-.09,3.51-1.27,5-3.18,2.81-6.11,5.89-9.43,8.6-7.67,6.29-16.77,7.54-26.12,8.27-9.09-.05-18.13,1.66-27.25.93-5.24-.53-10.51-.78-15.74-1.4-12.33-1.45-22.83-7.34-33-13.94a7.82,7.82,0,0,1-2.56-2.76c-1.85-6.18-.91-7.85,4.71-8.44,4.38-1.21,9-.58,13.39-1.45a4,4,0,0,1,1.61.17,84.73,84.73,0,0,0,15.68,8.53c11.17,4.45,22.63,3.43,34.08,1.33a66,66,0,0,0,19.17-6.7C326.26,446.94,329.53,446.25,332.5,444.79Z"/><path class="cls-30" d="M253.35,447.54l-13.39.87c-1.77-1.41-3.24-3-3.61-5.38-1.39-8.78-5.79-16.71-7.38-25.45-.13-1.51.34-3,0-4.55-1.23-4.13-1.24-8.6-3.48-12.45-1.56-6.39-2.24-12.63,3-17.87.66-1.27,1.23-2.59,2-3.8,5.15-8.27,14.37-8.76,20.5-1.1.79,1,1.53,2,2.3,3,.07,2.27-1.06,4.2-1.86,6.2a44.66,44.66,0,0,0-.88,32.85,23.73,23.73,0,0,1,.84,2.72c.85,3.81-.89,5.56-4.55,4.47-1.47-.43-3-1.77-4.27-.08-1.12,1.44-.4,3.1.26,4.5a31.23,31.23,0,0,0,7.62,10.74C252,443.57,254.5,444.64,253.35,447.54Z"/><path class="cls-31" d="M253.35,447.54a33.92,33.92,0,0,1-13-15.92c-1-2.61-2.66-5.68,0-7.94s5.33-.26,7.66,1.51a6.85,6.85,0,0,0,1.6.55c.46-2.13-.82-3.71-1.39-5.35a46.94,46.94,0,0,1,.56-33,14,14,0,0,1,4.54-6.53l2.84.9c-2,.88-1.13,2.26-.61,3.57,7.75,19.7,10.31,40.27,10.19,61.28-3.43,4.92-7.56,1.71-11.47,1Z"/><path class="cls-32" d="M228.54,382.71c-.48,2.61-.92,5.22-1.46,7.81-.7,3.33-.74,6.53,1.46,9.39-1.12,2.91-.65,6.78-4.79,7.84l-1.21.76a5.34,5.34,0,0,1-2.69,1c-4.89,1.71-9.69,4-15.12,2.56a1.63,1.63,0,0,1-1-1.05c-2.42-9.3-4-18.62-1.05-28.12.33-1.05.58-2.14,1-3.18.65-1.87,1.6-3.5,3.8-3.82,2.44-.35,3.8,1.08,4.94,3,2,3.36,4,6.83,8.6,8.5-2-8.43-3.75-16.48-2.65-24.78,1.22-2.74,2.78-1.91,4.39-.41,4.12,3.81,4.11,9.06,4.82,14C227.86,378.39,227.24,380.69,228.54,382.71Z"/><path class="cls-28" d="M348.76,443.71c.27-.73.56-1.46.82-2.19.76-2.11,1.57-4.25,4.07-4.75,2.69-.53,2.7,2.46,4.26,3.94,2.54-5.8,5.29-11,9.84-15.07,2.8-.26,2.89,1.83,3.08,3.68.31,3,0,6,.24,9,.4,6.14,4.09,9.12,10.26,8.19,2.75-.41,4.31,1.55,6.32,2.66a3,3,0,0,1,.93,1.16c.6,5-2.45,7.95-6,10.63a3.46,3.46,0,0,1-1.48.35,8.81,8.81,0,0,0-4.47-.24c-4.72-1.55-9.26-.26-13.82.84a10,10,0,0,1-2.93-.84,2.78,2.78,0,0,1-1.63-2.19C358,451.94,354.52,447.12,348.76,443.71Z"/><path class="cls-33" d="M387.55,450.43c-3.48-.58-7-1-10.43-1.77-6-1.33-8.16-4.24-8.46-10.33-.2-4.23.94-8.58-.91-12.69l.95-1.9c1-1,.77-2.52,1.36-3.71a21.73,21.73,0,0,1,3.17-2.65c2.69-2.41,5.76-1.91,8.27-.25s1.47,4.42.69,6.91a50.93,50.93,0,0,0-2.6,11.51c-.37,5.17.49,5.8,5.14,3.82a18.16,18.16,0,0,1,2.62-1.1c3.93-1,7.12,2.14,5.78,6C392.19,446.93,391.48,450.25,387.55,450.43Z"/><path class="cls-34" d="M348.76,443.71c7.19.52,9.88,3.06,11.08,10.68.29,1.83.27,3.72.39,5.58,2.51,2.35,2.24,5.11,1.19,8a3.4,3.4,0,0,1-1,1.36c-7.9,2.95-16.93-7-13.62-14.43,1-1.71.65-3.7,1.12-5.5.93-3.59-.34-5.07-4-4.78C345.43,443.63,347.12,443.78,348.76,443.71Z"/><path class="cls-35" d="M370.71,420.74a4.49,4.49,0,0,1-2,3,307.22,307.22,0,0,1,4.68-31.53c.18-.83.45-3.85,2.14-.62q-1.06,11.28-2.12,22.58c.35,1,.89,2.05.22,3.15C372.55,418.37,372.25,420.09,370.71,420.74Z"/><path class="cls-21" d="M167.48,366.65c-5,1.74-10.12.36-15.15,1-3.48-.52-7.12.65-10.5-1Z"/><path class="cls-11" d="M179,223.77c1.28.62,2.54,1.28,3.84,1.86,2.13,1,4.31,2.32,4,4.75-.39,2.77-3.13,3.28-5.55,3.54-7.53.79-14.68-4.19-17.18-12.13-.68-2.18-1.9-4.48-.45-6.87,4.26,1.92,8.1,4.73,12.73,5.9A3.26,3.26,0,0,1,179,223.77Z"/><path class="cls-8" d="M179,223.77a35.55,35.55,0,0,1-11.8-4.29c-1.72-1.07-3.49-2.17-3.58-4.56a35.93,35.93,0,0,1,14.25-2.73c3.12.05,5.89,1,7.7,3.78q.94,2.35,1.91,4.71C185.64,224.42,182.13,223.56,179,223.77Z"/><path class="cls-14" d="M176.12,375.2c32.3,1.87,25.79,47.13,8.28,77.05-4.34,7.42-15.12,7.48-25.06,3.61-4-1-13.53-3.44-12.48-6.59,5.47-16.27,10.24-28.86-3.86-29.41C122.14,408.29,157.54,375.05,176.12,375.2Z"/><path class="cls-36" d="M236.14,454.83c14.46,9.17,29.84,15.89,47.1,17.63a16.92,16.92,0,0,1,2.73.72l-55.57,1c-.52-3.32.39-6.62.2-9.94.21-.73.4-1.47.58-2.21C232.56,459.44,233,456.19,236.14,454.83Z"/><path class="cls-36" d="M346.79,454.89c1.09,1.09,1,2.61,1.36,3.95,1.7,6,5.7,9.19,11.89,9.68.87,1.32-.12,2.06-.89,2.87-15.33-.68-30.6,1.61-45.93.86C326.31,470.14,337.14,463.65,346.79,454.89Z"/><path class="cls-37" d="M233.54,463l-.24,1.73c-1.53,4.86-3.63,9.13-9.6,9.47a4.45,4.45,0,0,0-.9.14l-.79-.21c-3.66-2.63-3.29-6.54-3.28-10.33.34-2.86-.35-5.85,1.08-8.57a9.14,9.14,0,0,0,.41-3.89,6.12,6.12,0,0,1,2.18-4.3l1.06-.94c4.89-4.63,7.6-3.95,10.25,2.57A37.55,37.55,0,0,1,233.54,463Z"/><path class="cls-38" d="M222,486.42c-3.43-2.74-7.56-4-11.59-5.44a2.8,2.8,0,0,1-.65-1.24c.24-2.18,1.61-2.74,3.55-2.47C219.15,477.65,220.88,479.47,222,486.42Z"/><path class="cls-39" d="M359.15,471.39l.89-2.87,0-.25A15.73,15.73,0,0,1,372.6,466c1.91,1.56,2,3.31.56,5.23a4,4,0,0,1-.67.21Z"/><path class="cls-40" d="M223.7,474.18a21.11,21.11,0,0,0,9.6-9.47,22.56,22.56,0,0,1-2.9,9.47Z"/><path class="cls-41" d="M213.33,477.27l-3,2.54c-4.22-1.26-3-4-1.77-6.68,2.08-1.71,4-1.44,5.81.46a2.23,2.23,0,0,1-.14,2.56Z"/><path class="cls-42" d="M214.25,476.15l0-1.79c2.61-3.66,5.49-1.91,8.35-.42l.22.38C220.16,475.91,216.9,474.61,214.25,476.15Z"/><path class="cls-21" d="M478.46,423.74c1.14-2.94.38-6.67,3.66-8.71,3.41-.13,4.95.58,3.44,4.64-1.69,4.52-6.32,13.2-1.33,12.47,8.54-1.24,14.16-10.89,10.92-18.86-.73-1.8-1.31-3.54-.77-5.48,5.52-2.78,10.66-1.14,15.19,2s4.68,8,3.33,12.91c-1.12,4.13-2.21,8.27-3.32,12.4-2.37,6-4.51,12.17-7.73,17.83a19.29,19.29,0,0,1-18,10.3c-7.34-.1-11.78-4.7-13.08-12.05S477.84,431,478.46,423.74Z"/><path class="cls-21" d="M426.11,426c2.74-1.55,4.54-4.91,8.36-4.4,2.71,2.07,3.24,1-.51,3.21-4.18,2.42-13.27,6.16-8.95,8.78,7.37,4.48,17.84.61,20.42-7.6.58-1.85,1-5.85,2.64-7,6,1.36,8.4,8.06,9.89,13.37s-.65,9.23-4.84,12.2c-3.49,2.47-7,5-10.45,7.45-5.67,3.15-11.22,6.52-17.31,8.84a19.28,19.28,0,0,1-20.46-3.53c-5.6-4.75-6.1-11.12-2.43-17.62S421,431.17,426.11,426Z"/><path class="cls-43" d="M332.33,68.05c36.95-1.56,80.84,31.21,65.58,71.18-10.91,48-95.45,51-57.79,105.21-15.61-1.5-32.13-28-32.88-43.82-1.47-15.36,11.85-26.12,23.62-33.83,35.28-27.93-28.65-52.32-25.64-79.71C306.7,71.79,318.15,67,332.33,68.05Z"/><path class="cls-44" d="M359,81.5c7.77-.82,18.9,15.17,7,15.87C360.16,97.31,348,82.36,359,81.5Z"/><path class="cls-44" d="M329.47,96.84c4.63,0,9.73,6.58,8.66,11.07C333.35,118.3,314.77,97.16,329.47,96.84Z"/><path class="cls-43" d="M293.84,235.26c-36.43-19.25-55.49-75-30.58-110.93,13.62-23.68,38.63-4.24,25.62,18.15C268.11,171.62,272,207.75,293.84,235.26Z"/><path class="cls-44" d="M278,136.85c.18-3.12.67-6.41,4.86-6.62,6,0,4.23,12-1.24,12.13C277.9,142.72,278.1,139.59,278,136.85Z"/><path class="cls-44" d="M261.48,135.11c-.56-6.24,8.59-11.57,9.8-4.65C271.58,136.27,262.48,142.6,261.48,135.11Z"/><path class="cls-43" d="M355,257.81C350.85,212.57,416.51,193,404.27,226c-7.41,8.68-19.23,12.22-28.18,19.12-7.72,5.22-13.19,12.25-15.2,21.64-.33,1.57-.24,4-2.5,4.06C354,269.21,356.2,261.67,355,257.81Z"/><path class="cls-44" d="M381.89,215c8.76.56-4,13.65-4.81,5.5A6.13,6.13,0,0,1,381.89,215Z"/><path class="cls-44" d="M392.89,230.1c-8.44-1,3.82-11.51,4.2-3.54C396.9,229.08,394.85,229.69,392.89,230.1Z"/><path class="cls-45" d="M221.64,455.26c-.27,2.83-.55,5.66-.82,8.5-4.43,3.09-9.29,2.1-14.11,1.49-2.41-.38-4.83-.74-6.77-2.42-4-3.23-3.31-8.22-4.62-12.46-.34-.91.14-1.48.81-2,8.11-2.53,15.9-3.13,22.42,3.79A35.81,35.81,0,0,0,221.64,455.26Z"/><path class="cls-46" d="M209.54,473.24c.12,2.21-.43,4.5.81,6.57,0,.39.05.78.08,1.17a38,38,0,0,0-13.82-.71c-1.55.32-3,.18-3.11-1.76-.34-5.76-.13-11.37,5.75-14.73l.72.05c4.85.85,6.17,5.94,9.85,8.19A1.38,1.38,0,0,1,209.54,473.24Z"/><path class="cls-47" d="M209.41,472.42c-4.56-1.31-7.27-4.65-9.44-8.59l0-1a10,10,0,0,1,6.77,0c1.29,1.72,3.49,2.68,4,5.07C211.13,469.71,211.27,471.32,209.41,472.42Z"/><path class="cls-48" d="M400.12,392.19c-.25,4.95-.72,10.35-3.48,15.14-3,5.17-9.19,7.87-12.61,5.75s-3.66-6.84-.36-12.84c3.06-5.57,8.47-9.37,11.19-15.28,1.17-2.54,3.22-1.14,4.32.73S400,389.68,400.12,392.19Z"/><path class="cls-49" d="M380.19,468.71s10.19-17.54,35.17-6.91a12.33,12.33,0,0,1,4.64,3.48c4.35,5.2,13.5,18,4.43,24.08s-29.77,4.4-37.81,3.4a12.2,12.2,0,0,1-9.1-5.75C375.32,483.28,374.54,477.38,380.19,468.71Z"/><path class="cls-50" d="M397.24,477.13c-3.26-3.86-8.89-3.39-12.42-6.77-1.77-2.44-.5-4.39,1.53-5.36,2.59-1.24,5.12-2.91,8.16-3,4.07-.55,8.11-1.3,12.26-1.15,3.39.13,6,1.41,6.92,4.68s-.88,5.51-3.33,7.25a16.53,16.53,0,0,1-11.1,3.45Z"/><path class="cls-34" d="M254.27,447.59l11.47-1c11.66-.88,23.31-2.19,35-2.52,10.57-.31,21.18.44,31.77.72-6.5,6.54-14.87,9.45-23.46,11.64-13,3.31-26.08,4.66-39.15,0C264.15,454.38,259.5,450.49,254.27,447.59Z"/><path class="cls-17" d="M233.54,463c-.21-4.84,0-9.71-1.11-14.48,1.07-1.61-.16-3.05-.37-4.55-.25-1.85.05-4.46-1.75-5.12-2.1-.78-2.22,2.13-3.37,3.27-1.52,1.51-3,2.34-4.9.61a3.11,3.11,0,0,1-.49-2.14c1.59-6.28.62-12.31-1.78-18.19-.11-2.17-1.07-4.2-1-6.4-.48-2.94-1.66-6,1.19-8.46l1.89-.95c5.34,1.54,7.56,5.9,9.52,10.5q4.28,15.66,8.57,31.34c-5.13.66-5.4,1.12-3.82,6.42C234.61,457.33,235.28,460.54,233.54,463Z"/><path class="cls-51" d="M222.82,406.56c2.56-1.65,4-4.31,5.72-6.65q1,6.68,1.93,13.34C226.8,412.3,225.08,409.12,222.82,406.56Z"/><path class="cls-52" d="M222.82,406.56l7.65,6.69a5.84,5.84,0,0,1,.92,3.82l-9.52-10.5Z"/><path class="cls-53" d="M220,407.52l.93,8.64c-2.55,2.26-5.46,4.14-7.31,7.16-.86,1.42-2.16,2.27-4,1.44-.61-1-1.22-2-1.84-3-.72-3.52-2.9-6.58-3.2-10.23Z"/><path class="cls-54" d="M372.41,466.76a27.94,27.94,0,0,1-12.4,1.51c.08-2.77.15-5.53.22-8.3l2.82,0a22.3,22.3,0,0,1,7.49-.78c3.33,1.56,4.12,3.89,2.19,7.07C372.63,466.4,372.52,466.58,372.41,466.76Z"/><path class="cls-55" d="M386.75,463.84a6.68,6.68,0,0,0-1.67-2.26l-.41-.19a1.66,1.66,0,0,1-.48-.24,15.58,15.58,0,0,1-2.19-1.41l-.81.17c-3.82.77-6.94,2.53-8.76,6.15,0,.23,0,.47,0,.7l.75,4.44c3.92.11,7.65-2.26,11.66-.84A11.07,11.07,0,0,1,388,466C387.57,465.26,387.15,464.55,386.75,463.84Z"/><path class="cls-56" d="M377.47,458.92c-4.91-1.13-9.75-1.34-14.42,1l7.5.09h0c.72,2.07,1.45,4.13,2.18,6.2,3.3-1.47,6.36-3.25,8.46-6.31A5,5,0,0,0,377.47,458.92Z"/><path class="cls-30" d="M175.22,409.18c-.56-5.15.61-10.07,2.4-14.88.5-1.35,1.18-2.8,2.9-2.75s2.23,1.6,2.5,3c1.16,6,3.47,11.54,5.65,17.17a18.78,18.78,0,0,1,1.42,6c.11,3.19-.05,6.78-3.87,7.83s-6.87-.53-9-3.85C174.83,417.85,175.12,413.51,175.22,409.18Z"/><path class="cls-33" d="M209.64,424.76c1.49-2,3-4,4.46-5.93,1.73-2.24,3.79-3.69,6.81-2.68q.47,2.82,1,5.64c-.15,6.39.74,12.73,1,19.1l0,1.83c2.14,1.65.91,3.7.67,5.64l-1.44,3c-1.11,1.27-1.9,3-4,2.83-6.23-6.78-14.38-4.78-22.08-4.83a20.49,20.49,0,0,1,2.15-10.53c1.24-2.49,2.69-5,6.12-2.93,1.26.74,1.83.05,2.05-.91C207.1,431.5,209.46,428.48,209.64,424.76Z"/><path class="cls-57" d="M209.41,472.42c.06-3.47-2.11-6.31-2.7-9.59,4.58,2.29,9.5-.8,14.11.93a30.45,30.45,0,0,0,1.77,10.18l-8.36.42-4.69-1.12A7.76,7.76,0,0,0,209.41,472.42Z"/><path class="cls-58" d="M223.53,448.36c-.93-1.8-.65-3.74-.67-5.64,3-1.05,3.17-4.14,4.61-6.32.88-1.34,1.7-2.91,3.55-2.69,2,.25,2.12,2.05,2.33,3.64.33,2.51.67,5,1,7.52.24,1.7.19,3.22-1.95,3.63C228.8,444.08,228.34,444.07,223.53,448.36Z"/><path class="cls-59" d="M218.06,454.23a7.44,7.44,0,0,1,4-2.83l-.45,3.86A3,3,0,0,1,218.06,454.23Z"/><path class="cls-60" d="M222.83,440.89c-2.77-6.24-2.41-12.64-1-19.1C223.24,428.1,224.93,434.4,222.83,440.89Z"/><path class="cls-61" d="M496.33,375.2s17.11,15.11,11.72,24.08-35.17,8.42-35.17,8.42l2.55-23.37Z"/><rect class="cls-24" x="479.24" y="392.25" width="17.08" height="30.83" rx="8.54" transform="translate(-146.3 362.24) rotate(-35.79)"/><ellipse class="cls-24" cx="490.41" cy="421.84" rx="15.17" ry="7.17" transform="translate(-120.12 635.63) rotate(-60)"/><rect class="cls-24" x="430.68" y="402.03" width="17.08" height="30.83" rx="8.54" transform="translate(-55.42 67.44) rotate(-8.26)"/><ellipse class="cls-24" cx="434.85" cy="431.64" rx="15.17" ry="7.17" transform="translate(-157.56 275.25) rotate(-30)"/><path class="cls-18" d="M458,339.71h0a20.62,20.62,0,0,1,20.62,20.62v49.84a13.46,13.46,0,0,1-13.46,13.46h-12a15.81,15.81,0,0,1-15.81-15.81V360.34A20.62,20.62,0,0,1,458,339.71Z" transform="translate(-136.89 421.08) rotate(-43.6)"/><path class="cls-18" d="M422.59,340.63h0a20.62,20.62,0,0,1,20.62,20.62V411.1a13.46,13.46,0,0,1-13.46,13.46h-12A15.81,15.81,0,0,1,402,408.75V361.26A20.62,20.62,0,0,1,422.59,340.63Z" transform="translate(-96.98 148.06) rotate(-17.86)"/><path class="cls-62" d="M424.83,357.34s-9.87,11.8,5.85,26.44S452.54,410,452.54,410"/><path class="cls-20" d="M455.41,370.41c25.17-23.37,12.76-17.19,2.83-46,9.33-37.39,67.46,31.58,46.38,48.85-8.44,10.86-28,28.18-39.06,26.13C458.14,398.07,457.75,382.69,455.41,370.41Z"/><path class="cls-14" d="M455.41,370.41c42.92,41.08-40,41.39-13.94,16a15.37,15.37,0,0,1,2.12-1.64C450.41,380.26,430.79,368.76,455.41,370.41Z"/><path class="cls-20" d="M437.36,307.39c14.89,15.73-41.2,86.81-50.42,51.79C404.84,331.84,387,269.51,437.36,307.39Z"/><path class="cls-7" d="M432.79,312c-58.83-8.23,8.22-57,1.93-21.16a14.21,14.21,0,0,1-.76,2.56C431.09,301.13,453.73,299,432.79,312Z"/><path class="cls-63" d="M398.45,316.46c2.91.42,2.67,2.22,1.72,4.16-4.19,8.59-5.48,17.7-5.1,27.15.24,5.86-2.82,9.46-8.13,11.41l-.19-.3c-4-3.14-4.73-7.21-3.41-11.89,3-10.55,7-20.6,13.88-29.29Z"/><path class="cls-64" d="M397.22,317.7c-1.14,6.73-5.49,12.1-7.76,18.37-2.68,7.42-6.33,14.66-2.7,22.81-3.66,1.34-5.83-.52-7.11-3.6a13.07,13.07,0,0,1-1.16-7.88C381.26,335.34,386.9,325,397.22,317.7Z"/><path class="cls-49" d="M260.22,501.73c1.77,2.14,1.74,4.76,2,7.31-1,3.81-3.91,5.73-7.36,6.68a84.22,84.22,0,0,1-34.72,2.12c-4.32-.64-6.84-4.29-10.65-5.64-3.24-4.65-2.14-9,.9-13.21,5.94-3.48,5.88-3.4,11.26.6,6.18,4.59,13.67,4.8,20.87,5.6C248.68,505.88,254.85,505.56,260.22,501.73Z"/><path class="cls-50" d="M260.22,501.73c-.36,4-3.17,5.36-6.52,5.68a69.47,69.47,0,0,1-29-3.27c-1.75-.59-3.77-1.54-4.78-3-2.6-3.65-5.24-3.67-8.4-1l-.11-.29a3.29,3.29,0,0,1,.24-4.35c3.58-3.62,7.42-6.82,13.08-5.9,2.19-.34,4.4-.55,6.55-1C244.12,485.64,253.7,490,260.22,501.73Z"/><path class="cls-49" d="M368.81,488.46c1.55,2,3.19,3.85,4.62,5.88,2.59,3.69,2.84,7.83,2,12.12-12.18,12.16-26.82,9.58-41.43,6.8-4.22-.8-7.25-3.13-7.64-7.84.17-1.18.34-2.35.52-3.52,1.53-1.12,3-.29,4.47.14,8.49,2.4,16.74,2.25,24.67-2.15,3.89-2.16,7-4.85,7.66-9.54.27-1.82,1-3.35,3.07-3.65C367.83,486.8,368.78,487.08,368.81,488.46Z"/><path class="cls-50" d="M366.8,487.37C366.46,505,339,511.26,326.85,501.9c3.63-17,17.78-17.56,33.34-17A6.29,6.29,0,0,1,366.8,487.37Z"/><path class="cls-14" d="M211.47,500.15c-3.16,3.61-.24,8.21-2,12.05-9.06.75-18.18,1.17-26.63-2.86-8.07-3.84-10-5.56-5.72-16-.26-3.26,1.64-5.29,4-7.06a2.6,2.6,0,0,1,2.25,1.6c2.93,9.43,11.3,9.38,18.82,10.72,2.79.5,5.68-.6,8.46.42A2,2,0,0,1,211.47,500.15Z"/><path class="cls-65" d="M224.68,489.61c-4.46,3.39-10.89,4.22-13.32,10.25-9.05,2.57-17.47.54-25.52-3.67-2.94-1.53-4.17-4.18-3.88-7.5,1.53-5.25,5.47-7.79,10.4-9.2,1.73-.4,3.44-.91,5.13-1.48,4.31-.54,8.57-.72,12.6,1.35,5,.67,9.78,1.63,11.93,7.06Z"/><path class="cls-24" d="M269.42,505.79c.61-2.14,1.23-4.27,2.89-5.9,3.73.84,6.48,4.09,10.42,4.37,10.25.74,20.49,1.3,29.53-5.07a3.63,3.63,0,0,1,2.29-.42c1.93,1.4,2.51,3.61,3.45,5.61-1,7.17-6,10.45-12.28,12.29a40.67,40.67,0,0,1-26.13-.51C274.62,514.33,270.7,511.31,269.42,505.79Z"/><path class="cls-65" d="M314.55,498.77c-1.16,2.51-2.6,5-5.46,5.58-9.55,2.11-19.15,4.46-29,1.78-3.39-.92-6.57-2.47-7.81-6.24C281.71,484.57,304.35,484,314.55,498.77Z"/><path class="cls-66" d="M180.83,486.67c.6,3.23-1.82,4.78-3.7,6.64-5.29.73-10.51,1.45-15.91.36-4.59-.93-8.2-2.95-10.75-6.85-.26-8.31,5.36-12.59,11.37-16.6,1.32.67,1.42,1.84,1.51,3.17.51,7.21,3.51,10.11,10.88,10.93C176.56,484.58,179.45,483.6,180.83,486.67Z"/><path class="cls-50" d="M192.36,481.13,182,488.69l-1.13-2c-2.68,0-5.39.16-8.05-.11-9.15-.93-13.12-6.95-10.94-16.34,8.72-5.63,17.62-4.75,26.6-.73,4.45.91,6.12,3.72,4.95,8.55C193.13,479.08,192.55,480.05,192.36,481.13Z"/><path class="cls-67" d="M199.25,463.78A43.12,43.12,0,0,0,195,476.61c-.24,1.66-.51,3.17,1.65,3.66l-4.26.86c-1-4-.23-8.56-3.92-11.64C191.34,466.25,194.73,464,199.25,463.78Z"/><path class="cls-14" d="M409.79,488.59c.72,11.79-2.57,16-14.23,18.07-6.73,1.21-13.46,1.61-20.16-.2-2.48-5.84-4.51-11.86-7.29-17.57-.09-.2.23-.55.41-.82,1.55-1.48,3.23-.75,4.92-.33,2.62.65,5.2,1.39,8,1.19,7.89-.56,13.78-3.42,14.59-12.33a2.84,2.84,0,0,1,2.53-1.25,67.18,67.18,0,0,1,7.89,5.64C408.55,483,411,485.05,409.79,488.59Z"/><path class="cls-65" d="M366.8,487.37c-1.85-1.78-4.56-1.28-6.61-2.5,2.76-5.71,7.35-9.75,12.3-13.46a2.67,2.67,0,0,1,.88-1.28c3.76-2.11,7.58-3.76,11.9-1.55a63.17,63.17,0,0,0,8.22,3.39c2.54.85,3.93,2.4,3.75,5.16,2.08,11.92-10,14.67-19.9,13.89-2.89-.22-5.69-1.67-8.53-2.56Z"/><path class="cls-16" d="M207.07,176.75a9.05,9.05,0,0,0,2.84,2.49c1.12.75,2.22,1.52,3.16,2.23s2,1.57,3,2.44a9.12,9.12,0,0,0,3.17,2.05c1.06.27,2.13-.46,2.08-2.38s-1.39-4.89-4.49-7.25-6.38-2.81-8.12-2.29S206.51,175.79,207.07,176.75Z"/><path class="cls-16" d="M165.22,173a9.1,9.1,0,0,1,3.61,1.11c1.23.56,2.47,1.09,3.56,1.51s2.38.88,3.66,1.29a8.94,8.94,0,0,1,3.41,1.62c.78.76.72,2.05-.93,3s-4.9,1.38-8.53,0-5.75-3.95-6.22-5.71S164.11,173,165.22,173Z"/><circle class="cls-68" cx="171.01" cy="193.55" r="3.87"/><circle class="cls-68" cx="209.06" cy="200.14" r="3.87"/><ellipse class="cls-14" cx="191.12" cy="206.8" rx="7.03" ry="13.25"/><path class="cls-69" d="M194.35,189.06c2.69,5.22,4.32,14,3.75,21.37a10.52,10.52,0,0,1-6.77,9.22c-3.86,1.37-5.47-.89-5.69-4.73"/></svg>