<svg xmlns="http://www.w3.org/2000/svg" viewBox="0 0 216 216"><defs><style>.cls-1{fill:#c8c3e2;fill-rule:evenodd;}.cls-2{fill:#6b3389;}.cls-3{fill:#562d8a;}.cls-4{fill:#6d3ea9;}.cls-5{fill:#62369c;}.cls-6{fill:#df8267;}.cls-7{fill:#d2755a;}.cls-8{fill:#cb507b;}.cls-9{fill:#de648f;}.cls-10{fill:#925eae;}.cls-11{fill:#aa563d;}.cls-12{fill:#a2492e;}.cls-13{fill:#d75c86;}.cls-14{fill:#e76c96;}.cls-15{fill:#9b68b8;}.cls-16{fill:#b64e72;}.cls-17{fill:#bfaacb;}.cls-18{fill:#6e42a6;}.cls-19{fill:#661934;}.cls-20{fill:#9b67b8;}.cls-21{fill:#9b67b7;}.cls-22{fill:#915dad;}.cls-23{fill:#cb7156;}.cls-24{fill:#d57b61;}.cls-25{fill:#d57c61;}.cls-26{fill:#9967b7;}.cls-27{fill:#d75c87;}.cls-28{fill:#e36990;}.cls-29{fill:#ac573e;}.cls-30{fill:#cc4f7a;}.cls-31{fill:#8757c4;}.cls-32{fill:#e76b96;}.cls-33{fill:#c4a8e7;}.cls-34{fill:#b74e72;}.cls-35{fill:#e28e77;}.cls-36{fill:#b4a0bf;}.cls-37{fill:#b49fbf;}.cls-38{fill:#9560ae;}.cls-39{fill:#ce725c;}.cls-40{fill:#9c68b8;}.cls-41{fill:#a67bbe;}.cls-42{fill:#b0466d;}.cls-43{fill:#945ead;}.cls-44{fill:#915eae;}.cls-45{fill:#bb5b43;}.cls-46{fill:#bc5c42;}.cls-47{fill:#cb7056;}.cls-48{fill:#d6c0f3;}.cls-49{fill:#c3694d;}.cls-50{fill:#cfb7ef;}.cls-51{fill:#b5675d;}.cls-52{fill:#bc5b3d;}.cls-53{fill:#bd9ee3;}.cls-54{fill:#e66b96;}.cls-55{fill:#cb5980;}.cls-56{fill:#c5aae9;}.cls-57{fill:#c7adea;}.cls-58{fill:#c7abea;}.cls-59{fill:#412f51;}.cls-60{fill:none;stroke:#925eae;stroke-linecap:round;stroke-miterlimit:10;stroke-width:0.47px;}</style></defs><g id="Layer_13" data-name="Layer 13"><path class="cls-1" d="M106.19,24c24.37,2.48,40.15,24.5,55.93,43.24,13.91,16.53,26,34.38,27.55,55.93,1.61,23.2-2.19,48.43-19.19,64.29-16.65,15.53-41.64,15.91-64.29,13.58-20.06-2.07-36.56-13-52.29-25.58-18.58-14.92-41.48-28.67-44.66-52.29C5.8,97.63,19.62,72.92,37.6,54.53,55.79,35.92,80.3,21.32,106.19,24Z"/></g><g id="Layer_10" data-name="Layer 10"><ellipse class="cls-2" cx="183.18" cy="143.93" rx="2.17" ry="2.58" transform="translate(-34.34 60.51) rotate(-17.18)"/><ellipse class="cls-2" cx="183.9" cy="147.16" rx="1.46" ry="1.74" transform="translate(-35.26 60.87) rotate(-17.18)"/><path class="cls-2" d="M185.36,149.16a2,2,0,0,1-.47,1.87,1.92,1.92,0,0,1-1.48-1.26,1.14,1.14,0,0,1,.62-1.47A1.13,1.13,0,0,1,185.36,149.16Z"/><rect class="cls-3" x="60.64" y="39.15" width="69.94" height="134.77" rx="1.57"/><rect class="cls-4" x="66.26" y="66.52" width="59.14" height="19" rx="0.79" transform="translate(191.65 152.04) rotate(-180)"/><rect class="cls-5" x="66.26" y="85.34" width="59.14" height="2.56" rx="0.29" transform="translate(191.65 173.25) rotate(-180)"/><rect class="cls-6" x="114.86" y="70.69" width="5.44" height="16.82" rx="0.5" transform="translate(235.17 158.19) rotate(180)"/><path class="cls-6" d="M98.59,84.16l3.84,3.16a.39.39,0,0,0,.61-.18l6.57-13.21a.68.68,0,0,0-.13-.78L105.64,70a.39.39,0,0,0-.61.17L98.45,83.37A.67.67,0,0,0,98.59,84.16Z"/><rect class="cls-7" x="120.31" y="68.68" width="4.68" height="18.82" rx="0.46" transform="translate(245.29 156.19) rotate(180)"/><rect class="cls-7" x="109.68" y="67.26" width="5.18" height="20.25" rx="0.91" transform="translate(224.55 154.76) rotate(180)"/><rect class="cls-6" x="71.54" y="70.69" width="5.15" height="16.82" rx="0.49" transform="translate(148.23 158.19) rotate(180)"/><rect class="cls-7" x="76.69" y="68.68" width="4.43" height="18.82" rx="0.45" transform="translate(157.81 156.19) rotate(180)"/><rect class="cls-7" x="66.63" y="67.26" width="4.91" height="20.25" rx="0.5" transform="translate(138.17 154.76) rotate(180)"/><rect class="cls-8" x="87.05" y="76.29" width="5.39" height="17.24" rx="0.86" transform="translate(174.65 -4.84) rotate(90)"/><rect class="cls-9" x="87.91" y="73.45" width="1.97" height="15.55" rx="0.49" transform="translate(170.12 -7.67) rotate(90)"/><rect class="cls-8" x="88.2" y="71.92" width="1.39" height="15.55" rx="0.41" transform="translate(168.59 -9.2) rotate(90)"/><rect class="cls-9" x="86.45" y="72.38" width="1.39" height="12.05" rx="0.29" transform="translate(165.55 -8.74) rotate(90)"/><rect class="cls-4" x="66.26" y="118.94" width="59.14" height="19" rx="0.79" transform="translate(191.65 256.88) rotate(-180)"/><rect class="cls-5" x="66.26" y="137.77" width="59.14" height="2.56" rx="0.29" transform="translate(191.65 278.1) rotate(-180)"/><rect class="cls-6" x="114.86" y="123.11" width="5.44" height="16.82" rx="0.5" transform="translate(235.17 263.04) rotate(180)"/><path class="cls-6" d="M98.59,136.58l3.84,3.16a.39.39,0,0,0,.61-.17l6.57-13.22a.68.68,0,0,0-.13-.78l-3.84-3.16a.39.39,0,0,0-.61.17L98.45,135.8A.66.66,0,0,0,98.59,136.58Z"/><rect class="cls-7" x="120.31" y="121.11" width="4.68" height="18.82" rx="0.46" transform="translate(245.29 261.04) rotate(180)"/><rect class="cls-7" x="109.68" y="119.68" width="5.18" height="20.25" rx="0.91" transform="translate(224.55 259.61) rotate(180)"/><rect class="cls-6" x="71.54" y="123.11" width="5.15" height="16.82" rx="0.49" transform="translate(148.23 263.04) rotate(180)"/><rect class="cls-7" x="76.69" y="121.11" width="4.43" height="18.82" rx="0.45" transform="translate(157.81 261.04) rotate(180)"/><rect class="cls-7" x="66.63" y="119.68" width="4.91" height="20.25" rx="0.5" transform="translate(138.17 259.61) rotate(180)"/><rect class="cls-8" x="87.05" y="128.71" width="5.39" height="17.24" rx="0.86" transform="translate(227.07 47.59) rotate(90)"/><rect class="cls-9" x="87.91" y="125.87" width="1.97" height="15.55" rx="0.49" transform="translate(222.55 44.75) rotate(90)"/><rect class="cls-8" x="88.2" y="124.34" width="1.39" height="15.55" rx="0.41" transform="translate(221.02 43.22) rotate(90)"/><rect class="cls-9" x="86.45" y="124.8" width="1.39" height="12.05" rx="0.29" transform="translate(217.98 43.68) rotate(90)"/><rect class="cls-4" x="66.17" y="93.02" width="59.14" height="19" rx="0.79"/><rect class="cls-5" x="66.17" y="111.85" width="59.14" height="2.56" rx="0.29"/><rect class="cls-6" x="71.26" y="97.19" width="5.44" height="16.82" rx="0.5"/><path class="cls-6" d="M93,110.66l-3.85,3.16a.38.38,0,0,1-.6-.17L82,100.43a.68.68,0,0,1,.13-.78l3.85-3.16a.38.38,0,0,1,.6.17l6.58,13.22A.68.68,0,0,1,93,110.66Z"/><rect class="cls-7" x="66.58" y="95.19" width="4.68" height="18.82" rx="0.46"/><rect class="cls-7" x="76.7" y="93.76" width="5.18" height="20.25" rx="0.91"/><rect class="cls-6" x="114.87" y="97.19" width="5.15" height="16.82" rx="0.49"/><rect class="cls-7" x="110.44" y="95.19" width="4.43" height="18.82" rx="0.45"/><rect class="cls-7" x="120.02" y="93.76" width="4.91" height="20.25" rx="0.5"/><rect class="cls-8" x="99.12" y="102.79" width="5.39" height="17.24" rx="0.86" transform="translate(213.23 9.59) rotate(90)"/><rect class="cls-9" x="101.68" y="99.95" width="1.97" height="15.55" rx="0.49" transform="translate(210.39 5.06) rotate(90)"/><rect class="cls-8" x="101.97" y="98.42" width="1.39" height="15.55" rx="0.41" transform="translate(208.86 3.53) rotate(90)"/><rect class="cls-9" x="103.72" y="98.88" width="1.39" height="12.05" rx="0.29" transform="translate(209.33 0.49) rotate(90)"/><rect class="cls-4" x="66.3" y="145.9" width="59.14" height="19" rx="0.79"/><rect class="cls-5" x="66.3" y="164.73" width="59.14" height="2.56" rx="0.29"/><rect class="cls-6" x="71.38" y="150.07" width="5.44" height="16.82" rx="0.5"/><path class="cls-6" d="M93.1,163.54l-3.84,3.16a.39.39,0,0,1-.61-.17l-6.57-13.21a.69.69,0,0,1,.13-.79l3.84-3.16a.39.39,0,0,1,.61.18l6.58,13.21A.66.66,0,0,1,93.1,163.54Z"/><rect class="cls-7" x="66.7" y="148.07" width="4.68" height="18.82" rx="0.46"/><rect class="cls-7" x="76.83" y="146.64" width="5.18" height="20.25" rx="0.91"/><rect class="cls-6" x="115" y="150.07" width="5.15" height="16.82" rx="0.49"/><rect class="cls-7" x="110.57" y="148.07" width="4.43" height="18.82" rx="0.45"/><rect class="cls-7" x="120.15" y="146.64" width="4.91" height="20.25" rx="0.5"/><rect class="cls-8" x="99.25" y="155.67" width="5.39" height="17.24" rx="0.86" transform="translate(266.24 62.34) rotate(90)"/><rect class="cls-9" x="101.81" y="152.84" width="1.97" height="15.55" rx="0.49" transform="translate(263.4 57.82) rotate(90)"/><rect class="cls-8" x="102.1" y="151.31" width="1.39" height="15.55" rx="0.41" transform="translate(261.87 56.29) rotate(90)"/><rect class="cls-9" x="103.85" y="151.77" width="1.39" height="12.05" rx="0.29" transform="translate(262.33 53.25) rotate(90)"/><rect class="cls-10" x="99.85" y="113.57" width="5.06" height="6.51" rx="2.36"/><path class="cls-8" d="M171.38,153.92a25.88,25.88,0,0,0-.73,3.43,3.9,3.9,0,0,1-2.64,3.43,8.27,8.27,0,0,0-1.25.8c-.83,1.32-1.85,2.32-3.58,2.15-2.53,1.61-5.21,3-7.59,4.82a6.32,6.32,0,0,1-4.2,1.69c-.67-.86-.37-1.82-.26-2.75.38-3.39,1.11-6.74,1.29-10.16.05-.91-.18-1.15-1.09-1.21-1.17-.08-2.17-.16-2.54,1.3-.11.41-.59.56-1,.17a.85.85,0,0,1-.22-.49,37,37,0,0,1,.46-7.87c1.4-1,1.44-1.16.91-2.71.48-4.35.64-8.76,2.53-12.83a12.44,12.44,0,0,0,.36-1.49,2.47,2.47,0,0,1,1.51-1.52c1,.18,1.16,1.06,1.47,1.81s-.21,1.23-.56,1.75a9.65,9.65,0,0,0-1.45,3.65,78.94,78.94,0,0,0-1.24,9.19c-.1,1.31.22,1.82,1.27,2s1.63,0,1.9-1.32a73.36,73.36,0,0,1,2.26-7.44,7.57,7.57,0,0,1,2.29-3.65c1.58-.55,3.29-.28,4.88-.75,2.06.21,3.17-1.4,4.55-2.46,1.12-.85,1.06-2.22,1.21-3.47,3.27-6.43,4-13.48,4.93-20.46.63-4.56.58-9.18,1.38-13.71a28.32,28.32,0,0,1,3.27-8.93A4.21,4.21,0,0,1,181,85.15c1.68.1,2.53,1.47,3.66,2.42a.87.87,0,0,1,.13.91c-1.7,6.27-2.51,12.73-3.91,19.07-1.46,6.61-2.73,13.26-4.08,19.9.84,1.44,0,2.81-.18,4.21-.05.4-.32.75-.32,1.17-.07,1-.32,2-.48,3.06-.81,1.62-.54,3.49-1.21,5.13-.27,1.29,0,2.76-1.26,3.7l-.32,1.19c-.41.76-1.14.35-1.73.44-1.38.24-1.66.59-1.33,2a1.28,1.28,0,0,1-.19,1.17c-.64.8-.21,1.76-.37,2.64-.09.49.48.7.9.91S171.28,153.29,171.38,153.92Z"/><path class="cls-11" d="M120.8,170.79a2,2,0,0,1-1.5,1.56c-.5.15-.94.32-.9,1s-.4.34-.68.3c-1.94-.22-3.9-.27-5.84-.54-2.48.06-3-.44-2.93-2.89,0-1.05,0-2.09-.06-3.14,0-.35-.18-.67-.22-1a67.28,67.28,0,0,0,.38-10.9,94.7,94.7,0,0,1-.15-9.53,11.39,11.39,0,0,1,.33-3.9,8.37,8.37,0,0,1,1.45-4c1.72-1.51,3.87-2.15,5.95-2.92a2.23,2.23,0,0,1,1.71.3,10.61,10.61,0,0,1,3.49,2.32,3.76,3.76,0,0,0,3.78,1.28c4.74-1.11,7.8,1.34,10.43,4.79a1.08,1.08,0,0,1-.34,1.07,1.69,1.69,0,0,1-1.29.31,7.18,7.18,0,0,0-4.42.43c-2.18.74-4.58.77-6.56,2.11-.76.21-.94.8-.94,1.48,0,1.22,0,2.45-.1,3.68a85,85,0,0,1-.71,16.1C121.46,169.36,121.75,170.32,120.8,170.79Z"/><path class="cls-12" d="M135.45,144.38l.33-.86c-.06-.49.25-.76.59-1a82.88,82.88,0,0,0,7-5.18c.57-.43.4-1.05.57-1.58a2.14,2.14,0,0,1,1.41-.94,20.15,20.15,0,0,0,3.91-1.44,2.54,2.54,0,0,1,2.59.25,3.14,3.14,0,0,1-.37,1.7,28.34,28.34,0,0,0-1.51,7.57c-.13,1.3-.33,2.6-.49,3.9a6.3,6.3,0,0,1-.89,2.44,66.47,66.47,0,0,0-.5,8.46c.78.55.64,1.38.58,2.13-.24,3.08-.51,6.17-.52,9.27a6.73,6.73,0,0,1-.29,1.6c-.07,1.26-.33,2.42-1.62,3a4.17,4.17,0,0,1-1.74.64l-.47.08a10.72,10.72,0,0,1-5.05.6,1.68,1.68,0,0,1-1.31-.59c-2.92-.59-2.92-.59-3-3.56,0-.27,0-.54,0-.82a2.12,2.12,0,0,1-.63-1.6c0-.78-.06-1.56,0-2.33.2-4.14.25-8.29.38-12.44.24-2,.09-4,.26-6C134.66,146.5,134.55,145.32,135.45,144.38Z"/><path class="cls-13" d="M159.34,84.34a136.71,136.71,0,0,1,16.32.09,9.35,9.35,0,0,1,.92.18A8.75,8.75,0,0,1,174.75,88c-2,2.73-2.55,5.85-3.12,9-1,5.74-.68,11.59-1.49,17.34-.54,3.88-1,7.77-2.55,11.43-.51,1.22-.73,1.27-1.72.58-.43-2.83-1.63-5.47-2-8.31a7.12,7.12,0,0,0-1-3.35c-.09-3.09-2-5.68-2.44-8.68-.17-1.06-1.22-1.52-2.08-2-.27-.17-.56-.3-.84-.45-2-1-2.08-1.25-.75-3.14A2.59,2.59,0,0,0,157,100a6.15,6.15,0,0,1,3.42-3.39c3.22-1.55,3.51-5.43.64-7.73-1.29-1-1.54-2.39-2-3.75A.91.91,0,0,1,159.34,84.34Z"/><path class="cls-13" d="M135,153.6l-.3,16.47-3.81-.27a1.5,1.5,0,0,1-1.36.39c-2.33-.19-4.66-.49-7-.62a1.82,1.82,0,0,1-1.44-.88,131.18,131.18,0,0,0,.77-16.46,1.71,1.71,0,0,1,1.72-.59c3.26.27,6.52.59,9.75,1.1A2.5,2.5,0,0,1,135,153.6Z"/><path class="cls-13" d="M132.22,83.79a49.22,49.22,0,0,1,6.31-.33c.65.08.74.66,1,1.12a2.48,2.48,0,0,1-.85,1.93c-.82.21-.94,1.08-1.47,1.56a1.64,1.64,0,0,0-1.11,1.55c0,.94,0,1.88,0,2.82s.54,1,1,1.43c.44,1.77,1.52,3.28,2,5,0,.17,0,.35,0,.53.1,1.68.23,1.82,2,2a4.79,4.79,0,0,1,3,2.39,1.85,1.85,0,0,1,0,1.51c-.73.75-1.21-.14-1.8-.27a1.16,1.16,0,0,0-1.37.42,1.45,1.45,0,0,1-1.14.41c-3.15.72-6.29,1.49-9.4,2.39-.66.19-1.39.62-2-.15a8.47,8.47,0,0,1-.35-3.64c.32-5.25.41-10.53,1.32-15.74.22-1.25.49-2.49.63-3.76a1,1,0,0,1,1.16-1A2.1,2.1,0,0,0,132.22,83.79Z"/><path class="cls-14" d="M181,85.15a2,2,0,0,1-.26,1.18c-3,4.59-4.06,9.73-4.44,15.12-.58,8.31-1.49,16.58-3.88,24.62a16.44,16.44,0,0,1-2.09,4.27,2.92,2.92,0,0,1-3.85-1c1.28-3.89,2.73-7.73,3.28-11.83a111.53,111.53,0,0,0,1.11-12.24,60.24,60.24,0,0,1,1.68-12.69c.64-2.65,2.4-4.77,3.8-7,.16-.27.44-.62.89-.46C178.47,84.76,179.73,84.29,181,85.15Z"/><path class="cls-8" d="M132.22,83.79c-1.19.19-1.56.81-1.74,2.08-.53,3.86-1.19,7.71-1.44,11.61-.23,3.53-.26,7.07-.38,10.61-1,.82-1.43.08-1.73-.65-1.07-2.52-2.43-4.89-3.66-7.33-.23-.65,0-1.34-.24-2a31.57,31.57,0,0,1-1-11.88,6,6,0,0,1,.84-2.3c.67-1.08,1.44-2,2.9-1.88a10.86,10.86,0,0,1,5.11,1.64Z"/><path class="cls-15" d="M78.83,170.79c-1.17-1.66-2.32-3.24-2.24-4.47s1.23-1.85,1.89-2.76c1.64-2.25,4.58-4.21,6.2-7,2-4.37,3,.25,5.64.77,4.86,3-8.86,6.86-4.8,10.95,1.32,1.95,4.88,5.33.61,6.45C82.4,176.16,80.05,174.35,78.83,170.79Z"/><path class="cls-3" d="M144.35,173.92a.45.45,0,0,1,.2,0c1.14,1,1.45,2.47,2.24,3.66,0,.57,0,1.14-.56,1.49-.45,4.56-3.47,7.63-6.37,10.71-1.2,1.28-3,.89-4.56.69A4.81,4.81,0,0,1,134,190c-3.1-1.27-3.81-3.11-2.2-6.09,1.1-2,2.33-4,3.56-6a2.84,2.84,0,0,1,2.07-1.58,2.52,2.52,0,0,1-.25,2.46,9.32,9.32,0,0,0-1,2.8c-.14,1.19.5,1.81,1.69,1.64a2.89,2.89,0,0,0,1.67-.85,24,24,0,0,0,3.93-5.84c.13-.23,0-.53,0-.8C143.63,175.1,143.6,174.31,144.35,173.92Z"/><path class="cls-2" d="M175.76,132.81q.51-2.69,1-5.36c2.77-.68,5.28.32,7.77,1.25a3.79,3.79,0,0,1,2.43,3.76,3,3,0,0,0,.67,2c1.18,1.43.84,3-.87,4.61a9.74,9.74,0,0,1-2.89,1.84,3.21,3.21,0,0,1-3.63-1.1,10,10,0,0,1-.67-.77,7.62,7.62,0,0,1-.38-.69c-.75-1.41-2.24-2.42-2.27-4.25C176.92,133.42,176,133.39,175.76,132.81Z"/><path class="cls-3" d="M118.52,175a1.74,1.74,0,0,1,1.25,1.13,9.66,9.66,0,0,1,.67,4.41,2.39,2.39,0,0,1-1.26,1.85,25.4,25.4,0,0,1-6.91,3.2,25.38,25.38,0,0,1-5.53,1.42c-3.19.23-5-1.65-4.63-4.82a2.07,2.07,0,0,1,.85-1.65c1.41-.81,2.86-1.53,4.3-2.29.43.37.26.79.16,1.24-.21,1,.14,1.39,1.11,1.35a8.08,8.08,0,0,0,2.88-.75c1.7-.74,3.28-1.71,4.93-2.55a1.36,1.36,0,0,0,.76-1.19C117.53,175.84,117.62,175,118.52,175Z"/><path class="cls-16" d="M159.34,84.34a6.51,6.51,0,0,1,.87,2.29,2.09,2.09,0,0,0,1,1.41c1.73,1.31,2.93,2.94,2.43,5.25a5.5,5.5,0,0,1-4.13,4.46,1.7,1.7,0,0,0-1.15,1.06,13,13,0,0,1-1,1.8c-1.11,1.61-1.15,1.64.56,2.44a5.33,5.33,0,0,1,3.52,4.3c.34,2.44,1.75,4.6,2,7.09l-.18.07a.61.61,0,0,1-.57-.27,3.33,3.33,0,0,0-2.74-1.61c-.61-.2-.74-.76-.9-1.27s-.36-1.21-.56-1.81c-1.14-3.42-2.42-4.36-6.05-4.47-.72,0-1.34-.5-2.08-.41a1.41,1.41,0,0,1-.84-.4,1.89,1.89,0,0,1-.29-1.58,1.16,1.16,0,0,1,.42-.51c.7-.35,1.43-.65,2.1-1.06a13,13,0,0,0,3.86-3.26c.26-.29.42-.69.87-.78,2.07-.5,4.2-3.29,4.05-5.37a2.39,2.39,0,0,0-1.76-2.33,2.79,2.79,0,0,1-1.1-.52,1.34,1.34,0,0,1-.43-1,2.81,2.81,0,0,1,0-1.32,1.58,1.58,0,0,0,0-1.28c-.16-.44-.34-1,.31-1.24Z"/><path class="cls-15" d="M180.45,139.31c2.12,1.5,2.78,1.5,4.68-.1a1.55,1.55,0,0,1,1.64-.17c1.19.84.79,2,.53,3-.56,2-1.81,2.5-3.41,1.22-.23-.18-.42-.33-.69-.09-2.73,2.74-6,2.68-9.37,1.69l-.51-.18c.23-1.23.6-2.37.78-3.73.55-2.33.51-2.83,1.09-5.22a10.7,10.7,0,0,1,.57-3h1.09c.72,0,1.16.13.92,1a2.23,2.23,0,0,0,.93,2.52c.69.49.69,1.25,1,1.9A1.44,1.44,0,0,0,180.45,139.31Z"/><path class="cls-13" d="M147.32,170.81q.41-6.56.82-13.12c.65-2.33.65-2.35,3.17-2.18a8.43,8.43,0,0,0,2.28-.55l-2.2,15.28c-.16.37-.57.4-.83.62A2.53,2.53,0,0,1,147.32,170.81Z"/><path class="cls-17" d="M157.56,84.07c.07.82.73,1.61.1,2.46-.68.46-1.07,0-1.48-.45-2.77-3.26-6.32-4-10.36-3.22a6.72,6.72,0,0,0-3.32,2c-.44.45-1,1-1.64.44s-.35-1.23.11-1.82c1.95-2.55,4.65-3.25,7.68-3.15.27,0,.54.1.81.1a1,1,0,0,1,.4.1A9.43,9.43,0,0,0,140.27,84c-.33.41-.67.75-1.25.62-.17-.39-.33-.77-.49-1.16,2.13-4.59,5.82-6.55,10.76-6.21C153.63,77.54,156.12,80.2,157.56,84.07Z"/><path class="cls-8" d="M177.21,85.08a25.5,25.5,0,0,0-5,11.8c-.42,3.44-.61,6.89-.82,10.34-.43,7-.95,14-3.86,20.58-.22.49-.51,1-.77,1.43s-.42.55-.83.39a.68.68,0,0,1-.23-.32,3.83,3.83,0,0,0,0-1.78c0-.5-.07-1,.53-1.31.81.48.66-.35.78-.64a44.41,44.41,0,0,0,2.49-11c.67-4.74.6-9.54,1.13-14.28.56-5,1.28-9.9,4.61-14l1.38-1.68A.67.67,0,0,1,177.21,85.08Z"/><path class="cls-18" d="M144,176c-.52,3-2.34,5.16-4.37,7.21a3,3,0,0,1-2.13.77,1.82,1.82,0,0,1-2-2.43c.36-1.85,1.45-3.43,2-5.21.43-.27.16-.74.32-1.1a.49.49,0,0,1,.6.17c1.39,1.47,1.9,1.56,3.78.81C142.7,176,143.26,175.32,144,176Z"/><path class="cls-19" d="M147.32,170.81c1.08,0,2.16-.3,3.24.05-.26,2.75-.07,5.54-.55,8.27-.14.79,0,1.86-1.26,1.9s-2.22-.11-2.31-1.63c0-.12-.14-.23-.21-.34,0-.55,0-1.09,0-1.63a2.05,2.05,0,0,0-.21-1.18,3.42,3.42,0,0,1-.09-3A3,3,0,0,0,147.32,170.81Z"/><path class="cls-20" d="M171.38,153.92a15.46,15.46,0,0,1-1.84-.46c-.85-.33-1.32-.86-.94-1.9s-.32-2.09.82-2.76c-.11-.18-.22-.36-.34-.54-.67-1-.5-1.6.61-2.14a4.47,4.47,0,0,1,3.31-.21c1.24,1.34,1.26,5.82-.18,7.31A2.2,2.2,0,0,1,171.38,153.92Z"/><path class="cls-19" d="M104.07,170.81c.36-1-.14-2,0-3a3.2,3.2,0,0,1,.25-1.46c1.46-.84,2.8-.36,4.13.34,1.07,1.73.29,3.55.21,5.33a2.78,2.78,0,0,1-.79,2.36c0,1.12-.73,1.31-1.64,1.3s-1.63-.22-1.75-1.28S104.19,172,104.07,170.81Z"/><path class="cls-18" d="M117.69,176.61c-.3,1.14-1.36,1.55-2.21,2.08a18.45,18.45,0,0,1-5.66,2.61c-1,.23-2.22.68-3-.32s.16-1.85.49-2.74c1.45-.9,2.58-2.33,4.37-2.66,1.41,1.26,3,1.23,4.72.79C116.83,176.24,117.33,176.06,117.69,176.61Z"/><path class="cls-20" d="M117.69,176.61a9,9,0,0,1-4.48.66c-.95-.2-1.58-.63-1.58-1.69l.3-.28c-.46-.92-1-1.84,0-2.74,1.93-.16,3.83.45,5.77.2.4,0,.52.28.67.55l.12,1.68Z"/><path class="cls-19" d="M163.18,163.73a21,21,0,0,1,3.58-2.15,25.25,25.25,0,0,1-.62,6.43c-.18.93-1,1-1.73.87a1,1,0,0,1-1.08-1.23A12.57,12.57,0,0,0,163.18,163.73Z"/><path class="cls-21" d="M144,176a10.27,10.27,0,0,1-3.34,1.36c-1.76.15-2.4-.31-2.87-2.12l0-.82a30.13,30.13,0,0,0,6.63-.53A4.8,4.8,0,0,1,144,176Z"/><path class="cls-22" d="M112,172.56l0,2.74a10.14,10.14,0,0,0-4.09-.89c.15-1.8.28-3.6.43-5.39a4.55,4.55,0,0,0-.1-2,.8.8,0,0,1,1.28,0c0,1.3.26,2.57.13,3.89C109.43,172.6,110.85,172.46,112,172.56Z"/><path class="cls-2" d="M92.8,104.32A3.19,3.19,0,0,1,93,99a1.27,1.27,0,0,0,.63-1c0-2.88,1.63-4.49,4.2-5.36a1.07,1.07,0,0,0,.22-.15c.6,0,1.22,0,1.5-.65A8.34,8.34,0,0,1,104,87.6c.58-.92,1.5-.55,2.31-.62a7.1,7.1,0,0,1,3,1.59,1.27,1.27,0,0,0,1.21.69,4.13,4.13,0,0,1,3.54,2.41c1.16,2.09-.5,4.6-3.15,5-.41,0-1.11-.26-1.16.32s.69.56,1.15.69a8.16,8.16,0,0,1,3.53,1.66,1.49,1.49,0,0,1,.69,1.11,11.52,11.52,0,0,0-.16,1.66,5.55,5.55,0,0,0-1.46,3.31c0,.68-.69,1-1.44.8a1,1,0,0,1-.58-1.12,9.92,9.92,0,0,0,0-1.09c0-2.34-.11-2.39-2.42-2.11A9.25,9.25,0,0,1,104,101c-.37-.18-.75-.55-1.13-.43A40.58,40.58,0,0,1,98.3,102c-.46.08-.45.74-.46,1.2,0,.77,0,1.55-.07,2.32s-.38,1.44-1.23,1.6A1.29,1.29,0,0,1,95,106C94.69,104.82,93.62,104.77,92.8,104.32Z"/><path class="cls-11" d="M90,139.35c.56-.41,1.21-.82,1.73-.16,1.85,3.2,8.41,1.53,8.42,5.37-2.64,5.77,5.92,8.1-1.57,13-5.15,4.68-8.33.74-12.4-2.54-4.54-1.91.58-7.26,2.17-9.63C89.1,143.5,88.56,140.6,90,139.35Z"/><path class="cls-15" d="M92.8,104.32c.86-.35,1.91-1.2,2.3.19.47,3.08,2.51,2.21,2-.49.08-2.18-.3-3.18,2.23-3,4.67-2.89,6.24,2,11.07-.23,2.37,0,1,3.74,1.82,5.17,1.59,2.22-.2,4.85-1.14,6.9a8.84,8.84,0,0,1-13.63.76,7.57,7.57,0,0,1-2.58-4C93.2,109.57,91.08,106.83,92.8,104.32Z"/><path class="cls-23" d="M87.32,129.87c-2.15-1.89-2.13-2.23-.6-4.62,2.88-5.73,13.85-14.32,11.43-1.64a1.5,1.5,0,0,1-.94,1.37c-2.09,1.1-.9,3.29-1.47,5a23.4,23.4,0,0,1-5.06,1.84C89.43,131.4,88.05,131.2,87.32,129.87Z"/><path class="cls-14" d="M125.31,82c-4.3,3.77-2.35,12.23-1.6,18C120.63,102.11,109.68,82.38,125.31,82Z"/><path class="cls-24" d="M97.71,123.77c0-1.67,0-3.36.11-5,.06-.82-.85-1.29-1.32-1.69,1.06,0,3.32.16,3.35.18,1.89,1.86,4.92.69,5.06.68,1.46.18,2.59.25,4.17.58.28.47-.57,2.5-.19,2.89a1.61,1.61,0,0,1,.09,2.41,15.49,15.49,0,0,1-4.56-.06,12,12,0,0,0-5.37.33A1,1,0,0,1,97.71,123.77Z"/><path class="cls-25" d="M150.57,104.08a3.79,3.79,0,0,1,1.92.49c.51.29.75.73.45,1.25a4.44,4.44,0,0,0-.3,2.93c.63,5.1,1.53,10.16,2.43,15.21a8.33,8.33,0,0,0-.3,4.17,4.35,4.35,0,0,1-1.39,2.77c-.09.71-.69,1-1.15,1.37-.6,1.09-1.89,1.17-2.74,1.89l-5.27,1.89a.37.37,0,0,1-.35.09,1,1,0,0,1-.3-.23,3.23,3.23,0,0,1-.38-.45c-1.26-2.87-3.92-3.26-6.53-3.62a19.23,19.23,0,0,0-5.41.14,1.19,1.19,0,0,1-.79-.08,2,2,0,0,1-.51-.71,2.64,2.64,0,0,1,.07-2c1.64-4.43,2.82-9,4.18-13.54a2.36,2.36,0,0,0,.44-1.38c.93-2,1.64-4,2.64-6a5.63,5.63,0,0,1,2.6-2.86l.81-.59c.35-.18.65-.5,1.11-.4.45.25.41.68.39,1.09a9.32,9.32,0,0,0,.34,2.29c.26,1.22.75,2.34,2.13,2.56a3.54,3.54,0,0,0,3.5-1.4,11.05,11.05,0,0,0,1.37-2.67A8.72,8.72,0,0,1,150.57,104.08Z"/><path class="cls-26" d="M153.38,130.9a7.25,7.25,0,0,1,.78-2.7c.38-.68.4-1.6,1.29-1.93a7.43,7.43,0,0,1,5.05-1.57,5,5,0,0,1,3.6,1.26c.64.34.55,1.27,1.26,1.55.17.19.19.47.34.67a1.54,1.54,0,0,1,.19,1,2.5,2.5,0,0,0,.07.26c2,1.47,1.86,5-.23,6.51a5.93,5.93,0,0,1-1.2.62c-1.7.47-3.49.27-5.21.62-1,.5-1.64,0-2.06-.89a5.38,5.38,0,0,1-.51-2.37c0-.76-.19-1.28-1.12-1a1.13,1.13,0,0,1-1.21-.44C153.79,132.18,153.66,131.49,153.38,130.9Z"/><path class="cls-14" d="M154.42,132.55a2.94,2.94,0,0,0,1.76-.59c1-.72,1.25-.31,1.22.7a12.49,12.49,0,0,0,0,2,2.65,2.65,0,0,0,1.87,2.55c-2.2,3.49-3.13,7.43-4,11.37-.27,1.18-.8,1.48-1.89,1.32-2.67-.39-2.72-.45-2.53-3,.23-2.91.71-5.77,1.12-8.65A15.92,15.92,0,0,1,154.42,132.55Z"/><path class="cls-27" d="M164.53,136.62c2.59-2,2.43-4.46,1.43-7.13l.79-.26c1,.89,2.37.74,3.55,1.11a2.75,2.75,0,0,1-.54,2.92C168.33,134.84,166.79,136.3,164.53,136.62Z"/><path class="cls-28" d="M148.64,149.23c0-.91-.15-1.9.89-2.44C149.92,148.36,149.68,149,148.64,149.23Z"/><path class="cls-29" d="M149.49,134.16a6.48,6.48,0,0,1,2.74-1.89,2.21,2.21,0,0,1-.32,1.35A5.74,5.74,0,0,0,149.49,134.16Z"/><path class="cls-8" d="M97.71,123.77c3.7-1.61,7.48-.5,11.23-.35,1-1.2,2.17-.31,3.22-.14a3.18,3.18,0,0,0,1.53.11c2.75.51,5.56.57,8.29,1.17,1.22.24,1.78-.41,2-1.49a26.82,26.82,0,0,0,.48-3.09,5.41,5.41,0,0,1,.9-3.22c.89-.2,1.77-.72,2.68-.07a2.28,2.28,0,0,1,.35,1.83c-.22,3-.52,6.08-.71,9.13a4.46,4.46,0,0,1-.56,1.8c-.42.85-1.29.81-2,.9-3,.37-5.87,1.11-8.84,1.51a8.51,8.51,0,0,0-5.18,2.75,1.4,1.4,0,0,0-.37,1.72l.42,1.69a12.74,12.74,0,0,0-1.34,3.54,7,7,0,0,1-3.25.71,22.69,22.69,0,0,0-4.39.84c-.57.17-1.14.39-1.6-.21a.79.79,0,0,1-.12-.42c.34-1.29,1.42-1.63,2.52-2,1.67-.52,1.62-.58,1.55-2.3a21,21,0,0,0-3.22-9.87,3.59,3.59,0,0,0-2.35-1.92,1.87,1.87,0,0,0-2.46,1.94c0,.48.21,1-.21,1.43a.56.56,0,0,1-.39.15.46.46,0,0,1-.35-.2,15.68,15.68,0,0,1-.2-2.26A4.73,4.73,0,0,1,97.71,123.77Z"/><path class="cls-13" d="M101.25,153.9a14.44,14.44,0,0,1-.12-2.71c-.07-.85.41-1.2,1.16-1.13,1.9.18,3.82.13,5.72.42,1,.15,1.37.62,1.36,1.62,0,4.2,0,8.39,0,12.59a4.17,4.17,0,0,0,.09,1.49V167l-1.28,0-3.88-.63c-.75-.21-1.32-.56-1.14-1.48-.7-.78-1.52-4.77-1.58-5.86C101.52,158.16,101.23,154.08,101.25,153.9Z"/><path class="cls-30" d="M135,153.6c-3.62-.33-7.19-1-10.82-1.23-.77,0-1.54-.14-2.31-.14,0-1.4,0-2.81,0-4.21,0-1,.39-1.55,1.44-1.49,3.41-.61,6.75.32,10.14.39a2.08,2.08,0,0,1,1.85.66A32.73,32.73,0,0,1,135,153.6Z"/><path class="cls-30" d="M109.45,166.18a3.45,3.45,0,0,1-.24-1.74c0-3.87,0-7.74,0-11.61,0-1.18-.28-1.74-1.6-1.73a44.6,44.6,0,0,1-5.16-.37c-.86-.1-1.19.16-1.19,1s0,1.45,0,2.18a2.21,2.21,0,0,1-.23-1.31,2,2,0,0,0-1.1-2.21c-1.11-.63-1.45-3.54-.74-4.88.17-.32.35-.62.53-.94.67-.48,1.4-.12,2.1-.12a36.75,36.75,0,0,1,6.2.29c.54.09,1.08.12,1.42.63Q109.45,155.77,109.45,166.18Z"/><path class="cls-31" d="M111.14,138c-.9,0-1.12-.6-1.11-1.37,1.31-3.3,4.69-4.61,8.13-3.13a18.35,18.35,0,0,1,4.19,2.55,3.92,3.92,0,0,0,1.82,1.15,18,18,0,0,1,5.19-.42,9.68,9.68,0,0,1,7,4.73c.17.43.52.86.07,1.33l-.69.66a9.87,9.87,0,0,1-2.66-2.32,7.16,7.16,0,0,0-6.53-2,5.75,5.75,0,0,1-5.16-1.44c-3.38-3-5.34-3-9.63-.24C111.57,137.68,111.36,137.86,111.14,138Z"/><path class="cls-32" d="M109.43,145.36l-8.05-.25a3.29,3.29,0,0,1-1.67-.55c0-.28,0-.57,0-.85.14-.54-.18-1.51,1-1.09,1.66-.31,3.31-.71,5-.91a10.78,10.78,0,0,1,4.12-.15C109.68,142.83,109.56,144.09,109.43,145.36Z"/><path class="cls-32" d="M135.23,147.58a81.54,81.54,0,0,1-12-1.05c2.34-.7,4.7-1.36,7-2.12a7.89,7.89,0,0,1,5.19,0C135.38,145.45,135.3,146.52,135.23,147.58Z"/><path class="cls-33" d="M136.47,142.86a1.27,1.27,0,0,1-.41-1,1.81,1.81,0,0,1,.59-1.06c2-1.47,3.52-3.53,5.6-4.93.44-.3.89-.72,1.48-.3l.2.29c-.2.51-.67.79-.93,1.11a6.06,6.06,0,0,1,1-.9.75.75,0,0,0,.21,0c.37.53.12.94-.29,1.29q-3.08,2.67-6.18,5.32A1.22,1.22,0,0,1,136.47,142.86Z"/><path class="cls-34" d="M165.37,128.4l-.3-.5a3.1,3.1,0,0,1-.45-1.56,4.37,4.37,0,0,0-2.44-4.37.67.67,0,0,1-.25-.32,7.54,7.54,0,0,1-.77-3.64,6.06,6.06,0,0,0,1.69-2.87,1.05,1.05,0,0,1,.59-.71h0a6.18,6.18,0,0,1,.8,2.58,84.31,84.31,0,0,1,1.95,9.19c.09.46.17.92.26,1.38C166.11,127.89,166.26,128.84,165.37,128.4Z"/><path class="cls-23" d="M127.84,116.92c-5.1,2-7-3.21-9.71-6.59-1.29-2.26-4.4-5-3.59-7.8.1-.34.33-.58.68-.53,1.4,0,1.93-1.62,3.3-2,1.71,0,2.43-1.78,3.84-2,2.52,2.53,3.7,6.19,5.26,9.39,3.21,1.64,8.31-2.59,12.26-2C136.58,110.12,136.63,118.27,127.84,116.92Z"/><path class="cls-15" d="M149.73,80.76a10.4,10.4,0,0,0-7.19,2A3.73,3.73,0,0,0,141,85c.52.3.72-.12.92-.36C144.08,82,147,81.42,150.09,82c2.67.5,5.38,1.25,6.81,4a1.08,1.08,0,0,0,.76.53l0,1.36c-2.91,1.64-2.16,4.63-2.59,7.15a13,13,0,0,1-.73,3c-.37.84-.85,1.83-1.9,1.68s-1.08-1.19-1.17-2.06c-.19-2.16-.71-2.77-2.78-3.46-.71-.23-1.56-.06-2.13-.71-.23-.43,0-.77.2-1.14.48-.85-.38,2.4-.63,1.51-.09-.31-1.13-.39-1.3-.11-.71,1.17-.37-1.66-1-.45-.13.13-.25.32-.41.34a10.06,10.06,0,0,0-4.64,2.18,1.14,1.14,0,0,1-1.11-1c-.42-2.89-.77-5.79.75-8.51l.75-1.7a9.49,9.49,0,0,1,11.53-4.13C150.47,81.16,150.06,80.84,149.73,80.76Z"/><path class="cls-17" d="M146.47,93.32a7.86,7.86,0,0,1,2.68.41c2,.66,2.65,1.56,2.81,3.69.28.93-.06,1.94.52,2.85.25.41-.23.91-.53,1.31-.53.56-1,1.18-1.95,1a2.88,2.88,0,0,1-2.08-1,11.74,11.74,0,0,1-.71-1.9c-.21-1-.64-1.74-1.75-1.78a2.69,2.69,0,0,0-2.79,1.27c-.27.48-.42,1-.67,1.49a1.57,1.57,0,0,1-1,1.19c-1.45.59-2.15.24-2.4-1.21a14.71,14.71,0,0,1-.1-1.48,21.94,21.94,0,0,0-.37-2.39c-.22-.57.3-.89.66-1.23a3.39,3.39,0,0,1,2.92-2.15c.58-.12,1.17-.2,1.75-.3C144.5,92.62,145.54,92.38,146.47,93.32Z"/><path class="cls-35" d="M150.57,104.08c.24,2.29-1.87,7-5,7.07a3,3,0,0,1-3.08-1.58,6.46,6.46,0,0,1-.65-5c0-.49.26-.42.56-.3.78,0,1,.56,1.29,1.11a3.1,3.1,0,0,1,1.32.11,3.75,3.75,0,0,0,3.57-1.1c.32-.35.64-.64,1.16-.41Z"/><path class="cls-36" d="M141,101.83l.57-1.4c.7-.57,1.53-.94,2.26-1.49a1.48,1.48,0,0,1,2.08.24,11.65,11.65,0,0,0,2.48,2.11L150,102.6l-.45.07c-1.35,1.88-4.26,2.43-5.87,1.1C142.69,103.25,142.07,102.22,141,101.83Z"/><path class="cls-37" d="M138.78,95.52a15.18,15.18,0,0,0-.29,3.62c-.28-1.77-1.6-3.15-1.87-4.92a7.52,7.52,0,0,1,.23-6.59c.33-.59.54-1.32,1.42-1.31.25,1.54-.43,3-.45,4.52a34,34,0,0,0,.28,3.77A.92.92,0,0,0,138.78,95.52Z"/><path class="cls-10" d="M143.68,103.77c2.13.56,4-.46,5.87-1.1l.15,1.31a4.5,4.5,0,0,1-4.32,2.28,2,2,0,0,1-1.73-.88Z"/><path class="cls-38" d="M136.85,87.63a33,33,0,0,0-.23,6.59A4.71,4.71,0,0,1,136.85,87.63Z"/><path class="cls-39" d="M142.36,104.27l-.56.3-1.11.27C141.13,104.32,141.61,103.87,142.36,104.27Z"/><path class="cls-23" d="M161.57,118l.78,3.55c-.27.36-.62.3-1,.2a5.68,5.68,0,0,0-5.61,1.69c-.37.34-.67.93-1.36.58-.67-4.07-1.53-8.11-2-12.2-.19-1.62-.42-3.24-.64-4.85a1.22,1.22,0,0,1,.41-1.23.86.86,0,0,0,.35-1.17,5.46,5.46,0,0,1,6.33,3.84c.45,1.28.88,2.56,1.32,3.85C161.33,113.53,162.12,116.68,161.57,118Z"/><path class="cls-36" d="M152,101.58c0-1.39,0-2.77,0-4.15.39.55.11,1.25.42,1.94a2.45,2.45,0,0,0,1.43-1.66,18.94,18.94,0,0,0,.85-5.23,13.53,13.53,0,0,1,.39-2.69c.41-1.57,1-2,2.64-1.9l.3.76a13.76,13.76,0,0,1-.41,7.73c-.15.52-.62.76-1,1.1A9.51,9.51,0,0,1,152,101.58Z"/><path class="cls-40" d="M156.61,97.48A22.31,22.31,0,0,0,157.72,90a2.15,2.15,0,0,1,.27-1.31c2.44-.39,3.8,2.42,3.07,4.26C160.21,95,159.44,97.26,156.61,97.48Z"/><path class="cls-16" d="M161.57,118a40.81,40.81,0,0,1-1.43-5.74c1.8-.35,2.71.68,3.3,2.17C163.47,116,163.22,117.35,161.57,118Z"/><path class="cls-41" d="M149.73,80.76l.82-.27a3,3,0,0,1,1.56.67A5.75,5.75,0,0,1,149.73,80.76Z"/><path class="cls-42" d="M165.37,128.4l1.08-.81a2,2,0,0,1-.56,1.64Z"/><path class="cls-24" d="M100.7,142.62c-.58.13-.75.65-1,1.09a1.12,1.12,0,0,0-.92-.72,13.38,13.38,0,0,1-8.21-4c-.09-.15-.18-.3-.26-.45a1.44,1.44,0,0,1-.68-1.88,1.17,1.17,0,0,1,.86-1,66.35,66.35,0,0,0,6.34-2.52,3.94,3.94,0,0,1,1.61-.24.94.94,0,0,1,.79.46,11.75,11.75,0,0,1,1.49,8.94C100.71,142.45,100.71,142.53,100.7,142.62Z"/><path class="cls-43" d="M86.21,134.46a4.5,4.5,0,0,1,.34-1.85,10.45,10.45,0,0,0,.77-2.74c1.12.34,2.07,1.13,3.25,1.3.15.47-.15.7-.51.81a4.45,4.45,0,0,0-2.42,2.27,1.21,1.21,0,0,1-1.18.75Z"/><path class="cls-44" d="M118.69,100.73l-1.55.81c-1.58.68-1.81.58-2.42-1.05a7.07,7.07,0,0,0-4.13-2.21,10.1,10.1,0,0,1-1.06-.24c-.72-.22-1.26-.65-1.08-1.48s.92-.83,1.54-.68a3,3,0,0,0,2.45-.51,2.45,2.45,0,0,0,1.31-2.75,4.21,4.21,0,0,0-3.35-2.84c-.58-.07-1.37.2-1.45-.8a3,3,0,0,1,3.66-.54,14.09,14.09,0,0,1,5.09,3.62,18.44,18.44,0,0,0,.8,1.83l1.73,3.23c1.19.84,1.24,1.42.19,2.3A7.66,7.66,0,0,1,118.69,100.73Z"/><path class="cls-44" d="M114.69,102.43c.14,2.23,2.38,4.47,0,6.38-1.1,1-1.79,1.21-2.19.92-.68-.47-.58-2.27-.31-3.8,2.07-.69-.79-4,2.2-3.83C114.68,102.09,114.81,102.16,114.69,102.43Z"/><path class="cls-45" d="M114.69,102.43l-.25-.33a3.31,3.31,0,0,1,.28-1.61,2.6,2.6,0,0,0,2.42,1.05A2,2,0,0,1,114.69,102.43Z"/><path class="cls-10" d="M103,113.61c-2.1,0-3.66-1.67-3.27-3.45.24-1.07.84-1.37,1.62-.66a12.22,12.22,0,0,0,3.48,1.83c.4.19,1,.17,1,.76s-.44.87-.86,1.15A3.23,3.23,0,0,1,103,113.61Z"/><path class="cls-26" d="M86.46,135c.8-1.89,1.92-3.44,4.11-3.83,1.68-.39,3.22-1.25,5-1.44a1,1,0,0,0,.24.05c.58.29,1.26.4,1.67,1,.27.42.66.75.91,1.17s.41.92-.09,1.33a64.82,64.82,0,0,1-8.23,3.3c-.64,0-1.27.08-1.9,0A1.62,1.62,0,0,1,86.46,135Z"/><path class="cls-46" d="M116.19,102.38c-.18-.14,3.63-2.76,3.92-2.94,1.16-.72.73-1.13.12-2.32,1-.39,1.77-.26,2.13.88A19.55,19.55,0,0,1,116.19,102.38Z"/><path class="cls-47" d="M107.06,118.16c2.09.32,2.36.13,4.33,1.07,1.87,1.17,3.13,2.17,3.23,4.32-.8-.16-3.94.07-5.68-.13.07-2.34.09-1.1-.45-3.56A6.34,6.34,0,0,0,107.06,118.16Z"/><path class="cls-48" d="M143.73,135.53a52.42,52.42,0,0,0-6.25,5.28c-.43.4-.79.9-1.42,1-1.85-2.21-3.92-4.07-6.94-4.48A14.78,14.78,0,0,0,124,138c-.68-.65-.71-.88-.16-1.72.66-1,1.81-1.46,2.64-2.3a10.87,10.87,0,0,1,3.29-2.35,1.25,1.25,0,0,1,.81,0A15.09,15.09,0,0,1,142,132.76,3.43,3.43,0,0,1,143.73,135.53Z"/><path class="cls-13" d="M127.84,116.92l6.58-2.17c.37.25.25.74.5,1-1.52,4.69-2.65,9.5-4.42,14.11a5.83,5.83,0,0,0-.23,1.19.73.73,0,0,1-.56.56,5.81,5.81,0,0,1-3-2.21Z"/><path class="cls-49" d="M154.4,124c2.61-3.1,4.38-3.65,7.95-2.47,2.43,1.23,3.16,2.65,2.79,5.4,0,.31,0,.63-.07,1a3.92,3.92,0,0,1-1.09-1.37c-.35-.83-.86-1.58-1.28-2.38a2.66,2.66,0,0,0-3-1.26,4.81,4.81,0,0,0-3.35,2.53,11,11,0,0,1-.81,1.41l-1.36,1.37C154.17,126.8,153.54,125.37,154.4,124Z"/><path class="cls-50" d="M144,136a6.26,6.26,0,0,1-2.75,2.12l2.67-2.33A.39.39,0,0,1,144,136Z"/><path class="cls-13" d="M134.92,115.79a1.16,1.16,0,0,1-.5-1l.8-.28Z"/><path class="cls-51" d="M129.69,131.4l.58-.31.31.51-.53.33C129.8,131.84,129.61,131.71,129.69,131.4Z"/><path class="cls-52" d="M155.52,126.83c-.42-2.69,2.78-4.71,4.77-4.71,2.3,0,3.61,1.56,3.69,4.41-2.3-1.72-4.71-1.38-7.15-.4C156.37,126.32,156,126.6,155.52,126.83Z"/><path class="cls-14" d="M98.26,133.27a4.63,4.63,0,0,0-1.37-2.08c-.23-.49-.74-.83-.8-1.42l0-.13c-.51-2-.21-3.17,1-3.74a3.61,3.61,0,0,1,4.43,1.41,23.24,23.24,0,0,1,3.92,12,1.32,1.32,0,0,1-1.17,1.54,7.68,7.68,0,0,0-3.47,1.48c-.27-1.87-.51-3.74-.83-5.6A6.16,6.16,0,0,0,98.26,133.27Z"/><path class="cls-53" d="M129.69,131.4l.36.53c-1.72,1.38-3.46,2.73-5.14,4.16-.54.46-1.26,1-.91,1.9-.3.21-.47,0-.68-.2a20.42,20.42,0,0,0-3.21-2.49c-4-2.62-6.91-2.23-10.08,1.35a3.25,3.25,0,0,1,1-3,8,8,0,0,1,4.36-2.4c3.76-.67,7.53-1.24,11.3-1.86A4.5,4.5,0,0,1,129.69,131.4Z"/><path class="cls-54" d="M122,125.08c.07-2.2.74-4.34.59-6.56.34-1,0-2,.16-3,1,.4,1.33,1.74,2.59,1.68a28.73,28.73,0,0,1-1,6.84C123.83,125.83,123.8,125.83,122,125.08Z"/><path class="cls-55" d="M96.09,129.77a3.05,3.05,0,0,1,.8,1.42,3.3,3.3,0,0,1-1.12-1.41Z"/><path class="cls-40" d="M148.38,101.29a2.48,2.48,0,0,1-2.43-1.11c-1-1.26-1.25-1.27-2.46-.15a1.56,1.56,0,0,1-1.93.4c.4-3,2.06-3.4,4.64-3.18,1,.08,1.35,1,1.61,1.81S148.19,100.55,148.38,101.29Z"/><path class="cls-56" d="M138.3,139.15c-.75.34-1.15,0-1.59-.34-1.71-1.19-3.37-2.42-5.56-2.73-.91-.13-1.77.31-2.6-.08C132.47,134.73,135.19,137.3,138.3,139.15Z"/><path class="cls-57" d="M136.87,136.35a9.07,9.07,0,0,1-1.57-.42,14.51,14.51,0,0,0-6.13-1.44c2.83-.53,5.3.53,7.71,1.85Z"/><path class="cls-58" d="M136.88,136.34c.82.41,1.79.61,2.1,1.67-.61-.67-1.63-.82-2.11-1.66Z"/><circle class="cls-59" cx="100.72" cy="104.45" r="1.09"/><circle class="cls-59" cx="110.05" cy="104.73" r="1.09"/><circle class="cls-59" cx="177.39" cy="139.8" r="1.09"/><circle class="cls-59" cx="140.99" cy="90.38" r="0.85"/><circle class="cls-59" cx="150.92" cy="90.52" r="0.85"/><rect class="cls-4" x="66.22" y="44.86" width="59.14" height="14.78" rx="0.69"/><rect class="cls-5" x="66.22" y="59.5" width="59.14" height="1.99" rx="0.25"/><rect class="cls-6" x="71.3" y="48.1" width="5.44" height="13.08" rx="0.44"/><rect class="cls-6" x="84.85" y="47.76" width="5.44" height="13.08" rx="0.44" transform="matrix(0.84, -0.54, 0.54, 0.84, -15.46, 55.76)"/><rect class="cls-7" x="66.62" y="46.55" width="4.68" height="14.64" rx="0.4"/><rect class="cls-7" x="76.74" y="45.43" width="5.18" height="15.75" rx="0.81"/><rect class="cls-6" x="114.92" y="48.1" width="5.15" height="13.08" rx="0.43"/><rect class="cls-7" x="110.48" y="46.55" width="4.43" height="14.64" rx="0.39"/><rect class="cls-7" x="120.07" y="45.43" width="4.91" height="15.75" rx="0.45"/><rect class="cls-8" x="99.77" y="50.54" width="4.2" height="17.24" rx="0.76" transform="translate(161.03 -42.7) rotate(90)"/><rect class="cls-9" x="101.94" y="48.52" width="1.53" height="15.55" rx="0.44" transform="translate(159.01 -46.41) rotate(90)"/><rect class="cls-8" x="102.17" y="47.33" width="1.08" height="15.55" rx="0.37" transform="translate(157.82 -47.6) rotate(90)"/><rect class="cls-9" x="103.92" y="48.08" width="1.08" height="12.05" rx="0.26" transform="translate(158.57 -50.35) rotate(90)"/><path class="cls-44" d="M114.74,108.81c-1.1,1-2.07,1.41-2.19.92a8.4,8.4,0,0,1-.31-3.8"/><path class="cls-60" d="M146.34,90.41s-2.3-1-2.71,1,2.56,1.46,2.56,1.46"/><path class="cls-60" d="M104.68,107s2.3-1,2.71,1-2.56,1.46-2.56,1.46"/></g></svg>