<svg width="375" height="562" viewBox="0 0 375 562" fill="none" xmlns="http://www.w3.org/2000/svg">
<path fill-rule="evenodd" clip-rule="evenodd" d="M0 561.206C-30.6307 525.171 -55.026 481.858 -74.9917 438.083C-118.459 342.78 -154.223 231.548 -102.184 140.641C-55.1077 58.4027 46.4233 40.8892 141.21 24.539C148.865 23.2185 156.477 21.9055 164.012 20.5667C170.671 19.3834 177.382 18.1633 184.131 16.9363C277.883 -0.109361 378.872 -18.471 450.411 42.4579C527.497 108.112 529.733 222.23 519.009 322.915C509.318 413.9 466.657 494.847 396.031 553.021C389.161 558.679 382.147 564.251 375 569.689V651H0V561.206Z" fill="url(#paint0_linear)"/>
<defs>
<linearGradient id="paint0_linear" x1="97.9588" y1="637.05" x2="275.965" y2="-21.1156" gradientUnits="userSpaceOnUse">
<stop stop-color="#202980"/>
<stop offset="1" stop-color="#5602B1"/>
</linearGradient>
</defs>
</svg>
